%TF.GenerationSoftware,KiCad,Pcbnew,(6.0.7)*%
%TF.CreationDate,2022-08-30T16:18:00+09:00*%
%TF.ProjectId,jongseol,6a6f6e67-7365-46f6-9c2e-6b696361645f,rev?*%
%TF.SameCoordinates,Original*%
%TF.FileFunction,Copper,L1,Top*%
%TF.FilePolarity,Positive*%
%FSLAX46Y46*%
G04 Gerber Fmt 4.6, Leading zero omitted, Abs format (unit mm)*
G04 Created by KiCad (PCBNEW (6.0.7)) date 2022-08-30 16:18:00*
%MOMM*%
%LPD*%
G01*
G04 APERTURE LIST*
%TA.AperFunction,ComponentPad*%
%ADD10R,1.700000X1.700000*%
%TD*%
%TA.AperFunction,ComponentPad*%
%ADD11O,1.700000X1.700000*%
%TD*%
%TA.AperFunction,ComponentPad*%
%ADD12R,1.524000X1.524000*%
%TD*%
%TA.AperFunction,ViaPad*%
%ADD13C,0.800000*%
%TD*%
%TA.AperFunction,Conductor*%
%ADD14C,0.250000*%
%TD*%
G04 APERTURE END LIST*
D10*
%TO.P,J4,1,Pin_1*%
%TO.N,GND*%
X193980000Y-92380000D03*
D11*
%TO.P,J4,2,Pin_2*%
X196520000Y-92380000D03*
%TO.P,J4,3,Pin_3*%
%TO.N,/\u002A52*%
X193980000Y-89840000D03*
%TO.P,J4,4,Pin_4*%
%TO.N,/53*%
X196520000Y-89840000D03*
%TO.P,J4,5,Pin_5*%
%TO.N,/50*%
X193980000Y-87300000D03*
%TO.P,J4,6,Pin_6*%
%TO.N,/51*%
X196520000Y-87300000D03*
%TO.P,J4,7,Pin_7*%
%TO.N,/48*%
X193980000Y-84760000D03*
%TO.P,J4,8,Pin_8*%
%TO.N,/49*%
X196520000Y-84760000D03*
%TO.P,J4,9,Pin_9*%
%TO.N,/\u002A46*%
X193980000Y-82220000D03*
%TO.P,J4,10,Pin_10*%
%TO.N,/47*%
X196520000Y-82220000D03*
%TO.P,J4,11,Pin_11*%
%TO.N,/\u002A44*%
X193980000Y-79680000D03*
%TO.P,J4,12,Pin_12*%
%TO.N,/\u002A45*%
X196520000Y-79680000D03*
%TO.P,J4,13,Pin_13*%
%TO.N,/42*%
X193980000Y-77140000D03*
%TO.P,J4,14,Pin_14*%
%TO.N,/43*%
X196520000Y-77140000D03*
%TO.P,J4,15,Pin_15*%
%TO.N,/40*%
X193980000Y-74600000D03*
%TO.P,J4,16,Pin_16*%
%TO.N,/41*%
X196520000Y-74600000D03*
%TO.P,J4,17,Pin_17*%
%TO.N,/38*%
X193980000Y-72060000D03*
%TO.P,J4,18,Pin_18*%
%TO.N,/39*%
X196520000Y-72060000D03*
%TO.P,J4,19,Pin_19*%
%TO.N,/36*%
X193980000Y-69520000D03*
%TO.P,J4,20,Pin_20*%
%TO.N,/37*%
X196520000Y-69520000D03*
%TO.P,J4,21,Pin_21*%
%TO.N,/34*%
X193980000Y-66980000D03*
%TO.P,J4,22,Pin_22*%
%TO.N,/35*%
X196520000Y-66980000D03*
%TO.P,J4,23,Pin_23*%
%TO.N,/32*%
X193980000Y-64440000D03*
%TO.P,J4,24,Pin_24*%
%TO.N,/33*%
X196520000Y-64440000D03*
%TO.P,J4,25,Pin_25*%
%TO.N,/30*%
X193980000Y-61900000D03*
%TO.P,J4,26,Pin_26*%
%TO.N,/31*%
X196520000Y-61900000D03*
%TO.P,J4,27,Pin_27*%
%TO.N,/28*%
X193980000Y-59360000D03*
%TO.P,J4,28,Pin_28*%
%TO.N,/29*%
X196520000Y-59360000D03*
%TO.P,J4,29,Pin_29*%
%TO.N,/26*%
X193980000Y-56820000D03*
%TO.P,J4,30,Pin_30*%
%TO.N,/27*%
X196520000Y-56820000D03*
%TO.P,J4,31,Pin_31*%
%TO.N,/24*%
X193980000Y-54280000D03*
%TO.P,J4,32,Pin_32*%
%TO.N,/25*%
X196520000Y-54280000D03*
%TO.P,J4,33,Pin_33*%
%TO.N,/22*%
X193980000Y-51740000D03*
%TO.P,J4,34,Pin_34*%
%TO.N,/23*%
X196520000Y-51740000D03*
%TO.P,J4,35,Pin_35*%
%TO.N,+5V*%
X193980000Y-49200000D03*
%TO.P,J4,36,Pin_36*%
X196520000Y-49200000D03*
%TD*%
D10*
%TO.P,J1,1,Pin_1*%
%TO.N,unconnected-(J1-Pad1)*%
X127940000Y-97460000D03*
D11*
%TO.P,J1,2,Pin_2*%
%TO.N,/IOREF*%
X130480000Y-97460000D03*
%TO.P,J1,3,Pin_3*%
%TO.N,/~{RESET}*%
X133020000Y-97460000D03*
%TO.P,J1,4,Pin_4*%
%TO.N,+3V3*%
X135560000Y-97460000D03*
%TO.P,J1,5,Pin_5*%
%TO.N,+5V*%
X138100000Y-97460000D03*
%TO.P,J1,6,Pin_6*%
%TO.N,GND*%
X140640000Y-97460000D03*
%TO.P,J1,7,Pin_7*%
X143180000Y-97460000D03*
%TO.P,J1,8,Pin_8*%
%TO.N,VCC*%
X145720000Y-97460000D03*
%TD*%
D10*
%TO.P,J2,1,Pin_1*%
%TO.N,Relay_1*%
X150800000Y-97460000D03*
D11*
%TO.P,J2,2,Pin_2*%
%TO.N,Relay_2*%
X153340000Y-97460000D03*
%TO.P,J2,3,Pin_3*%
%TO.N,Relay_3*%
X155880000Y-97460000D03*
%TO.P,J2,4,Pin_4*%
%TO.N,Relay_4*%
X158420000Y-97460000D03*
%TO.P,J2,5,Pin_5*%
%TO.N,Relay_5*%
X160960000Y-97460000D03*
%TO.P,J2,6,Pin_6*%
%TO.N,Relay_6*%
X163500000Y-97460000D03*
%TO.P,J2,7,Pin_7*%
%TO.N,Relay_7*%
X166040000Y-97460000D03*
%TO.P,J2,8,Pin_8*%
%TO.N,Relay_8*%
X168580000Y-97460000D03*
%TD*%
D10*
%TO.P,J3,1,Pin_1*%
%TO.N,/A8*%
X173660000Y-97460000D03*
D11*
%TO.P,J3,2,Pin_2*%
%TO.N,/A9*%
X176200000Y-97460000D03*
%TO.P,J3,3,Pin_3*%
%TO.N,/A10*%
X178740000Y-97460000D03*
%TO.P,J3,4,Pin_4*%
%TO.N,/A11*%
X181280000Y-97460000D03*
%TO.P,J3,5,Pin_5*%
%TO.N,/A12*%
X183820000Y-97460000D03*
%TO.P,J3,6,Pin_6*%
%TO.N,/A13*%
X186360000Y-97460000D03*
%TO.P,J3,7,Pin_7*%
%TO.N,/A14*%
X188900000Y-97460000D03*
%TO.P,J3,8,Pin_8*%
%TO.N,/A15*%
X191440000Y-97460000D03*
%TD*%
D10*
%TO.P,J5,1,Pin_1*%
%TO.N,/SCL{slash}21*%
X118796000Y-49200000D03*
D11*
%TO.P,J5,2,Pin_2*%
%TO.N,/SDA{slash}20*%
X121336000Y-49200000D03*
%TO.P,J5,3,Pin_3*%
%TO.N,/AREF*%
X123876000Y-49200000D03*
%TO.P,J5,4,Pin_4*%
%TO.N,GND*%
X126416000Y-49200000D03*
%TO.P,J5,5,Pin_5*%
%TO.N,/\u002A13*%
X128956000Y-49200000D03*
%TO.P,J5,6,Pin_6*%
%TO.N,/\u002A12*%
X131496000Y-49200000D03*
%TO.P,J5,7,Pin_7*%
%TO.N,/\u002A11*%
X134036000Y-49200000D03*
%TO.P,J5,8,Pin_8*%
%TO.N,/\u002A10*%
X136576000Y-49200000D03*
%TO.P,J5,9,Pin_9*%
%TO.N,Trig*%
X139116000Y-49200000D03*
%TO.P,J5,10,Pin_10*%
%TO.N,Echo*%
X141656000Y-49200000D03*
%TD*%
D10*
%TO.P,J6,1,Pin_1*%
%TO.N,/\u002A7*%
X145720000Y-49200000D03*
D11*
%TO.P,J6,2,Pin_2*%
%TO.N,/\u002A6*%
X148260000Y-49200000D03*
%TO.P,J6,3,Pin_3*%
%TO.N,/\u002A5*%
X150800000Y-49200000D03*
%TO.P,J6,4,Pin_4*%
%TO.N,/\u002A4*%
X153340000Y-49200000D03*
%TO.P,J6,5,Pin_5*%
%TO.N,/\u002A3*%
X155880000Y-49200000D03*
%TO.P,J6,6,Pin_6*%
%TO.N,/\u002A2*%
X158420000Y-49200000D03*
%TO.P,J6,7,Pin_7*%
%TO.N,TX*%
X160960000Y-49200000D03*
%TO.P,J6,8,Pin_8*%
%TO.N,RX*%
X163500000Y-49200000D03*
%TD*%
D10*
%TO.P,J7,1,Pin_1*%
%TO.N,/TX3{slash}14*%
X168580000Y-49200000D03*
D11*
%TO.P,J7,2,Pin_2*%
%TO.N,/RX3{slash}15*%
X171120000Y-49200000D03*
%TO.P,J7,3,Pin_3*%
%TO.N,/TX2{slash}16*%
X173660000Y-49200000D03*
%TO.P,J7,4,Pin_4*%
%TO.N,/RX2{slash}17*%
X176200000Y-49200000D03*
%TO.P,J7,5,Pin_5*%
%TO.N,/TX1{slash}18*%
X178740000Y-49200000D03*
%TO.P,J7,6,Pin_6*%
%TO.N,/RX1{slash}19*%
X181280000Y-49200000D03*
%TO.P,J7,7,Pin_7*%
%TO.N,/SDA{slash}20*%
X183820000Y-49200000D03*
%TO.P,J7,8,Pin_8*%
%TO.N,/SCL{slash}21*%
X186360000Y-49200000D03*
%TD*%
D10*
%TO.P,Relay,1,GND*%
%TO.N,GND*%
X148665000Y-91905000D03*
%TO.P,Relay,2,IN1*%
%TO.N,Relay_1*%
X151205000Y-91905000D03*
%TO.P,Relay,3,IN2*%
%TO.N,Relay_2*%
X153745000Y-91905000D03*
%TO.P,Relay,4,IN3*%
%TO.N,Relay_3*%
X156285000Y-91905000D03*
%TO.P,Relay,5,IN4*%
%TO.N,Relay_4*%
X158825000Y-91905000D03*
%TO.P,Relay,6,IN5*%
%TO.N,Relay_5*%
X161365000Y-91905000D03*
%TO.P,Relay,7,IN6*%
%TO.N,Relay_6*%
X163905000Y-91905000D03*
%TO.P,Relay,8,IN7*%
%TO.N,Relay_7*%
X166445000Y-91905000D03*
%TO.P,Relay,9,IN8*%
%TO.N,Relay_8*%
X168985000Y-91905000D03*
%TO.P,Relay,10,VCC*%
%TO.N,+5V*%
X171525000Y-91905000D03*
%TD*%
%TO.P,E1,1,5V*%
%TO.N,+5V*%
X124675000Y-86225000D03*
%TO.P,E1,2,GND*%
%TO.N,GND*%
X127215000Y-86225000D03*
%TO.P,E1,3*%
%TO.N,unconnected-(E1-Pad3)*%
X129755000Y-86225000D03*
%TO.P,E1,4*%
%TO.N,unconnected-(E1-Pad4)*%
X132295000Y-86225000D03*
%TO.P,E1,5*%
%TO.N,unconnected-(E1-Pad5)*%
X134835000Y-86225000D03*
D12*
%TO.P,E1,6*%
%TO.N,unconnected-(E1-Pad6)*%
X137375000Y-86225000D03*
D10*
%TO.P,E1,7*%
%TO.N,unconnected-(E1-Pad7)*%
X139915000Y-86225000D03*
%TO.P,E1,8*%
%TO.N,unconnected-(E1-Pad8)*%
X142455000Y-86225000D03*
%TO.P,E1,9*%
%TO.N,unconnected-(E1-Pad9)*%
X142455000Y-63585000D03*
%TO.P,E1,10,TX*%
%TO.N,TX*%
X139915000Y-63585000D03*
%TO.P,E1,11,RX*%
%TO.N,RX*%
X137375000Y-63585000D03*
%TO.P,E1,12*%
%TO.N,unconnected-(E1-Pad12)*%
X134835000Y-63585000D03*
%TO.P,E1,13*%
%TO.N,unconnected-(E1-Pad13)*%
X132295000Y-63585000D03*
%TO.P,E1,14*%
%TO.N,unconnected-(E1-Pad14)*%
X129755000Y-63585000D03*
%TO.P,E1,15*%
%TO.N,unconnected-(E1-Pad15)*%
X127215000Y-63585000D03*
%TO.P,E1,16*%
%TO.N,unconnected-(E1-Pad16)*%
X124675000Y-63585000D03*
%TD*%
%TO.P,Ultrasonic,1,VCC*%
%TO.N,+5V*%
X130285000Y-56905000D03*
%TO.P,Ultrasonic,2,Trig*%
%TO.N,Trig*%
X132825000Y-56905000D03*
%TO.P,Ultrasonic,3,Echo*%
%TO.N,Echo*%
X135365000Y-56905000D03*
%TO.P,Ultrasonic,4,GND*%
%TO.N,GND*%
X137905000Y-56905000D03*
%TD*%
D13*
%TO.N,TX*%
X159000000Y-53000000D03*
%TD*%
D14*
%TO.N,+5V*%
X124675000Y-89675000D02*
X129000000Y-94000000D01*
X125095000Y-56905000D02*
X130285000Y-56905000D01*
X134640000Y-94000000D02*
X138100000Y-97460000D01*
X190000000Y-53180000D02*
X190000000Y-91000000D01*
X167620000Y-88000000D02*
X171525000Y-91905000D01*
X122000000Y-60000000D02*
X125095000Y-56905000D01*
X122000000Y-83550000D02*
X124675000Y-86225000D01*
X124675000Y-86225000D02*
X124675000Y-89675000D01*
X189095000Y-91905000D02*
X171525000Y-91905000D01*
X145000000Y-88000000D02*
X167620000Y-88000000D01*
X129000000Y-94000000D02*
X134640000Y-94000000D01*
X193980000Y-49200000D02*
X196520000Y-49200000D01*
X190000000Y-91000000D02*
X189095000Y-91905000D01*
X138100000Y-97460000D02*
X144000000Y-91560000D01*
X193980000Y-49200000D02*
X190000000Y-53180000D01*
X144000000Y-89000000D02*
X145000000Y-88000000D01*
X144000000Y-91560000D02*
X144000000Y-89000000D01*
X122000000Y-60000000D02*
X122000000Y-83550000D01*
%TO.N,TX*%
X139915000Y-63585000D02*
X150500000Y-53000000D01*
X150500000Y-53000000D02*
X159000000Y-53000000D01*
%TO.N,RX*%
X162000000Y-52000000D02*
X163500000Y-50500000D01*
X148960000Y-52000000D02*
X162000000Y-52000000D01*
X163500000Y-50500000D02*
X163500000Y-49200000D01*
X137375000Y-63585000D02*
X148960000Y-52000000D01*
%TO.N,Relay_1*%
X151205000Y-91905000D02*
X151205000Y-97055000D01*
X151205000Y-97055000D02*
X150800000Y-97460000D01*
%TO.N,Relay_2*%
X153745000Y-97055000D02*
X153340000Y-97460000D01*
X153745000Y-91905000D02*
X153745000Y-97055000D01*
%TO.N,Relay_3*%
X156285000Y-97055000D02*
X155880000Y-97460000D01*
X156285000Y-91905000D02*
X156285000Y-97055000D01*
%TO.N,Relay_4*%
X158825000Y-91905000D02*
X158825000Y-97055000D01*
X158825000Y-97055000D02*
X158420000Y-97460000D01*
%TO.N,Relay_5*%
X161365000Y-91905000D02*
X161365000Y-97055000D01*
X161365000Y-97055000D02*
X160960000Y-97460000D01*
%TO.N,Relay_6*%
X163905000Y-91905000D02*
X163905000Y-97055000D01*
X163905000Y-97055000D02*
X163500000Y-97460000D01*
%TO.N,Relay_7*%
X166445000Y-91905000D02*
X166445000Y-97055000D01*
X166445000Y-97055000D02*
X166040000Y-97460000D01*
%TO.N,Relay_8*%
X168985000Y-91905000D02*
X168985000Y-97055000D01*
X168985000Y-97055000D02*
X168580000Y-97460000D01*
%TO.N,Trig*%
X132825000Y-55491000D02*
X139116000Y-49200000D01*
X132825000Y-55491000D02*
X132825000Y-56905000D01*
%TO.N,Echo*%
X135365000Y-55491000D02*
X141656000Y-49200000D01*
X135365000Y-55491000D02*
X135365000Y-56905000D01*
%TD*%
M02*
