%TF.GenerationSoftware,KiCad,Pcbnew,(6.0.7)*%
%TF.CreationDate,2022-08-30T16:18:00+09:00*%
%TF.ProjectId,jongseol,6a6f6e67-7365-46f6-9c2e-6b696361645f,rev?*%
%TF.SameCoordinates,Original*%
%TF.FileFunction,Copper,L2,Bot*%
%TF.FilePolarity,Positive*%
%FSLAX46Y46*%
G04 Gerber Fmt 4.6, Leading zero omitted, Abs format (unit mm)*
G04 Created by KiCad (PCBNEW (6.0.7)) date 2022-08-30 16:18:00*
%MOMM*%
%LPD*%
G01*
G04 APERTURE LIST*
%TA.AperFunction,ComponentPad*%
%ADD10R,1.700000X1.700000*%
%TD*%
%TA.AperFunction,ComponentPad*%
%ADD11O,1.700000X1.700000*%
%TD*%
%TA.AperFunction,ComponentPad*%
%ADD12R,1.524000X1.524000*%
%TD*%
%TA.AperFunction,ViaPad*%
%ADD13C,0.800000*%
%TD*%
%TA.AperFunction,Conductor*%
%ADD14C,0.250000*%
%TD*%
G04 APERTURE END LIST*
D10*
%TO.P,J4,1,Pin_1*%
%TO.N,GND*%
X193980000Y-92380000D03*
D11*
%TO.P,J4,2,Pin_2*%
X196520000Y-92380000D03*
%TO.P,J4,3,Pin_3*%
%TO.N,/\u002A52*%
X193980000Y-89840000D03*
%TO.P,J4,4,Pin_4*%
%TO.N,/53*%
X196520000Y-89840000D03*
%TO.P,J4,5,Pin_5*%
%TO.N,/50*%
X193980000Y-87300000D03*
%TO.P,J4,6,Pin_6*%
%TO.N,/51*%
X196520000Y-87300000D03*
%TO.P,J4,7,Pin_7*%
%TO.N,/48*%
X193980000Y-84760000D03*
%TO.P,J4,8,Pin_8*%
%TO.N,/49*%
X196520000Y-84760000D03*
%TO.P,J4,9,Pin_9*%
%TO.N,/\u002A46*%
X193980000Y-82220000D03*
%TO.P,J4,10,Pin_10*%
%TO.N,/47*%
X196520000Y-82220000D03*
%TO.P,J4,11,Pin_11*%
%TO.N,/\u002A44*%
X193980000Y-79680000D03*
%TO.P,J4,12,Pin_12*%
%TO.N,/\u002A45*%
X196520000Y-79680000D03*
%TO.P,J4,13,Pin_13*%
%TO.N,/42*%
X193980000Y-77140000D03*
%TO.P,J4,14,Pin_14*%
%TO.N,/43*%
X196520000Y-77140000D03*
%TO.P,J4,15,Pin_15*%
%TO.N,/40*%
X193980000Y-74600000D03*
%TO.P,J4,16,Pin_16*%
%TO.N,/41*%
X196520000Y-74600000D03*
%TO.P,J4,17,Pin_17*%
%TO.N,/38*%
X193980000Y-72060000D03*
%TO.P,J4,18,Pin_18*%
%TO.N,/39*%
X196520000Y-72060000D03*
%TO.P,J4,19,Pin_19*%
%TO.N,/36*%
X193980000Y-69520000D03*
%TO.P,J4,20,Pin_20*%
%TO.N,/37*%
X196520000Y-69520000D03*
%TO.P,J4,21,Pin_21*%
%TO.N,/34*%
X193980000Y-66980000D03*
%TO.P,J4,22,Pin_22*%
%TO.N,/35*%
X196520000Y-66980000D03*
%TO.P,J4,23,Pin_23*%
%TO.N,/32*%
X193980000Y-64440000D03*
%TO.P,J4,24,Pin_24*%
%TO.N,/33*%
X196520000Y-64440000D03*
%TO.P,J4,25,Pin_25*%
%TO.N,/30*%
X193980000Y-61900000D03*
%TO.P,J4,26,Pin_26*%
%TO.N,/31*%
X196520000Y-61900000D03*
%TO.P,J4,27,Pin_27*%
%TO.N,/28*%
X193980000Y-59360000D03*
%TO.P,J4,28,Pin_28*%
%TO.N,/29*%
X196520000Y-59360000D03*
%TO.P,J4,29,Pin_29*%
%TO.N,/26*%
X193980000Y-56820000D03*
%TO.P,J4,30,Pin_30*%
%TO.N,/27*%
X196520000Y-56820000D03*
%TO.P,J4,31,Pin_31*%
%TO.N,/24*%
X193980000Y-54280000D03*
%TO.P,J4,32,Pin_32*%
%TO.N,/25*%
X196520000Y-54280000D03*
%TO.P,J4,33,Pin_33*%
%TO.N,/22*%
X193980000Y-51740000D03*
%TO.P,J4,34,Pin_34*%
%TO.N,/23*%
X196520000Y-51740000D03*
%TO.P,J4,35,Pin_35*%
%TO.N,+5V*%
X193980000Y-49200000D03*
%TO.P,J4,36,Pin_36*%
X196520000Y-49200000D03*
%TD*%
D10*
%TO.P,J1,1,Pin_1*%
%TO.N,unconnected-(J1-Pad1)*%
X127940000Y-97460000D03*
D11*
%TO.P,J1,2,Pin_2*%
%TO.N,/IOREF*%
X130480000Y-97460000D03*
%TO.P,J1,3,Pin_3*%
%TO.N,/~{RESET}*%
X133020000Y-97460000D03*
%TO.P,J1,4,Pin_4*%
%TO.N,+3V3*%
X135560000Y-97460000D03*
%TO.P,J1,5,Pin_5*%
%TO.N,+5V*%
X138100000Y-97460000D03*
%TO.P,J1,6,Pin_6*%
%TO.N,GND*%
X140640000Y-97460000D03*
%TO.P,J1,7,Pin_7*%
X143180000Y-97460000D03*
%TO.P,J1,8,Pin_8*%
%TO.N,VCC*%
X145720000Y-97460000D03*
%TD*%
D10*
%TO.P,J2,1,Pin_1*%
%TO.N,Relay_1*%
X150800000Y-97460000D03*
D11*
%TO.P,J2,2,Pin_2*%
%TO.N,Relay_2*%
X153340000Y-97460000D03*
%TO.P,J2,3,Pin_3*%
%TO.N,Relay_3*%
X155880000Y-97460000D03*
%TO.P,J2,4,Pin_4*%
%TO.N,Relay_4*%
X158420000Y-97460000D03*
%TO.P,J2,5,Pin_5*%
%TO.N,Relay_5*%
X160960000Y-97460000D03*
%TO.P,J2,6,Pin_6*%
%TO.N,Relay_6*%
X163500000Y-97460000D03*
%TO.P,J2,7,Pin_7*%
%TO.N,Relay_7*%
X166040000Y-97460000D03*
%TO.P,J2,8,Pin_8*%
%TO.N,Relay_8*%
X168580000Y-97460000D03*
%TD*%
D10*
%TO.P,J3,1,Pin_1*%
%TO.N,/A8*%
X173660000Y-97460000D03*
D11*
%TO.P,J3,2,Pin_2*%
%TO.N,/A9*%
X176200000Y-97460000D03*
%TO.P,J3,3,Pin_3*%
%TO.N,/A10*%
X178740000Y-97460000D03*
%TO.P,J3,4,Pin_4*%
%TO.N,/A11*%
X181280000Y-97460000D03*
%TO.P,J3,5,Pin_5*%
%TO.N,/A12*%
X183820000Y-97460000D03*
%TO.P,J3,6,Pin_6*%
%TO.N,/A13*%
X186360000Y-97460000D03*
%TO.P,J3,7,Pin_7*%
%TO.N,/A14*%
X188900000Y-97460000D03*
%TO.P,J3,8,Pin_8*%
%TO.N,/A15*%
X191440000Y-97460000D03*
%TD*%
D10*
%TO.P,J5,1,Pin_1*%
%TO.N,/SCL{slash}21*%
X118796000Y-49200000D03*
D11*
%TO.P,J5,2,Pin_2*%
%TO.N,/SDA{slash}20*%
X121336000Y-49200000D03*
%TO.P,J5,3,Pin_3*%
%TO.N,/AREF*%
X123876000Y-49200000D03*
%TO.P,J5,4,Pin_4*%
%TO.N,GND*%
X126416000Y-49200000D03*
%TO.P,J5,5,Pin_5*%
%TO.N,/\u002A13*%
X128956000Y-49200000D03*
%TO.P,J5,6,Pin_6*%
%TO.N,/\u002A12*%
X131496000Y-49200000D03*
%TO.P,J5,7,Pin_7*%
%TO.N,/\u002A11*%
X134036000Y-49200000D03*
%TO.P,J5,8,Pin_8*%
%TO.N,/\u002A10*%
X136576000Y-49200000D03*
%TO.P,J5,9,Pin_9*%
%TO.N,Trig*%
X139116000Y-49200000D03*
%TO.P,J5,10,Pin_10*%
%TO.N,Echo*%
X141656000Y-49200000D03*
%TD*%
D10*
%TO.P,J6,1,Pin_1*%
%TO.N,/\u002A7*%
X145720000Y-49200000D03*
D11*
%TO.P,J6,2,Pin_2*%
%TO.N,/\u002A6*%
X148260000Y-49200000D03*
%TO.P,J6,3,Pin_3*%
%TO.N,/\u002A5*%
X150800000Y-49200000D03*
%TO.P,J6,4,Pin_4*%
%TO.N,/\u002A4*%
X153340000Y-49200000D03*
%TO.P,J6,5,Pin_5*%
%TO.N,/\u002A3*%
X155880000Y-49200000D03*
%TO.P,J6,6,Pin_6*%
%TO.N,/\u002A2*%
X158420000Y-49200000D03*
%TO.P,J6,7,Pin_7*%
%TO.N,TX*%
X160960000Y-49200000D03*
%TO.P,J6,8,Pin_8*%
%TO.N,RX*%
X163500000Y-49200000D03*
%TD*%
D10*
%TO.P,J7,1,Pin_1*%
%TO.N,/TX3{slash}14*%
X168580000Y-49200000D03*
D11*
%TO.P,J7,2,Pin_2*%
%TO.N,/RX3{slash}15*%
X171120000Y-49200000D03*
%TO.P,J7,3,Pin_3*%
%TO.N,/TX2{slash}16*%
X173660000Y-49200000D03*
%TO.P,J7,4,Pin_4*%
%TO.N,/RX2{slash}17*%
X176200000Y-49200000D03*
%TO.P,J7,5,Pin_5*%
%TO.N,/TX1{slash}18*%
X178740000Y-49200000D03*
%TO.P,J7,6,Pin_6*%
%TO.N,/RX1{slash}19*%
X181280000Y-49200000D03*
%TO.P,J7,7,Pin_7*%
%TO.N,/SDA{slash}20*%
X183820000Y-49200000D03*
%TO.P,J7,8,Pin_8*%
%TO.N,/SCL{slash}21*%
X186360000Y-49200000D03*
%TD*%
D10*
%TO.P,Relay,1,GND*%
%TO.N,GND*%
X148665000Y-91905000D03*
%TO.P,Relay,2,IN1*%
%TO.N,Relay_1*%
X151205000Y-91905000D03*
%TO.P,Relay,3,IN2*%
%TO.N,Relay_2*%
X153745000Y-91905000D03*
%TO.P,Relay,4,IN3*%
%TO.N,Relay_3*%
X156285000Y-91905000D03*
%TO.P,Relay,5,IN4*%
%TO.N,Relay_4*%
X158825000Y-91905000D03*
%TO.P,Relay,6,IN5*%
%TO.N,Relay_5*%
X161365000Y-91905000D03*
%TO.P,Relay,7,IN6*%
%TO.N,Relay_6*%
X163905000Y-91905000D03*
%TO.P,Relay,8,IN7*%
%TO.N,Relay_7*%
X166445000Y-91905000D03*
%TO.P,Relay,9,IN8*%
%TO.N,Relay_8*%
X168985000Y-91905000D03*
%TO.P,Relay,10,VCC*%
%TO.N,+5V*%
X171525000Y-91905000D03*
%TD*%
%TO.P,E1,1,5V*%
%TO.N,+5V*%
X124675000Y-86225000D03*
%TO.P,E1,2,GND*%
%TO.N,GND*%
X127215000Y-86225000D03*
%TO.P,E1,3*%
%TO.N,unconnected-(E1-Pad3)*%
X129755000Y-86225000D03*
%TO.P,E1,4*%
%TO.N,unconnected-(E1-Pad4)*%
X132295000Y-86225000D03*
%TO.P,E1,5*%
%TO.N,unconnected-(E1-Pad5)*%
X134835000Y-86225000D03*
D12*
%TO.P,E1,6*%
%TO.N,unconnected-(E1-Pad6)*%
X137375000Y-86225000D03*
D10*
%TO.P,E1,7*%
%TO.N,unconnected-(E1-Pad7)*%
X139915000Y-86225000D03*
%TO.P,E1,8*%
%TO.N,unconnected-(E1-Pad8)*%
X142455000Y-86225000D03*
%TO.P,E1,9*%
%TO.N,unconnected-(E1-Pad9)*%
X142455000Y-63585000D03*
%TO.P,E1,10,TX*%
%TO.N,TX*%
X139915000Y-63585000D03*
%TO.P,E1,11,RX*%
%TO.N,RX*%
X137375000Y-63585000D03*
%TO.P,E1,12*%
%TO.N,unconnected-(E1-Pad12)*%
X134835000Y-63585000D03*
%TO.P,E1,13*%
%TO.N,unconnected-(E1-Pad13)*%
X132295000Y-63585000D03*
%TO.P,E1,14*%
%TO.N,unconnected-(E1-Pad14)*%
X129755000Y-63585000D03*
%TO.P,E1,15*%
%TO.N,unconnected-(E1-Pad15)*%
X127215000Y-63585000D03*
%TO.P,E1,16*%
%TO.N,unconnected-(E1-Pad16)*%
X124675000Y-63585000D03*
%TD*%
%TO.P,Ultrasonic,1,VCC*%
%TO.N,+5V*%
X130285000Y-56905000D03*
%TO.P,Ultrasonic,2,Trig*%
%TO.N,Trig*%
X132825000Y-56905000D03*
%TO.P,Ultrasonic,3,Echo*%
%TO.N,Echo*%
X135365000Y-56905000D03*
%TO.P,Ultrasonic,4,GND*%
%TO.N,GND*%
X137905000Y-56905000D03*
%TD*%
D13*
%TO.N,TX*%
X159000000Y-53000000D03*
%TD*%
D14*
%TO.N,TX*%
X160960000Y-51040000D02*
X160960000Y-49200000D01*
X159000000Y-53000000D02*
X160960000Y-51040000D01*
%TO.N,/SDA{slash}20*%
X148000000Y-52000000D02*
X124136000Y-52000000D01*
X179020000Y-54000000D02*
X150000000Y-54000000D01*
X150000000Y-54000000D02*
X148000000Y-52000000D01*
X183820000Y-49200000D02*
X179020000Y-54000000D01*
X124136000Y-52000000D02*
X121336000Y-49200000D01*
%TO.N,/SCL{slash}21*%
X122596000Y-53000000D02*
X147000000Y-53000000D01*
X147000000Y-53000000D02*
X149000000Y-55000000D01*
X180560000Y-55000000D02*
X186360000Y-49200000D01*
X149000000Y-55000000D02*
X180560000Y-55000000D01*
X118796000Y-49200000D02*
X122596000Y-53000000D01*
%TD*%
%TA.AperFunction,Conductor*%
%TO.N,GND*%
G36*
X114133264Y-47188502D02*
G01*
X114179757Y-47242158D01*
X114189861Y-47312432D01*
X114160367Y-47377012D01*
X114137594Y-47397587D01*
X114125163Y-47406324D01*
X113909977Y-47557559D01*
X113699378Y-47753260D01*
X113517287Y-47975732D01*
X113367073Y-48220858D01*
X113365347Y-48224791D01*
X113365346Y-48224792D01*
X113313835Y-48342138D01*
X113251517Y-48484102D01*
X113250342Y-48488229D01*
X113250341Y-48488230D01*
X113246967Y-48500074D01*
X113172756Y-48760594D01*
X113132249Y-49045216D01*
X113132227Y-49049505D01*
X113132226Y-49049512D01*
X113130765Y-49328417D01*
X113130743Y-49332703D01*
X113168268Y-49617734D01*
X113244129Y-49895036D01*
X113245813Y-49898984D01*
X113341202Y-50122618D01*
X113356923Y-50159476D01*
X113403637Y-50237529D01*
X113484235Y-50372198D01*
X113504561Y-50406161D01*
X113684313Y-50630528D01*
X113892851Y-50828423D01*
X114126317Y-50996186D01*
X114130112Y-50998195D01*
X114130113Y-50998196D01*
X114151869Y-51009715D01*
X114380392Y-51130712D01*
X114404699Y-51139607D01*
X114639194Y-51225420D01*
X114650373Y-51229511D01*
X114931264Y-51290755D01*
X114959841Y-51293004D01*
X115154282Y-51308307D01*
X115154291Y-51308307D01*
X115156739Y-51308500D01*
X115312271Y-51308500D01*
X115314407Y-51308354D01*
X115314418Y-51308354D01*
X115522548Y-51294165D01*
X115522554Y-51294164D01*
X115526825Y-51293873D01*
X115531020Y-51293004D01*
X115531022Y-51293004D01*
X115712422Y-51255438D01*
X115808342Y-51235574D01*
X116079343Y-51139607D01*
X116334812Y-51007750D01*
X116338313Y-51005289D01*
X116338317Y-51005287D01*
X116518857Y-50878401D01*
X116570023Y-50842441D01*
X116648403Y-50769606D01*
X116777479Y-50649661D01*
X116777481Y-50649658D01*
X116780622Y-50646740D01*
X116962713Y-50424268D01*
X117112927Y-50179142D01*
X117116927Y-50170031D01*
X117196127Y-49989607D01*
X117241823Y-49935271D01*
X117309641Y-49914266D01*
X117378049Y-49933260D01*
X117425329Y-49986224D01*
X117437500Y-50040252D01*
X117437500Y-50098134D01*
X117444255Y-50160316D01*
X117495385Y-50296705D01*
X117582739Y-50413261D01*
X117699295Y-50500615D01*
X117835684Y-50551745D01*
X117897866Y-50558500D01*
X119206406Y-50558500D01*
X119274527Y-50578502D01*
X119295501Y-50595405D01*
X122092343Y-53392247D01*
X122099887Y-53400537D01*
X122104000Y-53407018D01*
X122109777Y-53412443D01*
X122153667Y-53453658D01*
X122156509Y-53456413D01*
X122176231Y-53476135D01*
X122179355Y-53478558D01*
X122179359Y-53478562D01*
X122179424Y-53478612D01*
X122188445Y-53486317D01*
X122220679Y-53516586D01*
X122227627Y-53520405D01*
X122227629Y-53520407D01*
X122238432Y-53526346D01*
X122254959Y-53537202D01*
X122264698Y-53544757D01*
X122264700Y-53544758D01*
X122270960Y-53549614D01*
X122311540Y-53567174D01*
X122322188Y-53572391D01*
X122360940Y-53593695D01*
X122368616Y-53595666D01*
X122368619Y-53595667D01*
X122380562Y-53598733D01*
X122399267Y-53605137D01*
X122417855Y-53613181D01*
X122425678Y-53614420D01*
X122425688Y-53614423D01*
X122461524Y-53620099D01*
X122473144Y-53622505D01*
X122508149Y-53631492D01*
X122515970Y-53633500D01*
X122536224Y-53633500D01*
X122555934Y-53635051D01*
X122575943Y-53638220D01*
X122583835Y-53637474D01*
X122595263Y-53636394D01*
X122619962Y-53634059D01*
X122631819Y-53633500D01*
X146685406Y-53633500D01*
X146753527Y-53653502D01*
X146774501Y-53670405D01*
X148496348Y-55392253D01*
X148503888Y-55400539D01*
X148508000Y-55407018D01*
X148513777Y-55412443D01*
X148557651Y-55453643D01*
X148560493Y-55456398D01*
X148580230Y-55476135D01*
X148583427Y-55478615D01*
X148592447Y-55486318D01*
X148624679Y-55516586D01*
X148631625Y-55520405D01*
X148631628Y-55520407D01*
X148642434Y-55526348D01*
X148658953Y-55537199D01*
X148674959Y-55549614D01*
X148682228Y-55552759D01*
X148682232Y-55552762D01*
X148715537Y-55567174D01*
X148726187Y-55572391D01*
X148764940Y-55593695D01*
X148772615Y-55595666D01*
X148772616Y-55595666D01*
X148784562Y-55598733D01*
X148803267Y-55605137D01*
X148821855Y-55613181D01*
X148829678Y-55614420D01*
X148829688Y-55614423D01*
X148865524Y-55620099D01*
X148877144Y-55622505D01*
X148908959Y-55630673D01*
X148919970Y-55633500D01*
X148940224Y-55633500D01*
X148959934Y-55635051D01*
X148979943Y-55638220D01*
X148987835Y-55637474D01*
X149006580Y-55635702D01*
X149023962Y-55634059D01*
X149035819Y-55633500D01*
X180481233Y-55633500D01*
X180492416Y-55634027D01*
X180499909Y-55635702D01*
X180507835Y-55635453D01*
X180507836Y-55635453D01*
X180567986Y-55633562D01*
X180571945Y-55633500D01*
X180599856Y-55633500D01*
X180603791Y-55633003D01*
X180603856Y-55632995D01*
X180615693Y-55632062D01*
X180647951Y-55631048D01*
X180651970Y-55630922D01*
X180659889Y-55630673D01*
X180679343Y-55625021D01*
X180698700Y-55621013D01*
X180710930Y-55619468D01*
X180710931Y-55619468D01*
X180718797Y-55618474D01*
X180726168Y-55615555D01*
X180726170Y-55615555D01*
X180759912Y-55602196D01*
X180771142Y-55598351D01*
X180805983Y-55588229D01*
X180805984Y-55588229D01*
X180813593Y-55586018D01*
X180820412Y-55581985D01*
X180820417Y-55581983D01*
X180831028Y-55575707D01*
X180848776Y-55567012D01*
X180867617Y-55559552D01*
X180903387Y-55533564D01*
X180913307Y-55527048D01*
X180944535Y-55508580D01*
X180944538Y-55508578D01*
X180951362Y-55504542D01*
X180965683Y-55490221D01*
X180980717Y-55477380D01*
X180982431Y-55476135D01*
X180997107Y-55465472D01*
X181025298Y-55431395D01*
X181033288Y-55422616D01*
X185904549Y-50551355D01*
X185966861Y-50517329D01*
X186018762Y-50516979D01*
X186198597Y-50553567D01*
X186203772Y-50553757D01*
X186203774Y-50553757D01*
X186416673Y-50561564D01*
X186416677Y-50561564D01*
X186421837Y-50561753D01*
X186426957Y-50561097D01*
X186426959Y-50561097D01*
X186638288Y-50534025D01*
X186638289Y-50534025D01*
X186643416Y-50533368D01*
X186648369Y-50531882D01*
X186852429Y-50470661D01*
X186852434Y-50470659D01*
X186857384Y-50469174D01*
X187057994Y-50370896D01*
X187239860Y-50241173D01*
X187398096Y-50083489D01*
X187457594Y-50000689D01*
X187525435Y-49906277D01*
X187528453Y-49902077D01*
X187533979Y-49890897D01*
X187625136Y-49706453D01*
X187625137Y-49706451D01*
X187627430Y-49701811D01*
X187692370Y-49488069D01*
X187721529Y-49266590D01*
X187723156Y-49200000D01*
X187704852Y-48977361D01*
X187650431Y-48760702D01*
X187561354Y-48555840D01*
X187496989Y-48456347D01*
X187442822Y-48372617D01*
X187442820Y-48372614D01*
X187440014Y-48368277D01*
X187289670Y-48203051D01*
X187285619Y-48199852D01*
X187285615Y-48199848D01*
X187118414Y-48067800D01*
X187118410Y-48067798D01*
X187114359Y-48064598D01*
X187078028Y-48044542D01*
X187062136Y-48035769D01*
X186918789Y-47956638D01*
X186913920Y-47954914D01*
X186913916Y-47954912D01*
X186713087Y-47883795D01*
X186713083Y-47883794D01*
X186708212Y-47882069D01*
X186703119Y-47881162D01*
X186703116Y-47881161D01*
X186493373Y-47843800D01*
X186493367Y-47843799D01*
X186488284Y-47842894D01*
X186414452Y-47841992D01*
X186270081Y-47840228D01*
X186270079Y-47840228D01*
X186264911Y-47840165D01*
X186044091Y-47873955D01*
X185831756Y-47943357D01*
X185633607Y-48046507D01*
X185629474Y-48049610D01*
X185629471Y-48049612D01*
X185459100Y-48177530D01*
X185454965Y-48180635D01*
X185451393Y-48184373D01*
X185343729Y-48297037D01*
X185300629Y-48342138D01*
X185193201Y-48499621D01*
X185138293Y-48544621D01*
X185067768Y-48552792D01*
X185004021Y-48521538D01*
X184983324Y-48497054D01*
X184902822Y-48372617D01*
X184902820Y-48372614D01*
X184900014Y-48368277D01*
X184749670Y-48203051D01*
X184745619Y-48199852D01*
X184745615Y-48199848D01*
X184578414Y-48067800D01*
X184578410Y-48067798D01*
X184574359Y-48064598D01*
X184538028Y-48044542D01*
X184522136Y-48035769D01*
X184378789Y-47956638D01*
X184373920Y-47954914D01*
X184373916Y-47954912D01*
X184173087Y-47883795D01*
X184173083Y-47883794D01*
X184168212Y-47882069D01*
X184163119Y-47881162D01*
X184163116Y-47881161D01*
X183953373Y-47843800D01*
X183953367Y-47843799D01*
X183948284Y-47842894D01*
X183874452Y-47841992D01*
X183730081Y-47840228D01*
X183730079Y-47840228D01*
X183724911Y-47840165D01*
X183504091Y-47873955D01*
X183291756Y-47943357D01*
X183093607Y-48046507D01*
X183089474Y-48049610D01*
X183089471Y-48049612D01*
X182919100Y-48177530D01*
X182914965Y-48180635D01*
X182911393Y-48184373D01*
X182803729Y-48297037D01*
X182760629Y-48342138D01*
X182653201Y-48499621D01*
X182598293Y-48544621D01*
X182527768Y-48552792D01*
X182464021Y-48521538D01*
X182443324Y-48497054D01*
X182362822Y-48372617D01*
X182362820Y-48372614D01*
X182360014Y-48368277D01*
X182209670Y-48203051D01*
X182205619Y-48199852D01*
X182205615Y-48199848D01*
X182038414Y-48067800D01*
X182038410Y-48067798D01*
X182034359Y-48064598D01*
X181998028Y-48044542D01*
X181982136Y-48035769D01*
X181838789Y-47956638D01*
X181833920Y-47954914D01*
X181833916Y-47954912D01*
X181633087Y-47883795D01*
X181633083Y-47883794D01*
X181628212Y-47882069D01*
X181623119Y-47881162D01*
X181623116Y-47881161D01*
X181413373Y-47843800D01*
X181413367Y-47843799D01*
X181408284Y-47842894D01*
X181334452Y-47841992D01*
X181190081Y-47840228D01*
X181190079Y-47840228D01*
X181184911Y-47840165D01*
X180964091Y-47873955D01*
X180751756Y-47943357D01*
X180553607Y-48046507D01*
X180549474Y-48049610D01*
X180549471Y-48049612D01*
X180379100Y-48177530D01*
X180374965Y-48180635D01*
X180371393Y-48184373D01*
X180263729Y-48297037D01*
X180220629Y-48342138D01*
X180113201Y-48499621D01*
X180058293Y-48544621D01*
X179987768Y-48552792D01*
X179924021Y-48521538D01*
X179903324Y-48497054D01*
X179822822Y-48372617D01*
X179822820Y-48372614D01*
X179820014Y-48368277D01*
X179669670Y-48203051D01*
X179665619Y-48199852D01*
X179665615Y-48199848D01*
X179498414Y-48067800D01*
X179498410Y-48067798D01*
X179494359Y-48064598D01*
X179458028Y-48044542D01*
X179442136Y-48035769D01*
X179298789Y-47956638D01*
X179293920Y-47954914D01*
X179293916Y-47954912D01*
X179093087Y-47883795D01*
X179093083Y-47883794D01*
X179088212Y-47882069D01*
X179083119Y-47881162D01*
X179083116Y-47881161D01*
X178873373Y-47843800D01*
X178873367Y-47843799D01*
X178868284Y-47842894D01*
X178794452Y-47841992D01*
X178650081Y-47840228D01*
X178650079Y-47840228D01*
X178644911Y-47840165D01*
X178424091Y-47873955D01*
X178211756Y-47943357D01*
X178013607Y-48046507D01*
X178009474Y-48049610D01*
X178009471Y-48049612D01*
X177839100Y-48177530D01*
X177834965Y-48180635D01*
X177831393Y-48184373D01*
X177723729Y-48297037D01*
X177680629Y-48342138D01*
X177573201Y-48499621D01*
X177518293Y-48544621D01*
X177447768Y-48552792D01*
X177384021Y-48521538D01*
X177363324Y-48497054D01*
X177282822Y-48372617D01*
X177282820Y-48372614D01*
X177280014Y-48368277D01*
X177129670Y-48203051D01*
X177125619Y-48199852D01*
X177125615Y-48199848D01*
X176958414Y-48067800D01*
X176958410Y-48067798D01*
X176954359Y-48064598D01*
X176918028Y-48044542D01*
X176902136Y-48035769D01*
X176758789Y-47956638D01*
X176753920Y-47954914D01*
X176753916Y-47954912D01*
X176553087Y-47883795D01*
X176553083Y-47883794D01*
X176548212Y-47882069D01*
X176543119Y-47881162D01*
X176543116Y-47881161D01*
X176333373Y-47843800D01*
X176333367Y-47843799D01*
X176328284Y-47842894D01*
X176254452Y-47841992D01*
X176110081Y-47840228D01*
X176110079Y-47840228D01*
X176104911Y-47840165D01*
X175884091Y-47873955D01*
X175671756Y-47943357D01*
X175473607Y-48046507D01*
X175469474Y-48049610D01*
X175469471Y-48049612D01*
X175299100Y-48177530D01*
X175294965Y-48180635D01*
X175291393Y-48184373D01*
X175183729Y-48297037D01*
X175140629Y-48342138D01*
X175033201Y-48499621D01*
X174978293Y-48544621D01*
X174907768Y-48552792D01*
X174844021Y-48521538D01*
X174823324Y-48497054D01*
X174742822Y-48372617D01*
X174742820Y-48372614D01*
X174740014Y-48368277D01*
X174589670Y-48203051D01*
X174585619Y-48199852D01*
X174585615Y-48199848D01*
X174418414Y-48067800D01*
X174418410Y-48067798D01*
X174414359Y-48064598D01*
X174378028Y-48044542D01*
X174362136Y-48035769D01*
X174218789Y-47956638D01*
X174213920Y-47954914D01*
X174213916Y-47954912D01*
X174013087Y-47883795D01*
X174013083Y-47883794D01*
X174008212Y-47882069D01*
X174003119Y-47881162D01*
X174003116Y-47881161D01*
X173793373Y-47843800D01*
X173793367Y-47843799D01*
X173788284Y-47842894D01*
X173714452Y-47841992D01*
X173570081Y-47840228D01*
X173570079Y-47840228D01*
X173564911Y-47840165D01*
X173344091Y-47873955D01*
X173131756Y-47943357D01*
X172933607Y-48046507D01*
X172929474Y-48049610D01*
X172929471Y-48049612D01*
X172759100Y-48177530D01*
X172754965Y-48180635D01*
X172751393Y-48184373D01*
X172643729Y-48297037D01*
X172600629Y-48342138D01*
X172493201Y-48499621D01*
X172438293Y-48544621D01*
X172367768Y-48552792D01*
X172304021Y-48521538D01*
X172283324Y-48497054D01*
X172202822Y-48372617D01*
X172202820Y-48372614D01*
X172200014Y-48368277D01*
X172049670Y-48203051D01*
X172045619Y-48199852D01*
X172045615Y-48199848D01*
X171878414Y-48067800D01*
X171878410Y-48067798D01*
X171874359Y-48064598D01*
X171838028Y-48044542D01*
X171822136Y-48035769D01*
X171678789Y-47956638D01*
X171673920Y-47954914D01*
X171673916Y-47954912D01*
X171473087Y-47883795D01*
X171473083Y-47883794D01*
X171468212Y-47882069D01*
X171463119Y-47881162D01*
X171463116Y-47881161D01*
X171253373Y-47843800D01*
X171253367Y-47843799D01*
X171248284Y-47842894D01*
X171174452Y-47841992D01*
X171030081Y-47840228D01*
X171030079Y-47840228D01*
X171024911Y-47840165D01*
X170804091Y-47873955D01*
X170591756Y-47943357D01*
X170393607Y-48046507D01*
X170389474Y-48049610D01*
X170389471Y-48049612D01*
X170219100Y-48177530D01*
X170214965Y-48180635D01*
X170158537Y-48239684D01*
X170134283Y-48265064D01*
X170072759Y-48300494D01*
X170001846Y-48297037D01*
X169944060Y-48255791D01*
X169925207Y-48222243D01*
X169883767Y-48111703D01*
X169880615Y-48103295D01*
X169793261Y-47986739D01*
X169676705Y-47899385D01*
X169540316Y-47848255D01*
X169478134Y-47841500D01*
X167681866Y-47841500D01*
X167619684Y-47848255D01*
X167483295Y-47899385D01*
X167366739Y-47986739D01*
X167279385Y-48103295D01*
X167228255Y-48239684D01*
X167221500Y-48301866D01*
X167221500Y-50098134D01*
X167228255Y-50160316D01*
X167279385Y-50296705D01*
X167366739Y-50413261D01*
X167483295Y-50500615D01*
X167619684Y-50551745D01*
X167681866Y-50558500D01*
X169478134Y-50558500D01*
X169540316Y-50551745D01*
X169676705Y-50500615D01*
X169793261Y-50413261D01*
X169880615Y-50296705D01*
X169902799Y-50237529D01*
X169924598Y-50179382D01*
X169967240Y-50122618D01*
X170033802Y-50097918D01*
X170103150Y-50113126D01*
X170137817Y-50141114D01*
X170166250Y-50173938D01*
X170338126Y-50316632D01*
X170531000Y-50429338D01*
X170739692Y-50509030D01*
X170744760Y-50510061D01*
X170744763Y-50510062D01*
X170839862Y-50529410D01*
X170958597Y-50553567D01*
X170963772Y-50553757D01*
X170963774Y-50553757D01*
X171176673Y-50561564D01*
X171176677Y-50561564D01*
X171181837Y-50561753D01*
X171186957Y-50561097D01*
X171186959Y-50561097D01*
X171398288Y-50534025D01*
X171398289Y-50534025D01*
X171403416Y-50533368D01*
X171408369Y-50531882D01*
X171612429Y-50470661D01*
X171612434Y-50470659D01*
X171617384Y-50469174D01*
X171817994Y-50370896D01*
X171999860Y-50241173D01*
X172158096Y-50083489D01*
X172217594Y-50000689D01*
X172288453Y-49902077D01*
X172289776Y-49903028D01*
X172336645Y-49859857D01*
X172406580Y-49847625D01*
X172472026Y-49875144D01*
X172499875Y-49906994D01*
X172559987Y-50005088D01*
X172706250Y-50173938D01*
X172878126Y-50316632D01*
X173071000Y-50429338D01*
X173279692Y-50509030D01*
X173284760Y-50510061D01*
X173284763Y-50510062D01*
X173379862Y-50529410D01*
X173498597Y-50553567D01*
X173503772Y-50553757D01*
X173503774Y-50553757D01*
X173716673Y-50561564D01*
X173716677Y-50561564D01*
X173721837Y-50561753D01*
X173726957Y-50561097D01*
X173726959Y-50561097D01*
X173938288Y-50534025D01*
X173938289Y-50534025D01*
X173943416Y-50533368D01*
X173948369Y-50531882D01*
X174152429Y-50470661D01*
X174152434Y-50470659D01*
X174157384Y-50469174D01*
X174357994Y-50370896D01*
X174539860Y-50241173D01*
X174698096Y-50083489D01*
X174757594Y-50000689D01*
X174828453Y-49902077D01*
X174829776Y-49903028D01*
X174876645Y-49859857D01*
X174946580Y-49847625D01*
X175012026Y-49875144D01*
X175039875Y-49906994D01*
X175099987Y-50005088D01*
X175246250Y-50173938D01*
X175418126Y-50316632D01*
X175611000Y-50429338D01*
X175819692Y-50509030D01*
X175824760Y-50510061D01*
X175824763Y-50510062D01*
X175919862Y-50529410D01*
X176038597Y-50553567D01*
X176043772Y-50553757D01*
X176043774Y-50553757D01*
X176256673Y-50561564D01*
X176256677Y-50561564D01*
X176261837Y-50561753D01*
X176266957Y-50561097D01*
X176266959Y-50561097D01*
X176478288Y-50534025D01*
X176478289Y-50534025D01*
X176483416Y-50533368D01*
X176488369Y-50531882D01*
X176692429Y-50470661D01*
X176692434Y-50470659D01*
X176697384Y-50469174D01*
X176897994Y-50370896D01*
X177079860Y-50241173D01*
X177238096Y-50083489D01*
X177297594Y-50000689D01*
X177368453Y-49902077D01*
X177369776Y-49903028D01*
X177416645Y-49859857D01*
X177486580Y-49847625D01*
X177552026Y-49875144D01*
X177579875Y-49906994D01*
X177639987Y-50005088D01*
X177786250Y-50173938D01*
X177958126Y-50316632D01*
X178151000Y-50429338D01*
X178359692Y-50509030D01*
X178364760Y-50510061D01*
X178364763Y-50510062D01*
X178459862Y-50529410D01*
X178578597Y-50553567D01*
X178583772Y-50553757D01*
X178583774Y-50553757D01*
X178796673Y-50561564D01*
X178796677Y-50561564D01*
X178801837Y-50561753D01*
X178806957Y-50561097D01*
X178806959Y-50561097D01*
X179018288Y-50534025D01*
X179018289Y-50534025D01*
X179023416Y-50533368D01*
X179028369Y-50531882D01*
X179232429Y-50470661D01*
X179232434Y-50470659D01*
X179237384Y-50469174D01*
X179437994Y-50370896D01*
X179619860Y-50241173D01*
X179778096Y-50083489D01*
X179837594Y-50000689D01*
X179908453Y-49902077D01*
X179909776Y-49903028D01*
X179956645Y-49859857D01*
X180026580Y-49847625D01*
X180092026Y-49875144D01*
X180119875Y-49906994D01*
X180179987Y-50005088D01*
X180326250Y-50173938D01*
X180498126Y-50316632D01*
X180691000Y-50429338D01*
X180899692Y-50509030D01*
X180904760Y-50510061D01*
X180904763Y-50510062D01*
X180999862Y-50529410D01*
X181118597Y-50553567D01*
X181123771Y-50553757D01*
X181123773Y-50553757D01*
X181185898Y-50556035D01*
X181265650Y-50558959D01*
X181332991Y-50581443D01*
X181377487Y-50636767D01*
X181385009Y-50707364D01*
X181350127Y-50773969D01*
X180069500Y-52054595D01*
X178794500Y-53329595D01*
X178732188Y-53363621D01*
X178705405Y-53366500D01*
X160009594Y-53366500D01*
X159941473Y-53346498D01*
X159894980Y-53292842D01*
X159884876Y-53222568D01*
X159889762Y-53201562D01*
X159891502Y-53196208D01*
X159891503Y-53196203D01*
X159893542Y-53189928D01*
X159898569Y-53142104D01*
X159910907Y-53024707D01*
X159937920Y-52959050D01*
X159947122Y-52948782D01*
X161352247Y-51543657D01*
X161360537Y-51536113D01*
X161367018Y-51532000D01*
X161376934Y-51521441D01*
X161413658Y-51482333D01*
X161416413Y-51479491D01*
X161436135Y-51459769D01*
X161438612Y-51456576D01*
X161446317Y-51447555D01*
X161471159Y-51421100D01*
X161476586Y-51415321D01*
X161480407Y-51408371D01*
X161486346Y-51397568D01*
X161497202Y-51381041D01*
X161504757Y-51371302D01*
X161504758Y-51371300D01*
X161509614Y-51365040D01*
X161527174Y-51324460D01*
X161532391Y-51313812D01*
X161549875Y-51282009D01*
X161549876Y-51282007D01*
X161553695Y-51275060D01*
X161558733Y-51255437D01*
X161565137Y-51236734D01*
X161570033Y-51225420D01*
X161570033Y-51225419D01*
X161573181Y-51218145D01*
X161574420Y-51210322D01*
X161574423Y-51210312D01*
X161580099Y-51174476D01*
X161582505Y-51162856D01*
X161591528Y-51127711D01*
X161591528Y-51127710D01*
X161593500Y-51120030D01*
X161593500Y-51099776D01*
X161595051Y-51080065D01*
X161596980Y-51067886D01*
X161598220Y-51060057D01*
X161594059Y-51016038D01*
X161593500Y-51004181D01*
X161593500Y-50480427D01*
X161613502Y-50412306D01*
X161654618Y-50372550D01*
X161657994Y-50370896D01*
X161839860Y-50241173D01*
X161998096Y-50083489D01*
X162057594Y-50000689D01*
X162128453Y-49902077D01*
X162129776Y-49903028D01*
X162176645Y-49859857D01*
X162246580Y-49847625D01*
X162312026Y-49875144D01*
X162339875Y-49906994D01*
X162399987Y-50005088D01*
X162546250Y-50173938D01*
X162718126Y-50316632D01*
X162911000Y-50429338D01*
X163119692Y-50509030D01*
X163124760Y-50510061D01*
X163124763Y-50510062D01*
X163219862Y-50529410D01*
X163338597Y-50553567D01*
X163343772Y-50553757D01*
X163343774Y-50553757D01*
X163556673Y-50561564D01*
X163556677Y-50561564D01*
X163561837Y-50561753D01*
X163566957Y-50561097D01*
X163566959Y-50561097D01*
X163778288Y-50534025D01*
X163778289Y-50534025D01*
X163783416Y-50533368D01*
X163788369Y-50531882D01*
X163992429Y-50470661D01*
X163992434Y-50470659D01*
X163997384Y-50469174D01*
X164197994Y-50370896D01*
X164379860Y-50241173D01*
X164538096Y-50083489D01*
X164597594Y-50000689D01*
X164665435Y-49906277D01*
X164668453Y-49902077D01*
X164673979Y-49890897D01*
X164765136Y-49706453D01*
X164765137Y-49706451D01*
X164767430Y-49701811D01*
X164832370Y-49488069D01*
X164861529Y-49266590D01*
X164863156Y-49200000D01*
X164844852Y-48977361D01*
X164790431Y-48760702D01*
X164701354Y-48555840D01*
X164636989Y-48456347D01*
X164582822Y-48372617D01*
X164582820Y-48372614D01*
X164580014Y-48368277D01*
X164429670Y-48203051D01*
X164425619Y-48199852D01*
X164425615Y-48199848D01*
X164258414Y-48067800D01*
X164258410Y-48067798D01*
X164254359Y-48064598D01*
X164218028Y-48044542D01*
X164202136Y-48035769D01*
X164058789Y-47956638D01*
X164053920Y-47954914D01*
X164053916Y-47954912D01*
X163853087Y-47883795D01*
X163853083Y-47883794D01*
X163848212Y-47882069D01*
X163843119Y-47881162D01*
X163843116Y-47881161D01*
X163633373Y-47843800D01*
X163633367Y-47843799D01*
X163628284Y-47842894D01*
X163554452Y-47841992D01*
X163410081Y-47840228D01*
X163410079Y-47840228D01*
X163404911Y-47840165D01*
X163184091Y-47873955D01*
X162971756Y-47943357D01*
X162773607Y-48046507D01*
X162769474Y-48049610D01*
X162769471Y-48049612D01*
X162599100Y-48177530D01*
X162594965Y-48180635D01*
X162591393Y-48184373D01*
X162483729Y-48297037D01*
X162440629Y-48342138D01*
X162333201Y-48499621D01*
X162278293Y-48544621D01*
X162207768Y-48552792D01*
X162144021Y-48521538D01*
X162123324Y-48497054D01*
X162042822Y-48372617D01*
X162042820Y-48372614D01*
X162040014Y-48368277D01*
X161889670Y-48203051D01*
X161885619Y-48199852D01*
X161885615Y-48199848D01*
X161718414Y-48067800D01*
X161718410Y-48067798D01*
X161714359Y-48064598D01*
X161678028Y-48044542D01*
X161662136Y-48035769D01*
X161518789Y-47956638D01*
X161513920Y-47954914D01*
X161513916Y-47954912D01*
X161313087Y-47883795D01*
X161313083Y-47883794D01*
X161308212Y-47882069D01*
X161303119Y-47881162D01*
X161303116Y-47881161D01*
X161093373Y-47843800D01*
X161093367Y-47843799D01*
X161088284Y-47842894D01*
X161014452Y-47841992D01*
X160870081Y-47840228D01*
X160870079Y-47840228D01*
X160864911Y-47840165D01*
X160644091Y-47873955D01*
X160431756Y-47943357D01*
X160233607Y-48046507D01*
X160229474Y-48049610D01*
X160229471Y-48049612D01*
X160059100Y-48177530D01*
X160054965Y-48180635D01*
X160051393Y-48184373D01*
X159943729Y-48297037D01*
X159900629Y-48342138D01*
X159793201Y-48499621D01*
X159738293Y-48544621D01*
X159667768Y-48552792D01*
X159604021Y-48521538D01*
X159583324Y-48497054D01*
X159502822Y-48372617D01*
X159502820Y-48372614D01*
X159500014Y-48368277D01*
X159349670Y-48203051D01*
X159345619Y-48199852D01*
X159345615Y-48199848D01*
X159178414Y-48067800D01*
X159178410Y-48067798D01*
X159174359Y-48064598D01*
X159138028Y-48044542D01*
X159122136Y-48035769D01*
X158978789Y-47956638D01*
X158973920Y-47954914D01*
X158973916Y-47954912D01*
X158773087Y-47883795D01*
X158773083Y-47883794D01*
X158768212Y-47882069D01*
X158763119Y-47881162D01*
X158763116Y-47881161D01*
X158553373Y-47843800D01*
X158553367Y-47843799D01*
X158548284Y-47842894D01*
X158474452Y-47841992D01*
X158330081Y-47840228D01*
X158330079Y-47840228D01*
X158324911Y-47840165D01*
X158104091Y-47873955D01*
X157891756Y-47943357D01*
X157693607Y-48046507D01*
X157689474Y-48049610D01*
X157689471Y-48049612D01*
X157519100Y-48177530D01*
X157514965Y-48180635D01*
X157511393Y-48184373D01*
X157403729Y-48297037D01*
X157360629Y-48342138D01*
X157253201Y-48499621D01*
X157198293Y-48544621D01*
X157127768Y-48552792D01*
X157064021Y-48521538D01*
X157043324Y-48497054D01*
X156962822Y-48372617D01*
X156962820Y-48372614D01*
X156960014Y-48368277D01*
X156809670Y-48203051D01*
X156805619Y-48199852D01*
X156805615Y-48199848D01*
X156638414Y-48067800D01*
X156638410Y-48067798D01*
X156634359Y-48064598D01*
X156598028Y-48044542D01*
X156582136Y-48035769D01*
X156438789Y-47956638D01*
X156433920Y-47954914D01*
X156433916Y-47954912D01*
X156233087Y-47883795D01*
X156233083Y-47883794D01*
X156228212Y-47882069D01*
X156223119Y-47881162D01*
X156223116Y-47881161D01*
X156013373Y-47843800D01*
X156013367Y-47843799D01*
X156008284Y-47842894D01*
X155934452Y-47841992D01*
X155790081Y-47840228D01*
X155790079Y-47840228D01*
X155784911Y-47840165D01*
X155564091Y-47873955D01*
X155351756Y-47943357D01*
X155153607Y-48046507D01*
X155149474Y-48049610D01*
X155149471Y-48049612D01*
X154979100Y-48177530D01*
X154974965Y-48180635D01*
X154971393Y-48184373D01*
X154863729Y-48297037D01*
X154820629Y-48342138D01*
X154713201Y-48499621D01*
X154658293Y-48544621D01*
X154587768Y-48552792D01*
X154524021Y-48521538D01*
X154503324Y-48497054D01*
X154422822Y-48372617D01*
X154422820Y-48372614D01*
X154420014Y-48368277D01*
X154269670Y-48203051D01*
X154265619Y-48199852D01*
X154265615Y-48199848D01*
X154098414Y-48067800D01*
X154098410Y-48067798D01*
X154094359Y-48064598D01*
X154058028Y-48044542D01*
X154042136Y-48035769D01*
X153898789Y-47956638D01*
X153893920Y-47954914D01*
X153893916Y-47954912D01*
X153693087Y-47883795D01*
X153693083Y-47883794D01*
X153688212Y-47882069D01*
X153683119Y-47881162D01*
X153683116Y-47881161D01*
X153473373Y-47843800D01*
X153473367Y-47843799D01*
X153468284Y-47842894D01*
X153394452Y-47841992D01*
X153250081Y-47840228D01*
X153250079Y-47840228D01*
X153244911Y-47840165D01*
X153024091Y-47873955D01*
X152811756Y-47943357D01*
X152613607Y-48046507D01*
X152609474Y-48049610D01*
X152609471Y-48049612D01*
X152439100Y-48177530D01*
X152434965Y-48180635D01*
X152431393Y-48184373D01*
X152323729Y-48297037D01*
X152280629Y-48342138D01*
X152173201Y-48499621D01*
X152118293Y-48544621D01*
X152047768Y-48552792D01*
X151984021Y-48521538D01*
X151963324Y-48497054D01*
X151882822Y-48372617D01*
X151882820Y-48372614D01*
X151880014Y-48368277D01*
X151729670Y-48203051D01*
X151725619Y-48199852D01*
X151725615Y-48199848D01*
X151558414Y-48067800D01*
X151558410Y-48067798D01*
X151554359Y-48064598D01*
X151518028Y-48044542D01*
X151502136Y-48035769D01*
X151358789Y-47956638D01*
X151353920Y-47954914D01*
X151353916Y-47954912D01*
X151153087Y-47883795D01*
X151153083Y-47883794D01*
X151148212Y-47882069D01*
X151143119Y-47881162D01*
X151143116Y-47881161D01*
X150933373Y-47843800D01*
X150933367Y-47843799D01*
X150928284Y-47842894D01*
X150854452Y-47841992D01*
X150710081Y-47840228D01*
X150710079Y-47840228D01*
X150704911Y-47840165D01*
X150484091Y-47873955D01*
X150271756Y-47943357D01*
X150073607Y-48046507D01*
X150069474Y-48049610D01*
X150069471Y-48049612D01*
X149899100Y-48177530D01*
X149894965Y-48180635D01*
X149891393Y-48184373D01*
X149783729Y-48297037D01*
X149740629Y-48342138D01*
X149633201Y-48499621D01*
X149578293Y-48544621D01*
X149507768Y-48552792D01*
X149444021Y-48521538D01*
X149423324Y-48497054D01*
X149342822Y-48372617D01*
X149342820Y-48372614D01*
X149340014Y-48368277D01*
X149189670Y-48203051D01*
X149185619Y-48199852D01*
X149185615Y-48199848D01*
X149018414Y-48067800D01*
X149018410Y-48067798D01*
X149014359Y-48064598D01*
X148978028Y-48044542D01*
X148962136Y-48035769D01*
X148818789Y-47956638D01*
X148813920Y-47954914D01*
X148813916Y-47954912D01*
X148613087Y-47883795D01*
X148613083Y-47883794D01*
X148608212Y-47882069D01*
X148603119Y-47881162D01*
X148603116Y-47881161D01*
X148393373Y-47843800D01*
X148393367Y-47843799D01*
X148388284Y-47842894D01*
X148314452Y-47841992D01*
X148170081Y-47840228D01*
X148170079Y-47840228D01*
X148164911Y-47840165D01*
X147944091Y-47873955D01*
X147731756Y-47943357D01*
X147533607Y-48046507D01*
X147529474Y-48049610D01*
X147529471Y-48049612D01*
X147359100Y-48177530D01*
X147354965Y-48180635D01*
X147298537Y-48239684D01*
X147274283Y-48265064D01*
X147212759Y-48300494D01*
X147141846Y-48297037D01*
X147084060Y-48255791D01*
X147065207Y-48222243D01*
X147023767Y-48111703D01*
X147020615Y-48103295D01*
X146933261Y-47986739D01*
X146816705Y-47899385D01*
X146680316Y-47848255D01*
X146618134Y-47841500D01*
X144821866Y-47841500D01*
X144759684Y-47848255D01*
X144623295Y-47899385D01*
X144506739Y-47986739D01*
X144419385Y-48103295D01*
X144368255Y-48239684D01*
X144361500Y-48301866D01*
X144361500Y-50098134D01*
X144368255Y-50160316D01*
X144419385Y-50296705D01*
X144506739Y-50413261D01*
X144623295Y-50500615D01*
X144759684Y-50551745D01*
X144821866Y-50558500D01*
X146618134Y-50558500D01*
X146680316Y-50551745D01*
X146816705Y-50500615D01*
X146933261Y-50413261D01*
X147020615Y-50296705D01*
X147042799Y-50237529D01*
X147064598Y-50179382D01*
X147107240Y-50122618D01*
X147173802Y-50097918D01*
X147243150Y-50113126D01*
X147277817Y-50141114D01*
X147306250Y-50173938D01*
X147478126Y-50316632D01*
X147671000Y-50429338D01*
X147879692Y-50509030D01*
X147884760Y-50510061D01*
X147884763Y-50510062D01*
X147979862Y-50529410D01*
X148098597Y-50553567D01*
X148103772Y-50553757D01*
X148103774Y-50553757D01*
X148316673Y-50561564D01*
X148316677Y-50561564D01*
X148321837Y-50561753D01*
X148326957Y-50561097D01*
X148326959Y-50561097D01*
X148538288Y-50534025D01*
X148538289Y-50534025D01*
X148543416Y-50533368D01*
X148548369Y-50531882D01*
X148752429Y-50470661D01*
X148752434Y-50470659D01*
X148757384Y-50469174D01*
X148957994Y-50370896D01*
X149139860Y-50241173D01*
X149298096Y-50083489D01*
X149357594Y-50000689D01*
X149428453Y-49902077D01*
X149429776Y-49903028D01*
X149476645Y-49859857D01*
X149546580Y-49847625D01*
X149612026Y-49875144D01*
X149639875Y-49906994D01*
X149699987Y-50005088D01*
X149846250Y-50173938D01*
X150018126Y-50316632D01*
X150211000Y-50429338D01*
X150419692Y-50509030D01*
X150424760Y-50510061D01*
X150424763Y-50510062D01*
X150519862Y-50529410D01*
X150638597Y-50553567D01*
X150643772Y-50553757D01*
X150643774Y-50553757D01*
X150856673Y-50561564D01*
X150856677Y-50561564D01*
X150861837Y-50561753D01*
X150866957Y-50561097D01*
X150866959Y-50561097D01*
X151078288Y-50534025D01*
X151078289Y-50534025D01*
X151083416Y-50533368D01*
X151088369Y-50531882D01*
X151292429Y-50470661D01*
X151292434Y-50470659D01*
X151297384Y-50469174D01*
X151497994Y-50370896D01*
X151679860Y-50241173D01*
X151838096Y-50083489D01*
X151897594Y-50000689D01*
X151968453Y-49902077D01*
X151969776Y-49903028D01*
X152016645Y-49859857D01*
X152086580Y-49847625D01*
X152152026Y-49875144D01*
X152179875Y-49906994D01*
X152239987Y-50005088D01*
X152386250Y-50173938D01*
X152558126Y-50316632D01*
X152751000Y-50429338D01*
X152959692Y-50509030D01*
X152964760Y-50510061D01*
X152964763Y-50510062D01*
X153059862Y-50529410D01*
X153178597Y-50553567D01*
X153183772Y-50553757D01*
X153183774Y-50553757D01*
X153396673Y-50561564D01*
X153396677Y-50561564D01*
X153401837Y-50561753D01*
X153406957Y-50561097D01*
X153406959Y-50561097D01*
X153618288Y-50534025D01*
X153618289Y-50534025D01*
X153623416Y-50533368D01*
X153628369Y-50531882D01*
X153832429Y-50470661D01*
X153832434Y-50470659D01*
X153837384Y-50469174D01*
X154037994Y-50370896D01*
X154219860Y-50241173D01*
X154378096Y-50083489D01*
X154437594Y-50000689D01*
X154508453Y-49902077D01*
X154509776Y-49903028D01*
X154556645Y-49859857D01*
X154626580Y-49847625D01*
X154692026Y-49875144D01*
X154719875Y-49906994D01*
X154779987Y-50005088D01*
X154926250Y-50173938D01*
X155098126Y-50316632D01*
X155291000Y-50429338D01*
X155499692Y-50509030D01*
X155504760Y-50510061D01*
X155504763Y-50510062D01*
X155599862Y-50529410D01*
X155718597Y-50553567D01*
X155723772Y-50553757D01*
X155723774Y-50553757D01*
X155936673Y-50561564D01*
X155936677Y-50561564D01*
X155941837Y-50561753D01*
X155946957Y-50561097D01*
X155946959Y-50561097D01*
X156158288Y-50534025D01*
X156158289Y-50534025D01*
X156163416Y-50533368D01*
X156168369Y-50531882D01*
X156372429Y-50470661D01*
X156372434Y-50470659D01*
X156377384Y-50469174D01*
X156577994Y-50370896D01*
X156759860Y-50241173D01*
X156918096Y-50083489D01*
X156977594Y-50000689D01*
X157048453Y-49902077D01*
X157049776Y-49903028D01*
X157096645Y-49859857D01*
X157166580Y-49847625D01*
X157232026Y-49875144D01*
X157259875Y-49906994D01*
X157319987Y-50005088D01*
X157466250Y-50173938D01*
X157638126Y-50316632D01*
X157831000Y-50429338D01*
X158039692Y-50509030D01*
X158044760Y-50510061D01*
X158044763Y-50510062D01*
X158139862Y-50529410D01*
X158258597Y-50553567D01*
X158263772Y-50553757D01*
X158263774Y-50553757D01*
X158476673Y-50561564D01*
X158476677Y-50561564D01*
X158481837Y-50561753D01*
X158486957Y-50561097D01*
X158486959Y-50561097D01*
X158698288Y-50534025D01*
X158698289Y-50534025D01*
X158703416Y-50533368D01*
X158708369Y-50531882D01*
X158912429Y-50470661D01*
X158912434Y-50470659D01*
X158917384Y-50469174D01*
X159117994Y-50370896D01*
X159299860Y-50241173D01*
X159458096Y-50083489D01*
X159517594Y-50000689D01*
X159588453Y-49902077D01*
X159589776Y-49903028D01*
X159636645Y-49859857D01*
X159706580Y-49847625D01*
X159772026Y-49875144D01*
X159799875Y-49906994D01*
X159859987Y-50005088D01*
X160006250Y-50173938D01*
X160178126Y-50316632D01*
X160264070Y-50366853D01*
X160312794Y-50418491D01*
X160326500Y-50475641D01*
X160326500Y-50725406D01*
X160306498Y-50793527D01*
X160289595Y-50814501D01*
X159049500Y-52054595D01*
X158987188Y-52088621D01*
X158960405Y-52091500D01*
X158904513Y-52091500D01*
X158898061Y-52092872D01*
X158898056Y-52092872D01*
X158811112Y-52111353D01*
X158717712Y-52131206D01*
X158711682Y-52133891D01*
X158711681Y-52133891D01*
X158549278Y-52206197D01*
X158549276Y-52206198D01*
X158543248Y-52208882D01*
X158388747Y-52321134D01*
X158384326Y-52326044D01*
X158384325Y-52326045D01*
X158279850Y-52442077D01*
X158260960Y-52463056D01*
X158165473Y-52628444D01*
X158106458Y-52810072D01*
X158086496Y-53000000D01*
X158087186Y-53006565D01*
X158101432Y-53142104D01*
X158106458Y-53189928D01*
X158108497Y-53196203D01*
X158108498Y-53196208D01*
X158110238Y-53201562D01*
X158112267Y-53272529D01*
X158075606Y-53333328D01*
X158011894Y-53364654D01*
X157990406Y-53366500D01*
X150314594Y-53366500D01*
X150246473Y-53346498D01*
X150225499Y-53329595D01*
X149364679Y-52468774D01*
X148503652Y-51607747D01*
X148496112Y-51599461D01*
X148492000Y-51592982D01*
X148442348Y-51546356D01*
X148439507Y-51543602D01*
X148419770Y-51523865D01*
X148416573Y-51521385D01*
X148407551Y-51513680D01*
X148381100Y-51488841D01*
X148375321Y-51483414D01*
X148368375Y-51479595D01*
X148368372Y-51479593D01*
X148357566Y-51473652D01*
X148341047Y-51462801D01*
X148333021Y-51456576D01*
X148325041Y-51450386D01*
X148317772Y-51447241D01*
X148317768Y-51447238D01*
X148284463Y-51432826D01*
X148273813Y-51427609D01*
X148235060Y-51406305D01*
X148215437Y-51401267D01*
X148196734Y-51394863D01*
X148185420Y-51389967D01*
X148185419Y-51389967D01*
X148178145Y-51386819D01*
X148170322Y-51385580D01*
X148170312Y-51385577D01*
X148134476Y-51379901D01*
X148122856Y-51377495D01*
X148087711Y-51368472D01*
X148087710Y-51368472D01*
X148080030Y-51366500D01*
X148059776Y-51366500D01*
X148040065Y-51364949D01*
X148027886Y-51363020D01*
X148020057Y-51361780D01*
X148012165Y-51362526D01*
X147976039Y-51365941D01*
X147964181Y-51366500D01*
X124450594Y-51366500D01*
X124382473Y-51346498D01*
X124361499Y-51329595D01*
X123807317Y-50775413D01*
X123773291Y-50713101D01*
X123778356Y-50642286D01*
X123820903Y-50585450D01*
X123887423Y-50560639D01*
X123901024Y-50560403D01*
X123916845Y-50560983D01*
X123932674Y-50561564D01*
X123932678Y-50561564D01*
X123937837Y-50561753D01*
X123942957Y-50561097D01*
X123942959Y-50561097D01*
X124154288Y-50534025D01*
X124154289Y-50534025D01*
X124159416Y-50533368D01*
X124164369Y-50531882D01*
X124368429Y-50470661D01*
X124368434Y-50470659D01*
X124373384Y-50469174D01*
X124573994Y-50370896D01*
X124755860Y-50241173D01*
X124914096Y-50083489D01*
X124973594Y-50000689D01*
X125044453Y-49902077D01*
X125045640Y-49902930D01*
X125092960Y-49859362D01*
X125162897Y-49847145D01*
X125228338Y-49874678D01*
X125256166Y-49906511D01*
X125313694Y-50000388D01*
X125319777Y-50008699D01*
X125459213Y-50169667D01*
X125466580Y-50176883D01*
X125630434Y-50312916D01*
X125638881Y-50318831D01*
X125822756Y-50426279D01*
X125832042Y-50430729D01*
X126031001Y-50506703D01*
X126040899Y-50509579D01*
X126144250Y-50530606D01*
X126158299Y-50529410D01*
X126162000Y-50519065D01*
X126162000Y-50518517D01*
X126670000Y-50518517D01*
X126674064Y-50532359D01*
X126687478Y-50534393D01*
X126694184Y-50533534D01*
X126704262Y-50531392D01*
X126908255Y-50470191D01*
X126917842Y-50466433D01*
X127109095Y-50372739D01*
X127117945Y-50367464D01*
X127291328Y-50243792D01*
X127299200Y-50237139D01*
X127450052Y-50086812D01*
X127456730Y-50078965D01*
X127584022Y-49901819D01*
X127585279Y-49902722D01*
X127632373Y-49859362D01*
X127702311Y-49847145D01*
X127767751Y-49874678D01*
X127795579Y-49906511D01*
X127855987Y-50005088D01*
X128002250Y-50173938D01*
X128174126Y-50316632D01*
X128367000Y-50429338D01*
X128575692Y-50509030D01*
X128580760Y-50510061D01*
X128580763Y-50510062D01*
X128675862Y-50529410D01*
X128794597Y-50553567D01*
X128799772Y-50553757D01*
X128799774Y-50553757D01*
X129012673Y-50561564D01*
X129012677Y-50561564D01*
X129017837Y-50561753D01*
X129022957Y-50561097D01*
X129022959Y-50561097D01*
X129234288Y-50534025D01*
X129234289Y-50534025D01*
X129239416Y-50533368D01*
X129244369Y-50531882D01*
X129448429Y-50470661D01*
X129448434Y-50470659D01*
X129453384Y-50469174D01*
X129653994Y-50370896D01*
X129835860Y-50241173D01*
X129994096Y-50083489D01*
X130053594Y-50000689D01*
X130124453Y-49902077D01*
X130125776Y-49903028D01*
X130172645Y-49859857D01*
X130242580Y-49847625D01*
X130308026Y-49875144D01*
X130335875Y-49906994D01*
X130395987Y-50005088D01*
X130542250Y-50173938D01*
X130714126Y-50316632D01*
X130907000Y-50429338D01*
X131115692Y-50509030D01*
X131120760Y-50510061D01*
X131120763Y-50510062D01*
X131215862Y-50529410D01*
X131334597Y-50553567D01*
X131339772Y-50553757D01*
X131339774Y-50553757D01*
X131552673Y-50561564D01*
X131552677Y-50561564D01*
X131557837Y-50561753D01*
X131562957Y-50561097D01*
X131562959Y-50561097D01*
X131774288Y-50534025D01*
X131774289Y-50534025D01*
X131779416Y-50533368D01*
X131784369Y-50531882D01*
X131988429Y-50470661D01*
X131988434Y-50470659D01*
X131993384Y-50469174D01*
X132193994Y-50370896D01*
X132375860Y-50241173D01*
X132534096Y-50083489D01*
X132593594Y-50000689D01*
X132664453Y-49902077D01*
X132665776Y-49903028D01*
X132712645Y-49859857D01*
X132782580Y-49847625D01*
X132848026Y-49875144D01*
X132875875Y-49906994D01*
X132935987Y-50005088D01*
X133082250Y-50173938D01*
X133254126Y-50316632D01*
X133447000Y-50429338D01*
X133655692Y-50509030D01*
X133660760Y-50510061D01*
X133660763Y-50510062D01*
X133755862Y-50529410D01*
X133874597Y-50553567D01*
X133879772Y-50553757D01*
X133879774Y-50553757D01*
X134092673Y-50561564D01*
X134092677Y-50561564D01*
X134097837Y-50561753D01*
X134102957Y-50561097D01*
X134102959Y-50561097D01*
X134314288Y-50534025D01*
X134314289Y-50534025D01*
X134319416Y-50533368D01*
X134324369Y-50531882D01*
X134528429Y-50470661D01*
X134528434Y-50470659D01*
X134533384Y-50469174D01*
X134733994Y-50370896D01*
X134915860Y-50241173D01*
X135074096Y-50083489D01*
X135133594Y-50000689D01*
X135204453Y-49902077D01*
X135205776Y-49903028D01*
X135252645Y-49859857D01*
X135322580Y-49847625D01*
X135388026Y-49875144D01*
X135415875Y-49906994D01*
X135475987Y-50005088D01*
X135622250Y-50173938D01*
X135794126Y-50316632D01*
X135987000Y-50429338D01*
X136195692Y-50509030D01*
X136200760Y-50510061D01*
X136200763Y-50510062D01*
X136295862Y-50529410D01*
X136414597Y-50553567D01*
X136419772Y-50553757D01*
X136419774Y-50553757D01*
X136632673Y-50561564D01*
X136632677Y-50561564D01*
X136637837Y-50561753D01*
X136642957Y-50561097D01*
X136642959Y-50561097D01*
X136854288Y-50534025D01*
X136854289Y-50534025D01*
X136859416Y-50533368D01*
X136864369Y-50531882D01*
X137068429Y-50470661D01*
X137068434Y-50470659D01*
X137073384Y-50469174D01*
X137273994Y-50370896D01*
X137455860Y-50241173D01*
X137614096Y-50083489D01*
X137673594Y-50000689D01*
X137744453Y-49902077D01*
X137745776Y-49903028D01*
X137792645Y-49859857D01*
X137862580Y-49847625D01*
X137928026Y-49875144D01*
X137955875Y-49906994D01*
X138015987Y-50005088D01*
X138162250Y-50173938D01*
X138334126Y-50316632D01*
X138527000Y-50429338D01*
X138735692Y-50509030D01*
X138740760Y-50510061D01*
X138740763Y-50510062D01*
X138835862Y-50529410D01*
X138954597Y-50553567D01*
X138959772Y-50553757D01*
X138959774Y-50553757D01*
X139172673Y-50561564D01*
X139172677Y-50561564D01*
X139177837Y-50561753D01*
X139182957Y-50561097D01*
X139182959Y-50561097D01*
X139394288Y-50534025D01*
X139394289Y-50534025D01*
X139399416Y-50533368D01*
X139404369Y-50531882D01*
X139608429Y-50470661D01*
X139608434Y-50470659D01*
X139613384Y-50469174D01*
X139813994Y-50370896D01*
X139995860Y-50241173D01*
X140154096Y-50083489D01*
X140213594Y-50000689D01*
X140284453Y-49902077D01*
X140285776Y-49903028D01*
X140332645Y-49859857D01*
X140402580Y-49847625D01*
X140468026Y-49875144D01*
X140495875Y-49906994D01*
X140555987Y-50005088D01*
X140702250Y-50173938D01*
X140874126Y-50316632D01*
X141067000Y-50429338D01*
X141275692Y-50509030D01*
X141280760Y-50510061D01*
X141280763Y-50510062D01*
X141375862Y-50529410D01*
X141494597Y-50553567D01*
X141499772Y-50553757D01*
X141499774Y-50553757D01*
X141712673Y-50561564D01*
X141712677Y-50561564D01*
X141717837Y-50561753D01*
X141722957Y-50561097D01*
X141722959Y-50561097D01*
X141934288Y-50534025D01*
X141934289Y-50534025D01*
X141939416Y-50533368D01*
X141944369Y-50531882D01*
X142148429Y-50470661D01*
X142148434Y-50470659D01*
X142153384Y-50469174D01*
X142353994Y-50370896D01*
X142535860Y-50241173D01*
X142694096Y-50083489D01*
X142753594Y-50000689D01*
X142821435Y-49906277D01*
X142824453Y-49902077D01*
X142829979Y-49890897D01*
X142921136Y-49706453D01*
X142921137Y-49706451D01*
X142923430Y-49701811D01*
X142988370Y-49488069D01*
X143017529Y-49266590D01*
X143019156Y-49200000D01*
X143000852Y-48977361D01*
X142946431Y-48760702D01*
X142857354Y-48555840D01*
X142792989Y-48456347D01*
X142738822Y-48372617D01*
X142738820Y-48372614D01*
X142736014Y-48368277D01*
X142585670Y-48203051D01*
X142581619Y-48199852D01*
X142581615Y-48199848D01*
X142414414Y-48067800D01*
X142414410Y-48067798D01*
X142410359Y-48064598D01*
X142374028Y-48044542D01*
X142358136Y-48035769D01*
X142214789Y-47956638D01*
X142209920Y-47954914D01*
X142209916Y-47954912D01*
X142009087Y-47883795D01*
X142009083Y-47883794D01*
X142004212Y-47882069D01*
X141999119Y-47881162D01*
X141999116Y-47881161D01*
X141789373Y-47843800D01*
X141789367Y-47843799D01*
X141784284Y-47842894D01*
X141710452Y-47841992D01*
X141566081Y-47840228D01*
X141566079Y-47840228D01*
X141560911Y-47840165D01*
X141340091Y-47873955D01*
X141127756Y-47943357D01*
X140929607Y-48046507D01*
X140925474Y-48049610D01*
X140925471Y-48049612D01*
X140755100Y-48177530D01*
X140750965Y-48180635D01*
X140747393Y-48184373D01*
X140639729Y-48297037D01*
X140596629Y-48342138D01*
X140489201Y-48499621D01*
X140434293Y-48544621D01*
X140363768Y-48552792D01*
X140300021Y-48521538D01*
X140279324Y-48497054D01*
X140198822Y-48372617D01*
X140198820Y-48372614D01*
X140196014Y-48368277D01*
X140045670Y-48203051D01*
X140041619Y-48199852D01*
X140041615Y-48199848D01*
X139874414Y-48067800D01*
X139874410Y-48067798D01*
X139870359Y-48064598D01*
X139834028Y-48044542D01*
X139818136Y-48035769D01*
X139674789Y-47956638D01*
X139669920Y-47954914D01*
X139669916Y-47954912D01*
X139469087Y-47883795D01*
X139469083Y-47883794D01*
X139464212Y-47882069D01*
X139459119Y-47881162D01*
X139459116Y-47881161D01*
X139249373Y-47843800D01*
X139249367Y-47843799D01*
X139244284Y-47842894D01*
X139170452Y-47841992D01*
X139026081Y-47840228D01*
X139026079Y-47840228D01*
X139020911Y-47840165D01*
X138800091Y-47873955D01*
X138587756Y-47943357D01*
X138389607Y-48046507D01*
X138385474Y-48049610D01*
X138385471Y-48049612D01*
X138215100Y-48177530D01*
X138210965Y-48180635D01*
X138207393Y-48184373D01*
X138099729Y-48297037D01*
X138056629Y-48342138D01*
X137949201Y-48499621D01*
X137894293Y-48544621D01*
X137823768Y-48552792D01*
X137760021Y-48521538D01*
X137739324Y-48497054D01*
X137658822Y-48372617D01*
X137658820Y-48372614D01*
X137656014Y-48368277D01*
X137505670Y-48203051D01*
X137501619Y-48199852D01*
X137501615Y-48199848D01*
X137334414Y-48067800D01*
X137334410Y-48067798D01*
X137330359Y-48064598D01*
X137294028Y-48044542D01*
X137278136Y-48035769D01*
X137134789Y-47956638D01*
X137129920Y-47954914D01*
X137129916Y-47954912D01*
X136929087Y-47883795D01*
X136929083Y-47883794D01*
X136924212Y-47882069D01*
X136919119Y-47881162D01*
X136919116Y-47881161D01*
X136709373Y-47843800D01*
X136709367Y-47843799D01*
X136704284Y-47842894D01*
X136630452Y-47841992D01*
X136486081Y-47840228D01*
X136486079Y-47840228D01*
X136480911Y-47840165D01*
X136260091Y-47873955D01*
X136047756Y-47943357D01*
X135849607Y-48046507D01*
X135845474Y-48049610D01*
X135845471Y-48049612D01*
X135675100Y-48177530D01*
X135670965Y-48180635D01*
X135667393Y-48184373D01*
X135559729Y-48297037D01*
X135516629Y-48342138D01*
X135409201Y-48499621D01*
X135354293Y-48544621D01*
X135283768Y-48552792D01*
X135220021Y-48521538D01*
X135199324Y-48497054D01*
X135118822Y-48372617D01*
X135118820Y-48372614D01*
X135116014Y-48368277D01*
X134965670Y-48203051D01*
X134961619Y-48199852D01*
X134961615Y-48199848D01*
X134794414Y-48067800D01*
X134794410Y-48067798D01*
X134790359Y-48064598D01*
X134754028Y-48044542D01*
X134738136Y-48035769D01*
X134594789Y-47956638D01*
X134589920Y-47954914D01*
X134589916Y-47954912D01*
X134389087Y-47883795D01*
X134389083Y-47883794D01*
X134384212Y-47882069D01*
X134379119Y-47881162D01*
X134379116Y-47881161D01*
X134169373Y-47843800D01*
X134169367Y-47843799D01*
X134164284Y-47842894D01*
X134090452Y-47841992D01*
X133946081Y-47840228D01*
X133946079Y-47840228D01*
X133940911Y-47840165D01*
X133720091Y-47873955D01*
X133507756Y-47943357D01*
X133309607Y-48046507D01*
X133305474Y-48049610D01*
X133305471Y-48049612D01*
X133135100Y-48177530D01*
X133130965Y-48180635D01*
X133127393Y-48184373D01*
X133019729Y-48297037D01*
X132976629Y-48342138D01*
X132869201Y-48499621D01*
X132814293Y-48544621D01*
X132743768Y-48552792D01*
X132680021Y-48521538D01*
X132659324Y-48497054D01*
X132578822Y-48372617D01*
X132578820Y-48372614D01*
X132576014Y-48368277D01*
X132425670Y-48203051D01*
X132421619Y-48199852D01*
X132421615Y-48199848D01*
X132254414Y-48067800D01*
X132254410Y-48067798D01*
X132250359Y-48064598D01*
X132214028Y-48044542D01*
X132198136Y-48035769D01*
X132054789Y-47956638D01*
X132049920Y-47954914D01*
X132049916Y-47954912D01*
X131849087Y-47883795D01*
X131849083Y-47883794D01*
X131844212Y-47882069D01*
X131839119Y-47881162D01*
X131839116Y-47881161D01*
X131629373Y-47843800D01*
X131629367Y-47843799D01*
X131624284Y-47842894D01*
X131550452Y-47841992D01*
X131406081Y-47840228D01*
X131406079Y-47840228D01*
X131400911Y-47840165D01*
X131180091Y-47873955D01*
X130967756Y-47943357D01*
X130769607Y-48046507D01*
X130765474Y-48049610D01*
X130765471Y-48049612D01*
X130595100Y-48177530D01*
X130590965Y-48180635D01*
X130587393Y-48184373D01*
X130479729Y-48297037D01*
X130436629Y-48342138D01*
X130329201Y-48499621D01*
X130274293Y-48544621D01*
X130203768Y-48552792D01*
X130140021Y-48521538D01*
X130119324Y-48497054D01*
X130038822Y-48372617D01*
X130038820Y-48372614D01*
X130036014Y-48368277D01*
X129885670Y-48203051D01*
X129881619Y-48199852D01*
X129881615Y-48199848D01*
X129714414Y-48067800D01*
X129714410Y-48067798D01*
X129710359Y-48064598D01*
X129674028Y-48044542D01*
X129658136Y-48035769D01*
X129514789Y-47956638D01*
X129509920Y-47954914D01*
X129509916Y-47954912D01*
X129309087Y-47883795D01*
X129309083Y-47883794D01*
X129304212Y-47882069D01*
X129299119Y-47881162D01*
X129299116Y-47881161D01*
X129089373Y-47843800D01*
X129089367Y-47843799D01*
X129084284Y-47842894D01*
X129010452Y-47841992D01*
X128866081Y-47840228D01*
X128866079Y-47840228D01*
X128860911Y-47840165D01*
X128640091Y-47873955D01*
X128427756Y-47943357D01*
X128229607Y-48046507D01*
X128225474Y-48049610D01*
X128225471Y-48049612D01*
X128055100Y-48177530D01*
X128050965Y-48180635D01*
X128047393Y-48184373D01*
X127939729Y-48297037D01*
X127896629Y-48342138D01*
X127789204Y-48499618D01*
X127788898Y-48500066D01*
X127733987Y-48545069D01*
X127663462Y-48553240D01*
X127599715Y-48521986D01*
X127579018Y-48497502D01*
X127498426Y-48372926D01*
X127492136Y-48364757D01*
X127348806Y-48207240D01*
X127341273Y-48200215D01*
X127174139Y-48068222D01*
X127165552Y-48062517D01*
X126979117Y-47959599D01*
X126969705Y-47955369D01*
X126768959Y-47884280D01*
X126758988Y-47881646D01*
X126687837Y-47868972D01*
X126674540Y-47870432D01*
X126670000Y-47884989D01*
X126670000Y-50518517D01*
X126162000Y-50518517D01*
X126162000Y-47883102D01*
X126158082Y-47869758D01*
X126143806Y-47867771D01*
X126105324Y-47873660D01*
X126095288Y-47876051D01*
X125892868Y-47942212D01*
X125883359Y-47946209D01*
X125694463Y-48044542D01*
X125685738Y-48050036D01*
X125515433Y-48177905D01*
X125507726Y-48184748D01*
X125360590Y-48338717D01*
X125354109Y-48346722D01*
X125249498Y-48500074D01*
X125194587Y-48545076D01*
X125124062Y-48553247D01*
X125060315Y-48521993D01*
X125039618Y-48497509D01*
X124958822Y-48372617D01*
X124958820Y-48372614D01*
X124956014Y-48368277D01*
X124805670Y-48203051D01*
X124801619Y-48199852D01*
X124801615Y-48199848D01*
X124634414Y-48067800D01*
X124634410Y-48067798D01*
X124630359Y-48064598D01*
X124594028Y-48044542D01*
X124578136Y-48035769D01*
X124434789Y-47956638D01*
X124429920Y-47954914D01*
X124429916Y-47954912D01*
X124229087Y-47883795D01*
X124229083Y-47883794D01*
X124224212Y-47882069D01*
X124219119Y-47881162D01*
X124219116Y-47881161D01*
X124009373Y-47843800D01*
X124009367Y-47843799D01*
X124004284Y-47842894D01*
X123930452Y-47841992D01*
X123786081Y-47840228D01*
X123786079Y-47840228D01*
X123780911Y-47840165D01*
X123560091Y-47873955D01*
X123347756Y-47943357D01*
X123149607Y-48046507D01*
X123145474Y-48049610D01*
X123145471Y-48049612D01*
X122975100Y-48177530D01*
X122970965Y-48180635D01*
X122967393Y-48184373D01*
X122859729Y-48297037D01*
X122816629Y-48342138D01*
X122709201Y-48499621D01*
X122654293Y-48544621D01*
X122583768Y-48552792D01*
X122520021Y-48521538D01*
X122499324Y-48497054D01*
X122418822Y-48372617D01*
X122418820Y-48372614D01*
X122416014Y-48368277D01*
X122265670Y-48203051D01*
X122261619Y-48199852D01*
X122261615Y-48199848D01*
X122094414Y-48067800D01*
X122094410Y-48067798D01*
X122090359Y-48064598D01*
X122054028Y-48044542D01*
X122038136Y-48035769D01*
X121894789Y-47956638D01*
X121889920Y-47954914D01*
X121889916Y-47954912D01*
X121689087Y-47883795D01*
X121689083Y-47883794D01*
X121684212Y-47882069D01*
X121679119Y-47881162D01*
X121679116Y-47881161D01*
X121469373Y-47843800D01*
X121469367Y-47843799D01*
X121464284Y-47842894D01*
X121390452Y-47841992D01*
X121246081Y-47840228D01*
X121246079Y-47840228D01*
X121240911Y-47840165D01*
X121020091Y-47873955D01*
X120807756Y-47943357D01*
X120609607Y-48046507D01*
X120605474Y-48049610D01*
X120605471Y-48049612D01*
X120435100Y-48177530D01*
X120430965Y-48180635D01*
X120374537Y-48239684D01*
X120350283Y-48265064D01*
X120288759Y-48300494D01*
X120217846Y-48297037D01*
X120160060Y-48255791D01*
X120141207Y-48222243D01*
X120099767Y-48111703D01*
X120096615Y-48103295D01*
X120009261Y-47986739D01*
X119892705Y-47899385D01*
X119756316Y-47848255D01*
X119694134Y-47841500D01*
X117897866Y-47841500D01*
X117835684Y-47848255D01*
X117699295Y-47899385D01*
X117582739Y-47986739D01*
X117495385Y-48103295D01*
X117444255Y-48239684D01*
X117437500Y-48301866D01*
X117437500Y-48361123D01*
X117417498Y-48429244D01*
X117363842Y-48475737D01*
X117293568Y-48485841D01*
X117228988Y-48456347D01*
X117195603Y-48410558D01*
X117124763Y-48244476D01*
X117124761Y-48244472D01*
X117123077Y-48240524D01*
X117019704Y-48067800D01*
X116977643Y-47997521D01*
X116977640Y-47997517D01*
X116975439Y-47993839D01*
X116795687Y-47769472D01*
X116587149Y-47571577D01*
X116353683Y-47403814D01*
X116349881Y-47401801D01*
X116349536Y-47401587D01*
X116302181Y-47348691D01*
X116290941Y-47278589D01*
X116319385Y-47213540D01*
X116378482Y-47174194D01*
X116415932Y-47168500D01*
X188995143Y-47168500D01*
X189063264Y-47188502D01*
X189109757Y-47242158D01*
X189119861Y-47312432D01*
X189090367Y-47377012D01*
X189067594Y-47397587D01*
X189055163Y-47406324D01*
X188839977Y-47557559D01*
X188629378Y-47753260D01*
X188447287Y-47975732D01*
X188297073Y-48220858D01*
X188295347Y-48224791D01*
X188295346Y-48224792D01*
X188243835Y-48342138D01*
X188181517Y-48484102D01*
X188180342Y-48488229D01*
X188180341Y-48488230D01*
X188176967Y-48500074D01*
X188102756Y-48760594D01*
X188062249Y-49045216D01*
X188062227Y-49049505D01*
X188062226Y-49049512D01*
X188060765Y-49328417D01*
X188060743Y-49332703D01*
X188098268Y-49617734D01*
X188174129Y-49895036D01*
X188175813Y-49898984D01*
X188271202Y-50122618D01*
X188286923Y-50159476D01*
X188333637Y-50237529D01*
X188414235Y-50372198D01*
X188434561Y-50406161D01*
X188614313Y-50630528D01*
X188822851Y-50828423D01*
X189056317Y-50996186D01*
X189060112Y-50998195D01*
X189060113Y-50998196D01*
X189081869Y-51009715D01*
X189310392Y-51130712D01*
X189334699Y-51139607D01*
X189569194Y-51225420D01*
X189580373Y-51229511D01*
X189861264Y-51290755D01*
X189889841Y-51293004D01*
X190084282Y-51308307D01*
X190084291Y-51308307D01*
X190086739Y-51308500D01*
X190242271Y-51308500D01*
X190244407Y-51308354D01*
X190244418Y-51308354D01*
X190452548Y-51294165D01*
X190452554Y-51294164D01*
X190456825Y-51293873D01*
X190461020Y-51293004D01*
X190461022Y-51293004D01*
X190642422Y-51255438D01*
X190738342Y-51235574D01*
X191009343Y-51139607D01*
X191264812Y-51007750D01*
X191268313Y-51005289D01*
X191268317Y-51005287D01*
X191448857Y-50878401D01*
X191500023Y-50842441D01*
X191578403Y-50769606D01*
X191707479Y-50649661D01*
X191707481Y-50649658D01*
X191710622Y-50646740D01*
X191892713Y-50424268D01*
X192042927Y-50179142D01*
X192046927Y-50170031D01*
X192156757Y-49919830D01*
X192158483Y-49915898D01*
X192163742Y-49897438D01*
X192236068Y-49643534D01*
X192237244Y-49639406D01*
X192277751Y-49354784D01*
X192277845Y-49336951D01*
X192279235Y-49071583D01*
X192279235Y-49071576D01*
X192279257Y-49067297D01*
X192241732Y-48782266D01*
X192165871Y-48504964D01*
X192145134Y-48456347D01*
X192054763Y-48244476D01*
X192054761Y-48244472D01*
X192053077Y-48240524D01*
X191949704Y-48067800D01*
X191907643Y-47997521D01*
X191907640Y-47997517D01*
X191905439Y-47993839D01*
X191725687Y-47769472D01*
X191517149Y-47571577D01*
X191283683Y-47403814D01*
X191279881Y-47401801D01*
X191279536Y-47401587D01*
X191232181Y-47348691D01*
X191220941Y-47278589D01*
X191249385Y-47213540D01*
X191308482Y-47174194D01*
X191345932Y-47168500D01*
X198425500Y-47168500D01*
X198493621Y-47188502D01*
X198540114Y-47242158D01*
X198551500Y-47294500D01*
X198551500Y-59288928D01*
X198550145Y-59301058D01*
X198550627Y-59301097D01*
X198549907Y-59310044D01*
X198547926Y-59318800D01*
X198548482Y-59327760D01*
X198551258Y-59372508D01*
X198551500Y-59380310D01*
X198551500Y-59396513D01*
X198552136Y-59400953D01*
X198552984Y-59406878D01*
X198554013Y-59416928D01*
X198556362Y-59454785D01*
X198556945Y-59464177D01*
X198559994Y-59472623D01*
X198560593Y-59475514D01*
X198564822Y-59492480D01*
X198565648Y-59495305D01*
X198566920Y-59504187D01*
X198586522Y-59547298D01*
X198590327Y-59556647D01*
X198606404Y-59601181D01*
X198611699Y-59608429D01*
X198613080Y-59611027D01*
X198621915Y-59626145D01*
X198623494Y-59628614D01*
X198627208Y-59636782D01*
X198641202Y-59653023D01*
X198658115Y-59672652D01*
X198664401Y-59680569D01*
X198669548Y-59687615D01*
X198669553Y-59687620D01*
X198672425Y-59691552D01*
X198683400Y-59702527D01*
X198689758Y-59709374D01*
X198722287Y-59747127D01*
X198729822Y-59752011D01*
X198736066Y-59757458D01*
X198747931Y-59767058D01*
X201054595Y-62073723D01*
X201088621Y-62136035D01*
X201091500Y-62162818D01*
X201091500Y-95927182D01*
X201071498Y-95995303D01*
X201054595Y-96016277D01*
X198750696Y-98320177D01*
X198741156Y-98327800D01*
X198741470Y-98328168D01*
X198734634Y-98333986D01*
X198727042Y-98338776D01*
X198721100Y-98345504D01*
X198691407Y-98379125D01*
X198686061Y-98384812D01*
X198679867Y-98391006D01*
X198617555Y-98425032D01*
X198546740Y-98419967D01*
X198489904Y-98377420D01*
X198465093Y-98310900D01*
X198475397Y-98251269D01*
X198508483Y-98175898D01*
X198513742Y-98157438D01*
X198586068Y-97903534D01*
X198587244Y-97899406D01*
X198627751Y-97614784D01*
X198627845Y-97596951D01*
X198629235Y-97331583D01*
X198629235Y-97331576D01*
X198629257Y-97327297D01*
X198591732Y-97042266D01*
X198515871Y-96764964D01*
X198448239Y-96606403D01*
X198404763Y-96504476D01*
X198404761Y-96504472D01*
X198403077Y-96500524D01*
X198299704Y-96327800D01*
X198257643Y-96257521D01*
X198257640Y-96257517D01*
X198255439Y-96253839D01*
X198075687Y-96029472D01*
X197867149Y-95831577D01*
X197633683Y-95663814D01*
X197611843Y-95652250D01*
X197588654Y-95639972D01*
X197379608Y-95529288D01*
X197109627Y-95430489D01*
X196828736Y-95369245D01*
X196797685Y-95366801D01*
X196605718Y-95351693D01*
X196605709Y-95351693D01*
X196603261Y-95351500D01*
X196447729Y-95351500D01*
X196445593Y-95351646D01*
X196445582Y-95351646D01*
X196237452Y-95365835D01*
X196237446Y-95365836D01*
X196233175Y-95366127D01*
X196228980Y-95366996D01*
X196228978Y-95366996D01*
X196092417Y-95395276D01*
X195951658Y-95424426D01*
X195680657Y-95520393D01*
X195425188Y-95652250D01*
X195421687Y-95654711D01*
X195421683Y-95654713D01*
X195411594Y-95661804D01*
X195189977Y-95817559D01*
X195174892Y-95831577D01*
X195015846Y-95979372D01*
X194979378Y-96013260D01*
X194797287Y-96235732D01*
X194647073Y-96480858D01*
X194645347Y-96484791D01*
X194645346Y-96484792D01*
X194593835Y-96602138D01*
X194531517Y-96744102D01*
X194530342Y-96748229D01*
X194530341Y-96748230D01*
X194526967Y-96760074D01*
X194452756Y-97020594D01*
X194412249Y-97305216D01*
X194412227Y-97309505D01*
X194412226Y-97309512D01*
X194410765Y-97588417D01*
X194410743Y-97592703D01*
X194448268Y-97877734D01*
X194524129Y-98155036D01*
X194525813Y-98158984D01*
X194621202Y-98382618D01*
X194636923Y-98419476D01*
X194784561Y-98666161D01*
X194964313Y-98890528D01*
X195172851Y-99088423D01*
X195406317Y-99256186D01*
X195410119Y-99258199D01*
X195410464Y-99258413D01*
X195457819Y-99311309D01*
X195469059Y-99381411D01*
X195440615Y-99446460D01*
X195381518Y-99485806D01*
X195344068Y-99491500D01*
X115144857Y-99491500D01*
X115076736Y-99471498D01*
X115030243Y-99417842D01*
X115020139Y-99347568D01*
X115049633Y-99282988D01*
X115072406Y-99262413D01*
X115177384Y-99188633D01*
X115300023Y-99102441D01*
X115378403Y-99029606D01*
X115507479Y-98909661D01*
X115507481Y-98909658D01*
X115510622Y-98906740D01*
X115692713Y-98684268D01*
X115842927Y-98439142D01*
X115846927Y-98430031D01*
X115878487Y-98358134D01*
X126581500Y-98358134D01*
X126588255Y-98420316D01*
X126639385Y-98556705D01*
X126726739Y-98673261D01*
X126843295Y-98760615D01*
X126979684Y-98811745D01*
X127041866Y-98818500D01*
X128838134Y-98818500D01*
X128900316Y-98811745D01*
X129036705Y-98760615D01*
X129153261Y-98673261D01*
X129240615Y-98556705D01*
X129262799Y-98497529D01*
X129284598Y-98439382D01*
X129327240Y-98382618D01*
X129393802Y-98357918D01*
X129463150Y-98373126D01*
X129497817Y-98401114D01*
X129526250Y-98433938D01*
X129698126Y-98576632D01*
X129891000Y-98689338D01*
X130099692Y-98769030D01*
X130104760Y-98770061D01*
X130104763Y-98770062D01*
X130172598Y-98783863D01*
X130318597Y-98813567D01*
X130323772Y-98813757D01*
X130323774Y-98813757D01*
X130536673Y-98821564D01*
X130536677Y-98821564D01*
X130541837Y-98821753D01*
X130546957Y-98821097D01*
X130546959Y-98821097D01*
X130758288Y-98794025D01*
X130758289Y-98794025D01*
X130763416Y-98793368D01*
X130768366Y-98791883D01*
X130972429Y-98730661D01*
X130972434Y-98730659D01*
X130977384Y-98729174D01*
X131177994Y-98630896D01*
X131359860Y-98501173D01*
X131518096Y-98343489D01*
X131527693Y-98330134D01*
X131648453Y-98162077D01*
X131649776Y-98163028D01*
X131696645Y-98119857D01*
X131766580Y-98107625D01*
X131832026Y-98135144D01*
X131859875Y-98166994D01*
X131919987Y-98265088D01*
X132066250Y-98433938D01*
X132238126Y-98576632D01*
X132431000Y-98689338D01*
X132639692Y-98769030D01*
X132644760Y-98770061D01*
X132644763Y-98770062D01*
X132712598Y-98783863D01*
X132858597Y-98813567D01*
X132863772Y-98813757D01*
X132863774Y-98813757D01*
X133076673Y-98821564D01*
X133076677Y-98821564D01*
X133081837Y-98821753D01*
X133086957Y-98821097D01*
X133086959Y-98821097D01*
X133298288Y-98794025D01*
X133298289Y-98794025D01*
X133303416Y-98793368D01*
X133308366Y-98791883D01*
X133512429Y-98730661D01*
X133512434Y-98730659D01*
X133517384Y-98729174D01*
X133717994Y-98630896D01*
X133899860Y-98501173D01*
X134058096Y-98343489D01*
X134067693Y-98330134D01*
X134188453Y-98162077D01*
X134189776Y-98163028D01*
X134236645Y-98119857D01*
X134306580Y-98107625D01*
X134372026Y-98135144D01*
X134399875Y-98166994D01*
X134459987Y-98265088D01*
X134606250Y-98433938D01*
X134778126Y-98576632D01*
X134971000Y-98689338D01*
X135179692Y-98769030D01*
X135184760Y-98770061D01*
X135184763Y-98770062D01*
X135252598Y-98783863D01*
X135398597Y-98813567D01*
X135403772Y-98813757D01*
X135403774Y-98813757D01*
X135616673Y-98821564D01*
X135616677Y-98821564D01*
X135621837Y-98821753D01*
X135626957Y-98821097D01*
X135626959Y-98821097D01*
X135838288Y-98794025D01*
X135838289Y-98794025D01*
X135843416Y-98793368D01*
X135848366Y-98791883D01*
X136052429Y-98730661D01*
X136052434Y-98730659D01*
X136057384Y-98729174D01*
X136257994Y-98630896D01*
X136439860Y-98501173D01*
X136598096Y-98343489D01*
X136607693Y-98330134D01*
X136728453Y-98162077D01*
X136729776Y-98163028D01*
X136776645Y-98119857D01*
X136846580Y-98107625D01*
X136912026Y-98135144D01*
X136939875Y-98166994D01*
X136999987Y-98265088D01*
X137146250Y-98433938D01*
X137318126Y-98576632D01*
X137511000Y-98689338D01*
X137719692Y-98769030D01*
X137724760Y-98770061D01*
X137724763Y-98770062D01*
X137792598Y-98783863D01*
X137938597Y-98813567D01*
X137943772Y-98813757D01*
X137943774Y-98813757D01*
X138156673Y-98821564D01*
X138156677Y-98821564D01*
X138161837Y-98821753D01*
X138166957Y-98821097D01*
X138166959Y-98821097D01*
X138378288Y-98794025D01*
X138378289Y-98794025D01*
X138383416Y-98793368D01*
X138388366Y-98791883D01*
X138592429Y-98730661D01*
X138592434Y-98730659D01*
X138597384Y-98729174D01*
X138797994Y-98630896D01*
X138979860Y-98501173D01*
X139138096Y-98343489D01*
X139147693Y-98330134D01*
X139268453Y-98162077D01*
X139269640Y-98162930D01*
X139316960Y-98119362D01*
X139386897Y-98107145D01*
X139452338Y-98134678D01*
X139480166Y-98166511D01*
X139537694Y-98260388D01*
X139543777Y-98268699D01*
X139683213Y-98429667D01*
X139690580Y-98436883D01*
X139854434Y-98572916D01*
X139862881Y-98578831D01*
X140046756Y-98686279D01*
X140056042Y-98690729D01*
X140255001Y-98766703D01*
X140264899Y-98769579D01*
X140368250Y-98790606D01*
X140382299Y-98789410D01*
X140386000Y-98779065D01*
X140386000Y-98778517D01*
X140894000Y-98778517D01*
X140898064Y-98792359D01*
X140911478Y-98794393D01*
X140918184Y-98793534D01*
X140928262Y-98791392D01*
X141132255Y-98730191D01*
X141141842Y-98726433D01*
X141333095Y-98632739D01*
X141341945Y-98627464D01*
X141515328Y-98503792D01*
X141523200Y-98497139D01*
X141674052Y-98346812D01*
X141680730Y-98338965D01*
X141808022Y-98161819D01*
X141809147Y-98162627D01*
X141856669Y-98118876D01*
X141926607Y-98106661D01*
X141992046Y-98134197D01*
X142019870Y-98166028D01*
X142077690Y-98260383D01*
X142083777Y-98268699D01*
X142223213Y-98429667D01*
X142230580Y-98436883D01*
X142394434Y-98572916D01*
X142402881Y-98578831D01*
X142586756Y-98686279D01*
X142596042Y-98690729D01*
X142795001Y-98766703D01*
X142804899Y-98769579D01*
X142908250Y-98790606D01*
X142922299Y-98789410D01*
X142926000Y-98779065D01*
X142926000Y-98778517D01*
X143434000Y-98778517D01*
X143438064Y-98792359D01*
X143451478Y-98794393D01*
X143458184Y-98793534D01*
X143468262Y-98791392D01*
X143672255Y-98730191D01*
X143681842Y-98726433D01*
X143873095Y-98632739D01*
X143881945Y-98627464D01*
X144055328Y-98503792D01*
X144063200Y-98497139D01*
X144214052Y-98346812D01*
X144220730Y-98338965D01*
X144348022Y-98161819D01*
X144349279Y-98162722D01*
X144396373Y-98119362D01*
X144466311Y-98107145D01*
X144531751Y-98134678D01*
X144559579Y-98166511D01*
X144619987Y-98265088D01*
X144766250Y-98433938D01*
X144938126Y-98576632D01*
X145131000Y-98689338D01*
X145339692Y-98769030D01*
X145344760Y-98770061D01*
X145344763Y-98770062D01*
X145412598Y-98783863D01*
X145558597Y-98813567D01*
X145563772Y-98813757D01*
X145563774Y-98813757D01*
X145776673Y-98821564D01*
X145776677Y-98821564D01*
X145781837Y-98821753D01*
X145786957Y-98821097D01*
X145786959Y-98821097D01*
X145998288Y-98794025D01*
X145998289Y-98794025D01*
X146003416Y-98793368D01*
X146008366Y-98791883D01*
X146212429Y-98730661D01*
X146212434Y-98730659D01*
X146217384Y-98729174D01*
X146417994Y-98630896D01*
X146599860Y-98501173D01*
X146743400Y-98358134D01*
X149441500Y-98358134D01*
X149448255Y-98420316D01*
X149499385Y-98556705D01*
X149586739Y-98673261D01*
X149703295Y-98760615D01*
X149839684Y-98811745D01*
X149901866Y-98818500D01*
X151698134Y-98818500D01*
X151760316Y-98811745D01*
X151896705Y-98760615D01*
X152013261Y-98673261D01*
X152100615Y-98556705D01*
X152122799Y-98497529D01*
X152144598Y-98439382D01*
X152187240Y-98382618D01*
X152253802Y-98357918D01*
X152323150Y-98373126D01*
X152357817Y-98401114D01*
X152386250Y-98433938D01*
X152558126Y-98576632D01*
X152751000Y-98689338D01*
X152959692Y-98769030D01*
X152964760Y-98770061D01*
X152964763Y-98770062D01*
X153032598Y-98783863D01*
X153178597Y-98813567D01*
X153183772Y-98813757D01*
X153183774Y-98813757D01*
X153396673Y-98821564D01*
X153396677Y-98821564D01*
X153401837Y-98821753D01*
X153406957Y-98821097D01*
X153406959Y-98821097D01*
X153618288Y-98794025D01*
X153618289Y-98794025D01*
X153623416Y-98793368D01*
X153628366Y-98791883D01*
X153832429Y-98730661D01*
X153832434Y-98730659D01*
X153837384Y-98729174D01*
X154037994Y-98630896D01*
X154219860Y-98501173D01*
X154378096Y-98343489D01*
X154387693Y-98330134D01*
X154508453Y-98162077D01*
X154509776Y-98163028D01*
X154556645Y-98119857D01*
X154626580Y-98107625D01*
X154692026Y-98135144D01*
X154719875Y-98166994D01*
X154779987Y-98265088D01*
X154926250Y-98433938D01*
X155098126Y-98576632D01*
X155291000Y-98689338D01*
X155499692Y-98769030D01*
X155504760Y-98770061D01*
X155504763Y-98770062D01*
X155572598Y-98783863D01*
X155718597Y-98813567D01*
X155723772Y-98813757D01*
X155723774Y-98813757D01*
X155936673Y-98821564D01*
X155936677Y-98821564D01*
X155941837Y-98821753D01*
X155946957Y-98821097D01*
X155946959Y-98821097D01*
X156158288Y-98794025D01*
X156158289Y-98794025D01*
X156163416Y-98793368D01*
X156168366Y-98791883D01*
X156372429Y-98730661D01*
X156372434Y-98730659D01*
X156377384Y-98729174D01*
X156577994Y-98630896D01*
X156759860Y-98501173D01*
X156918096Y-98343489D01*
X156927693Y-98330134D01*
X157048453Y-98162077D01*
X157049776Y-98163028D01*
X157096645Y-98119857D01*
X157166580Y-98107625D01*
X157232026Y-98135144D01*
X157259875Y-98166994D01*
X157319987Y-98265088D01*
X157466250Y-98433938D01*
X157638126Y-98576632D01*
X157831000Y-98689338D01*
X158039692Y-98769030D01*
X158044760Y-98770061D01*
X158044763Y-98770062D01*
X158112598Y-98783863D01*
X158258597Y-98813567D01*
X158263772Y-98813757D01*
X158263774Y-98813757D01*
X158476673Y-98821564D01*
X158476677Y-98821564D01*
X158481837Y-98821753D01*
X158486957Y-98821097D01*
X158486959Y-98821097D01*
X158698288Y-98794025D01*
X158698289Y-98794025D01*
X158703416Y-98793368D01*
X158708366Y-98791883D01*
X158912429Y-98730661D01*
X158912434Y-98730659D01*
X158917384Y-98729174D01*
X159117994Y-98630896D01*
X159299860Y-98501173D01*
X159458096Y-98343489D01*
X159467693Y-98330134D01*
X159588453Y-98162077D01*
X159589776Y-98163028D01*
X159636645Y-98119857D01*
X159706580Y-98107625D01*
X159772026Y-98135144D01*
X159799875Y-98166994D01*
X159859987Y-98265088D01*
X160006250Y-98433938D01*
X160178126Y-98576632D01*
X160371000Y-98689338D01*
X160579692Y-98769030D01*
X160584760Y-98770061D01*
X160584763Y-98770062D01*
X160652598Y-98783863D01*
X160798597Y-98813567D01*
X160803772Y-98813757D01*
X160803774Y-98813757D01*
X161016673Y-98821564D01*
X161016677Y-98821564D01*
X161021837Y-98821753D01*
X161026957Y-98821097D01*
X161026959Y-98821097D01*
X161238288Y-98794025D01*
X161238289Y-98794025D01*
X161243416Y-98793368D01*
X161248366Y-98791883D01*
X161452429Y-98730661D01*
X161452434Y-98730659D01*
X161457384Y-98729174D01*
X161657994Y-98630896D01*
X161839860Y-98501173D01*
X161998096Y-98343489D01*
X162007693Y-98330134D01*
X162128453Y-98162077D01*
X162129776Y-98163028D01*
X162176645Y-98119857D01*
X162246580Y-98107625D01*
X162312026Y-98135144D01*
X162339875Y-98166994D01*
X162399987Y-98265088D01*
X162546250Y-98433938D01*
X162718126Y-98576632D01*
X162911000Y-98689338D01*
X163119692Y-98769030D01*
X163124760Y-98770061D01*
X163124763Y-98770062D01*
X163192598Y-98783863D01*
X163338597Y-98813567D01*
X163343772Y-98813757D01*
X163343774Y-98813757D01*
X163556673Y-98821564D01*
X163556677Y-98821564D01*
X163561837Y-98821753D01*
X163566957Y-98821097D01*
X163566959Y-98821097D01*
X163778288Y-98794025D01*
X163778289Y-98794025D01*
X163783416Y-98793368D01*
X163788366Y-98791883D01*
X163992429Y-98730661D01*
X163992434Y-98730659D01*
X163997384Y-98729174D01*
X164197994Y-98630896D01*
X164379860Y-98501173D01*
X164538096Y-98343489D01*
X164547693Y-98330134D01*
X164668453Y-98162077D01*
X164669776Y-98163028D01*
X164716645Y-98119857D01*
X164786580Y-98107625D01*
X164852026Y-98135144D01*
X164879875Y-98166994D01*
X164939987Y-98265088D01*
X165086250Y-98433938D01*
X165258126Y-98576632D01*
X165451000Y-98689338D01*
X165659692Y-98769030D01*
X165664760Y-98770061D01*
X165664763Y-98770062D01*
X165732598Y-98783863D01*
X165878597Y-98813567D01*
X165883772Y-98813757D01*
X165883774Y-98813757D01*
X166096673Y-98821564D01*
X166096677Y-98821564D01*
X166101837Y-98821753D01*
X166106957Y-98821097D01*
X166106959Y-98821097D01*
X166318288Y-98794025D01*
X166318289Y-98794025D01*
X166323416Y-98793368D01*
X166328366Y-98791883D01*
X166532429Y-98730661D01*
X166532434Y-98730659D01*
X166537384Y-98729174D01*
X166737994Y-98630896D01*
X166919860Y-98501173D01*
X167078096Y-98343489D01*
X167087693Y-98330134D01*
X167208453Y-98162077D01*
X167209776Y-98163028D01*
X167256645Y-98119857D01*
X167326580Y-98107625D01*
X167392026Y-98135144D01*
X167419875Y-98166994D01*
X167479987Y-98265088D01*
X167626250Y-98433938D01*
X167798126Y-98576632D01*
X167991000Y-98689338D01*
X168199692Y-98769030D01*
X168204760Y-98770061D01*
X168204763Y-98770062D01*
X168272598Y-98783863D01*
X168418597Y-98813567D01*
X168423772Y-98813757D01*
X168423774Y-98813757D01*
X168636673Y-98821564D01*
X168636677Y-98821564D01*
X168641837Y-98821753D01*
X168646957Y-98821097D01*
X168646959Y-98821097D01*
X168858288Y-98794025D01*
X168858289Y-98794025D01*
X168863416Y-98793368D01*
X168868366Y-98791883D01*
X169072429Y-98730661D01*
X169072434Y-98730659D01*
X169077384Y-98729174D01*
X169277994Y-98630896D01*
X169459860Y-98501173D01*
X169603400Y-98358134D01*
X172301500Y-98358134D01*
X172308255Y-98420316D01*
X172359385Y-98556705D01*
X172446739Y-98673261D01*
X172563295Y-98760615D01*
X172699684Y-98811745D01*
X172761866Y-98818500D01*
X174558134Y-98818500D01*
X174620316Y-98811745D01*
X174756705Y-98760615D01*
X174873261Y-98673261D01*
X174960615Y-98556705D01*
X174982799Y-98497529D01*
X175004598Y-98439382D01*
X175047240Y-98382618D01*
X175113802Y-98357918D01*
X175183150Y-98373126D01*
X175217817Y-98401114D01*
X175246250Y-98433938D01*
X175418126Y-98576632D01*
X175611000Y-98689338D01*
X175819692Y-98769030D01*
X175824760Y-98770061D01*
X175824763Y-98770062D01*
X175892598Y-98783863D01*
X176038597Y-98813567D01*
X176043772Y-98813757D01*
X176043774Y-98813757D01*
X176256673Y-98821564D01*
X176256677Y-98821564D01*
X176261837Y-98821753D01*
X176266957Y-98821097D01*
X176266959Y-98821097D01*
X176478288Y-98794025D01*
X176478289Y-98794025D01*
X176483416Y-98793368D01*
X176488366Y-98791883D01*
X176692429Y-98730661D01*
X176692434Y-98730659D01*
X176697384Y-98729174D01*
X176897994Y-98630896D01*
X177079860Y-98501173D01*
X177238096Y-98343489D01*
X177247693Y-98330134D01*
X177368453Y-98162077D01*
X177369776Y-98163028D01*
X177416645Y-98119857D01*
X177486580Y-98107625D01*
X177552026Y-98135144D01*
X177579875Y-98166994D01*
X177639987Y-98265088D01*
X177786250Y-98433938D01*
X177958126Y-98576632D01*
X178151000Y-98689338D01*
X178359692Y-98769030D01*
X178364760Y-98770061D01*
X178364763Y-98770062D01*
X178432598Y-98783863D01*
X178578597Y-98813567D01*
X178583772Y-98813757D01*
X178583774Y-98813757D01*
X178796673Y-98821564D01*
X178796677Y-98821564D01*
X178801837Y-98821753D01*
X178806957Y-98821097D01*
X178806959Y-98821097D01*
X179018288Y-98794025D01*
X179018289Y-98794025D01*
X179023416Y-98793368D01*
X179028366Y-98791883D01*
X179232429Y-98730661D01*
X179232434Y-98730659D01*
X179237384Y-98729174D01*
X179437994Y-98630896D01*
X179619860Y-98501173D01*
X179778096Y-98343489D01*
X179787693Y-98330134D01*
X179908453Y-98162077D01*
X179909776Y-98163028D01*
X179956645Y-98119857D01*
X180026580Y-98107625D01*
X180092026Y-98135144D01*
X180119875Y-98166994D01*
X180179987Y-98265088D01*
X180326250Y-98433938D01*
X180498126Y-98576632D01*
X180691000Y-98689338D01*
X180899692Y-98769030D01*
X180904760Y-98770061D01*
X180904763Y-98770062D01*
X180972598Y-98783863D01*
X181118597Y-98813567D01*
X181123772Y-98813757D01*
X181123774Y-98813757D01*
X181336673Y-98821564D01*
X181336677Y-98821564D01*
X181341837Y-98821753D01*
X181346957Y-98821097D01*
X181346959Y-98821097D01*
X181558288Y-98794025D01*
X181558289Y-98794025D01*
X181563416Y-98793368D01*
X181568366Y-98791883D01*
X181772429Y-98730661D01*
X181772434Y-98730659D01*
X181777384Y-98729174D01*
X181977994Y-98630896D01*
X182159860Y-98501173D01*
X182318096Y-98343489D01*
X182327693Y-98330134D01*
X182448453Y-98162077D01*
X182449776Y-98163028D01*
X182496645Y-98119857D01*
X182566580Y-98107625D01*
X182632026Y-98135144D01*
X182659875Y-98166994D01*
X182719987Y-98265088D01*
X182866250Y-98433938D01*
X183038126Y-98576632D01*
X183231000Y-98689338D01*
X183439692Y-98769030D01*
X183444760Y-98770061D01*
X183444763Y-98770062D01*
X183512598Y-98783863D01*
X183658597Y-98813567D01*
X183663772Y-98813757D01*
X183663774Y-98813757D01*
X183876673Y-98821564D01*
X183876677Y-98821564D01*
X183881837Y-98821753D01*
X183886957Y-98821097D01*
X183886959Y-98821097D01*
X184098288Y-98794025D01*
X184098289Y-98794025D01*
X184103416Y-98793368D01*
X184108366Y-98791883D01*
X184312429Y-98730661D01*
X184312434Y-98730659D01*
X184317384Y-98729174D01*
X184517994Y-98630896D01*
X184699860Y-98501173D01*
X184858096Y-98343489D01*
X184867693Y-98330134D01*
X184988453Y-98162077D01*
X184989776Y-98163028D01*
X185036645Y-98119857D01*
X185106580Y-98107625D01*
X185172026Y-98135144D01*
X185199875Y-98166994D01*
X185259987Y-98265088D01*
X185406250Y-98433938D01*
X185578126Y-98576632D01*
X185771000Y-98689338D01*
X185979692Y-98769030D01*
X185984760Y-98770061D01*
X185984763Y-98770062D01*
X186052598Y-98783863D01*
X186198597Y-98813567D01*
X186203772Y-98813757D01*
X186203774Y-98813757D01*
X186416673Y-98821564D01*
X186416677Y-98821564D01*
X186421837Y-98821753D01*
X186426957Y-98821097D01*
X186426959Y-98821097D01*
X186638288Y-98794025D01*
X186638289Y-98794025D01*
X186643416Y-98793368D01*
X186648366Y-98791883D01*
X186852429Y-98730661D01*
X186852434Y-98730659D01*
X186857384Y-98729174D01*
X187057994Y-98630896D01*
X187239860Y-98501173D01*
X187398096Y-98343489D01*
X187407693Y-98330134D01*
X187528453Y-98162077D01*
X187529776Y-98163028D01*
X187576645Y-98119857D01*
X187646580Y-98107625D01*
X187712026Y-98135144D01*
X187739875Y-98166994D01*
X187799987Y-98265088D01*
X187946250Y-98433938D01*
X188118126Y-98576632D01*
X188311000Y-98689338D01*
X188519692Y-98769030D01*
X188524760Y-98770061D01*
X188524763Y-98770062D01*
X188592598Y-98783863D01*
X188738597Y-98813567D01*
X188743772Y-98813757D01*
X188743774Y-98813757D01*
X188956673Y-98821564D01*
X188956677Y-98821564D01*
X188961837Y-98821753D01*
X188966957Y-98821097D01*
X188966959Y-98821097D01*
X189178288Y-98794025D01*
X189178289Y-98794025D01*
X189183416Y-98793368D01*
X189188366Y-98791883D01*
X189392429Y-98730661D01*
X189392434Y-98730659D01*
X189397384Y-98729174D01*
X189597994Y-98630896D01*
X189779860Y-98501173D01*
X189938096Y-98343489D01*
X189947693Y-98330134D01*
X190068453Y-98162077D01*
X190069776Y-98163028D01*
X190116645Y-98119857D01*
X190186580Y-98107625D01*
X190252026Y-98135144D01*
X190279875Y-98166994D01*
X190339987Y-98265088D01*
X190486250Y-98433938D01*
X190658126Y-98576632D01*
X190851000Y-98689338D01*
X191059692Y-98769030D01*
X191064760Y-98770061D01*
X191064763Y-98770062D01*
X191132598Y-98783863D01*
X191278597Y-98813567D01*
X191283772Y-98813757D01*
X191283774Y-98813757D01*
X191496673Y-98821564D01*
X191496677Y-98821564D01*
X191501837Y-98821753D01*
X191506957Y-98821097D01*
X191506959Y-98821097D01*
X191718288Y-98794025D01*
X191718289Y-98794025D01*
X191723416Y-98793368D01*
X191728366Y-98791883D01*
X191932429Y-98730661D01*
X191932434Y-98730659D01*
X191937384Y-98729174D01*
X192137994Y-98630896D01*
X192319860Y-98501173D01*
X192478096Y-98343489D01*
X192487693Y-98330134D01*
X192605435Y-98166277D01*
X192608453Y-98162077D01*
X192613979Y-98150897D01*
X192705136Y-97966453D01*
X192705137Y-97966451D01*
X192707430Y-97961811D01*
X192772370Y-97748069D01*
X192801529Y-97526590D01*
X192803156Y-97460000D01*
X192784852Y-97237361D01*
X192730431Y-97020702D01*
X192641354Y-96815840D01*
X192520014Y-96628277D01*
X192369670Y-96463051D01*
X192365619Y-96459852D01*
X192365615Y-96459848D01*
X192198414Y-96327800D01*
X192198410Y-96327798D01*
X192194359Y-96324598D01*
X192185525Y-96319721D01*
X192142136Y-96295769D01*
X191998789Y-96216638D01*
X191993920Y-96214914D01*
X191993916Y-96214912D01*
X191793087Y-96143795D01*
X191793083Y-96143794D01*
X191788212Y-96142069D01*
X191783119Y-96141162D01*
X191783116Y-96141161D01*
X191573373Y-96103800D01*
X191573367Y-96103799D01*
X191568284Y-96102894D01*
X191494452Y-96101992D01*
X191350081Y-96100228D01*
X191350079Y-96100228D01*
X191344911Y-96100165D01*
X191124091Y-96133955D01*
X190911756Y-96203357D01*
X190713607Y-96306507D01*
X190709474Y-96309610D01*
X190709471Y-96309612D01*
X190605561Y-96387630D01*
X190534965Y-96440635D01*
X190531393Y-96444373D01*
X190423729Y-96557037D01*
X190380629Y-96602138D01*
X190273201Y-96759621D01*
X190218293Y-96804621D01*
X190147768Y-96812792D01*
X190084021Y-96781538D01*
X190063324Y-96757054D01*
X189982822Y-96632617D01*
X189982820Y-96632614D01*
X189980014Y-96628277D01*
X189829670Y-96463051D01*
X189825619Y-96459852D01*
X189825615Y-96459848D01*
X189658414Y-96327800D01*
X189658410Y-96327798D01*
X189654359Y-96324598D01*
X189645525Y-96319721D01*
X189602136Y-96295769D01*
X189458789Y-96216638D01*
X189453920Y-96214914D01*
X189453916Y-96214912D01*
X189253087Y-96143795D01*
X189253083Y-96143794D01*
X189248212Y-96142069D01*
X189243119Y-96141162D01*
X189243116Y-96141161D01*
X189033373Y-96103800D01*
X189033367Y-96103799D01*
X189028284Y-96102894D01*
X188954452Y-96101992D01*
X188810081Y-96100228D01*
X188810079Y-96100228D01*
X188804911Y-96100165D01*
X188584091Y-96133955D01*
X188371756Y-96203357D01*
X188173607Y-96306507D01*
X188169474Y-96309610D01*
X188169471Y-96309612D01*
X188065561Y-96387630D01*
X187994965Y-96440635D01*
X187991393Y-96444373D01*
X187883729Y-96557037D01*
X187840629Y-96602138D01*
X187733201Y-96759621D01*
X187678293Y-96804621D01*
X187607768Y-96812792D01*
X187544021Y-96781538D01*
X187523324Y-96757054D01*
X187442822Y-96632617D01*
X187442820Y-96632614D01*
X187440014Y-96628277D01*
X187289670Y-96463051D01*
X187285619Y-96459852D01*
X187285615Y-96459848D01*
X187118414Y-96327800D01*
X187118410Y-96327798D01*
X187114359Y-96324598D01*
X187105525Y-96319721D01*
X187062136Y-96295769D01*
X186918789Y-96216638D01*
X186913920Y-96214914D01*
X186913916Y-96214912D01*
X186713087Y-96143795D01*
X186713083Y-96143794D01*
X186708212Y-96142069D01*
X186703119Y-96141162D01*
X186703116Y-96141161D01*
X186493373Y-96103800D01*
X186493367Y-96103799D01*
X186488284Y-96102894D01*
X186414452Y-96101992D01*
X186270081Y-96100228D01*
X186270079Y-96100228D01*
X186264911Y-96100165D01*
X186044091Y-96133955D01*
X185831756Y-96203357D01*
X185633607Y-96306507D01*
X185629474Y-96309610D01*
X185629471Y-96309612D01*
X185525561Y-96387630D01*
X185454965Y-96440635D01*
X185451393Y-96444373D01*
X185343729Y-96557037D01*
X185300629Y-96602138D01*
X185193201Y-96759621D01*
X185138293Y-96804621D01*
X185067768Y-96812792D01*
X185004021Y-96781538D01*
X184983324Y-96757054D01*
X184902822Y-96632617D01*
X184902820Y-96632614D01*
X184900014Y-96628277D01*
X184749670Y-96463051D01*
X184745619Y-96459852D01*
X184745615Y-96459848D01*
X184578414Y-96327800D01*
X184578410Y-96327798D01*
X184574359Y-96324598D01*
X184565525Y-96319721D01*
X184522136Y-96295769D01*
X184378789Y-96216638D01*
X184373920Y-96214914D01*
X184373916Y-96214912D01*
X184173087Y-96143795D01*
X184173083Y-96143794D01*
X184168212Y-96142069D01*
X184163119Y-96141162D01*
X184163116Y-96141161D01*
X183953373Y-96103800D01*
X183953367Y-96103799D01*
X183948284Y-96102894D01*
X183874452Y-96101992D01*
X183730081Y-96100228D01*
X183730079Y-96100228D01*
X183724911Y-96100165D01*
X183504091Y-96133955D01*
X183291756Y-96203357D01*
X183093607Y-96306507D01*
X183089474Y-96309610D01*
X183089471Y-96309612D01*
X182985561Y-96387630D01*
X182914965Y-96440635D01*
X182911393Y-96444373D01*
X182803729Y-96557037D01*
X182760629Y-96602138D01*
X182653201Y-96759621D01*
X182598293Y-96804621D01*
X182527768Y-96812792D01*
X182464021Y-96781538D01*
X182443324Y-96757054D01*
X182362822Y-96632617D01*
X182362820Y-96632614D01*
X182360014Y-96628277D01*
X182209670Y-96463051D01*
X182205619Y-96459852D01*
X182205615Y-96459848D01*
X182038414Y-96327800D01*
X182038410Y-96327798D01*
X182034359Y-96324598D01*
X182025525Y-96319721D01*
X181982136Y-96295769D01*
X181838789Y-96216638D01*
X181833920Y-96214914D01*
X181833916Y-96214912D01*
X181633087Y-96143795D01*
X181633083Y-96143794D01*
X181628212Y-96142069D01*
X181623119Y-96141162D01*
X181623116Y-96141161D01*
X181413373Y-96103800D01*
X181413367Y-96103799D01*
X181408284Y-96102894D01*
X181334452Y-96101992D01*
X181190081Y-96100228D01*
X181190079Y-96100228D01*
X181184911Y-96100165D01*
X180964091Y-96133955D01*
X180751756Y-96203357D01*
X180553607Y-96306507D01*
X180549474Y-96309610D01*
X180549471Y-96309612D01*
X180445561Y-96387630D01*
X180374965Y-96440635D01*
X180371393Y-96444373D01*
X180263729Y-96557037D01*
X180220629Y-96602138D01*
X180113201Y-96759621D01*
X180058293Y-96804621D01*
X179987768Y-96812792D01*
X179924021Y-96781538D01*
X179903324Y-96757054D01*
X179822822Y-96632617D01*
X179822820Y-96632614D01*
X179820014Y-96628277D01*
X179669670Y-96463051D01*
X179665619Y-96459852D01*
X179665615Y-96459848D01*
X179498414Y-96327800D01*
X179498410Y-96327798D01*
X179494359Y-96324598D01*
X179485525Y-96319721D01*
X179442136Y-96295769D01*
X179298789Y-96216638D01*
X179293920Y-96214914D01*
X179293916Y-96214912D01*
X179093087Y-96143795D01*
X179093083Y-96143794D01*
X179088212Y-96142069D01*
X179083119Y-96141162D01*
X179083116Y-96141161D01*
X178873373Y-96103800D01*
X178873367Y-96103799D01*
X178868284Y-96102894D01*
X178794452Y-96101992D01*
X178650081Y-96100228D01*
X178650079Y-96100228D01*
X178644911Y-96100165D01*
X178424091Y-96133955D01*
X178211756Y-96203357D01*
X178013607Y-96306507D01*
X178009474Y-96309610D01*
X178009471Y-96309612D01*
X177905561Y-96387630D01*
X177834965Y-96440635D01*
X177831393Y-96444373D01*
X177723729Y-96557037D01*
X177680629Y-96602138D01*
X177573201Y-96759621D01*
X177518293Y-96804621D01*
X177447768Y-96812792D01*
X177384021Y-96781538D01*
X177363324Y-96757054D01*
X177282822Y-96632617D01*
X177282820Y-96632614D01*
X177280014Y-96628277D01*
X177129670Y-96463051D01*
X177125619Y-96459852D01*
X177125615Y-96459848D01*
X176958414Y-96327800D01*
X176958410Y-96327798D01*
X176954359Y-96324598D01*
X176945525Y-96319721D01*
X176902136Y-96295769D01*
X176758789Y-96216638D01*
X176753920Y-96214914D01*
X176753916Y-96214912D01*
X176553087Y-96143795D01*
X176553083Y-96143794D01*
X176548212Y-96142069D01*
X176543119Y-96141162D01*
X176543116Y-96141161D01*
X176333373Y-96103800D01*
X176333367Y-96103799D01*
X176328284Y-96102894D01*
X176254452Y-96101992D01*
X176110081Y-96100228D01*
X176110079Y-96100228D01*
X176104911Y-96100165D01*
X175884091Y-96133955D01*
X175671756Y-96203357D01*
X175473607Y-96306507D01*
X175469474Y-96309610D01*
X175469471Y-96309612D01*
X175365561Y-96387630D01*
X175294965Y-96440635D01*
X175215543Y-96523746D01*
X175214283Y-96525064D01*
X175152759Y-96560494D01*
X175081846Y-96557037D01*
X175024060Y-96515791D01*
X175005207Y-96482243D01*
X174963767Y-96371703D01*
X174960615Y-96363295D01*
X174873261Y-96246739D01*
X174756705Y-96159385D01*
X174620316Y-96108255D01*
X174558134Y-96101500D01*
X172761866Y-96101500D01*
X172699684Y-96108255D01*
X172563295Y-96159385D01*
X172446739Y-96246739D01*
X172359385Y-96363295D01*
X172308255Y-96499684D01*
X172301500Y-96561866D01*
X172301500Y-98358134D01*
X169603400Y-98358134D01*
X169618096Y-98343489D01*
X169627693Y-98330134D01*
X169745435Y-98166277D01*
X169748453Y-98162077D01*
X169753979Y-98150897D01*
X169845136Y-97966453D01*
X169845137Y-97966451D01*
X169847430Y-97961811D01*
X169912370Y-97748069D01*
X169941529Y-97526590D01*
X169943156Y-97460000D01*
X169924852Y-97237361D01*
X169870431Y-97020702D01*
X169781354Y-96815840D01*
X169660014Y-96628277D01*
X169509670Y-96463051D01*
X169505619Y-96459852D01*
X169505615Y-96459848D01*
X169338414Y-96327800D01*
X169338410Y-96327798D01*
X169334359Y-96324598D01*
X169325525Y-96319721D01*
X169282136Y-96295769D01*
X169138789Y-96216638D01*
X169133920Y-96214914D01*
X169133916Y-96214912D01*
X168933087Y-96143795D01*
X168933083Y-96143794D01*
X168928212Y-96142069D01*
X168923119Y-96141162D01*
X168923116Y-96141161D01*
X168713373Y-96103800D01*
X168713367Y-96103799D01*
X168708284Y-96102894D01*
X168634452Y-96101992D01*
X168490081Y-96100228D01*
X168490079Y-96100228D01*
X168484911Y-96100165D01*
X168264091Y-96133955D01*
X168051756Y-96203357D01*
X167853607Y-96306507D01*
X167849474Y-96309610D01*
X167849471Y-96309612D01*
X167745561Y-96387630D01*
X167674965Y-96440635D01*
X167671393Y-96444373D01*
X167563729Y-96557037D01*
X167520629Y-96602138D01*
X167413201Y-96759621D01*
X167358293Y-96804621D01*
X167287768Y-96812792D01*
X167224021Y-96781538D01*
X167203324Y-96757054D01*
X167122822Y-96632617D01*
X167122820Y-96632614D01*
X167120014Y-96628277D01*
X166969670Y-96463051D01*
X166965619Y-96459852D01*
X166965615Y-96459848D01*
X166798414Y-96327800D01*
X166798410Y-96327798D01*
X166794359Y-96324598D01*
X166785525Y-96319721D01*
X166742136Y-96295769D01*
X166598789Y-96216638D01*
X166593920Y-96214914D01*
X166593916Y-96214912D01*
X166393087Y-96143795D01*
X166393083Y-96143794D01*
X166388212Y-96142069D01*
X166383119Y-96141162D01*
X166383116Y-96141161D01*
X166173373Y-96103800D01*
X166173367Y-96103799D01*
X166168284Y-96102894D01*
X166094452Y-96101992D01*
X165950081Y-96100228D01*
X165950079Y-96100228D01*
X165944911Y-96100165D01*
X165724091Y-96133955D01*
X165511756Y-96203357D01*
X165313607Y-96306507D01*
X165309474Y-96309610D01*
X165309471Y-96309612D01*
X165205561Y-96387630D01*
X165134965Y-96440635D01*
X165131393Y-96444373D01*
X165023729Y-96557037D01*
X164980629Y-96602138D01*
X164873201Y-96759621D01*
X164818293Y-96804621D01*
X164747768Y-96812792D01*
X164684021Y-96781538D01*
X164663324Y-96757054D01*
X164582822Y-96632617D01*
X164582820Y-96632614D01*
X164580014Y-96628277D01*
X164429670Y-96463051D01*
X164425619Y-96459852D01*
X164425615Y-96459848D01*
X164258414Y-96327800D01*
X164258410Y-96327798D01*
X164254359Y-96324598D01*
X164245525Y-96319721D01*
X164202136Y-96295769D01*
X164058789Y-96216638D01*
X164053920Y-96214914D01*
X164053916Y-96214912D01*
X163853087Y-96143795D01*
X163853083Y-96143794D01*
X163848212Y-96142069D01*
X163843119Y-96141162D01*
X163843116Y-96141161D01*
X163633373Y-96103800D01*
X163633367Y-96103799D01*
X163628284Y-96102894D01*
X163554452Y-96101992D01*
X163410081Y-96100228D01*
X163410079Y-96100228D01*
X163404911Y-96100165D01*
X163184091Y-96133955D01*
X162971756Y-96203357D01*
X162773607Y-96306507D01*
X162769474Y-96309610D01*
X162769471Y-96309612D01*
X162665561Y-96387630D01*
X162594965Y-96440635D01*
X162591393Y-96444373D01*
X162483729Y-96557037D01*
X162440629Y-96602138D01*
X162333201Y-96759621D01*
X162278293Y-96804621D01*
X162207768Y-96812792D01*
X162144021Y-96781538D01*
X162123324Y-96757054D01*
X162042822Y-96632617D01*
X162042820Y-96632614D01*
X162040014Y-96628277D01*
X161889670Y-96463051D01*
X161885619Y-96459852D01*
X161885615Y-96459848D01*
X161718414Y-96327800D01*
X161718410Y-96327798D01*
X161714359Y-96324598D01*
X161705525Y-96319721D01*
X161662136Y-96295769D01*
X161518789Y-96216638D01*
X161513920Y-96214914D01*
X161513916Y-96214912D01*
X161313087Y-96143795D01*
X161313083Y-96143794D01*
X161308212Y-96142069D01*
X161303119Y-96141162D01*
X161303116Y-96141161D01*
X161093373Y-96103800D01*
X161093367Y-96103799D01*
X161088284Y-96102894D01*
X161014452Y-96101992D01*
X160870081Y-96100228D01*
X160870079Y-96100228D01*
X160864911Y-96100165D01*
X160644091Y-96133955D01*
X160431756Y-96203357D01*
X160233607Y-96306507D01*
X160229474Y-96309610D01*
X160229471Y-96309612D01*
X160125561Y-96387630D01*
X160054965Y-96440635D01*
X160051393Y-96444373D01*
X159943729Y-96557037D01*
X159900629Y-96602138D01*
X159793201Y-96759621D01*
X159738293Y-96804621D01*
X159667768Y-96812792D01*
X159604021Y-96781538D01*
X159583324Y-96757054D01*
X159502822Y-96632617D01*
X159502820Y-96632614D01*
X159500014Y-96628277D01*
X159349670Y-96463051D01*
X159345619Y-96459852D01*
X159345615Y-96459848D01*
X159178414Y-96327800D01*
X159178410Y-96327798D01*
X159174359Y-96324598D01*
X159165525Y-96319721D01*
X159122136Y-96295769D01*
X158978789Y-96216638D01*
X158973920Y-96214914D01*
X158973916Y-96214912D01*
X158773087Y-96143795D01*
X158773083Y-96143794D01*
X158768212Y-96142069D01*
X158763119Y-96141162D01*
X158763116Y-96141161D01*
X158553373Y-96103800D01*
X158553367Y-96103799D01*
X158548284Y-96102894D01*
X158474452Y-96101992D01*
X158330081Y-96100228D01*
X158330079Y-96100228D01*
X158324911Y-96100165D01*
X158104091Y-96133955D01*
X157891756Y-96203357D01*
X157693607Y-96306507D01*
X157689474Y-96309610D01*
X157689471Y-96309612D01*
X157585561Y-96387630D01*
X157514965Y-96440635D01*
X157511393Y-96444373D01*
X157403729Y-96557037D01*
X157360629Y-96602138D01*
X157253201Y-96759621D01*
X157198293Y-96804621D01*
X157127768Y-96812792D01*
X157064021Y-96781538D01*
X157043324Y-96757054D01*
X156962822Y-96632617D01*
X156962820Y-96632614D01*
X156960014Y-96628277D01*
X156809670Y-96463051D01*
X156805619Y-96459852D01*
X156805615Y-96459848D01*
X156638414Y-96327800D01*
X156638410Y-96327798D01*
X156634359Y-96324598D01*
X156625525Y-96319721D01*
X156582136Y-96295769D01*
X156438789Y-96216638D01*
X156433920Y-96214914D01*
X156433916Y-96214912D01*
X156233087Y-96143795D01*
X156233083Y-96143794D01*
X156228212Y-96142069D01*
X156223119Y-96141162D01*
X156223116Y-96141161D01*
X156013373Y-96103800D01*
X156013367Y-96103799D01*
X156008284Y-96102894D01*
X155934452Y-96101992D01*
X155790081Y-96100228D01*
X155790079Y-96100228D01*
X155784911Y-96100165D01*
X155564091Y-96133955D01*
X155351756Y-96203357D01*
X155153607Y-96306507D01*
X155149474Y-96309610D01*
X155149471Y-96309612D01*
X155045561Y-96387630D01*
X154974965Y-96440635D01*
X154971393Y-96444373D01*
X154863729Y-96557037D01*
X154820629Y-96602138D01*
X154713201Y-96759621D01*
X154658293Y-96804621D01*
X154587768Y-96812792D01*
X154524021Y-96781538D01*
X154503324Y-96757054D01*
X154422822Y-96632617D01*
X154422820Y-96632614D01*
X154420014Y-96628277D01*
X154269670Y-96463051D01*
X154265619Y-96459852D01*
X154265615Y-96459848D01*
X154098414Y-96327800D01*
X154098410Y-96327798D01*
X154094359Y-96324598D01*
X154085525Y-96319721D01*
X154042136Y-96295769D01*
X153898789Y-96216638D01*
X153893920Y-96214914D01*
X153893916Y-96214912D01*
X153693087Y-96143795D01*
X153693083Y-96143794D01*
X153688212Y-96142069D01*
X153683119Y-96141162D01*
X153683116Y-96141161D01*
X153473373Y-96103800D01*
X153473367Y-96103799D01*
X153468284Y-96102894D01*
X153394452Y-96101992D01*
X153250081Y-96100228D01*
X153250079Y-96100228D01*
X153244911Y-96100165D01*
X153024091Y-96133955D01*
X152811756Y-96203357D01*
X152613607Y-96306507D01*
X152609474Y-96309610D01*
X152609471Y-96309612D01*
X152505561Y-96387630D01*
X152434965Y-96440635D01*
X152355543Y-96523746D01*
X152354283Y-96525064D01*
X152292759Y-96560494D01*
X152221846Y-96557037D01*
X152164060Y-96515791D01*
X152145207Y-96482243D01*
X152103767Y-96371703D01*
X152100615Y-96363295D01*
X152013261Y-96246739D01*
X151896705Y-96159385D01*
X151760316Y-96108255D01*
X151698134Y-96101500D01*
X149901866Y-96101500D01*
X149839684Y-96108255D01*
X149703295Y-96159385D01*
X149586739Y-96246739D01*
X149499385Y-96363295D01*
X149448255Y-96499684D01*
X149441500Y-96561866D01*
X149441500Y-98358134D01*
X146743400Y-98358134D01*
X146758096Y-98343489D01*
X146767693Y-98330134D01*
X146885435Y-98166277D01*
X146888453Y-98162077D01*
X146893979Y-98150897D01*
X146985136Y-97966453D01*
X146985137Y-97966451D01*
X146987430Y-97961811D01*
X147052370Y-97748069D01*
X147081529Y-97526590D01*
X147083156Y-97460000D01*
X147064852Y-97237361D01*
X147010431Y-97020702D01*
X146921354Y-96815840D01*
X146800014Y-96628277D01*
X146649670Y-96463051D01*
X146645619Y-96459852D01*
X146645615Y-96459848D01*
X146478414Y-96327800D01*
X146478410Y-96327798D01*
X146474359Y-96324598D01*
X146465525Y-96319721D01*
X146422136Y-96295769D01*
X146278789Y-96216638D01*
X146273920Y-96214914D01*
X146273916Y-96214912D01*
X146073087Y-96143795D01*
X146073083Y-96143794D01*
X146068212Y-96142069D01*
X146063119Y-96141162D01*
X146063116Y-96141161D01*
X145853373Y-96103800D01*
X145853367Y-96103799D01*
X145848284Y-96102894D01*
X145774452Y-96101992D01*
X145630081Y-96100228D01*
X145630079Y-96100228D01*
X145624911Y-96100165D01*
X145404091Y-96133955D01*
X145191756Y-96203357D01*
X144993607Y-96306507D01*
X144989474Y-96309610D01*
X144989471Y-96309612D01*
X144885561Y-96387630D01*
X144814965Y-96440635D01*
X144811393Y-96444373D01*
X144703729Y-96557037D01*
X144660629Y-96602138D01*
X144657720Y-96606403D01*
X144657714Y-96606411D01*
X144645404Y-96624457D01*
X144553204Y-96759618D01*
X144552898Y-96760066D01*
X144497987Y-96805069D01*
X144427462Y-96813240D01*
X144363715Y-96781986D01*
X144343018Y-96757502D01*
X144262426Y-96632926D01*
X144256136Y-96624757D01*
X144112806Y-96467240D01*
X144105273Y-96460215D01*
X143938139Y-96328222D01*
X143929552Y-96322517D01*
X143743117Y-96219599D01*
X143733705Y-96215369D01*
X143532959Y-96144280D01*
X143522988Y-96141646D01*
X143451837Y-96128972D01*
X143438540Y-96130432D01*
X143434000Y-96144989D01*
X143434000Y-98778517D01*
X142926000Y-98778517D01*
X142926000Y-97732115D01*
X142921525Y-97716876D01*
X142920135Y-97715671D01*
X142912452Y-97714000D01*
X140912115Y-97714000D01*
X140896876Y-97718475D01*
X140895671Y-97719865D01*
X140894000Y-97727548D01*
X140894000Y-98778517D01*
X140386000Y-98778517D01*
X140386000Y-97187885D01*
X140894000Y-97187885D01*
X140898475Y-97203124D01*
X140899865Y-97204329D01*
X140907548Y-97206000D01*
X142907885Y-97206000D01*
X142923124Y-97201525D01*
X142924329Y-97200135D01*
X142926000Y-97192452D01*
X142926000Y-96143102D01*
X142922082Y-96129758D01*
X142907806Y-96127771D01*
X142869324Y-96133660D01*
X142859288Y-96136051D01*
X142656868Y-96202212D01*
X142647359Y-96206209D01*
X142458463Y-96304542D01*
X142449738Y-96310036D01*
X142279433Y-96437905D01*
X142271726Y-96444748D01*
X142124590Y-96598717D01*
X142118104Y-96606727D01*
X142013193Y-96760521D01*
X141958282Y-96805524D01*
X141887757Y-96813695D01*
X141824010Y-96782441D01*
X141803313Y-96757957D01*
X141722427Y-96632926D01*
X141716136Y-96624757D01*
X141572806Y-96467240D01*
X141565273Y-96460215D01*
X141398139Y-96328222D01*
X141389552Y-96322517D01*
X141203117Y-96219599D01*
X141193705Y-96215369D01*
X140992959Y-96144280D01*
X140982988Y-96141646D01*
X140911837Y-96128972D01*
X140898540Y-96130432D01*
X140894000Y-96144989D01*
X140894000Y-97187885D01*
X140386000Y-97187885D01*
X140386000Y-96143102D01*
X140382082Y-96129758D01*
X140367806Y-96127771D01*
X140329324Y-96133660D01*
X140319288Y-96136051D01*
X140116868Y-96202212D01*
X140107359Y-96206209D01*
X139918463Y-96304542D01*
X139909738Y-96310036D01*
X139739433Y-96437905D01*
X139731726Y-96444748D01*
X139584590Y-96598717D01*
X139578109Y-96606722D01*
X139473498Y-96760074D01*
X139418587Y-96805076D01*
X139348062Y-96813247D01*
X139284315Y-96781993D01*
X139263618Y-96757509D01*
X139182822Y-96632617D01*
X139182820Y-96632614D01*
X139180014Y-96628277D01*
X139029670Y-96463051D01*
X139025619Y-96459852D01*
X139025615Y-96459848D01*
X138858414Y-96327800D01*
X138858410Y-96327798D01*
X138854359Y-96324598D01*
X138845525Y-96319721D01*
X138802136Y-96295769D01*
X138658789Y-96216638D01*
X138653920Y-96214914D01*
X138653916Y-96214912D01*
X138453087Y-96143795D01*
X138453083Y-96143794D01*
X138448212Y-96142069D01*
X138443119Y-96141162D01*
X138443116Y-96141161D01*
X138233373Y-96103800D01*
X138233367Y-96103799D01*
X138228284Y-96102894D01*
X138154452Y-96101992D01*
X138010081Y-96100228D01*
X138010079Y-96100228D01*
X138004911Y-96100165D01*
X137784091Y-96133955D01*
X137571756Y-96203357D01*
X137373607Y-96306507D01*
X137369474Y-96309610D01*
X137369471Y-96309612D01*
X137265561Y-96387630D01*
X137194965Y-96440635D01*
X137191393Y-96444373D01*
X137083729Y-96557037D01*
X137040629Y-96602138D01*
X136933201Y-96759621D01*
X136878293Y-96804621D01*
X136807768Y-96812792D01*
X136744021Y-96781538D01*
X136723324Y-96757054D01*
X136642822Y-96632617D01*
X136642820Y-96632614D01*
X136640014Y-96628277D01*
X136489670Y-96463051D01*
X136485619Y-96459852D01*
X136485615Y-96459848D01*
X136318414Y-96327800D01*
X136318410Y-96327798D01*
X136314359Y-96324598D01*
X136305525Y-96319721D01*
X136262136Y-96295769D01*
X136118789Y-96216638D01*
X136113920Y-96214914D01*
X136113916Y-96214912D01*
X135913087Y-96143795D01*
X135913083Y-96143794D01*
X135908212Y-96142069D01*
X135903119Y-96141162D01*
X135903116Y-96141161D01*
X135693373Y-96103800D01*
X135693367Y-96103799D01*
X135688284Y-96102894D01*
X135614452Y-96101992D01*
X135470081Y-96100228D01*
X135470079Y-96100228D01*
X135464911Y-96100165D01*
X135244091Y-96133955D01*
X135031756Y-96203357D01*
X134833607Y-96306507D01*
X134829474Y-96309610D01*
X134829471Y-96309612D01*
X134725561Y-96387630D01*
X134654965Y-96440635D01*
X134651393Y-96444373D01*
X134543729Y-96557037D01*
X134500629Y-96602138D01*
X134393201Y-96759621D01*
X134338293Y-96804621D01*
X134267768Y-96812792D01*
X134204021Y-96781538D01*
X134183324Y-96757054D01*
X134102822Y-96632617D01*
X134102820Y-96632614D01*
X134100014Y-96628277D01*
X133949670Y-96463051D01*
X133945619Y-96459852D01*
X133945615Y-96459848D01*
X133778414Y-96327800D01*
X133778410Y-96327798D01*
X133774359Y-96324598D01*
X133765525Y-96319721D01*
X133722136Y-96295769D01*
X133578789Y-96216638D01*
X133573920Y-96214914D01*
X133573916Y-96214912D01*
X133373087Y-96143795D01*
X133373083Y-96143794D01*
X133368212Y-96142069D01*
X133363119Y-96141162D01*
X133363116Y-96141161D01*
X133153373Y-96103800D01*
X133153367Y-96103799D01*
X133148284Y-96102894D01*
X133074452Y-96101992D01*
X132930081Y-96100228D01*
X132930079Y-96100228D01*
X132924911Y-96100165D01*
X132704091Y-96133955D01*
X132491756Y-96203357D01*
X132293607Y-96306507D01*
X132289474Y-96309610D01*
X132289471Y-96309612D01*
X132185561Y-96387630D01*
X132114965Y-96440635D01*
X132111393Y-96444373D01*
X132003729Y-96557037D01*
X131960629Y-96602138D01*
X131853201Y-96759621D01*
X131798293Y-96804621D01*
X131727768Y-96812792D01*
X131664021Y-96781538D01*
X131643324Y-96757054D01*
X131562822Y-96632617D01*
X131562820Y-96632614D01*
X131560014Y-96628277D01*
X131409670Y-96463051D01*
X131405619Y-96459852D01*
X131405615Y-96459848D01*
X131238414Y-96327800D01*
X131238410Y-96327798D01*
X131234359Y-96324598D01*
X131225525Y-96319721D01*
X131182136Y-96295769D01*
X131038789Y-96216638D01*
X131033920Y-96214914D01*
X131033916Y-96214912D01*
X130833087Y-96143795D01*
X130833083Y-96143794D01*
X130828212Y-96142069D01*
X130823119Y-96141162D01*
X130823116Y-96141161D01*
X130613373Y-96103800D01*
X130613367Y-96103799D01*
X130608284Y-96102894D01*
X130534452Y-96101992D01*
X130390081Y-96100228D01*
X130390079Y-96100228D01*
X130384911Y-96100165D01*
X130164091Y-96133955D01*
X129951756Y-96203357D01*
X129753607Y-96306507D01*
X129749474Y-96309610D01*
X129749471Y-96309612D01*
X129645561Y-96387630D01*
X129574965Y-96440635D01*
X129495543Y-96523746D01*
X129494283Y-96525064D01*
X129432759Y-96560494D01*
X129361846Y-96557037D01*
X129304060Y-96515791D01*
X129285207Y-96482243D01*
X129243767Y-96371703D01*
X129240615Y-96363295D01*
X129153261Y-96246739D01*
X129036705Y-96159385D01*
X128900316Y-96108255D01*
X128838134Y-96101500D01*
X127041866Y-96101500D01*
X126979684Y-96108255D01*
X126843295Y-96159385D01*
X126726739Y-96246739D01*
X126639385Y-96363295D01*
X126588255Y-96499684D01*
X126581500Y-96561866D01*
X126581500Y-98358134D01*
X115878487Y-98358134D01*
X115956757Y-98179830D01*
X115958483Y-98175898D01*
X115963742Y-98157438D01*
X116036068Y-97903534D01*
X116037244Y-97899406D01*
X116077751Y-97614784D01*
X116077845Y-97596951D01*
X116079235Y-97331583D01*
X116079235Y-97331576D01*
X116079257Y-97327297D01*
X116041732Y-97042266D01*
X115965871Y-96764964D01*
X115898239Y-96606403D01*
X115854763Y-96504476D01*
X115854761Y-96504472D01*
X115853077Y-96500524D01*
X115749704Y-96327800D01*
X115707643Y-96257521D01*
X115707640Y-96257517D01*
X115705439Y-96253839D01*
X115525687Y-96029472D01*
X115317149Y-95831577D01*
X115083683Y-95663814D01*
X115061843Y-95652250D01*
X115038654Y-95639972D01*
X114829608Y-95529288D01*
X114559627Y-95430489D01*
X114278736Y-95369245D01*
X114247685Y-95366801D01*
X114055718Y-95351693D01*
X114055709Y-95351693D01*
X114053261Y-95351500D01*
X113897729Y-95351500D01*
X113895593Y-95351646D01*
X113895582Y-95351646D01*
X113687452Y-95365835D01*
X113687446Y-95365836D01*
X113683175Y-95366127D01*
X113678980Y-95366996D01*
X113678978Y-95366996D01*
X113542417Y-95395276D01*
X113401658Y-95424426D01*
X113130657Y-95520393D01*
X112875188Y-95652250D01*
X112871687Y-95654711D01*
X112871683Y-95654713D01*
X112861594Y-95661804D01*
X112639977Y-95817559D01*
X112624892Y-95831577D01*
X112465846Y-95979372D01*
X112429378Y-96013260D01*
X112247287Y-96235732D01*
X112097073Y-96480858D01*
X112095347Y-96484791D01*
X112095346Y-96484792D01*
X112043835Y-96602138D01*
X111981517Y-96744102D01*
X111980342Y-96748229D01*
X111980341Y-96748230D01*
X111976967Y-96760074D01*
X111902756Y-97020594D01*
X111862249Y-97305216D01*
X111862227Y-97309505D01*
X111862226Y-97309512D01*
X111860765Y-97588417D01*
X111860743Y-97592703D01*
X111898268Y-97877734D01*
X111974129Y-98155036D01*
X111975813Y-98158984D01*
X112071202Y-98382618D01*
X112086923Y-98419476D01*
X112234561Y-98666161D01*
X112414313Y-98890528D01*
X112622851Y-99088423D01*
X112856317Y-99256186D01*
X112860119Y-99258199D01*
X112860464Y-99258413D01*
X112907819Y-99311309D01*
X112919059Y-99381411D01*
X112890615Y-99446460D01*
X112831518Y-99485806D01*
X112794068Y-99491500D01*
X110811367Y-99491500D01*
X110791982Y-99490000D01*
X110777149Y-99487690D01*
X110777145Y-99487690D01*
X110768276Y-99486309D01*
X110759371Y-99487473D01*
X110750402Y-99487364D01*
X110750412Y-99486550D01*
X110728902Y-99486257D01*
X110703378Y-99482215D01*
X110665884Y-99470033D01*
X110630776Y-99452145D01*
X110598883Y-99428973D01*
X110571027Y-99401117D01*
X110547855Y-99369225D01*
X110529966Y-99334116D01*
X110517785Y-99296622D01*
X110514661Y-99276894D01*
X110513769Y-99250554D01*
X110513576Y-99250552D01*
X110513627Y-99246357D01*
X110513729Y-99238000D01*
X110509773Y-99210376D01*
X110508500Y-99192514D01*
X110508500Y-93274669D01*
X192622001Y-93274669D01*
X192622371Y-93281490D01*
X192627895Y-93332352D01*
X192631521Y-93347604D01*
X192676676Y-93468054D01*
X192685214Y-93483649D01*
X192761715Y-93585724D01*
X192774276Y-93598285D01*
X192876351Y-93674786D01*
X192891946Y-93683324D01*
X193012394Y-93728478D01*
X193027649Y-93732105D01*
X193078514Y-93737631D01*
X193085328Y-93738000D01*
X193707885Y-93738000D01*
X193723124Y-93733525D01*
X193724329Y-93732135D01*
X193726000Y-93724452D01*
X193726000Y-93719884D01*
X194234000Y-93719884D01*
X194238475Y-93735123D01*
X194239865Y-93736328D01*
X194247548Y-93737999D01*
X194874669Y-93737999D01*
X194881490Y-93737629D01*
X194932352Y-93732105D01*
X194947604Y-93728479D01*
X195068054Y-93683324D01*
X195083649Y-93674786D01*
X195185724Y-93598285D01*
X195198285Y-93585724D01*
X195274786Y-93483649D01*
X195283325Y-93468052D01*
X195324425Y-93358418D01*
X195367066Y-93301653D01*
X195433628Y-93276953D01*
X195502977Y-93292160D01*
X195537645Y-93320150D01*
X195563219Y-93349674D01*
X195570580Y-93356883D01*
X195734434Y-93492916D01*
X195742881Y-93498831D01*
X195926756Y-93606279D01*
X195936042Y-93610729D01*
X196135001Y-93686703D01*
X196144899Y-93689579D01*
X196248250Y-93710606D01*
X196262299Y-93709410D01*
X196266000Y-93699065D01*
X196266000Y-93698517D01*
X196774000Y-93698517D01*
X196778064Y-93712359D01*
X196791478Y-93714393D01*
X196798184Y-93713534D01*
X196808262Y-93711392D01*
X197012255Y-93650191D01*
X197021842Y-93646433D01*
X197213095Y-93552739D01*
X197221945Y-93547464D01*
X197395328Y-93423792D01*
X197403200Y-93417139D01*
X197554052Y-93266812D01*
X197560730Y-93258965D01*
X197685003Y-93086020D01*
X197690313Y-93077183D01*
X197784670Y-92886267D01*
X197788469Y-92876672D01*
X197850377Y-92672910D01*
X197852555Y-92662837D01*
X197853986Y-92651962D01*
X197851775Y-92637778D01*
X197838617Y-92634000D01*
X196792115Y-92634000D01*
X196776876Y-92638475D01*
X196775671Y-92639865D01*
X196774000Y-92647548D01*
X196774000Y-93698517D01*
X196266000Y-93698517D01*
X196266000Y-92652115D01*
X196261525Y-92636876D01*
X196260135Y-92635671D01*
X196252452Y-92634000D01*
X194252115Y-92634000D01*
X194236876Y-92638475D01*
X194235671Y-92639865D01*
X194234000Y-92647548D01*
X194234000Y-93719884D01*
X193726000Y-93719884D01*
X193726000Y-92652115D01*
X193721525Y-92636876D01*
X193720135Y-92635671D01*
X193712452Y-92634000D01*
X192640116Y-92634000D01*
X192624877Y-92638475D01*
X192623672Y-92639865D01*
X192622001Y-92647548D01*
X192622001Y-93274669D01*
X110508500Y-93274669D01*
X110508500Y-92799669D01*
X147307001Y-92799669D01*
X147307371Y-92806490D01*
X147312895Y-92857352D01*
X147316521Y-92872604D01*
X147361676Y-92993054D01*
X147370214Y-93008649D01*
X147446715Y-93110724D01*
X147459276Y-93123285D01*
X147561351Y-93199786D01*
X147576946Y-93208324D01*
X147697394Y-93253478D01*
X147712649Y-93257105D01*
X147763514Y-93262631D01*
X147770328Y-93263000D01*
X148392885Y-93263000D01*
X148408124Y-93258525D01*
X148409329Y-93257135D01*
X148411000Y-93249452D01*
X148411000Y-93244884D01*
X148919000Y-93244884D01*
X148923475Y-93260123D01*
X148924865Y-93261328D01*
X148932548Y-93262999D01*
X149559669Y-93262999D01*
X149566490Y-93262629D01*
X149617352Y-93257105D01*
X149632604Y-93253479D01*
X149753054Y-93208324D01*
X149768649Y-93199786D01*
X149859018Y-93132058D01*
X149925525Y-93107210D01*
X149994907Y-93122263D01*
X150010148Y-93132058D01*
X150041323Y-93155422D01*
X150108295Y-93205615D01*
X150244684Y-93256745D01*
X150306866Y-93263500D01*
X152103134Y-93263500D01*
X152165316Y-93256745D01*
X152301705Y-93205615D01*
X152399436Y-93132370D01*
X152465941Y-93107522D01*
X152535324Y-93122575D01*
X152550562Y-93132368D01*
X152648295Y-93205615D01*
X152784684Y-93256745D01*
X152846866Y-93263500D01*
X154643134Y-93263500D01*
X154705316Y-93256745D01*
X154841705Y-93205615D01*
X154939436Y-93132370D01*
X155005941Y-93107522D01*
X155075324Y-93122575D01*
X155090562Y-93132368D01*
X155188295Y-93205615D01*
X155324684Y-93256745D01*
X155386866Y-93263500D01*
X157183134Y-93263500D01*
X157245316Y-93256745D01*
X157381705Y-93205615D01*
X157479436Y-93132370D01*
X157545941Y-93107522D01*
X157615324Y-93122575D01*
X157630562Y-93132368D01*
X157728295Y-93205615D01*
X157864684Y-93256745D01*
X157926866Y-93263500D01*
X159723134Y-93263500D01*
X159785316Y-93256745D01*
X159921705Y-93205615D01*
X160019436Y-93132370D01*
X160085941Y-93107522D01*
X160155324Y-93122575D01*
X160170562Y-93132368D01*
X160268295Y-93205615D01*
X160404684Y-93256745D01*
X160466866Y-93263500D01*
X162263134Y-93263500D01*
X162325316Y-93256745D01*
X162461705Y-93205615D01*
X162559436Y-93132370D01*
X162625941Y-93107522D01*
X162695324Y-93122575D01*
X162710562Y-93132368D01*
X162808295Y-93205615D01*
X162944684Y-93256745D01*
X163006866Y-93263500D01*
X164803134Y-93263500D01*
X164865316Y-93256745D01*
X165001705Y-93205615D01*
X165099436Y-93132370D01*
X165165941Y-93107522D01*
X165235324Y-93122575D01*
X165250562Y-93132368D01*
X165348295Y-93205615D01*
X165484684Y-93256745D01*
X165546866Y-93263500D01*
X167343134Y-93263500D01*
X167405316Y-93256745D01*
X167541705Y-93205615D01*
X167639436Y-93132370D01*
X167705941Y-93107522D01*
X167775324Y-93122575D01*
X167790562Y-93132368D01*
X167888295Y-93205615D01*
X168024684Y-93256745D01*
X168086866Y-93263500D01*
X169883134Y-93263500D01*
X169945316Y-93256745D01*
X170081705Y-93205615D01*
X170179436Y-93132370D01*
X170245941Y-93107522D01*
X170315324Y-93122575D01*
X170330562Y-93132368D01*
X170428295Y-93205615D01*
X170564684Y-93256745D01*
X170626866Y-93263500D01*
X172423134Y-93263500D01*
X172485316Y-93256745D01*
X172621705Y-93205615D01*
X172738261Y-93118261D01*
X172825615Y-93001705D01*
X172876745Y-92865316D01*
X172883500Y-92803134D01*
X172883500Y-91006866D01*
X172876745Y-90944684D01*
X172825615Y-90808295D01*
X172738261Y-90691739D01*
X172621705Y-90604385D01*
X172485316Y-90553255D01*
X172427737Y-90547000D01*
X172426531Y-90546869D01*
X172423134Y-90546500D01*
X170626866Y-90546500D01*
X170623469Y-90546869D01*
X170622263Y-90547000D01*
X170564684Y-90553255D01*
X170428295Y-90604385D01*
X170368779Y-90648990D01*
X170330565Y-90677630D01*
X170264059Y-90702478D01*
X170194676Y-90687425D01*
X170179435Y-90677630D01*
X170141221Y-90648990D01*
X170081705Y-90604385D01*
X169945316Y-90553255D01*
X169887737Y-90547000D01*
X169886531Y-90546869D01*
X169883134Y-90546500D01*
X168086866Y-90546500D01*
X168083469Y-90546869D01*
X168082263Y-90547000D01*
X168024684Y-90553255D01*
X167888295Y-90604385D01*
X167828779Y-90648990D01*
X167790565Y-90677630D01*
X167724059Y-90702478D01*
X167654676Y-90687425D01*
X167639435Y-90677630D01*
X167601221Y-90648990D01*
X167541705Y-90604385D01*
X167405316Y-90553255D01*
X167347737Y-90547000D01*
X167346531Y-90546869D01*
X167343134Y-90546500D01*
X165546866Y-90546500D01*
X165543469Y-90546869D01*
X165542263Y-90547000D01*
X165484684Y-90553255D01*
X165348295Y-90604385D01*
X165288779Y-90648990D01*
X165250565Y-90677630D01*
X165184059Y-90702478D01*
X165114676Y-90687425D01*
X165099435Y-90677630D01*
X165061221Y-90648990D01*
X165001705Y-90604385D01*
X164865316Y-90553255D01*
X164807737Y-90547000D01*
X164806531Y-90546869D01*
X164803134Y-90546500D01*
X163006866Y-90546500D01*
X163003469Y-90546869D01*
X163002263Y-90547000D01*
X162944684Y-90553255D01*
X162808295Y-90604385D01*
X162748779Y-90648990D01*
X162710565Y-90677630D01*
X162644059Y-90702478D01*
X162574676Y-90687425D01*
X162559435Y-90677630D01*
X162521221Y-90648990D01*
X162461705Y-90604385D01*
X162325316Y-90553255D01*
X162267737Y-90547000D01*
X162266531Y-90546869D01*
X162263134Y-90546500D01*
X160466866Y-90546500D01*
X160463469Y-90546869D01*
X160462263Y-90547000D01*
X160404684Y-90553255D01*
X160268295Y-90604385D01*
X160208779Y-90648990D01*
X160170565Y-90677630D01*
X160104059Y-90702478D01*
X160034676Y-90687425D01*
X160019435Y-90677630D01*
X159981221Y-90648990D01*
X159921705Y-90604385D01*
X159785316Y-90553255D01*
X159727737Y-90547000D01*
X159726531Y-90546869D01*
X159723134Y-90546500D01*
X157926866Y-90546500D01*
X157923469Y-90546869D01*
X157922263Y-90547000D01*
X157864684Y-90553255D01*
X157728295Y-90604385D01*
X157668779Y-90648990D01*
X157630565Y-90677630D01*
X157564059Y-90702478D01*
X157494676Y-90687425D01*
X157479435Y-90677630D01*
X157441221Y-90648990D01*
X157381705Y-90604385D01*
X157245316Y-90553255D01*
X157187737Y-90547000D01*
X157186531Y-90546869D01*
X157183134Y-90546500D01*
X155386866Y-90546500D01*
X155383469Y-90546869D01*
X155382263Y-90547000D01*
X155324684Y-90553255D01*
X155188295Y-90604385D01*
X155128779Y-90648990D01*
X155090565Y-90677630D01*
X155024059Y-90702478D01*
X154954676Y-90687425D01*
X154939435Y-90677630D01*
X154901221Y-90648990D01*
X154841705Y-90604385D01*
X154705316Y-90553255D01*
X154647737Y-90547000D01*
X154646531Y-90546869D01*
X154643134Y-90546500D01*
X152846866Y-90546500D01*
X152843469Y-90546869D01*
X152842263Y-90547000D01*
X152784684Y-90553255D01*
X152648295Y-90604385D01*
X152588779Y-90648990D01*
X152550565Y-90677630D01*
X152484059Y-90702478D01*
X152414676Y-90687425D01*
X152399435Y-90677630D01*
X152361221Y-90648990D01*
X152301705Y-90604385D01*
X152165316Y-90553255D01*
X152107737Y-90547000D01*
X152106531Y-90546869D01*
X152103134Y-90546500D01*
X150306866Y-90546500D01*
X150303469Y-90546869D01*
X150302263Y-90547000D01*
X150244684Y-90553255D01*
X150108295Y-90604385D01*
X150059856Y-90640688D01*
X150010148Y-90677942D01*
X149943642Y-90702790D01*
X149874259Y-90687737D01*
X149859018Y-90677942D01*
X149768649Y-90610214D01*
X149753054Y-90601676D01*
X149632606Y-90556522D01*
X149617351Y-90552895D01*
X149566486Y-90547369D01*
X149559672Y-90547000D01*
X148937115Y-90547000D01*
X148921876Y-90551475D01*
X148920671Y-90552865D01*
X148919000Y-90560548D01*
X148919000Y-93244884D01*
X148411000Y-93244884D01*
X148411000Y-92177115D01*
X148406525Y-92161876D01*
X148405135Y-92160671D01*
X148397452Y-92159000D01*
X147325116Y-92159000D01*
X147309877Y-92163475D01*
X147308672Y-92164865D01*
X147307001Y-92172548D01*
X147307001Y-92799669D01*
X110508500Y-92799669D01*
X110508500Y-91632885D01*
X147307000Y-91632885D01*
X147311475Y-91648124D01*
X147312865Y-91649329D01*
X147320548Y-91651000D01*
X148392885Y-91651000D01*
X148408124Y-91646525D01*
X148409329Y-91645135D01*
X148411000Y-91637452D01*
X148411000Y-90565116D01*
X148406525Y-90549877D01*
X148405135Y-90548672D01*
X148397452Y-90547001D01*
X147770331Y-90547001D01*
X147763510Y-90547371D01*
X147712648Y-90552895D01*
X147697396Y-90556521D01*
X147576946Y-90601676D01*
X147561351Y-90610214D01*
X147459276Y-90686715D01*
X147446715Y-90699276D01*
X147370214Y-90801351D01*
X147361676Y-90816946D01*
X147316522Y-90937394D01*
X147312895Y-90952649D01*
X147307369Y-91003514D01*
X147307000Y-91010328D01*
X147307000Y-91632885D01*
X110508500Y-91632885D01*
X110508500Y-89806695D01*
X192617251Y-89806695D01*
X192617548Y-89811848D01*
X192617548Y-89811851D01*
X192623011Y-89906590D01*
X192630110Y-90029715D01*
X192631247Y-90034761D01*
X192631248Y-90034767D01*
X192651119Y-90122939D01*
X192679222Y-90247639D01*
X192763266Y-90454616D01*
X192814019Y-90537438D01*
X192877291Y-90640688D01*
X192879987Y-90645088D01*
X193026250Y-90813938D01*
X193030225Y-90817238D01*
X193030231Y-90817244D01*
X193035425Y-90821556D01*
X193075059Y-90880460D01*
X193076555Y-90951441D01*
X193039439Y-91011962D01*
X192999168Y-91036480D01*
X192891946Y-91076676D01*
X192876351Y-91085214D01*
X192774276Y-91161715D01*
X192761715Y-91174276D01*
X192685214Y-91276351D01*
X192676676Y-91291946D01*
X192631522Y-91412394D01*
X192627895Y-91427649D01*
X192622369Y-91478514D01*
X192622000Y-91485328D01*
X192622000Y-92107885D01*
X192626475Y-92123124D01*
X192627865Y-92124329D01*
X192635548Y-92126000D01*
X197838344Y-92126000D01*
X197851875Y-92122027D01*
X197853180Y-92112947D01*
X197811214Y-91945875D01*
X197807894Y-91936124D01*
X197722972Y-91740814D01*
X197718105Y-91731739D01*
X197602426Y-91552926D01*
X197596136Y-91544757D01*
X197452806Y-91387240D01*
X197445273Y-91380215D01*
X197278139Y-91248222D01*
X197269556Y-91242520D01*
X197232602Y-91222120D01*
X197182631Y-91171687D01*
X197167859Y-91102245D01*
X197192975Y-91035839D01*
X197220327Y-91009232D01*
X197243797Y-90992491D01*
X197399860Y-90881173D01*
X197424323Y-90856796D01*
X197554435Y-90727137D01*
X197558096Y-90723489D01*
X197584011Y-90687425D01*
X197685435Y-90546277D01*
X197688453Y-90542077D01*
X197709320Y-90499857D01*
X197785136Y-90346453D01*
X197785137Y-90346451D01*
X197787430Y-90341811D01*
X197852370Y-90128069D01*
X197881529Y-89906590D01*
X197883156Y-89840000D01*
X197864852Y-89617361D01*
X197810431Y-89400702D01*
X197721354Y-89195840D01*
X197600014Y-89008277D01*
X197449670Y-88843051D01*
X197445619Y-88839852D01*
X197445615Y-88839848D01*
X197278414Y-88707800D01*
X197278410Y-88707798D01*
X197274359Y-88704598D01*
X197233053Y-88681796D01*
X197183084Y-88631364D01*
X197168312Y-88561921D01*
X197193428Y-88495516D01*
X197220780Y-88468909D01*
X197264603Y-88437650D01*
X197399860Y-88341173D01*
X197558096Y-88183489D01*
X197617594Y-88100689D01*
X197685435Y-88006277D01*
X197688453Y-88002077D01*
X197709320Y-87959857D01*
X197785136Y-87806453D01*
X197785137Y-87806451D01*
X197787430Y-87801811D01*
X197852370Y-87588069D01*
X197881529Y-87366590D01*
X197881928Y-87350261D01*
X197883074Y-87303365D01*
X197883074Y-87303361D01*
X197883156Y-87300000D01*
X197864852Y-87077361D01*
X197810431Y-86860702D01*
X197721354Y-86655840D01*
X197600014Y-86468277D01*
X197449670Y-86303051D01*
X197445619Y-86299852D01*
X197445615Y-86299848D01*
X197278414Y-86167800D01*
X197278410Y-86167798D01*
X197274359Y-86164598D01*
X197233053Y-86141796D01*
X197183084Y-86091364D01*
X197168312Y-86021921D01*
X197193428Y-85955516D01*
X197220780Y-85928909D01*
X197264603Y-85897650D01*
X197399860Y-85801173D01*
X197558096Y-85643489D01*
X197617594Y-85560689D01*
X197685435Y-85466277D01*
X197688453Y-85462077D01*
X197709320Y-85419857D01*
X197785136Y-85266453D01*
X197785137Y-85266451D01*
X197787430Y-85261811D01*
X197836671Y-85099739D01*
X197850865Y-85053023D01*
X197850865Y-85053021D01*
X197852370Y-85048069D01*
X197881529Y-84826590D01*
X197883156Y-84760000D01*
X197864852Y-84537361D01*
X197810431Y-84320702D01*
X197721354Y-84115840D01*
X197600014Y-83928277D01*
X197449670Y-83763051D01*
X197445619Y-83759852D01*
X197445615Y-83759848D01*
X197278414Y-83627800D01*
X197278410Y-83627798D01*
X197274359Y-83624598D01*
X197233053Y-83601796D01*
X197183084Y-83551364D01*
X197168312Y-83481921D01*
X197193428Y-83415516D01*
X197220780Y-83388909D01*
X197264603Y-83357650D01*
X197399860Y-83261173D01*
X197558096Y-83103489D01*
X197617594Y-83020689D01*
X197685435Y-82926277D01*
X197688453Y-82922077D01*
X197709320Y-82879857D01*
X197785136Y-82726453D01*
X197785137Y-82726451D01*
X197787430Y-82721811D01*
X197852370Y-82508069D01*
X197881529Y-82286590D01*
X197883156Y-82220000D01*
X197864852Y-81997361D01*
X197810431Y-81780702D01*
X197721354Y-81575840D01*
X197600014Y-81388277D01*
X197449670Y-81223051D01*
X197445619Y-81219852D01*
X197445615Y-81219848D01*
X197278414Y-81087800D01*
X197278410Y-81087798D01*
X197274359Y-81084598D01*
X197233053Y-81061796D01*
X197183084Y-81011364D01*
X197168312Y-80941921D01*
X197193428Y-80875516D01*
X197220780Y-80848909D01*
X197264603Y-80817650D01*
X197399860Y-80721173D01*
X197558096Y-80563489D01*
X197617594Y-80480689D01*
X197685435Y-80386277D01*
X197688453Y-80382077D01*
X197709320Y-80339857D01*
X197785136Y-80186453D01*
X197785137Y-80186451D01*
X197787430Y-80181811D01*
X197852370Y-79968069D01*
X197881529Y-79746590D01*
X197883156Y-79680000D01*
X197864852Y-79457361D01*
X197810431Y-79240702D01*
X197721354Y-79035840D01*
X197600014Y-78848277D01*
X197449670Y-78683051D01*
X197445619Y-78679852D01*
X197445615Y-78679848D01*
X197278414Y-78547800D01*
X197278410Y-78547798D01*
X197274359Y-78544598D01*
X197233053Y-78521796D01*
X197183084Y-78471364D01*
X197168312Y-78401921D01*
X197193428Y-78335516D01*
X197220780Y-78308909D01*
X197264603Y-78277650D01*
X197399860Y-78181173D01*
X197558096Y-78023489D01*
X197617594Y-77940689D01*
X197685435Y-77846277D01*
X197688453Y-77842077D01*
X197709320Y-77799857D01*
X197785136Y-77646453D01*
X197785137Y-77646451D01*
X197787430Y-77641811D01*
X197852370Y-77428069D01*
X197881529Y-77206590D01*
X197883156Y-77140000D01*
X197864852Y-76917361D01*
X197810431Y-76700702D01*
X197721354Y-76495840D01*
X197600014Y-76308277D01*
X197449670Y-76143051D01*
X197445619Y-76139852D01*
X197445615Y-76139848D01*
X197278414Y-76007800D01*
X197278410Y-76007798D01*
X197274359Y-76004598D01*
X197233053Y-75981796D01*
X197183084Y-75931364D01*
X197168312Y-75861921D01*
X197193428Y-75795516D01*
X197220780Y-75768909D01*
X197264603Y-75737650D01*
X197399860Y-75641173D01*
X197558096Y-75483489D01*
X197617594Y-75400689D01*
X197685435Y-75306277D01*
X197688453Y-75302077D01*
X197709320Y-75259857D01*
X197785136Y-75106453D01*
X197785137Y-75106451D01*
X197787430Y-75101811D01*
X197852370Y-74888069D01*
X197881529Y-74666590D01*
X197883156Y-74600000D01*
X197864852Y-74377361D01*
X197810431Y-74160702D01*
X197721354Y-73955840D01*
X197600014Y-73768277D01*
X197449670Y-73603051D01*
X197445619Y-73599852D01*
X197445615Y-73599848D01*
X197278414Y-73467800D01*
X197278410Y-73467798D01*
X197274359Y-73464598D01*
X197233053Y-73441796D01*
X197183084Y-73391364D01*
X197168312Y-73321921D01*
X197193428Y-73255516D01*
X197220780Y-73228909D01*
X197264603Y-73197650D01*
X197399860Y-73101173D01*
X197558096Y-72943489D01*
X197617594Y-72860689D01*
X197685435Y-72766277D01*
X197688453Y-72762077D01*
X197709320Y-72719857D01*
X197785136Y-72566453D01*
X197785137Y-72566451D01*
X197787430Y-72561811D01*
X197852370Y-72348069D01*
X197881529Y-72126590D01*
X197883156Y-72060000D01*
X197864852Y-71837361D01*
X197810431Y-71620702D01*
X197721354Y-71415840D01*
X197600014Y-71228277D01*
X197449670Y-71063051D01*
X197445619Y-71059852D01*
X197445615Y-71059848D01*
X197278414Y-70927800D01*
X197278410Y-70927798D01*
X197274359Y-70924598D01*
X197233053Y-70901796D01*
X197183084Y-70851364D01*
X197168312Y-70781921D01*
X197193428Y-70715516D01*
X197220780Y-70688909D01*
X197264603Y-70657650D01*
X197399860Y-70561173D01*
X197558096Y-70403489D01*
X197617594Y-70320689D01*
X197685435Y-70226277D01*
X197688453Y-70222077D01*
X197709320Y-70179857D01*
X197785136Y-70026453D01*
X197785137Y-70026451D01*
X197787430Y-70021811D01*
X197852370Y-69808069D01*
X197881529Y-69586590D01*
X197883156Y-69520000D01*
X197864852Y-69297361D01*
X197810431Y-69080702D01*
X197721354Y-68875840D01*
X197600014Y-68688277D01*
X197449670Y-68523051D01*
X197445619Y-68519852D01*
X197445615Y-68519848D01*
X197278414Y-68387800D01*
X197278410Y-68387798D01*
X197274359Y-68384598D01*
X197233053Y-68361796D01*
X197183084Y-68311364D01*
X197168312Y-68241921D01*
X197193428Y-68175516D01*
X197220780Y-68148909D01*
X197264603Y-68117650D01*
X197399860Y-68021173D01*
X197558096Y-67863489D01*
X197617594Y-67780689D01*
X197685435Y-67686277D01*
X197688453Y-67682077D01*
X197709320Y-67639857D01*
X197785136Y-67486453D01*
X197785137Y-67486451D01*
X197787430Y-67481811D01*
X197852370Y-67268069D01*
X197881529Y-67046590D01*
X197883156Y-66980000D01*
X197864852Y-66757361D01*
X197810431Y-66540702D01*
X197721354Y-66335840D01*
X197600014Y-66148277D01*
X197449670Y-65983051D01*
X197445619Y-65979852D01*
X197445615Y-65979848D01*
X197278414Y-65847800D01*
X197278410Y-65847798D01*
X197274359Y-65844598D01*
X197233053Y-65821796D01*
X197183084Y-65771364D01*
X197168312Y-65701921D01*
X197193428Y-65635516D01*
X197220780Y-65608909D01*
X197264603Y-65577650D01*
X197399860Y-65481173D01*
X197558096Y-65323489D01*
X197617594Y-65240689D01*
X197685435Y-65146277D01*
X197688453Y-65142077D01*
X197693979Y-65130897D01*
X197785136Y-64946453D01*
X197785137Y-64946451D01*
X197787430Y-64941811D01*
X197852370Y-64728069D01*
X197881529Y-64506590D01*
X197883156Y-64440000D01*
X197864852Y-64217361D01*
X197810431Y-64000702D01*
X197721354Y-63795840D01*
X197600014Y-63608277D01*
X197449670Y-63443051D01*
X197445619Y-63439852D01*
X197445615Y-63439848D01*
X197278414Y-63307800D01*
X197278410Y-63307798D01*
X197274359Y-63304598D01*
X197233053Y-63281796D01*
X197183084Y-63231364D01*
X197168312Y-63161921D01*
X197193428Y-63095516D01*
X197220780Y-63068909D01*
X197264603Y-63037650D01*
X197399860Y-62941173D01*
X197558096Y-62783489D01*
X197617594Y-62700689D01*
X197685435Y-62606277D01*
X197688453Y-62602077D01*
X197709320Y-62559857D01*
X197785136Y-62406453D01*
X197785137Y-62406451D01*
X197787430Y-62401811D01*
X197852370Y-62188069D01*
X197881529Y-61966590D01*
X197881611Y-61963240D01*
X197883074Y-61903365D01*
X197883074Y-61903361D01*
X197883156Y-61900000D01*
X197864852Y-61677361D01*
X197810431Y-61460702D01*
X197721354Y-61255840D01*
X197600014Y-61068277D01*
X197449670Y-60903051D01*
X197445619Y-60899852D01*
X197445615Y-60899848D01*
X197278414Y-60767800D01*
X197278410Y-60767798D01*
X197274359Y-60764598D01*
X197233053Y-60741796D01*
X197183084Y-60691364D01*
X197168312Y-60621921D01*
X197193428Y-60555516D01*
X197220780Y-60528909D01*
X197264603Y-60497650D01*
X197399860Y-60401173D01*
X197558096Y-60243489D01*
X197617594Y-60160689D01*
X197685435Y-60066277D01*
X197688453Y-60062077D01*
X197709320Y-60019857D01*
X197785136Y-59866453D01*
X197785137Y-59866451D01*
X197787430Y-59861811D01*
X197842496Y-59680569D01*
X197850865Y-59653023D01*
X197850865Y-59653021D01*
X197852370Y-59648069D01*
X197881529Y-59426590D01*
X197881765Y-59416928D01*
X197883074Y-59363365D01*
X197883074Y-59363361D01*
X197883156Y-59360000D01*
X197864852Y-59137361D01*
X197810431Y-58920702D01*
X197721354Y-58715840D01*
X197600014Y-58528277D01*
X197449670Y-58363051D01*
X197445619Y-58359852D01*
X197445615Y-58359848D01*
X197278414Y-58227800D01*
X197278410Y-58227798D01*
X197274359Y-58224598D01*
X197233053Y-58201796D01*
X197183084Y-58151364D01*
X197168312Y-58081921D01*
X197193428Y-58015516D01*
X197220780Y-57988909D01*
X197264603Y-57957650D01*
X197399860Y-57861173D01*
X197403696Y-57857351D01*
X197554435Y-57707137D01*
X197558096Y-57703489D01*
X197617594Y-57620689D01*
X197685435Y-57526277D01*
X197688453Y-57522077D01*
X197709320Y-57479857D01*
X197785136Y-57326453D01*
X197785137Y-57326451D01*
X197787430Y-57321811D01*
X197852370Y-57108069D01*
X197881529Y-56886590D01*
X197883156Y-56820000D01*
X197864852Y-56597361D01*
X197810431Y-56380702D01*
X197721354Y-56175840D01*
X197681906Y-56114862D01*
X197602822Y-55992617D01*
X197602820Y-55992614D01*
X197600014Y-55988277D01*
X197449670Y-55823051D01*
X197445619Y-55819852D01*
X197445615Y-55819848D01*
X197278414Y-55687800D01*
X197278410Y-55687798D01*
X197274359Y-55684598D01*
X197233053Y-55661796D01*
X197183084Y-55611364D01*
X197168312Y-55541921D01*
X197193428Y-55475516D01*
X197220780Y-55448909D01*
X197287901Y-55401032D01*
X197399860Y-55321173D01*
X197558096Y-55163489D01*
X197617594Y-55080689D01*
X197685435Y-54986277D01*
X197688453Y-54982077D01*
X197709320Y-54939857D01*
X197785136Y-54786453D01*
X197785137Y-54786451D01*
X197787430Y-54781811D01*
X197852370Y-54568069D01*
X197881529Y-54346590D01*
X197883156Y-54280000D01*
X197864852Y-54057361D01*
X197810431Y-53840702D01*
X197721354Y-53635840D01*
X197676927Y-53567167D01*
X197602822Y-53452617D01*
X197602820Y-53452614D01*
X197600014Y-53448277D01*
X197449670Y-53283051D01*
X197445619Y-53279852D01*
X197445615Y-53279848D01*
X197278414Y-53147800D01*
X197278410Y-53147798D01*
X197274359Y-53144598D01*
X197233053Y-53121796D01*
X197183084Y-53071364D01*
X197168312Y-53001921D01*
X197193428Y-52935516D01*
X197220780Y-52908909D01*
X197264603Y-52877650D01*
X197399860Y-52781173D01*
X197558096Y-52623489D01*
X197617594Y-52540689D01*
X197685435Y-52446277D01*
X197688453Y-52442077D01*
X197709320Y-52399857D01*
X197785136Y-52246453D01*
X197785137Y-52246451D01*
X197787430Y-52241811D01*
X197852370Y-52028069D01*
X197881529Y-51806590D01*
X197883156Y-51740000D01*
X197864852Y-51517361D01*
X197810431Y-51300702D01*
X197721354Y-51095840D01*
X197669728Y-51016039D01*
X197602822Y-50912617D01*
X197602820Y-50912614D01*
X197600014Y-50908277D01*
X197449670Y-50743051D01*
X197445619Y-50739852D01*
X197445615Y-50739848D01*
X197278414Y-50607800D01*
X197278410Y-50607798D01*
X197274359Y-50604598D01*
X197233053Y-50581796D01*
X197183084Y-50531364D01*
X197168312Y-50461921D01*
X197193428Y-50395516D01*
X197220780Y-50368909D01*
X197264603Y-50337650D01*
X197399860Y-50241173D01*
X197558096Y-50083489D01*
X197617594Y-50000689D01*
X197685435Y-49906277D01*
X197688453Y-49902077D01*
X197693979Y-49890897D01*
X197785136Y-49706453D01*
X197785137Y-49706451D01*
X197787430Y-49701811D01*
X197852370Y-49488069D01*
X197881529Y-49266590D01*
X197883156Y-49200000D01*
X197864852Y-48977361D01*
X197810431Y-48760702D01*
X197721354Y-48555840D01*
X197656989Y-48456347D01*
X197602822Y-48372617D01*
X197602820Y-48372614D01*
X197600014Y-48368277D01*
X197449670Y-48203051D01*
X197445619Y-48199852D01*
X197445615Y-48199848D01*
X197278414Y-48067800D01*
X197278410Y-48067798D01*
X197274359Y-48064598D01*
X197238028Y-48044542D01*
X197222136Y-48035769D01*
X197078789Y-47956638D01*
X197073920Y-47954914D01*
X197073916Y-47954912D01*
X196873087Y-47883795D01*
X196873083Y-47883794D01*
X196868212Y-47882069D01*
X196863119Y-47881162D01*
X196863116Y-47881161D01*
X196653373Y-47843800D01*
X196653367Y-47843799D01*
X196648284Y-47842894D01*
X196574452Y-47841992D01*
X196430081Y-47840228D01*
X196430079Y-47840228D01*
X196424911Y-47840165D01*
X196204091Y-47873955D01*
X195991756Y-47943357D01*
X195793607Y-48046507D01*
X195789474Y-48049610D01*
X195789471Y-48049612D01*
X195619100Y-48177530D01*
X195614965Y-48180635D01*
X195611393Y-48184373D01*
X195503729Y-48297037D01*
X195460629Y-48342138D01*
X195353201Y-48499621D01*
X195298293Y-48544621D01*
X195227768Y-48552792D01*
X195164021Y-48521538D01*
X195143324Y-48497054D01*
X195062822Y-48372617D01*
X195062820Y-48372614D01*
X195060014Y-48368277D01*
X194909670Y-48203051D01*
X194905619Y-48199852D01*
X194905615Y-48199848D01*
X194738414Y-48067800D01*
X194738410Y-48067798D01*
X194734359Y-48064598D01*
X194698028Y-48044542D01*
X194682136Y-48035769D01*
X194538789Y-47956638D01*
X194533920Y-47954914D01*
X194533916Y-47954912D01*
X194333087Y-47883795D01*
X194333083Y-47883794D01*
X194328212Y-47882069D01*
X194323119Y-47881162D01*
X194323116Y-47881161D01*
X194113373Y-47843800D01*
X194113367Y-47843799D01*
X194108284Y-47842894D01*
X194034452Y-47841992D01*
X193890081Y-47840228D01*
X193890079Y-47840228D01*
X193884911Y-47840165D01*
X193664091Y-47873955D01*
X193451756Y-47943357D01*
X193253607Y-48046507D01*
X193249474Y-48049610D01*
X193249471Y-48049612D01*
X193079100Y-48177530D01*
X193074965Y-48180635D01*
X193071393Y-48184373D01*
X192963729Y-48297037D01*
X192920629Y-48342138D01*
X192794743Y-48526680D01*
X192700688Y-48729305D01*
X192640989Y-48944570D01*
X192617251Y-49166695D01*
X192617548Y-49171848D01*
X192617548Y-49171851D01*
X192623011Y-49266590D01*
X192630110Y-49389715D01*
X192631247Y-49394761D01*
X192631248Y-49394767D01*
X192651119Y-49482939D01*
X192679222Y-49607639D01*
X192763266Y-49814616D01*
X192810011Y-49890897D01*
X192877291Y-50000688D01*
X192879987Y-50005088D01*
X193026250Y-50173938D01*
X193198126Y-50316632D01*
X193268595Y-50357811D01*
X193271445Y-50359476D01*
X193320169Y-50411114D01*
X193333240Y-50480897D01*
X193306509Y-50546669D01*
X193266055Y-50580027D01*
X193253607Y-50586507D01*
X193249474Y-50589610D01*
X193249471Y-50589612D01*
X193092640Y-50707364D01*
X193074965Y-50720635D01*
X192920629Y-50882138D01*
X192794743Y-51066680D01*
X192764336Y-51132187D01*
X192719160Y-51229511D01*
X192700688Y-51269305D01*
X192640989Y-51484570D01*
X192617251Y-51706695D01*
X192617548Y-51711848D01*
X192617548Y-51711851D01*
X192623011Y-51806590D01*
X192630110Y-51929715D01*
X192631247Y-51934761D01*
X192631248Y-51934767D01*
X192651119Y-52022939D01*
X192679222Y-52147639D01*
X192740673Y-52298976D01*
X192759970Y-52346498D01*
X192763266Y-52354616D01*
X192814019Y-52437438D01*
X192877291Y-52540688D01*
X192879987Y-52545088D01*
X193026250Y-52713938D01*
X193198126Y-52856632D01*
X193268595Y-52897811D01*
X193271445Y-52899476D01*
X193320169Y-52951114D01*
X193333240Y-53020897D01*
X193306509Y-53086669D01*
X193266055Y-53120027D01*
X193253607Y-53126507D01*
X193249474Y-53129610D01*
X193249471Y-53129612D01*
X193079100Y-53257530D01*
X193074965Y-53260635D01*
X193071393Y-53264373D01*
X192949194Y-53392247D01*
X192920629Y-53422138D01*
X192917720Y-53426403D01*
X192917714Y-53426411D01*
X192898213Y-53454999D01*
X192794743Y-53606680D01*
X192700688Y-53809305D01*
X192640989Y-54024570D01*
X192617251Y-54246695D01*
X192617548Y-54251848D01*
X192617548Y-54251851D01*
X192623005Y-54346498D01*
X192630110Y-54469715D01*
X192631247Y-54474761D01*
X192631248Y-54474767D01*
X192651119Y-54562939D01*
X192679222Y-54687639D01*
X192763266Y-54894616D01*
X192814019Y-54977438D01*
X192877291Y-55080688D01*
X192879987Y-55085088D01*
X193026250Y-55253938D01*
X193198126Y-55396632D01*
X193249799Y-55426827D01*
X193271445Y-55439476D01*
X193320169Y-55491114D01*
X193333240Y-55560897D01*
X193306509Y-55626669D01*
X193266055Y-55660027D01*
X193253607Y-55666507D01*
X193249474Y-55669610D01*
X193249471Y-55669612D01*
X193079100Y-55797530D01*
X193074965Y-55800635D01*
X192920629Y-55962138D01*
X192794743Y-56146680D01*
X192700688Y-56349305D01*
X192640989Y-56564570D01*
X192617251Y-56786695D01*
X192617548Y-56791848D01*
X192617548Y-56791851D01*
X192623011Y-56886590D01*
X192630110Y-57009715D01*
X192631247Y-57014761D01*
X192631248Y-57014767D01*
X192651119Y-57102939D01*
X192679222Y-57227639D01*
X192763266Y-57434616D01*
X192814019Y-57517438D01*
X192877291Y-57620688D01*
X192879987Y-57625088D01*
X193026250Y-57793938D01*
X193198126Y-57936632D01*
X193268595Y-57977811D01*
X193271445Y-57979476D01*
X193320169Y-58031114D01*
X193333240Y-58100897D01*
X193306509Y-58166669D01*
X193266055Y-58200027D01*
X193253607Y-58206507D01*
X193249474Y-58209610D01*
X193249471Y-58209612D01*
X193177699Y-58263500D01*
X193074965Y-58340635D01*
X192920629Y-58502138D01*
X192794743Y-58686680D01*
X192700688Y-58889305D01*
X192640989Y-59104570D01*
X192617251Y-59326695D01*
X192617548Y-59331848D01*
X192617548Y-59331851D01*
X192623011Y-59426590D01*
X192630110Y-59549715D01*
X192631247Y-59554761D01*
X192631248Y-59554767D01*
X192643927Y-59611027D01*
X192679222Y-59767639D01*
X192763266Y-59974616D01*
X192814019Y-60057438D01*
X192877291Y-60160688D01*
X192879987Y-60165088D01*
X193026250Y-60333938D01*
X193198126Y-60476632D01*
X193268595Y-60517811D01*
X193271445Y-60519476D01*
X193320169Y-60571114D01*
X193333240Y-60640897D01*
X193306509Y-60706669D01*
X193266055Y-60740027D01*
X193253607Y-60746507D01*
X193249474Y-60749610D01*
X193249471Y-60749612D01*
X193225247Y-60767800D01*
X193074965Y-60880635D01*
X192920629Y-61042138D01*
X192794743Y-61226680D01*
X192700688Y-61429305D01*
X192640989Y-61644570D01*
X192617251Y-61866695D01*
X192617548Y-61871848D01*
X192617548Y-61871851D01*
X192623011Y-61966590D01*
X192630110Y-62089715D01*
X192631247Y-62094761D01*
X192631248Y-62094767D01*
X192646585Y-62162818D01*
X192679222Y-62307639D01*
X192719346Y-62406453D01*
X192761103Y-62509288D01*
X192763266Y-62514616D01*
X192814019Y-62597438D01*
X192877291Y-62700688D01*
X192879987Y-62705088D01*
X193026250Y-62873938D01*
X193198126Y-63016632D01*
X193268595Y-63057811D01*
X193271445Y-63059476D01*
X193320169Y-63111114D01*
X193333240Y-63180897D01*
X193306509Y-63246669D01*
X193266055Y-63280027D01*
X193253607Y-63286507D01*
X193249474Y-63289610D01*
X193249471Y-63289612D01*
X193225247Y-63307800D01*
X193074965Y-63420635D01*
X192920629Y-63582138D01*
X192794743Y-63766680D01*
X192700688Y-63969305D01*
X192640989Y-64184570D01*
X192617251Y-64406695D01*
X192617548Y-64411848D01*
X192617548Y-64411851D01*
X192623011Y-64506590D01*
X192630110Y-64629715D01*
X192631247Y-64634761D01*
X192631248Y-64634767D01*
X192643446Y-64688891D01*
X192679222Y-64847639D01*
X192763266Y-65054616D01*
X192810011Y-65130897D01*
X192877291Y-65240688D01*
X192879987Y-65245088D01*
X193026250Y-65413938D01*
X193198126Y-65556632D01*
X193268595Y-65597811D01*
X193271445Y-65599476D01*
X193320169Y-65651114D01*
X193333240Y-65720897D01*
X193306509Y-65786669D01*
X193266055Y-65820027D01*
X193253607Y-65826507D01*
X193249474Y-65829610D01*
X193249471Y-65829612D01*
X193079100Y-65957530D01*
X193074965Y-65960635D01*
X192920629Y-66122138D01*
X192794743Y-66306680D01*
X192764336Y-66372187D01*
X192719160Y-66469511D01*
X192700688Y-66509305D01*
X192640989Y-66724570D01*
X192617251Y-66946695D01*
X192617548Y-66951848D01*
X192617548Y-66951851D01*
X192623011Y-67046590D01*
X192630110Y-67169715D01*
X192631247Y-67174761D01*
X192631248Y-67174767D01*
X192651119Y-67262939D01*
X192679222Y-67387639D01*
X192763266Y-67594616D01*
X192814019Y-67677438D01*
X192877291Y-67780688D01*
X192879987Y-67785088D01*
X193026250Y-67953938D01*
X193198126Y-68096632D01*
X193268595Y-68137811D01*
X193271445Y-68139476D01*
X193320169Y-68191114D01*
X193333240Y-68260897D01*
X193306509Y-68326669D01*
X193266055Y-68360027D01*
X193253607Y-68366507D01*
X193249474Y-68369610D01*
X193249471Y-68369612D01*
X193225247Y-68387800D01*
X193074965Y-68500635D01*
X192920629Y-68662138D01*
X192794743Y-68846680D01*
X192700688Y-69049305D01*
X192640989Y-69264570D01*
X192617251Y-69486695D01*
X192617548Y-69491848D01*
X192617548Y-69491851D01*
X192623011Y-69586590D01*
X192630110Y-69709715D01*
X192631247Y-69714761D01*
X192631248Y-69714767D01*
X192651119Y-69802939D01*
X192679222Y-69927639D01*
X192763266Y-70134616D01*
X192814019Y-70217438D01*
X192877291Y-70320688D01*
X192879987Y-70325088D01*
X193026250Y-70493938D01*
X193198126Y-70636632D01*
X193268595Y-70677811D01*
X193271445Y-70679476D01*
X193320169Y-70731114D01*
X193333240Y-70800897D01*
X193306509Y-70866669D01*
X193266055Y-70900027D01*
X193253607Y-70906507D01*
X193249474Y-70909610D01*
X193249471Y-70909612D01*
X193225247Y-70927800D01*
X193074965Y-71040635D01*
X192920629Y-71202138D01*
X192794743Y-71386680D01*
X192700688Y-71589305D01*
X192640989Y-71804570D01*
X192617251Y-72026695D01*
X192617548Y-72031848D01*
X192617548Y-72031851D01*
X192623011Y-72126590D01*
X192630110Y-72249715D01*
X192631247Y-72254761D01*
X192631248Y-72254767D01*
X192651119Y-72342939D01*
X192679222Y-72467639D01*
X192763266Y-72674616D01*
X192814019Y-72757438D01*
X192877291Y-72860688D01*
X192879987Y-72865088D01*
X193026250Y-73033938D01*
X193198126Y-73176632D01*
X193268595Y-73217811D01*
X193271445Y-73219476D01*
X193320169Y-73271114D01*
X193333240Y-73340897D01*
X193306509Y-73406669D01*
X193266055Y-73440027D01*
X193253607Y-73446507D01*
X193249474Y-73449610D01*
X193249471Y-73449612D01*
X193225247Y-73467800D01*
X193074965Y-73580635D01*
X192920629Y-73742138D01*
X192794743Y-73926680D01*
X192700688Y-74129305D01*
X192640989Y-74344570D01*
X192617251Y-74566695D01*
X192617548Y-74571848D01*
X192617548Y-74571851D01*
X192623011Y-74666590D01*
X192630110Y-74789715D01*
X192631247Y-74794761D01*
X192631248Y-74794767D01*
X192651119Y-74882939D01*
X192679222Y-75007639D01*
X192763266Y-75214616D01*
X192814019Y-75297438D01*
X192877291Y-75400688D01*
X192879987Y-75405088D01*
X193026250Y-75573938D01*
X193198126Y-75716632D01*
X193268595Y-75757811D01*
X193271445Y-75759476D01*
X193320169Y-75811114D01*
X193333240Y-75880897D01*
X193306509Y-75946669D01*
X193266055Y-75980027D01*
X193253607Y-75986507D01*
X193249474Y-75989610D01*
X193249471Y-75989612D01*
X193225247Y-76007800D01*
X193074965Y-76120635D01*
X192920629Y-76282138D01*
X192794743Y-76466680D01*
X192700688Y-76669305D01*
X192640989Y-76884570D01*
X192617251Y-77106695D01*
X192617548Y-77111848D01*
X192617548Y-77111851D01*
X192623011Y-77206590D01*
X192630110Y-77329715D01*
X192631247Y-77334761D01*
X192631248Y-77334767D01*
X192651119Y-77422939D01*
X192679222Y-77547639D01*
X192763266Y-77754616D01*
X192814019Y-77837438D01*
X192877291Y-77940688D01*
X192879987Y-77945088D01*
X193026250Y-78113938D01*
X193198126Y-78256632D01*
X193268595Y-78297811D01*
X193271445Y-78299476D01*
X193320169Y-78351114D01*
X193333240Y-78420897D01*
X193306509Y-78486669D01*
X193266055Y-78520027D01*
X193253607Y-78526507D01*
X193249474Y-78529610D01*
X193249471Y-78529612D01*
X193225247Y-78547800D01*
X193074965Y-78660635D01*
X192920629Y-78822138D01*
X192794743Y-79006680D01*
X192700688Y-79209305D01*
X192640989Y-79424570D01*
X192617251Y-79646695D01*
X192617548Y-79651848D01*
X192617548Y-79651851D01*
X192623011Y-79746590D01*
X192630110Y-79869715D01*
X192631247Y-79874761D01*
X192631248Y-79874767D01*
X192651119Y-79962939D01*
X192679222Y-80087639D01*
X192763266Y-80294616D01*
X192814019Y-80377438D01*
X192877291Y-80480688D01*
X192879987Y-80485088D01*
X193026250Y-80653938D01*
X193198126Y-80796632D01*
X193268595Y-80837811D01*
X193271445Y-80839476D01*
X193320169Y-80891114D01*
X193333240Y-80960897D01*
X193306509Y-81026669D01*
X193266055Y-81060027D01*
X193253607Y-81066507D01*
X193249474Y-81069610D01*
X193249471Y-81069612D01*
X193225247Y-81087800D01*
X193074965Y-81200635D01*
X192920629Y-81362138D01*
X192794743Y-81546680D01*
X192700688Y-81749305D01*
X192640989Y-81964570D01*
X192617251Y-82186695D01*
X192617548Y-82191848D01*
X192617548Y-82191851D01*
X192623011Y-82286590D01*
X192630110Y-82409715D01*
X192631247Y-82414761D01*
X192631248Y-82414767D01*
X192651119Y-82502939D01*
X192679222Y-82627639D01*
X192763266Y-82834616D01*
X192814019Y-82917438D01*
X192877291Y-83020688D01*
X192879987Y-83025088D01*
X193026250Y-83193938D01*
X193198126Y-83336632D01*
X193268595Y-83377811D01*
X193271445Y-83379476D01*
X193320169Y-83431114D01*
X193333240Y-83500897D01*
X193306509Y-83566669D01*
X193266055Y-83600027D01*
X193253607Y-83606507D01*
X193249474Y-83609610D01*
X193249471Y-83609612D01*
X193225247Y-83627800D01*
X193074965Y-83740635D01*
X192920629Y-83902138D01*
X192794743Y-84086680D01*
X192700688Y-84289305D01*
X192640989Y-84504570D01*
X192617251Y-84726695D01*
X192617548Y-84731848D01*
X192617548Y-84731851D01*
X192628960Y-84929771D01*
X192630110Y-84949715D01*
X192631247Y-84954761D01*
X192631248Y-84954767D01*
X192645706Y-85018919D01*
X192679222Y-85167639D01*
X192715623Y-85257285D01*
X192742498Y-85323469D01*
X192763266Y-85374616D01*
X192814019Y-85457438D01*
X192877291Y-85560688D01*
X192879987Y-85565088D01*
X193026250Y-85733938D01*
X193198126Y-85876632D01*
X193268595Y-85917811D01*
X193271445Y-85919476D01*
X193320169Y-85971114D01*
X193333240Y-86040897D01*
X193306509Y-86106669D01*
X193266055Y-86140027D01*
X193253607Y-86146507D01*
X193249474Y-86149610D01*
X193249471Y-86149612D01*
X193225247Y-86167800D01*
X193074965Y-86280635D01*
X192920629Y-86442138D01*
X192794743Y-86626680D01*
X192700688Y-86829305D01*
X192640989Y-87044570D01*
X192617251Y-87266695D01*
X192617548Y-87271848D01*
X192617548Y-87271851D01*
X192623011Y-87366590D01*
X192630110Y-87489715D01*
X192631247Y-87494761D01*
X192631248Y-87494767D01*
X192651246Y-87583500D01*
X192679222Y-87707639D01*
X192763266Y-87914616D01*
X192814019Y-87997438D01*
X192877291Y-88100688D01*
X192879987Y-88105088D01*
X193026250Y-88273938D01*
X193198126Y-88416632D01*
X193268595Y-88457811D01*
X193271445Y-88459476D01*
X193320169Y-88511114D01*
X193333240Y-88580897D01*
X193306509Y-88646669D01*
X193266055Y-88680027D01*
X193253607Y-88686507D01*
X193249474Y-88689610D01*
X193249471Y-88689612D01*
X193225247Y-88707800D01*
X193074965Y-88820635D01*
X192920629Y-88982138D01*
X192794743Y-89166680D01*
X192700688Y-89369305D01*
X192640989Y-89584570D01*
X192617251Y-89806695D01*
X110508500Y-89806695D01*
X110508500Y-87123134D01*
X123316500Y-87123134D01*
X123323255Y-87185316D01*
X123374385Y-87321705D01*
X123461739Y-87438261D01*
X123578295Y-87525615D01*
X123714684Y-87576745D01*
X123776866Y-87583500D01*
X125573134Y-87583500D01*
X125635316Y-87576745D01*
X125771705Y-87525615D01*
X125838677Y-87475422D01*
X125869852Y-87452058D01*
X125936358Y-87427210D01*
X126005741Y-87442263D01*
X126020982Y-87452058D01*
X126111351Y-87519786D01*
X126126946Y-87528324D01*
X126247394Y-87573478D01*
X126262649Y-87577105D01*
X126313514Y-87582631D01*
X126320328Y-87583000D01*
X126942885Y-87583000D01*
X126958124Y-87578525D01*
X126959329Y-87577135D01*
X126961000Y-87569452D01*
X126961000Y-87564884D01*
X127469000Y-87564884D01*
X127473475Y-87580123D01*
X127474865Y-87581328D01*
X127482548Y-87582999D01*
X128109669Y-87582999D01*
X128116490Y-87582629D01*
X128167352Y-87577105D01*
X128182604Y-87573479D01*
X128303054Y-87528324D01*
X128318649Y-87519786D01*
X128409018Y-87452058D01*
X128475525Y-87427210D01*
X128544907Y-87442263D01*
X128560148Y-87452058D01*
X128591323Y-87475422D01*
X128658295Y-87525615D01*
X128794684Y-87576745D01*
X128856866Y-87583500D01*
X130653134Y-87583500D01*
X130715316Y-87576745D01*
X130851705Y-87525615D01*
X130949436Y-87452370D01*
X131015941Y-87427522D01*
X131085324Y-87442575D01*
X131100562Y-87452368D01*
X131198295Y-87525615D01*
X131334684Y-87576745D01*
X131396866Y-87583500D01*
X133193134Y-87583500D01*
X133255316Y-87576745D01*
X133391705Y-87525615D01*
X133489436Y-87452370D01*
X133555941Y-87427522D01*
X133625324Y-87442575D01*
X133640562Y-87452368D01*
X133738295Y-87525615D01*
X133874684Y-87576745D01*
X133936866Y-87583500D01*
X135733134Y-87583500D01*
X135795316Y-87576745D01*
X135931705Y-87525615D01*
X136048261Y-87438261D01*
X136087394Y-87386047D01*
X136144253Y-87343533D01*
X136215071Y-87338508D01*
X136263783Y-87360787D01*
X136366295Y-87437615D01*
X136502684Y-87488745D01*
X136564866Y-87495500D01*
X138185134Y-87495500D01*
X138247316Y-87488745D01*
X138383705Y-87437615D01*
X138486216Y-87360787D01*
X138552722Y-87335939D01*
X138622105Y-87350992D01*
X138662606Y-87386046D01*
X138701739Y-87438261D01*
X138818295Y-87525615D01*
X138954684Y-87576745D01*
X139016866Y-87583500D01*
X140813134Y-87583500D01*
X140875316Y-87576745D01*
X141011705Y-87525615D01*
X141109436Y-87452370D01*
X141175941Y-87427522D01*
X141245324Y-87442575D01*
X141260562Y-87452368D01*
X141358295Y-87525615D01*
X141494684Y-87576745D01*
X141556866Y-87583500D01*
X143353134Y-87583500D01*
X143415316Y-87576745D01*
X143551705Y-87525615D01*
X143668261Y-87438261D01*
X143755615Y-87321705D01*
X143806745Y-87185316D01*
X143813500Y-87123134D01*
X143813500Y-85326866D01*
X143806745Y-85264684D01*
X143755615Y-85128295D01*
X143668261Y-85011739D01*
X143551705Y-84924385D01*
X143415316Y-84873255D01*
X143353134Y-84866500D01*
X141556866Y-84866500D01*
X141494684Y-84873255D01*
X141358295Y-84924385D01*
X141260565Y-84997630D01*
X141194059Y-85022478D01*
X141124676Y-85007425D01*
X141109435Y-84997630D01*
X141011705Y-84924385D01*
X140875316Y-84873255D01*
X140813134Y-84866500D01*
X139016866Y-84866500D01*
X138954684Y-84873255D01*
X138818295Y-84924385D01*
X138701739Y-85011739D01*
X138662607Y-85063953D01*
X138605747Y-85106467D01*
X138534929Y-85111492D01*
X138486216Y-85089213D01*
X138383705Y-85012385D01*
X138247316Y-84961255D01*
X138185134Y-84954500D01*
X136564866Y-84954500D01*
X136502684Y-84961255D01*
X136366295Y-85012385D01*
X136263784Y-85089213D01*
X136197278Y-85114061D01*
X136127895Y-85099008D01*
X136087393Y-85063953D01*
X136048261Y-85011739D01*
X135931705Y-84924385D01*
X135795316Y-84873255D01*
X135733134Y-84866500D01*
X133936866Y-84866500D01*
X133874684Y-84873255D01*
X133738295Y-84924385D01*
X133640565Y-84997630D01*
X133574059Y-85022478D01*
X133504676Y-85007425D01*
X133489435Y-84997630D01*
X133391705Y-84924385D01*
X133255316Y-84873255D01*
X133193134Y-84866500D01*
X131396866Y-84866500D01*
X131334684Y-84873255D01*
X131198295Y-84924385D01*
X131100565Y-84997630D01*
X131034059Y-85022478D01*
X130964676Y-85007425D01*
X130949435Y-84997630D01*
X130851705Y-84924385D01*
X130715316Y-84873255D01*
X130653134Y-84866500D01*
X128856866Y-84866500D01*
X128794684Y-84873255D01*
X128658295Y-84924385D01*
X128610238Y-84960402D01*
X128560148Y-84997942D01*
X128493642Y-85022790D01*
X128424259Y-85007737D01*
X128409018Y-84997942D01*
X128318649Y-84930214D01*
X128303054Y-84921676D01*
X128182606Y-84876522D01*
X128167351Y-84872895D01*
X128116486Y-84867369D01*
X128109672Y-84867000D01*
X127487115Y-84867000D01*
X127471876Y-84871475D01*
X127470671Y-84872865D01*
X127469000Y-84880548D01*
X127469000Y-87564884D01*
X126961000Y-87564884D01*
X126961000Y-84885116D01*
X126956525Y-84869877D01*
X126955135Y-84868672D01*
X126947452Y-84867001D01*
X126320331Y-84867001D01*
X126313510Y-84867371D01*
X126262648Y-84872895D01*
X126247396Y-84876521D01*
X126126946Y-84921676D01*
X126111351Y-84930214D01*
X126020982Y-84997942D01*
X125954475Y-85022790D01*
X125885093Y-85007737D01*
X125869852Y-84997942D01*
X125819762Y-84960402D01*
X125771705Y-84924385D01*
X125635316Y-84873255D01*
X125573134Y-84866500D01*
X123776866Y-84866500D01*
X123714684Y-84873255D01*
X123578295Y-84924385D01*
X123461739Y-85011739D01*
X123374385Y-85128295D01*
X123323255Y-85264684D01*
X123316500Y-85326866D01*
X123316500Y-87123134D01*
X110508500Y-87123134D01*
X110508500Y-64483134D01*
X123316500Y-64483134D01*
X123323255Y-64545316D01*
X123374385Y-64681705D01*
X123461739Y-64798261D01*
X123578295Y-64885615D01*
X123714684Y-64936745D01*
X123776866Y-64943500D01*
X125573134Y-64943500D01*
X125635316Y-64936745D01*
X125771705Y-64885615D01*
X125869436Y-64812370D01*
X125935941Y-64787522D01*
X126005324Y-64802575D01*
X126020562Y-64812368D01*
X126118295Y-64885615D01*
X126254684Y-64936745D01*
X126316866Y-64943500D01*
X128113134Y-64943500D01*
X128175316Y-64936745D01*
X128311705Y-64885615D01*
X128409436Y-64812370D01*
X128475941Y-64787522D01*
X128545324Y-64802575D01*
X128560562Y-64812368D01*
X128658295Y-64885615D01*
X128794684Y-64936745D01*
X128856866Y-64943500D01*
X130653134Y-64943500D01*
X130715316Y-64936745D01*
X130851705Y-64885615D01*
X130949436Y-64812370D01*
X131015941Y-64787522D01*
X131085324Y-64802575D01*
X131100562Y-64812368D01*
X131198295Y-64885615D01*
X131334684Y-64936745D01*
X131396866Y-64943500D01*
X133193134Y-64943500D01*
X133255316Y-64936745D01*
X133391705Y-64885615D01*
X133489436Y-64812370D01*
X133555941Y-64787522D01*
X133625324Y-64802575D01*
X133640562Y-64812368D01*
X133738295Y-64885615D01*
X133874684Y-64936745D01*
X133936866Y-64943500D01*
X135733134Y-64943500D01*
X135795316Y-64936745D01*
X135931705Y-64885615D01*
X136029436Y-64812370D01*
X136095941Y-64787522D01*
X136165324Y-64802575D01*
X136180562Y-64812368D01*
X136278295Y-64885615D01*
X136414684Y-64936745D01*
X136476866Y-64943500D01*
X138273134Y-64943500D01*
X138335316Y-64936745D01*
X138471705Y-64885615D01*
X138569436Y-64812370D01*
X138635941Y-64787522D01*
X138705324Y-64802575D01*
X138720562Y-64812368D01*
X138818295Y-64885615D01*
X138954684Y-64936745D01*
X139016866Y-64943500D01*
X140813134Y-64943500D01*
X140875316Y-64936745D01*
X141011705Y-64885615D01*
X141109436Y-64812370D01*
X141175941Y-64787522D01*
X141245324Y-64802575D01*
X141260562Y-64812368D01*
X141358295Y-64885615D01*
X141494684Y-64936745D01*
X141556866Y-64943500D01*
X143353134Y-64943500D01*
X143415316Y-64936745D01*
X143551705Y-64885615D01*
X143668261Y-64798261D01*
X143755615Y-64681705D01*
X143796478Y-64572703D01*
X163930743Y-64572703D01*
X163968268Y-64857734D01*
X164044129Y-65135036D01*
X164045813Y-65138984D01*
X164126068Y-65327137D01*
X164156923Y-65399476D01*
X164167555Y-65417240D01*
X164276621Y-65599476D01*
X164304561Y-65646161D01*
X164484313Y-65870528D01*
X164692851Y-66068423D01*
X164926317Y-66236186D01*
X164930112Y-66238195D01*
X164930113Y-66238196D01*
X164951869Y-66249715D01*
X165180392Y-66370712D01*
X165450373Y-66469511D01*
X165731264Y-66530755D01*
X165759841Y-66533004D01*
X165954282Y-66548307D01*
X165954291Y-66548307D01*
X165956739Y-66548500D01*
X166112271Y-66548500D01*
X166114407Y-66548354D01*
X166114418Y-66548354D01*
X166322548Y-66534165D01*
X166322554Y-66534164D01*
X166326825Y-66533873D01*
X166331020Y-66533004D01*
X166331022Y-66533004D01*
X166468132Y-66504610D01*
X166608342Y-66475574D01*
X166879343Y-66379607D01*
X167134812Y-66247750D01*
X167138313Y-66245289D01*
X167138317Y-66245287D01*
X167318857Y-66118401D01*
X167370023Y-66082441D01*
X167448403Y-66009606D01*
X167577479Y-65889661D01*
X167577481Y-65889658D01*
X167580622Y-65886740D01*
X167762713Y-65664268D01*
X167912927Y-65419142D01*
X167916927Y-65410031D01*
X168026757Y-65159830D01*
X168028483Y-65155898D01*
X168033742Y-65137438D01*
X168089467Y-64941811D01*
X168107244Y-64879406D01*
X168147751Y-64594784D01*
X168147845Y-64576951D01*
X168149235Y-64311583D01*
X168149235Y-64311576D01*
X168149257Y-64307297D01*
X168111732Y-64022266D01*
X168035871Y-63744964D01*
X167968239Y-63586403D01*
X167924763Y-63484476D01*
X167924761Y-63484472D01*
X167923077Y-63480524D01*
X167819704Y-63307800D01*
X167777643Y-63237521D01*
X167777640Y-63237517D01*
X167775439Y-63233839D01*
X167595687Y-63009472D01*
X167387149Y-62811577D01*
X167153683Y-62643814D01*
X167131843Y-62632250D01*
X167108654Y-62619972D01*
X166899608Y-62509288D01*
X166629627Y-62410489D01*
X166348736Y-62349245D01*
X166317685Y-62346801D01*
X166125718Y-62331693D01*
X166125709Y-62331693D01*
X166123261Y-62331500D01*
X165967729Y-62331500D01*
X165965593Y-62331646D01*
X165965582Y-62331646D01*
X165757452Y-62345835D01*
X165757446Y-62345836D01*
X165753175Y-62346127D01*
X165748980Y-62346996D01*
X165748978Y-62346996D01*
X165612417Y-62375276D01*
X165471658Y-62404426D01*
X165200657Y-62500393D01*
X164945188Y-62632250D01*
X164941687Y-62634711D01*
X164941683Y-62634713D01*
X164847809Y-62700689D01*
X164709977Y-62797559D01*
X164694892Y-62811577D01*
X164559352Y-62937529D01*
X164499378Y-62993260D01*
X164317287Y-63215732D01*
X164167073Y-63460858D01*
X164051517Y-63724102D01*
X164050342Y-63728229D01*
X164050341Y-63728230D01*
X164047097Y-63739618D01*
X163972756Y-64000594D01*
X163932249Y-64285216D01*
X163932227Y-64289505D01*
X163932226Y-64289512D01*
X163930765Y-64568417D01*
X163930743Y-64572703D01*
X143796478Y-64572703D01*
X143806745Y-64545316D01*
X143813500Y-64483134D01*
X143813500Y-62686866D01*
X143806745Y-62624684D01*
X143755615Y-62488295D01*
X143668261Y-62371739D01*
X143551705Y-62284385D01*
X143415316Y-62233255D01*
X143353134Y-62226500D01*
X141556866Y-62226500D01*
X141494684Y-62233255D01*
X141358295Y-62284385D01*
X141260565Y-62357630D01*
X141194059Y-62382478D01*
X141124676Y-62367425D01*
X141109435Y-62357630D01*
X141011705Y-62284385D01*
X140875316Y-62233255D01*
X140813134Y-62226500D01*
X139016866Y-62226500D01*
X138954684Y-62233255D01*
X138818295Y-62284385D01*
X138720565Y-62357630D01*
X138654059Y-62382478D01*
X138584676Y-62367425D01*
X138569435Y-62357630D01*
X138471705Y-62284385D01*
X138335316Y-62233255D01*
X138273134Y-62226500D01*
X136476866Y-62226500D01*
X136414684Y-62233255D01*
X136278295Y-62284385D01*
X136180565Y-62357630D01*
X136114059Y-62382478D01*
X136044676Y-62367425D01*
X136029435Y-62357630D01*
X135931705Y-62284385D01*
X135795316Y-62233255D01*
X135733134Y-62226500D01*
X133936866Y-62226500D01*
X133874684Y-62233255D01*
X133738295Y-62284385D01*
X133640565Y-62357630D01*
X133574059Y-62382478D01*
X133504676Y-62367425D01*
X133489435Y-62357630D01*
X133391705Y-62284385D01*
X133255316Y-62233255D01*
X133193134Y-62226500D01*
X131396866Y-62226500D01*
X131334684Y-62233255D01*
X131198295Y-62284385D01*
X131100565Y-62357630D01*
X131034059Y-62382478D01*
X130964676Y-62367425D01*
X130949435Y-62357630D01*
X130851705Y-62284385D01*
X130715316Y-62233255D01*
X130653134Y-62226500D01*
X128856866Y-62226500D01*
X128794684Y-62233255D01*
X128658295Y-62284385D01*
X128560565Y-62357630D01*
X128494059Y-62382478D01*
X128424676Y-62367425D01*
X128409435Y-62357630D01*
X128311705Y-62284385D01*
X128175316Y-62233255D01*
X128113134Y-62226500D01*
X126316866Y-62226500D01*
X126254684Y-62233255D01*
X126118295Y-62284385D01*
X126020565Y-62357630D01*
X125954059Y-62382478D01*
X125884676Y-62367425D01*
X125869435Y-62357630D01*
X125771705Y-62284385D01*
X125635316Y-62233255D01*
X125573134Y-62226500D01*
X123776866Y-62226500D01*
X123714684Y-62233255D01*
X123578295Y-62284385D01*
X123461739Y-62371739D01*
X123374385Y-62488295D01*
X123323255Y-62624684D01*
X123316500Y-62686866D01*
X123316500Y-64483134D01*
X110508500Y-64483134D01*
X110508500Y-57803134D01*
X128926500Y-57803134D01*
X128933255Y-57865316D01*
X128984385Y-58001705D01*
X129071739Y-58118261D01*
X129188295Y-58205615D01*
X129324684Y-58256745D01*
X129386866Y-58263500D01*
X131183134Y-58263500D01*
X131245316Y-58256745D01*
X131381705Y-58205615D01*
X131479436Y-58132370D01*
X131545941Y-58107522D01*
X131615324Y-58122575D01*
X131630562Y-58132368D01*
X131728295Y-58205615D01*
X131864684Y-58256745D01*
X131926866Y-58263500D01*
X133723134Y-58263500D01*
X133785316Y-58256745D01*
X133921705Y-58205615D01*
X134019436Y-58132370D01*
X134085941Y-58107522D01*
X134155324Y-58122575D01*
X134170562Y-58132368D01*
X134268295Y-58205615D01*
X134404684Y-58256745D01*
X134466866Y-58263500D01*
X136263134Y-58263500D01*
X136325316Y-58256745D01*
X136461705Y-58205615D01*
X136534092Y-58151364D01*
X136559852Y-58132058D01*
X136626358Y-58107210D01*
X136695741Y-58122263D01*
X136710982Y-58132058D01*
X136801351Y-58199786D01*
X136816946Y-58208324D01*
X136937394Y-58253478D01*
X136952649Y-58257105D01*
X137003514Y-58262631D01*
X137010328Y-58263000D01*
X137632885Y-58263000D01*
X137648124Y-58258525D01*
X137649329Y-58257135D01*
X137651000Y-58249452D01*
X137651000Y-58244884D01*
X138159000Y-58244884D01*
X138163475Y-58260123D01*
X138164865Y-58261328D01*
X138172548Y-58262999D01*
X138799669Y-58262999D01*
X138806490Y-58262629D01*
X138857352Y-58257105D01*
X138872604Y-58253479D01*
X138993054Y-58208324D01*
X139008649Y-58199786D01*
X139110724Y-58123285D01*
X139123285Y-58110724D01*
X139199786Y-58008649D01*
X139208324Y-57993054D01*
X139253478Y-57872606D01*
X139257105Y-57857351D01*
X139262631Y-57806486D01*
X139263000Y-57799672D01*
X139263000Y-57177115D01*
X139258525Y-57161876D01*
X139257135Y-57160671D01*
X139249452Y-57159000D01*
X138177115Y-57159000D01*
X138161876Y-57163475D01*
X138160671Y-57164865D01*
X138159000Y-57172548D01*
X138159000Y-58244884D01*
X137651000Y-58244884D01*
X137651000Y-56632885D01*
X138159000Y-56632885D01*
X138163475Y-56648124D01*
X138164865Y-56649329D01*
X138172548Y-56651000D01*
X139244884Y-56651000D01*
X139260123Y-56646525D01*
X139261328Y-56645135D01*
X139262999Y-56637452D01*
X139262999Y-56010331D01*
X139262629Y-56003510D01*
X139257105Y-55952648D01*
X139253479Y-55937396D01*
X139208324Y-55816946D01*
X139199786Y-55801351D01*
X139123285Y-55699276D01*
X139110724Y-55686715D01*
X139008649Y-55610214D01*
X138993054Y-55601676D01*
X138872606Y-55556522D01*
X138857351Y-55552895D01*
X138806486Y-55547369D01*
X138799672Y-55547000D01*
X138177115Y-55547000D01*
X138161876Y-55551475D01*
X138160671Y-55552865D01*
X138159000Y-55560548D01*
X138159000Y-56632885D01*
X137651000Y-56632885D01*
X137651000Y-55565116D01*
X137646525Y-55549877D01*
X137645135Y-55548672D01*
X137637452Y-55547001D01*
X137010331Y-55547001D01*
X137003510Y-55547371D01*
X136952648Y-55552895D01*
X136937396Y-55556521D01*
X136816946Y-55601676D01*
X136801351Y-55610214D01*
X136710982Y-55677942D01*
X136644475Y-55702790D01*
X136575093Y-55687737D01*
X136559852Y-55677942D01*
X136501299Y-55634059D01*
X136461705Y-55604385D01*
X136325316Y-55553255D01*
X136263134Y-55546500D01*
X134466866Y-55546500D01*
X134404684Y-55553255D01*
X134268295Y-55604385D01*
X134188594Y-55664118D01*
X134170565Y-55677630D01*
X134104059Y-55702478D01*
X134034676Y-55687425D01*
X134019435Y-55677630D01*
X134001406Y-55664118D01*
X133921705Y-55604385D01*
X133785316Y-55553255D01*
X133723134Y-55546500D01*
X131926866Y-55546500D01*
X131864684Y-55553255D01*
X131728295Y-55604385D01*
X131648594Y-55664118D01*
X131630565Y-55677630D01*
X131564059Y-55702478D01*
X131494676Y-55687425D01*
X131479435Y-55677630D01*
X131461406Y-55664118D01*
X131381705Y-55604385D01*
X131245316Y-55553255D01*
X131183134Y-55546500D01*
X129386866Y-55546500D01*
X129324684Y-55553255D01*
X129188295Y-55604385D01*
X129071739Y-55691739D01*
X128984385Y-55808295D01*
X128933255Y-55944684D01*
X128926500Y-56006866D01*
X128926500Y-57803134D01*
X110508500Y-57803134D01*
X110508500Y-47475250D01*
X110510246Y-47454345D01*
X110512770Y-47439344D01*
X110512770Y-47439341D01*
X110513576Y-47434552D01*
X110513729Y-47422000D01*
X110513039Y-47417179D01*
X110512852Y-47414318D01*
X110514137Y-47386411D01*
X110517786Y-47363374D01*
X110529967Y-47325884D01*
X110547855Y-47290776D01*
X110571027Y-47258883D01*
X110598883Y-47231027D01*
X110630775Y-47207855D01*
X110665884Y-47189966D01*
X110703373Y-47177786D01*
X110728026Y-47173881D01*
X110747750Y-47172449D01*
X110755724Y-47173691D01*
X110787286Y-47169564D01*
X110803621Y-47168500D01*
X114065143Y-47168500D01*
X114133264Y-47188502D01*
G37*
%TD.AperFunction*%
%TD*%
M02*
