M48
; DRILL file {KiCad (6.0.7)} date Tue Aug 30 16:18:07 2022
; FORMAT={-:-/ absolute / inch / decimal}
; #@! TF.CreationDate,2022-08-30T16:18:07+09:00
; #@! TF.GenerationSoftware,Kicad,Pcbnew,(6.0.7)
; #@! TF.FileFunction,Plated,1,2,PTH
FMAT,2
INCH
; #@! TA.AperFunction,Plated,PTH,ViaDrill
T1C0.0157
; #@! TA.AperFunction,Plated,PTH,ComponentDrill
T2C0.0394
; #@! TA.AperFunction,Plated,PTH,ComponentDrill
T3C0.0402
%
G90
G05
T1
X6.2598Y-2.0866
T2
X4.677Y-1.937
X4.777Y-1.937
X4.877Y-1.937
X4.9085Y-2.5033
X4.9085Y-3.3947
X4.977Y-1.937
X5.0085Y-2.5033
X5.0085Y-3.3947
X5.037Y-3.837
X5.077Y-1.937
X5.1085Y-2.5033
X5.1085Y-3.3947
X5.1293Y-2.2404
X5.137Y-3.837
X5.177Y-1.937
X5.2085Y-2.5033
X5.2085Y-3.3947
X5.2293Y-2.2404
X5.237Y-3.837
X5.277Y-1.937
X5.3085Y-2.5033
X5.3085Y-3.3947
X5.3293Y-2.2404
X5.337Y-3.837
X5.377Y-1.937
X5.4085Y-2.5033
X5.4293Y-2.2404
X5.437Y-3.837
X5.477Y-1.937
X5.5085Y-2.5033
X5.5085Y-3.3947
X5.537Y-3.837
X5.577Y-1.937
X5.6085Y-2.5033
X5.6085Y-3.3947
X5.637Y-3.837
X5.737Y-1.937
X5.737Y-3.837
X5.837Y-1.937
X5.853Y-3.6183
X5.937Y-1.937
X5.937Y-3.837
X5.953Y-3.6183
X6.037Y-1.937
X6.037Y-3.837
X6.053Y-3.6183
X6.137Y-1.937
X6.137Y-3.837
X6.153Y-3.6183
X6.237Y-1.937
X6.237Y-3.837
X6.253Y-3.6183
X6.337Y-1.937
X6.337Y-3.837
X6.353Y-3.6183
X6.437Y-1.937
X6.437Y-3.837
X6.453Y-3.6183
X6.537Y-3.837
X6.553Y-3.6183
X6.637Y-1.937
X6.637Y-3.837
X6.653Y-3.6183
X6.737Y-1.937
X6.753Y-3.6183
X6.837Y-1.937
X6.837Y-3.837
X6.937Y-1.937
X6.937Y-3.837
X7.037Y-1.937
X7.037Y-3.837
X7.137Y-1.937
X7.137Y-3.837
X7.237Y-1.937
X7.237Y-3.837
X7.337Y-1.937
X7.337Y-3.837
X7.437Y-3.837
X7.537Y-3.837
X7.637Y-1.937
X7.637Y-2.037
X7.637Y-2.137
X7.637Y-2.237
X7.637Y-2.337
X7.637Y-2.437
X7.637Y-2.537
X7.637Y-2.637
X7.637Y-2.737
X7.637Y-2.837
X7.637Y-2.937
X7.637Y-3.037
X7.637Y-3.137
X7.637Y-3.237
X7.637Y-3.337
X7.637Y-3.437
X7.637Y-3.537
X7.637Y-3.637
X7.737Y-1.937
X7.737Y-2.037
X7.737Y-2.137
X7.737Y-2.237
X7.737Y-2.337
X7.737Y-2.437
X7.737Y-2.537
X7.737Y-2.637
X7.737Y-2.737
X7.737Y-2.837
X7.737Y-2.937
X7.737Y-3.037
X7.737Y-3.137
X7.737Y-3.237
X7.737Y-3.337
X7.737Y-3.437
X7.737Y-3.537
X7.737Y-3.637
T3
X5.4085Y-3.3947
T0
M30
