%TF.GenerationSoftware,KiCad,Pcbnew,(6.0.7)*%
%TF.CreationDate,2022-08-16T17:30:29+09:00*%
%TF.ProjectId,uno_shield,756e6f5f-7368-4696-956c-642e6b696361,rev?*%
%TF.SameCoordinates,Original*%
%TF.FileFunction,Copper,L2,Bot*%
%TF.FilePolarity,Positive*%
%FSLAX46Y46*%
G04 Gerber Fmt 4.6, Leading zero omitted, Abs format (unit mm)*
G04 Created by KiCad (PCBNEW (6.0.7)) date 2022-08-16 17:30:29*
%MOMM*%
%LPD*%
G01*
G04 APERTURE LIST*
%TA.AperFunction,ComponentPad*%
%ADD10R,1.600000X1.600000*%
%TD*%
%TA.AperFunction,ComponentPad*%
%ADD11O,1.600000X1.600000*%
%TD*%
%TA.AperFunction,ComponentPad*%
%ADD12C,1.400000*%
%TD*%
%TA.AperFunction,ComponentPad*%
%ADD13O,1.400000X1.400000*%
%TD*%
%TA.AperFunction,ComponentPad*%
%ADD14R,1.524000X1.524000*%
%TD*%
%TA.AperFunction,ComponentPad*%
%ADD15C,1.524000*%
%TD*%
%TA.AperFunction,Conductor*%
%ADD16C,0.250000*%
%TD*%
G04 APERTURE END LIST*
D10*
%TO.P,A1,1,NC*%
%TO.N,unconnected-(A1-Pad1)*%
X139700000Y-76200000D03*
D11*
%TO.P,A1,2,IOREF*%
%TO.N,unconnected-(A1-Pad2)*%
X142240000Y-76200000D03*
%TO.P,A1,3,~{RESET}*%
%TO.N,unconnected-(A1-Pad3)*%
X144780000Y-76200000D03*
%TO.P,A1,4,3V3*%
%TO.N,unconnected-(A1-Pad4)*%
X147320000Y-76200000D03*
%TO.P,A1,5,+5V*%
%TO.N,unconnected-(A1-Pad5)*%
X149860000Y-76200000D03*
%TO.P,A1,6,GND*%
%TO.N,unconnected-(A1-Pad6)*%
X152400000Y-76200000D03*
%TO.P,A1,7,GND*%
%TO.N,unconnected-(A1-Pad7)*%
X154940000Y-76200000D03*
%TO.P,A1,8,VIN*%
%TO.N,unconnected-(A1-Pad8)*%
X157480000Y-76200000D03*
%TO.P,A1,9,A0*%
%TO.N,unconnected-(A1-Pad9)*%
X162560000Y-76200000D03*
%TO.P,A1,10,A1*%
%TO.N,unconnected-(A1-Pad10)*%
X165100000Y-76200000D03*
%TO.P,A1,11,A2*%
%TO.N,unconnected-(A1-Pad11)*%
X167640000Y-76200000D03*
%TO.P,A1,12,A3*%
%TO.N,unconnected-(A1-Pad12)*%
X170180000Y-76200000D03*
%TO.P,A1,13,SDA/A4*%
%TO.N,unconnected-(A1-Pad13)*%
X172720000Y-76200000D03*
%TO.P,A1,14,SCL/A5*%
%TO.N,unconnected-(A1-Pad14)*%
X175260000Y-76200000D03*
%TO.P,A1,15,D0/RX*%
%TO.N,unconnected-(A1-Pad15)*%
X175260000Y-124460000D03*
%TO.P,A1,16,D1/TX*%
%TO.N,unconnected-(A1-Pad16)*%
X172720000Y-124460000D03*
%TO.P,A1,17,D2*%
%TO.N,unconnected-(A1-Pad17)*%
X170180000Y-124460000D03*
%TO.P,A1,18,D3*%
%TO.N,unconnected-(A1-Pad18)*%
X167640000Y-124460000D03*
%TO.P,A1,19,D4*%
%TO.N,unconnected-(A1-Pad19)*%
X165100000Y-124460000D03*
%TO.P,A1,20,D5*%
%TO.N,unconnected-(A1-Pad20)*%
X162560000Y-124460000D03*
%TO.P,A1,21,D6*%
%TO.N,unconnected-(A1-Pad21)*%
X160020000Y-124460000D03*
%TO.P,A1,22,D7*%
%TO.N,unconnected-(A1-Pad22)*%
X157480000Y-124460000D03*
%TO.P,A1,23,D8*%
%TO.N,unconnected-(A1-Pad23)*%
X153420000Y-124460000D03*
%TO.P,A1,24,D9*%
%TO.N,unconnected-(A1-Pad24)*%
X150880000Y-124460000D03*
%TO.P,A1,25,D10*%
%TO.N,Net-(A1-Pad25)*%
X148340000Y-124460000D03*
%TO.P,A1,26,D11*%
%TO.N,Net-(A1-Pad26)*%
X145800000Y-124460000D03*
%TO.P,A1,27,D12*%
%TO.N,Net-(A1-Pad27)*%
X143260000Y-124460000D03*
%TO.P,A1,28,D13*%
%TO.N,unconnected-(A1-Pad28)*%
X140720000Y-124460000D03*
%TO.P,A1,29,GND*%
%TO.N,GND*%
X138180000Y-124460000D03*
%TO.P,A1,30,AREF*%
%TO.N,unconnected-(A1-Pad30)*%
X135640000Y-124460000D03*
%TO.P,A1,31,SDA/A4*%
%TO.N,unconnected-(A1-Pad31)*%
X133100000Y-124460000D03*
%TO.P,A1,32,SCL/A5*%
%TO.N,unconnected-(A1-Pad32)*%
X130560000Y-124460000D03*
%TD*%
D12*
%TO.P,R3,1*%
%TO.N,Net-(A1-Pad27)*%
X134620000Y-106680000D03*
D13*
%TO.P,R3,2*%
%TO.N,Net-(D3-Pad2)*%
X137160000Y-106680000D03*
%TD*%
D12*
%TO.P,R2,1*%
%TO.N,Net-(A1-Pad26)*%
X142240000Y-106680000D03*
D13*
%TO.P,R2,2*%
%TO.N,Net-(D2-Pad2)*%
X144780000Y-106680000D03*
%TD*%
D12*
%TO.P,R1,1*%
%TO.N,Net-(A1-Pad25)*%
X149860000Y-106680000D03*
D13*
%TO.P,R1,2*%
%TO.N,Net-(D1-Pad2)*%
X152400000Y-106680000D03*
%TD*%
D14*
%TO.P,D3,1*%
%TO.N,GND*%
X133320000Y-96520000D03*
D15*
%TO.P,D3,2*%
%TO.N,Net-(D3-Pad2)*%
X136120000Y-96520000D03*
%TD*%
D14*
%TO.P,D2,1*%
%TO.N,GND*%
X146020000Y-96520000D03*
D15*
%TO.P,D2,2*%
%TO.N,Net-(D2-Pad2)*%
X148820000Y-96520000D03*
%TD*%
D14*
%TO.P,D1,1*%
%TO.N,GND*%
X156180000Y-96520000D03*
D15*
%TO.P,D1,2*%
%TO.N,Net-(D1-Pad2)*%
X158980000Y-96520000D03*
%TD*%
D16*
%TO.N,GND*%
X133320000Y-95220000D02*
X129540000Y-91440000D01*
X127000000Y-113280000D02*
X138180000Y-124460000D01*
X127000000Y-93980000D02*
X127000000Y-113280000D01*
X129540000Y-91440000D02*
X127000000Y-93980000D01*
X140940000Y-91440000D02*
X129540000Y-91440000D01*
X151100000Y-91440000D02*
X156180000Y-96520000D01*
X140940000Y-91440000D02*
X151100000Y-91440000D01*
X140940000Y-91440000D02*
X146020000Y-96520000D01*
X133320000Y-96520000D02*
X133320000Y-95220000D01*
%TD*%
M02*
