%TF.GenerationSoftware,KiCad,Pcbnew,(6.0.7)*%
%TF.CreationDate,2022-08-16T17:30:39+09:00*%
%TF.ProjectId,uno_shield,756e6f5f-7368-4696-956c-642e6b696361,rev?*%
%TF.SameCoordinates,Original*%
%TF.FileFunction,Drillmap*%
%TF.FilePolarity,Positive*%
%FSLAX45Y45*%
G04 Gerber Fmt 4.5, Leading zero omitted, Abs format (unit mm)*
G04 Created by KiCad (PCBNEW (6.0.7)) date 2022-08-16 17:30:39*
%MOMM*%
%LPD*%
G01*
G04 APERTURE LIST*
%ADD10C,0.200000*%
%ADD11C,0.070000*%
%ADD12C,0.076200*%
%ADD13C,0.100000*%
G04 APERTURE END LIST*
D10*
D11*
X13427000Y-10633000D02*
X13497000Y-10703000D01*
X13497000Y-10633000D02*
X13427000Y-10703000D01*
X13681000Y-10633000D02*
X13751000Y-10703000D01*
X13751000Y-10633000D02*
X13681000Y-10703000D01*
X14189000Y-10633000D02*
X14259000Y-10703000D01*
X14259000Y-10633000D02*
X14189000Y-10703000D01*
X14443000Y-10633000D02*
X14513000Y-10703000D01*
X14513000Y-10633000D02*
X14443000Y-10703000D01*
X14951000Y-10633000D02*
X15021000Y-10703000D01*
X15021000Y-10633000D02*
X14951000Y-10703000D01*
X15205000Y-10633000D02*
X15275000Y-10703000D01*
X15275000Y-10633000D02*
X15205000Y-10703000D01*
D12*
X13370100Y-9652000D02*
G75*
G03*
X13370100Y-9652000I-38100J0D01*
G01*
X13650100Y-9652000D02*
G75*
G03*
X13650100Y-9652000I-38100J0D01*
G01*
X14640100Y-9652000D02*
G75*
G03*
X14640100Y-9652000I-38100J0D01*
G01*
X14920100Y-9652000D02*
G75*
G03*
X14920100Y-9652000I-38100J0D01*
G01*
X15656100Y-9652000D02*
G75*
G03*
X15656100Y-9652000I-38100J0D01*
G01*
X15936100Y-9652000D02*
G75*
G03*
X15936100Y-9652000I-38100J0D01*
G01*
D13*
X13056000Y-12396000D02*
X13056000Y-12496000D01*
X13006000Y-12446000D02*
X13106000Y-12446000D01*
X13310000Y-12396000D02*
X13310000Y-12496000D01*
X13260000Y-12446000D02*
X13360000Y-12446000D01*
X13564000Y-12396000D02*
X13564000Y-12496000D01*
X13514000Y-12446000D02*
X13614000Y-12446000D01*
X13818000Y-12396000D02*
X13818000Y-12496000D01*
X13768000Y-12446000D02*
X13868000Y-12446000D01*
X13970000Y-7570000D02*
X13970000Y-7670000D01*
X13920000Y-7620000D02*
X14020000Y-7620000D01*
X14072000Y-12396000D02*
X14072000Y-12496000D01*
X14022000Y-12446000D02*
X14122000Y-12446000D01*
X14224000Y-7570000D02*
X14224000Y-7670000D01*
X14174000Y-7620000D02*
X14274000Y-7620000D01*
X14326000Y-12396000D02*
X14326000Y-12496000D01*
X14276000Y-12446000D02*
X14376000Y-12446000D01*
X14478000Y-7570000D02*
X14478000Y-7670000D01*
X14428000Y-7620000D02*
X14528000Y-7620000D01*
X14580000Y-12396000D02*
X14580000Y-12496000D01*
X14530000Y-12446000D02*
X14630000Y-12446000D01*
X14732000Y-7570000D02*
X14732000Y-7670000D01*
X14682000Y-7620000D02*
X14782000Y-7620000D01*
X14834000Y-12396000D02*
X14834000Y-12496000D01*
X14784000Y-12446000D02*
X14884000Y-12446000D01*
X14986000Y-7570000D02*
X14986000Y-7670000D01*
X14936000Y-7620000D02*
X15036000Y-7620000D01*
X15088000Y-12396000D02*
X15088000Y-12496000D01*
X15038000Y-12446000D02*
X15138000Y-12446000D01*
X15240000Y-7570000D02*
X15240000Y-7670000D01*
X15190000Y-7620000D02*
X15290000Y-7620000D01*
X15342000Y-12396000D02*
X15342000Y-12496000D01*
X15292000Y-12446000D02*
X15392000Y-12446000D01*
X15494000Y-7570000D02*
X15494000Y-7670000D01*
X15444000Y-7620000D02*
X15544000Y-7620000D01*
X15748000Y-7570000D02*
X15748000Y-7670000D01*
X15698000Y-7620000D02*
X15798000Y-7620000D01*
X15748000Y-12396000D02*
X15748000Y-12496000D01*
X15698000Y-12446000D02*
X15798000Y-12446000D01*
X16002000Y-12396000D02*
X16002000Y-12496000D01*
X15952000Y-12446000D02*
X16052000Y-12446000D01*
X16256000Y-7570000D02*
X16256000Y-7670000D01*
X16206000Y-7620000D02*
X16306000Y-7620000D01*
X16256000Y-12396000D02*
X16256000Y-12496000D01*
X16206000Y-12446000D02*
X16306000Y-12446000D01*
X16510000Y-7570000D02*
X16510000Y-7670000D01*
X16460000Y-7620000D02*
X16560000Y-7620000D01*
X16510000Y-12396000D02*
X16510000Y-12496000D01*
X16460000Y-12446000D02*
X16560000Y-12446000D01*
X16764000Y-7570000D02*
X16764000Y-7670000D01*
X16714000Y-7620000D02*
X16814000Y-7620000D01*
X16764000Y-12396000D02*
X16764000Y-12496000D01*
X16714000Y-12446000D02*
X16814000Y-12446000D01*
X17018000Y-7570000D02*
X17018000Y-7670000D01*
X16968000Y-7620000D02*
X17068000Y-7620000D01*
X17018000Y-12396000D02*
X17018000Y-12496000D01*
X16968000Y-12446000D02*
X17068000Y-12446000D01*
X17272000Y-7570000D02*
X17272000Y-7670000D01*
X17222000Y-7620000D02*
X17322000Y-7620000D01*
X17272000Y-12396000D02*
X17272000Y-12496000D01*
X17222000Y-12446000D02*
X17322000Y-12446000D01*
X17526000Y-7570000D02*
X17526000Y-7670000D01*
X17476000Y-7620000D02*
X17576000Y-7620000D01*
X17526000Y-12396000D02*
X17526000Y-12496000D01*
X17476000Y-12446000D02*
X17576000Y-12446000D01*
D10*
X257619Y-310476D02*
X257619Y-110476D01*
X305238Y-110476D01*
X333810Y-120000D01*
X352857Y-139048D01*
X362381Y-158095D01*
X371905Y-196190D01*
X371905Y-224762D01*
X362381Y-262857D01*
X352857Y-281905D01*
X333810Y-300952D01*
X305238Y-310476D01*
X257619Y-310476D01*
X457619Y-310476D02*
X457619Y-177143D01*
X457619Y-215238D02*
X467143Y-196190D01*
X476667Y-186667D01*
X495714Y-177143D01*
X514762Y-177143D01*
X581429Y-310476D02*
X581429Y-177143D01*
X581429Y-110476D02*
X571905Y-120000D01*
X581429Y-129524D01*
X590952Y-120000D01*
X581429Y-110476D01*
X581429Y-129524D01*
X705238Y-310476D02*
X686190Y-300952D01*
X676667Y-281905D01*
X676667Y-110476D01*
X810000Y-310476D02*
X790952Y-300952D01*
X781428Y-281905D01*
X781428Y-110476D01*
X1038571Y-310476D02*
X1038571Y-110476D01*
X1105238Y-253333D01*
X1171905Y-110476D01*
X1171905Y-310476D01*
X1352857Y-310476D02*
X1352857Y-205714D01*
X1343333Y-186667D01*
X1324286Y-177143D01*
X1286190Y-177143D01*
X1267143Y-186667D01*
X1352857Y-300952D02*
X1333810Y-310476D01*
X1286190Y-310476D01*
X1267143Y-300952D01*
X1257619Y-281905D01*
X1257619Y-262857D01*
X1267143Y-243809D01*
X1286190Y-234286D01*
X1333810Y-234286D01*
X1352857Y-224762D01*
X1448095Y-177143D02*
X1448095Y-377143D01*
X1448095Y-186667D02*
X1467143Y-177143D01*
X1505238Y-177143D01*
X1524286Y-186667D01*
X1533809Y-196190D01*
X1543333Y-215238D01*
X1543333Y-272381D01*
X1533809Y-291429D01*
X1524286Y-300952D01*
X1505238Y-310476D01*
X1467143Y-310476D01*
X1448095Y-300952D01*
X1629048Y-291429D02*
X1638571Y-300952D01*
X1629048Y-310476D01*
X1619524Y-300952D01*
X1629048Y-291429D01*
X1629048Y-310476D01*
X1629048Y-186667D02*
X1638571Y-196190D01*
X1629048Y-205714D01*
X1619524Y-196190D01*
X1629048Y-186667D01*
X1629048Y-205714D01*
D11*
X-70000Y-605000D02*
X0Y-675000D01*
X0Y-605000D02*
X-70000Y-675000D01*
D10*
X295714Y-530476D02*
X314762Y-530476D01*
X333810Y-540000D01*
X343333Y-549524D01*
X352857Y-568571D01*
X362381Y-606667D01*
X362381Y-654286D01*
X352857Y-692381D01*
X343333Y-711428D01*
X333810Y-720952D01*
X314762Y-730476D01*
X295714Y-730476D01*
X276667Y-720952D01*
X267143Y-711428D01*
X257619Y-692381D01*
X248095Y-654286D01*
X248095Y-606667D01*
X257619Y-568571D01*
X267143Y-549524D01*
X276667Y-540000D01*
X295714Y-530476D01*
X448095Y-711428D02*
X457619Y-720952D01*
X448095Y-730476D01*
X438571Y-720952D01*
X448095Y-711428D01*
X448095Y-730476D01*
X524286Y-530476D02*
X657619Y-530476D01*
X571905Y-730476D01*
X771905Y-530476D02*
X790952Y-530476D01*
X810000Y-540000D01*
X819524Y-549524D01*
X829048Y-568571D01*
X838571Y-606667D01*
X838571Y-654286D01*
X829048Y-692381D01*
X819524Y-711428D01*
X810000Y-720952D01*
X790952Y-730476D01*
X771905Y-730476D01*
X752857Y-720952D01*
X743333Y-711428D01*
X733809Y-692381D01*
X724286Y-654286D01*
X724286Y-606667D01*
X733809Y-568571D01*
X743333Y-549524D01*
X752857Y-540000D01*
X771905Y-530476D01*
X962381Y-530476D02*
X981428Y-530476D01*
X1000476Y-540000D01*
X1010000Y-549524D01*
X1019524Y-568571D01*
X1029048Y-606667D01*
X1029048Y-654286D01*
X1019524Y-692381D01*
X1010000Y-711428D01*
X1000476Y-720952D01*
X981428Y-730476D01*
X962381Y-730476D01*
X943333Y-720952D01*
X933809Y-711428D01*
X924286Y-692381D01*
X914762Y-654286D01*
X914762Y-606667D01*
X924286Y-568571D01*
X933809Y-549524D01*
X943333Y-540000D01*
X962381Y-530476D01*
X1114762Y-730476D02*
X1114762Y-597143D01*
X1114762Y-616190D02*
X1124286Y-606667D01*
X1143333Y-597143D01*
X1171905Y-597143D01*
X1190952Y-606667D01*
X1200476Y-625714D01*
X1200476Y-730476D01*
X1200476Y-625714D02*
X1210000Y-606667D01*
X1229048Y-597143D01*
X1257619Y-597143D01*
X1276667Y-606667D01*
X1286190Y-625714D01*
X1286190Y-730476D01*
X1381429Y-730476D02*
X1381429Y-597143D01*
X1381429Y-616190D02*
X1390952Y-606667D01*
X1410000Y-597143D01*
X1438571Y-597143D01*
X1457619Y-606667D01*
X1467143Y-625714D01*
X1467143Y-730476D01*
X1467143Y-625714D02*
X1476667Y-606667D01*
X1495714Y-597143D01*
X1524286Y-597143D01*
X1543333Y-606667D01*
X1552857Y-625714D01*
X1552857Y-730476D01*
X1943333Y-520952D02*
X1771905Y-778095D01*
X2200476Y-530476D02*
X2219524Y-530476D01*
X2238571Y-540000D01*
X2248095Y-549524D01*
X2257619Y-568571D01*
X2267143Y-606667D01*
X2267143Y-654286D01*
X2257619Y-692381D01*
X2248095Y-711428D01*
X2238571Y-720952D01*
X2219524Y-730476D01*
X2200476Y-730476D01*
X2181429Y-720952D01*
X2171905Y-711428D01*
X2162381Y-692381D01*
X2152857Y-654286D01*
X2152857Y-606667D01*
X2162381Y-568571D01*
X2171905Y-549524D01*
X2181429Y-540000D01*
X2200476Y-530476D01*
X2352857Y-711428D02*
X2362381Y-720952D01*
X2352857Y-730476D01*
X2343333Y-720952D01*
X2352857Y-711428D01*
X2352857Y-730476D01*
X2486190Y-530476D02*
X2505238Y-530476D01*
X2524286Y-540000D01*
X2533810Y-549524D01*
X2543333Y-568571D01*
X2552857Y-606667D01*
X2552857Y-654286D01*
X2543333Y-692381D01*
X2533810Y-711428D01*
X2524286Y-720952D01*
X2505238Y-730476D01*
X2486190Y-730476D01*
X2467143Y-720952D01*
X2457619Y-711428D01*
X2448095Y-692381D01*
X2438571Y-654286D01*
X2438571Y-606667D01*
X2448095Y-568571D01*
X2457619Y-549524D01*
X2467143Y-540000D01*
X2486190Y-530476D01*
X2629048Y-549524D02*
X2638571Y-540000D01*
X2657619Y-530476D01*
X2705238Y-530476D01*
X2724286Y-540000D01*
X2733810Y-549524D01*
X2743333Y-568571D01*
X2743333Y-587619D01*
X2733810Y-616190D01*
X2619524Y-730476D01*
X2743333Y-730476D01*
X2810000Y-530476D02*
X2943333Y-530476D01*
X2857619Y-730476D01*
X3105238Y-530476D02*
X3067143Y-530476D01*
X3048095Y-540000D01*
X3038571Y-549524D01*
X3019524Y-578095D01*
X3010000Y-616190D01*
X3010000Y-692381D01*
X3019524Y-711428D01*
X3029048Y-720952D01*
X3048095Y-730476D01*
X3086190Y-730476D01*
X3105238Y-720952D01*
X3114762Y-711428D01*
X3124286Y-692381D01*
X3124286Y-644762D01*
X3114762Y-625714D01*
X3105238Y-616190D01*
X3086190Y-606667D01*
X3048095Y-606667D01*
X3029048Y-616190D01*
X3019524Y-625714D01*
X3010000Y-644762D01*
X3200476Y-530476D02*
X3200476Y-568571D01*
X3276667Y-530476D02*
X3276667Y-568571D01*
X3571905Y-806667D02*
X3562381Y-797143D01*
X3543333Y-768571D01*
X3533809Y-749524D01*
X3524286Y-720952D01*
X3514762Y-673333D01*
X3514762Y-635238D01*
X3524286Y-587619D01*
X3533809Y-559048D01*
X3543333Y-540000D01*
X3562381Y-511428D01*
X3571905Y-501905D01*
X3733809Y-530476D02*
X3695714Y-530476D01*
X3676667Y-540000D01*
X3667143Y-549524D01*
X3648095Y-578095D01*
X3638571Y-616190D01*
X3638571Y-692381D01*
X3648095Y-711428D01*
X3657619Y-720952D01*
X3676667Y-730476D01*
X3714762Y-730476D01*
X3733809Y-720952D01*
X3743333Y-711428D01*
X3752857Y-692381D01*
X3752857Y-644762D01*
X3743333Y-625714D01*
X3733809Y-616190D01*
X3714762Y-606667D01*
X3676667Y-606667D01*
X3657619Y-616190D01*
X3648095Y-625714D01*
X3638571Y-644762D01*
X3990952Y-730476D02*
X3990952Y-530476D01*
X4076667Y-730476D02*
X4076667Y-625714D01*
X4067143Y-606667D01*
X4048095Y-597143D01*
X4019524Y-597143D01*
X4000476Y-606667D01*
X3990952Y-616190D01*
X4200476Y-730476D02*
X4181428Y-720952D01*
X4171905Y-711428D01*
X4162381Y-692381D01*
X4162381Y-635238D01*
X4171905Y-616190D01*
X4181428Y-606667D01*
X4200476Y-597143D01*
X4229048Y-597143D01*
X4248095Y-606667D01*
X4257619Y-616190D01*
X4267143Y-635238D01*
X4267143Y-692381D01*
X4257619Y-711428D01*
X4248095Y-720952D01*
X4229048Y-730476D01*
X4200476Y-730476D01*
X4381429Y-730476D02*
X4362381Y-720952D01*
X4352857Y-701905D01*
X4352857Y-530476D01*
X4533810Y-720952D02*
X4514762Y-730476D01*
X4476667Y-730476D01*
X4457619Y-720952D01*
X4448095Y-701905D01*
X4448095Y-625714D01*
X4457619Y-606667D01*
X4476667Y-597143D01*
X4514762Y-597143D01*
X4533810Y-606667D01*
X4543333Y-625714D01*
X4543333Y-644762D01*
X4448095Y-663810D01*
X4619524Y-720952D02*
X4638571Y-730476D01*
X4676667Y-730476D01*
X4695714Y-720952D01*
X4705238Y-701905D01*
X4705238Y-692381D01*
X4695714Y-673333D01*
X4676667Y-663810D01*
X4648095Y-663810D01*
X4629048Y-654286D01*
X4619524Y-635238D01*
X4619524Y-625714D01*
X4629048Y-606667D01*
X4648095Y-597143D01*
X4676667Y-597143D01*
X4695714Y-606667D01*
X4771905Y-806667D02*
X4781429Y-797143D01*
X4800476Y-768571D01*
X4810000Y-749524D01*
X4819524Y-720952D01*
X4829048Y-673333D01*
X4829048Y-635238D01*
X4819524Y-587619D01*
X4810000Y-559048D01*
X4800476Y-540000D01*
X4781429Y-511428D01*
X4771905Y-501905D01*
D12*
X0Y-904000D02*
G75*
G03*
X0Y-904000I-38100J0D01*
G01*
D10*
X295714Y-794476D02*
X314762Y-794476D01*
X333810Y-804000D01*
X343333Y-813524D01*
X352857Y-832571D01*
X362381Y-870667D01*
X362381Y-918286D01*
X352857Y-956381D01*
X343333Y-975428D01*
X333810Y-984952D01*
X314762Y-994476D01*
X295714Y-994476D01*
X276667Y-984952D01*
X267143Y-975428D01*
X257619Y-956381D01*
X248095Y-918286D01*
X248095Y-870667D01*
X257619Y-832571D01*
X267143Y-813524D01*
X276667Y-804000D01*
X295714Y-794476D01*
X448095Y-975428D02*
X457619Y-984952D01*
X448095Y-994476D01*
X438571Y-984952D01*
X448095Y-975428D01*
X448095Y-994476D01*
X524286Y-794476D02*
X657619Y-794476D01*
X571905Y-994476D01*
X819524Y-794476D02*
X781428Y-794476D01*
X762381Y-804000D01*
X752857Y-813524D01*
X733809Y-842095D01*
X724286Y-880190D01*
X724286Y-956381D01*
X733809Y-975428D01*
X743333Y-984952D01*
X762381Y-994476D01*
X800476Y-994476D01*
X819524Y-984952D01*
X829048Y-975428D01*
X838571Y-956381D01*
X838571Y-908762D01*
X829048Y-889714D01*
X819524Y-880190D01*
X800476Y-870667D01*
X762381Y-870667D01*
X743333Y-880190D01*
X733809Y-889714D01*
X724286Y-908762D01*
X914762Y-813524D02*
X924286Y-804000D01*
X943333Y-794476D01*
X990952Y-794476D01*
X1010000Y-804000D01*
X1019524Y-813524D01*
X1029048Y-832571D01*
X1029048Y-851619D01*
X1019524Y-880190D01*
X905238Y-994476D01*
X1029048Y-994476D01*
X1114762Y-994476D02*
X1114762Y-861143D01*
X1114762Y-880190D02*
X1124286Y-870667D01*
X1143333Y-861143D01*
X1171905Y-861143D01*
X1190952Y-870667D01*
X1200476Y-889714D01*
X1200476Y-994476D01*
X1200476Y-889714D02*
X1210000Y-870667D01*
X1229048Y-861143D01*
X1257619Y-861143D01*
X1276667Y-870667D01*
X1286190Y-889714D01*
X1286190Y-994476D01*
X1381429Y-994476D02*
X1381429Y-861143D01*
X1381429Y-880190D02*
X1390952Y-870667D01*
X1410000Y-861143D01*
X1438571Y-861143D01*
X1457619Y-870667D01*
X1467143Y-889714D01*
X1467143Y-994476D01*
X1467143Y-889714D02*
X1476667Y-870667D01*
X1495714Y-861143D01*
X1524286Y-861143D01*
X1543333Y-870667D01*
X1552857Y-889714D01*
X1552857Y-994476D01*
X1943333Y-784952D02*
X1771905Y-1042095D01*
X2200476Y-794476D02*
X2219524Y-794476D01*
X2238571Y-804000D01*
X2248095Y-813524D01*
X2257619Y-832571D01*
X2267143Y-870667D01*
X2267143Y-918286D01*
X2257619Y-956381D01*
X2248095Y-975428D01*
X2238571Y-984952D01*
X2219524Y-994476D01*
X2200476Y-994476D01*
X2181429Y-984952D01*
X2171905Y-975428D01*
X2162381Y-956381D01*
X2152857Y-918286D01*
X2152857Y-870667D01*
X2162381Y-832571D01*
X2171905Y-813524D01*
X2181429Y-804000D01*
X2200476Y-794476D01*
X2352857Y-975428D02*
X2362381Y-984952D01*
X2352857Y-994476D01*
X2343333Y-984952D01*
X2352857Y-975428D01*
X2352857Y-994476D01*
X2486190Y-794476D02*
X2505238Y-794476D01*
X2524286Y-804000D01*
X2533810Y-813524D01*
X2543333Y-832571D01*
X2552857Y-870667D01*
X2552857Y-918286D01*
X2543333Y-956381D01*
X2533810Y-975428D01*
X2524286Y-984952D01*
X2505238Y-994476D01*
X2486190Y-994476D01*
X2467143Y-984952D01*
X2457619Y-975428D01*
X2448095Y-956381D01*
X2438571Y-918286D01*
X2438571Y-870667D01*
X2448095Y-832571D01*
X2457619Y-813524D01*
X2467143Y-804000D01*
X2486190Y-794476D01*
X2619524Y-794476D02*
X2743333Y-794476D01*
X2676667Y-870667D01*
X2705238Y-870667D01*
X2724286Y-880190D01*
X2733810Y-889714D01*
X2743333Y-908762D01*
X2743333Y-956381D01*
X2733810Y-975428D01*
X2724286Y-984952D01*
X2705238Y-994476D01*
X2648095Y-994476D01*
X2629048Y-984952D01*
X2619524Y-975428D01*
X2867143Y-794476D02*
X2886190Y-794476D01*
X2905238Y-804000D01*
X2914762Y-813524D01*
X2924286Y-832571D01*
X2933809Y-870667D01*
X2933809Y-918286D01*
X2924286Y-956381D01*
X2914762Y-975428D01*
X2905238Y-984952D01*
X2886190Y-994476D01*
X2867143Y-994476D01*
X2848095Y-984952D01*
X2838571Y-975428D01*
X2829048Y-956381D01*
X2819524Y-918286D01*
X2819524Y-870667D01*
X2829048Y-832571D01*
X2838571Y-813524D01*
X2848095Y-804000D01*
X2867143Y-794476D01*
X3057619Y-794476D02*
X3076667Y-794476D01*
X3095714Y-804000D01*
X3105238Y-813524D01*
X3114762Y-832571D01*
X3124286Y-870667D01*
X3124286Y-918286D01*
X3114762Y-956381D01*
X3105238Y-975428D01*
X3095714Y-984952D01*
X3076667Y-994476D01*
X3057619Y-994476D01*
X3038571Y-984952D01*
X3029048Y-975428D01*
X3019524Y-956381D01*
X3010000Y-918286D01*
X3010000Y-870667D01*
X3019524Y-832571D01*
X3029048Y-813524D01*
X3038571Y-804000D01*
X3057619Y-794476D01*
X3200476Y-794476D02*
X3200476Y-832571D01*
X3276667Y-794476D02*
X3276667Y-832571D01*
X3571905Y-1070667D02*
X3562381Y-1061143D01*
X3543333Y-1032571D01*
X3533809Y-1013524D01*
X3524286Y-984952D01*
X3514762Y-937333D01*
X3514762Y-899238D01*
X3524286Y-851619D01*
X3533809Y-823048D01*
X3543333Y-804000D01*
X3562381Y-775428D01*
X3571905Y-765905D01*
X3733809Y-794476D02*
X3695714Y-794476D01*
X3676667Y-804000D01*
X3667143Y-813524D01*
X3648095Y-842095D01*
X3638571Y-880190D01*
X3638571Y-956381D01*
X3648095Y-975428D01*
X3657619Y-984952D01*
X3676667Y-994476D01*
X3714762Y-994476D01*
X3733809Y-984952D01*
X3743333Y-975428D01*
X3752857Y-956381D01*
X3752857Y-908762D01*
X3743333Y-889714D01*
X3733809Y-880190D01*
X3714762Y-870667D01*
X3676667Y-870667D01*
X3657619Y-880190D01*
X3648095Y-889714D01*
X3638571Y-908762D01*
X3990952Y-994476D02*
X3990952Y-794476D01*
X4076667Y-994476D02*
X4076667Y-889714D01*
X4067143Y-870667D01*
X4048095Y-861143D01*
X4019524Y-861143D01*
X4000476Y-870667D01*
X3990952Y-880190D01*
X4200476Y-994476D02*
X4181428Y-984952D01*
X4171905Y-975428D01*
X4162381Y-956381D01*
X4162381Y-899238D01*
X4171905Y-880190D01*
X4181428Y-870667D01*
X4200476Y-861143D01*
X4229048Y-861143D01*
X4248095Y-870667D01*
X4257619Y-880190D01*
X4267143Y-899238D01*
X4267143Y-956381D01*
X4257619Y-975428D01*
X4248095Y-984952D01*
X4229048Y-994476D01*
X4200476Y-994476D01*
X4381429Y-994476D02*
X4362381Y-984952D01*
X4352857Y-965905D01*
X4352857Y-794476D01*
X4533810Y-984952D02*
X4514762Y-994476D01*
X4476667Y-994476D01*
X4457619Y-984952D01*
X4448095Y-965905D01*
X4448095Y-889714D01*
X4457619Y-870667D01*
X4476667Y-861143D01*
X4514762Y-861143D01*
X4533810Y-870667D01*
X4543333Y-889714D01*
X4543333Y-908762D01*
X4448095Y-927809D01*
X4619524Y-984952D02*
X4638571Y-994476D01*
X4676667Y-994476D01*
X4695714Y-984952D01*
X4705238Y-965905D01*
X4705238Y-956381D01*
X4695714Y-937333D01*
X4676667Y-927809D01*
X4648095Y-927809D01*
X4629048Y-918286D01*
X4619524Y-899238D01*
X4619524Y-889714D01*
X4629048Y-870667D01*
X4648095Y-861143D01*
X4676667Y-861143D01*
X4695714Y-870667D01*
X4771905Y-1070667D02*
X4781429Y-1061143D01*
X4800476Y-1032571D01*
X4810000Y-1013524D01*
X4819524Y-984952D01*
X4829048Y-937333D01*
X4829048Y-899238D01*
X4819524Y-851619D01*
X4810000Y-823048D01*
X4800476Y-804000D01*
X4781429Y-775428D01*
X4771905Y-765905D01*
D13*
X-50000Y-1118000D02*
X-50000Y-1218000D01*
X-100000Y-1168000D02*
X0Y-1168000D01*
D10*
X362381Y-1258476D02*
X248095Y-1258476D01*
X305238Y-1258476D02*
X305238Y-1058476D01*
X286190Y-1087048D01*
X267143Y-1106095D01*
X248095Y-1115619D01*
X448095Y-1239429D02*
X457619Y-1248952D01*
X448095Y-1258476D01*
X438571Y-1248952D01*
X448095Y-1239429D01*
X448095Y-1258476D01*
X581429Y-1058476D02*
X600476Y-1058476D01*
X619524Y-1068000D01*
X629048Y-1077524D01*
X638571Y-1096571D01*
X648095Y-1134667D01*
X648095Y-1182286D01*
X638571Y-1220381D01*
X629048Y-1239429D01*
X619524Y-1248952D01*
X600476Y-1258476D01*
X581429Y-1258476D01*
X562381Y-1248952D01*
X552857Y-1239429D01*
X543333Y-1220381D01*
X533810Y-1182286D01*
X533810Y-1134667D01*
X543333Y-1096571D01*
X552857Y-1077524D01*
X562381Y-1068000D01*
X581429Y-1058476D01*
X771905Y-1058476D02*
X790952Y-1058476D01*
X810000Y-1068000D01*
X819524Y-1077524D01*
X829048Y-1096571D01*
X838571Y-1134667D01*
X838571Y-1182286D01*
X829048Y-1220381D01*
X819524Y-1239429D01*
X810000Y-1248952D01*
X790952Y-1258476D01*
X771905Y-1258476D01*
X752857Y-1248952D01*
X743333Y-1239429D01*
X733809Y-1220381D01*
X724286Y-1182286D01*
X724286Y-1134667D01*
X733809Y-1096571D01*
X743333Y-1077524D01*
X752857Y-1068000D01*
X771905Y-1058476D01*
X962381Y-1058476D02*
X981428Y-1058476D01*
X1000476Y-1068000D01*
X1010000Y-1077524D01*
X1019524Y-1096571D01*
X1029048Y-1134667D01*
X1029048Y-1182286D01*
X1019524Y-1220381D01*
X1010000Y-1239429D01*
X1000476Y-1248952D01*
X981428Y-1258476D01*
X962381Y-1258476D01*
X943333Y-1248952D01*
X933809Y-1239429D01*
X924286Y-1220381D01*
X914762Y-1182286D01*
X914762Y-1134667D01*
X924286Y-1096571D01*
X933809Y-1077524D01*
X943333Y-1068000D01*
X962381Y-1058476D01*
X1114762Y-1258476D02*
X1114762Y-1125143D01*
X1114762Y-1144190D02*
X1124286Y-1134667D01*
X1143333Y-1125143D01*
X1171905Y-1125143D01*
X1190952Y-1134667D01*
X1200476Y-1153714D01*
X1200476Y-1258476D01*
X1200476Y-1153714D02*
X1210000Y-1134667D01*
X1229048Y-1125143D01*
X1257619Y-1125143D01*
X1276667Y-1134667D01*
X1286190Y-1153714D01*
X1286190Y-1258476D01*
X1381429Y-1258476D02*
X1381429Y-1125143D01*
X1381429Y-1144190D02*
X1390952Y-1134667D01*
X1410000Y-1125143D01*
X1438571Y-1125143D01*
X1457619Y-1134667D01*
X1467143Y-1153714D01*
X1467143Y-1258476D01*
X1467143Y-1153714D02*
X1476667Y-1134667D01*
X1495714Y-1125143D01*
X1524286Y-1125143D01*
X1543333Y-1134667D01*
X1552857Y-1153714D01*
X1552857Y-1258476D01*
X1943333Y-1048952D02*
X1771905Y-1306095D01*
X2200476Y-1058476D02*
X2219524Y-1058476D01*
X2238571Y-1068000D01*
X2248095Y-1077524D01*
X2257619Y-1096571D01*
X2267143Y-1134667D01*
X2267143Y-1182286D01*
X2257619Y-1220381D01*
X2248095Y-1239429D01*
X2238571Y-1248952D01*
X2219524Y-1258476D01*
X2200476Y-1258476D01*
X2181429Y-1248952D01*
X2171905Y-1239429D01*
X2162381Y-1220381D01*
X2152857Y-1182286D01*
X2152857Y-1134667D01*
X2162381Y-1096571D01*
X2171905Y-1077524D01*
X2181429Y-1068000D01*
X2200476Y-1058476D01*
X2352857Y-1239429D02*
X2362381Y-1248952D01*
X2352857Y-1258476D01*
X2343333Y-1248952D01*
X2352857Y-1239429D01*
X2352857Y-1258476D01*
X2486190Y-1058476D02*
X2505238Y-1058476D01*
X2524286Y-1068000D01*
X2533810Y-1077524D01*
X2543333Y-1096571D01*
X2552857Y-1134667D01*
X2552857Y-1182286D01*
X2543333Y-1220381D01*
X2533810Y-1239429D01*
X2524286Y-1248952D01*
X2505238Y-1258476D01*
X2486190Y-1258476D01*
X2467143Y-1248952D01*
X2457619Y-1239429D01*
X2448095Y-1220381D01*
X2438571Y-1182286D01*
X2438571Y-1134667D01*
X2448095Y-1096571D01*
X2457619Y-1077524D01*
X2467143Y-1068000D01*
X2486190Y-1058476D01*
X2619524Y-1058476D02*
X2743333Y-1058476D01*
X2676667Y-1134667D01*
X2705238Y-1134667D01*
X2724286Y-1144190D01*
X2733810Y-1153714D01*
X2743333Y-1172762D01*
X2743333Y-1220381D01*
X2733810Y-1239429D01*
X2724286Y-1248952D01*
X2705238Y-1258476D01*
X2648095Y-1258476D01*
X2629048Y-1248952D01*
X2619524Y-1239429D01*
X2838571Y-1258476D02*
X2876667Y-1258476D01*
X2895714Y-1248952D01*
X2905238Y-1239429D01*
X2924286Y-1210857D01*
X2933809Y-1172762D01*
X2933809Y-1096571D01*
X2924286Y-1077524D01*
X2914762Y-1068000D01*
X2895714Y-1058476D01*
X2857619Y-1058476D01*
X2838571Y-1068000D01*
X2829048Y-1077524D01*
X2819524Y-1096571D01*
X2819524Y-1144190D01*
X2829048Y-1163238D01*
X2838571Y-1172762D01*
X2857619Y-1182286D01*
X2895714Y-1182286D01*
X2914762Y-1172762D01*
X2924286Y-1163238D01*
X2933809Y-1144190D01*
X3105238Y-1125143D02*
X3105238Y-1258476D01*
X3057619Y-1048952D02*
X3010000Y-1191810D01*
X3133809Y-1191810D01*
X3200476Y-1058476D02*
X3200476Y-1096571D01*
X3276667Y-1058476D02*
X3276667Y-1096571D01*
X3571905Y-1334667D02*
X3562381Y-1325143D01*
X3543333Y-1296571D01*
X3533809Y-1277524D01*
X3524286Y-1248952D01*
X3514762Y-1201333D01*
X3514762Y-1163238D01*
X3524286Y-1115619D01*
X3533809Y-1087048D01*
X3543333Y-1068000D01*
X3562381Y-1039428D01*
X3571905Y-1029905D01*
X3629048Y-1058476D02*
X3752857Y-1058476D01*
X3686190Y-1134667D01*
X3714762Y-1134667D01*
X3733809Y-1144190D01*
X3743333Y-1153714D01*
X3752857Y-1172762D01*
X3752857Y-1220381D01*
X3743333Y-1239429D01*
X3733809Y-1248952D01*
X3714762Y-1258476D01*
X3657619Y-1258476D01*
X3638571Y-1248952D01*
X3629048Y-1239429D01*
X3829048Y-1077524D02*
X3838571Y-1068000D01*
X3857619Y-1058476D01*
X3905238Y-1058476D01*
X3924286Y-1068000D01*
X3933809Y-1077524D01*
X3943333Y-1096571D01*
X3943333Y-1115619D01*
X3933809Y-1144190D01*
X3819524Y-1258476D01*
X3943333Y-1258476D01*
X4181428Y-1258476D02*
X4181428Y-1058476D01*
X4267143Y-1258476D02*
X4267143Y-1153714D01*
X4257619Y-1134667D01*
X4238571Y-1125143D01*
X4210000Y-1125143D01*
X4190952Y-1134667D01*
X4181428Y-1144190D01*
X4390952Y-1258476D02*
X4371905Y-1248952D01*
X4362381Y-1239429D01*
X4352857Y-1220381D01*
X4352857Y-1163238D01*
X4362381Y-1144190D01*
X4371905Y-1134667D01*
X4390952Y-1125143D01*
X4419524Y-1125143D01*
X4438571Y-1134667D01*
X4448095Y-1144190D01*
X4457619Y-1163238D01*
X4457619Y-1220381D01*
X4448095Y-1239429D01*
X4438571Y-1248952D01*
X4419524Y-1258476D01*
X4390952Y-1258476D01*
X4571905Y-1258476D02*
X4552857Y-1248952D01*
X4543333Y-1229905D01*
X4543333Y-1058476D01*
X4724286Y-1248952D02*
X4705238Y-1258476D01*
X4667143Y-1258476D01*
X4648095Y-1248952D01*
X4638571Y-1229905D01*
X4638571Y-1153714D01*
X4648095Y-1134667D01*
X4667143Y-1125143D01*
X4705238Y-1125143D01*
X4724286Y-1134667D01*
X4733810Y-1153714D01*
X4733810Y-1172762D01*
X4638571Y-1191810D01*
X4810000Y-1248952D02*
X4829048Y-1258476D01*
X4867143Y-1258476D01*
X4886190Y-1248952D01*
X4895714Y-1229905D01*
X4895714Y-1220381D01*
X4886190Y-1201333D01*
X4867143Y-1191810D01*
X4838571Y-1191810D01*
X4819524Y-1182286D01*
X4810000Y-1163238D01*
X4810000Y-1153714D01*
X4819524Y-1134667D01*
X4838571Y-1125143D01*
X4867143Y-1125143D01*
X4886190Y-1134667D01*
X4962381Y-1334667D02*
X4971905Y-1325143D01*
X4990952Y-1296571D01*
X5000476Y-1277524D01*
X5010000Y-1248952D01*
X5019524Y-1201333D01*
X5019524Y-1163238D01*
X5010000Y-1115619D01*
X5000476Y-1087048D01*
X4990952Y-1068000D01*
X4971905Y-1039428D01*
X4962381Y-1029905D01*
M02*
