%TF.GenerationSoftware,KiCad,Pcbnew,(6.0.7)*%
%TF.CreationDate,2022-08-16T17:30:29+09:00*%
%TF.ProjectId,uno_shield,756e6f5f-7368-4696-956c-642e6b696361,rev?*%
%TF.SameCoordinates,Original*%
%TF.FileFunction,Soldermask,Top*%
%TF.FilePolarity,Negative*%
%FSLAX46Y46*%
G04 Gerber Fmt 4.6, Leading zero omitted, Abs format (unit mm)*
G04 Created by KiCad (PCBNEW (6.0.7)) date 2022-08-16 17:30:29*
%MOMM*%
%LPD*%
G01*
G04 APERTURE LIST*
%ADD10R,1.600000X1.600000*%
%ADD11O,1.600000X1.600000*%
%ADD12C,1.400000*%
%ADD13O,1.400000X1.400000*%
%ADD14R,1.524000X1.524000*%
%ADD15C,1.524000*%
G04 APERTURE END LIST*
D10*
%TO.C,A1*%
X139700000Y-76200000D03*
D11*
X142240000Y-76200000D03*
X144780000Y-76200000D03*
X147320000Y-76200000D03*
X149860000Y-76200000D03*
X152400000Y-76200000D03*
X154940000Y-76200000D03*
X157480000Y-76200000D03*
X162560000Y-76200000D03*
X165100000Y-76200000D03*
X167640000Y-76200000D03*
X170180000Y-76200000D03*
X172720000Y-76200000D03*
X175260000Y-76200000D03*
X175260000Y-124460000D03*
X172720000Y-124460000D03*
X170180000Y-124460000D03*
X167640000Y-124460000D03*
X165100000Y-124460000D03*
X162560000Y-124460000D03*
X160020000Y-124460000D03*
X157480000Y-124460000D03*
X153420000Y-124460000D03*
X150880000Y-124460000D03*
X148340000Y-124460000D03*
X145800000Y-124460000D03*
X143260000Y-124460000D03*
X140720000Y-124460000D03*
X138180000Y-124460000D03*
X135640000Y-124460000D03*
X133100000Y-124460000D03*
X130560000Y-124460000D03*
%TD*%
D12*
%TO.C,R3*%
X134620000Y-106680000D03*
D13*
X137160000Y-106680000D03*
%TD*%
D12*
%TO.C,R2*%
X142240000Y-106680000D03*
D13*
X144780000Y-106680000D03*
%TD*%
D12*
%TO.C,R1*%
X149860000Y-106680000D03*
D13*
X152400000Y-106680000D03*
%TD*%
D14*
%TO.C,D3*%
X133320000Y-96520000D03*
D15*
X136120000Y-96520000D03*
%TD*%
D14*
%TO.C,D2*%
X146020000Y-96520000D03*
D15*
X148820000Y-96520000D03*
%TD*%
D14*
%TO.C,D1*%
X156180000Y-96520000D03*
D15*
X158980000Y-96520000D03*
%TD*%
M02*
