%TF.GenerationSoftware,KiCad,Pcbnew,(6.0.7)*%
%TF.CreationDate,2022-09-06T23:20:06+09:00*%
%TF.ProjectId,jonseol2,6a6f6e73-656f-46c3-922e-6b696361645f,rev?*%
%TF.SameCoordinates,Original*%
%TF.FileFunction,Copper,L1,Top*%
%TF.FilePolarity,Positive*%
%FSLAX46Y46*%
G04 Gerber Fmt 4.6, Leading zero omitted, Abs format (unit mm)*
G04 Created by KiCad (PCBNEW (6.0.7)) date 2022-09-06 23:20:06*
%MOMM*%
%LPD*%
G01*
G04 APERTURE LIST*
%TA.AperFunction,ComponentPad*%
%ADD10R,1.700000X1.700000*%
%TD*%
%TA.AperFunction,ComponentPad*%
%ADD11O,1.700000X1.700000*%
%TD*%
%TA.AperFunction,ComponentPad*%
%ADD12R,1.524000X1.700000*%
%TD*%
%TA.AperFunction,ComponentPad*%
%ADD13R,1.524000X1.524000*%
%TD*%
G04 APERTURE END LIST*
D10*
%TO.P,J4,1,Pin_1*%
%TO.N,GND*%
X193980000Y-92380000D03*
D11*
%TO.P,J4,2,Pin_2*%
X196520000Y-92380000D03*
%TO.P,J4,3,Pin_3*%
%TO.N,/\u002A52*%
X193980000Y-89840000D03*
%TO.P,J4,4,Pin_4*%
%TO.N,/53*%
X196520000Y-89840000D03*
%TO.P,J4,5,Pin_5*%
%TO.N,/50*%
X193980000Y-87300000D03*
%TO.P,J4,6,Pin_6*%
%TO.N,/51*%
X196520000Y-87300000D03*
%TO.P,J4,7,Pin_7*%
%TO.N,/48*%
X193980000Y-84760000D03*
%TO.P,J4,8,Pin_8*%
%TO.N,/49*%
X196520000Y-84760000D03*
%TO.P,J4,9,Pin_9*%
%TO.N,/\u002A46*%
X193980000Y-82220000D03*
%TO.P,J4,10,Pin_10*%
%TO.N,/47*%
X196520000Y-82220000D03*
%TO.P,J4,11,Pin_11*%
%TO.N,/\u002A44*%
X193980000Y-79680000D03*
%TO.P,J4,12,Pin_12*%
%TO.N,/\u002A45*%
X196520000Y-79680000D03*
%TO.P,J4,13,Pin_13*%
%TO.N,/42*%
X193980000Y-77140000D03*
%TO.P,J4,14,Pin_14*%
%TO.N,/43*%
X196520000Y-77140000D03*
%TO.P,J4,15,Pin_15*%
%TO.N,/40*%
X193980000Y-74600000D03*
%TO.P,J4,16,Pin_16*%
%TO.N,/41*%
X196520000Y-74600000D03*
%TO.P,J4,17,Pin_17*%
%TO.N,/38*%
X193980000Y-72060000D03*
%TO.P,J4,18,Pin_18*%
%TO.N,/39*%
X196520000Y-72060000D03*
%TO.P,J4,19,Pin_19*%
%TO.N,/36*%
X193980000Y-69520000D03*
%TO.P,J4,20,Pin_20*%
%TO.N,/37*%
X196520000Y-69520000D03*
%TO.P,J4,21,Pin_21*%
%TO.N,/34*%
X193980000Y-66980000D03*
%TO.P,J4,22,Pin_22*%
%TO.N,/35*%
X196520000Y-66980000D03*
%TO.P,J4,23,Pin_23*%
%TO.N,/32*%
X193980000Y-64440000D03*
%TO.P,J4,24,Pin_24*%
%TO.N,/33*%
X196520000Y-64440000D03*
%TO.P,J4,25,Pin_25*%
%TO.N,/30*%
X193980000Y-61900000D03*
%TO.P,J4,26,Pin_26*%
%TO.N,/31*%
X196520000Y-61900000D03*
%TO.P,J4,27,Pin_27*%
%TO.N,/28*%
X193980000Y-59360000D03*
%TO.P,J4,28,Pin_28*%
%TO.N,/29*%
X196520000Y-59360000D03*
%TO.P,J4,29,Pin_29*%
%TO.N,/26*%
X193980000Y-56820000D03*
%TO.P,J4,30,Pin_30*%
%TO.N,/27*%
X196520000Y-56820000D03*
%TO.P,J4,31,Pin_31*%
%TO.N,/24*%
X193980000Y-54280000D03*
%TO.P,J4,32,Pin_32*%
%TO.N,/25*%
X196520000Y-54280000D03*
%TO.P,J4,33,Pin_33*%
%TO.N,/22*%
X193980000Y-51740000D03*
%TO.P,J4,34,Pin_34*%
%TO.N,/23*%
X196520000Y-51740000D03*
%TO.P,J4,35,Pin_35*%
%TO.N,+5V*%
X193980000Y-49200000D03*
%TO.P,J4,36,Pin_36*%
X196520000Y-49200000D03*
%TD*%
D10*
%TO.P,J1,1,Pin_1*%
%TO.N,unconnected-(J1-Pad1)*%
X127940000Y-97460000D03*
D11*
%TO.P,J1,2,Pin_2*%
%TO.N,/IOREF*%
X130480000Y-97460000D03*
%TO.P,J1,3,Pin_3*%
%TO.N,/~{RESET}*%
X133020000Y-97460000D03*
%TO.P,J1,4,Pin_4*%
%TO.N,+3V3*%
X135560000Y-97460000D03*
%TO.P,J1,5,Pin_5*%
%TO.N,+5V*%
X138100000Y-97460000D03*
%TO.P,J1,6,Pin_6*%
%TO.N,GND*%
X140640000Y-97460000D03*
%TO.P,J1,7,Pin_7*%
X143180000Y-97460000D03*
%TO.P,J1,8,Pin_8*%
%TO.N,VCC*%
X145720000Y-97460000D03*
%TD*%
D10*
%TO.P,J2,1,Pin_1*%
%TO.N,Relay_1*%
X150800000Y-97460000D03*
D11*
%TO.P,J2,2,Pin_2*%
%TO.N,Relay_2*%
X153340000Y-97460000D03*
%TO.P,J2,3,Pin_3*%
%TO.N,Relay_3*%
X155880000Y-97460000D03*
%TO.P,J2,4,Pin_4*%
%TO.N,Relay_4*%
X158420000Y-97460000D03*
%TO.P,J2,5,Pin_5*%
%TO.N,Relay_5*%
X160960000Y-97460000D03*
%TO.P,J2,6,Pin_6*%
%TO.N,Relay_6*%
X163500000Y-97460000D03*
%TO.P,J2,7,Pin_7*%
%TO.N,Relay_7*%
X166040000Y-97460000D03*
%TO.P,J2,8,Pin_8*%
%TO.N,Relay_8*%
X168580000Y-97460000D03*
%TD*%
D10*
%TO.P,J3,1,Pin_1*%
%TO.N,/A8*%
X173660000Y-97460000D03*
D11*
%TO.P,J3,2,Pin_2*%
%TO.N,/A9*%
X176200000Y-97460000D03*
%TO.P,J3,3,Pin_3*%
%TO.N,/A10*%
X178740000Y-97460000D03*
%TO.P,J3,4,Pin_4*%
%TO.N,/A11*%
X181280000Y-97460000D03*
%TO.P,J3,5,Pin_5*%
%TO.N,/A12*%
X183820000Y-97460000D03*
%TO.P,J3,6,Pin_6*%
%TO.N,/A13*%
X186360000Y-97460000D03*
%TO.P,J3,7,Pin_7*%
%TO.N,/A14*%
X188900000Y-97460000D03*
%TO.P,J3,8,Pin_8*%
%TO.N,/A15*%
X191440000Y-97460000D03*
%TD*%
%TO.P,J5,3,Pin_3*%
%TO.N,/AREF*%
X123876000Y-49200000D03*
%TO.P,J5,4,Pin_4*%
%TO.N,GND*%
X126416000Y-49200000D03*
%TO.P,J5,5,Pin_5*%
%TO.N,/\u002A13*%
X128956000Y-49200000D03*
%TO.P,J5,6,Pin_6*%
%TO.N,/\u002A12*%
X131496000Y-49200000D03*
%TO.P,J5,7,Pin_7*%
%TO.N,/\u002A11*%
X134036000Y-49200000D03*
%TO.P,J5,8,Pin_8*%
%TO.N,Buzzer*%
X136576000Y-49200000D03*
%TO.P,J5,9,Pin_9*%
%TO.N,Trig*%
X139116000Y-49200000D03*
%TO.P,J5,10,Pin_10*%
%TO.N,Echo*%
X141656000Y-49200000D03*
%TD*%
D10*
%TO.P,J6,1,Pin_1*%
%TO.N,/\u002A7*%
X145720000Y-49200000D03*
D11*
%TO.P,J6,2,Pin_2*%
%TO.N,/\u002A6*%
X148260000Y-49200000D03*
%TO.P,J6,3,Pin_3*%
%TO.N,/\u002A5*%
X150800000Y-49200000D03*
%TO.P,J6,4,Pin_4*%
%TO.N,/\u002A4*%
X153340000Y-49200000D03*
%TO.P,J6,5,Pin_5*%
%TO.N,/\u002A3*%
X155880000Y-49200000D03*
%TO.P,J6,6,Pin_6*%
%TO.N,/\u002A2*%
X158420000Y-49200000D03*
%TO.P,J6,7,Pin_7*%
%TO.N,TX*%
X160960000Y-49200000D03*
%TO.P,J6,8,Pin_8*%
%TO.N,RX*%
X163500000Y-49200000D03*
%TD*%
D10*
%TO.P,J7,1,Pin_1*%
%TO.N,/TX3{slash}14*%
X168580000Y-49200000D03*
D11*
%TO.P,J7,2,Pin_2*%
%TO.N,/RX3{slash}15*%
X171120000Y-49200000D03*
%TO.P,J7,3,Pin_3*%
%TO.N,/TX2{slash}16*%
X173660000Y-49200000D03*
%TO.P,J7,4,Pin_4*%
%TO.N,/RX2{slash}17*%
X176200000Y-49200000D03*
%TO.P,J7,5,Pin_5*%
%TO.N,/TX1{slash}18*%
X178740000Y-49200000D03*
%TO.P,J7,6,Pin_6*%
%TO.N,/RX1{slash}19*%
X181280000Y-49200000D03*
%TO.P,J7,7,Pin_7*%
%TO.N,SDA*%
X183820000Y-49200000D03*
%TO.P,J7,8,Pin_8*%
%TO.N,SCL*%
X186360000Y-49200000D03*
%TD*%
D12*
%TO.P,B1,1,GND*%
%TO.N,GND*%
X131555000Y-43644000D03*
%TO.P,B1,2,I/O*%
%TO.N,Buzzer*%
X134095000Y-43644000D03*
%TO.P,B1,3,VCC*%
%TO.N,+5V*%
X136635000Y-43644000D03*
%TD*%
D10*
%TO.P,,8,Pin_8*%
%TO.N,VCC*%
X128890000Y-102566000D03*
%TD*%
%TO.P,Display1,1,GND*%
%TO.N,GND*%
X169285000Y-43644000D03*
%TO.P,Display1,2,VCC*%
%TO.N,+5V*%
X171825000Y-43644000D03*
%TO.P,Display1,3,SDA*%
%TO.N,SDA*%
X174365000Y-43644000D03*
%TO.P,Display1,4,SCL*%
%TO.N,SCL*%
X176905000Y-43644000D03*
%TD*%
%TO.P,U1,1,VCC*%
%TO.N,+5V*%
X150895000Y-43644000D03*
%TO.P,U1,2,Trig*%
%TO.N,Trig*%
X153435000Y-43644000D03*
%TO.P,U1,3,Echo*%
%TO.N,Echo*%
X155975000Y-43644000D03*
%TO.P,U1,4,GND*%
%TO.N,GND*%
X158515000Y-43644000D03*
%TD*%
%TO.P,E1,1,5V*%
%TO.N,+5V*%
X136175000Y-57475000D03*
%TO.P,E1,2,GND*%
%TO.N,GND*%
X136175000Y-60015000D03*
%TO.P,E1,3*%
%TO.N,unconnected-(E1-Pad3)*%
X136175000Y-62555000D03*
%TO.P,E1,4*%
%TO.N,unconnected-(E1-Pad4)*%
X136175000Y-65095000D03*
%TO.P,E1,5*%
%TO.N,unconnected-(E1-Pad5)*%
X136175000Y-67635000D03*
D13*
%TO.P,E1,6*%
%TO.N,unconnected-(E1-Pad6)*%
X136175000Y-70175000D03*
D10*
%TO.P,E1,7*%
%TO.N,unconnected-(E1-Pad7)*%
X136175000Y-72715000D03*
%TO.P,E1,8*%
%TO.N,unconnected-(E1-Pad8)*%
X136175000Y-75255000D03*
%TO.P,E1,9*%
%TO.N,unconnected-(E1-Pad9)*%
X158815000Y-75255000D03*
%TO.P,E1,10,TX*%
%TO.N,TX*%
X158815000Y-72715000D03*
%TO.P,E1,11,RX*%
%TO.N,RX*%
X158815000Y-70175000D03*
%TO.P,E1,12*%
%TO.N,unconnected-(E1-Pad12)*%
X158815000Y-67635000D03*
%TO.P,E1,13*%
%TO.N,unconnected-(E1-Pad13)*%
X158815000Y-65095000D03*
%TO.P,E1,14*%
%TO.N,unconnected-(E1-Pad14)*%
X158815000Y-62555000D03*
%TO.P,E1,15*%
%TO.N,unconnected-(E1-Pad15)*%
X158815000Y-60015000D03*
%TO.P,E1,16*%
%TO.N,unconnected-(E1-Pad16)*%
X158815000Y-57475000D03*
%TD*%
%TO.P,R1,1,GND*%
%TO.N,GND*%
X151562000Y-102286000D03*
%TO.P,R1,2,IN1*%
%TO.N,Relay_1*%
X154102000Y-102286000D03*
%TO.P,R1,3,IN2*%
%TO.N,Relay_2*%
X156642000Y-102286000D03*
%TO.P,R1,4,IN3*%
%TO.N,Relay_3*%
X159182000Y-102286000D03*
%TO.P,R1,5,IN4*%
%TO.N,Relay_4*%
X161722000Y-102286000D03*
%TO.P,R1,6,IN5*%
%TO.N,Relay_5*%
X164262000Y-102286000D03*
%TO.P,R1,7,IN6*%
%TO.N,Relay_6*%
X166802000Y-102286000D03*
%TO.P,R1,8,IN7*%
%TO.N,Relay_7*%
X169342000Y-102286000D03*
%TO.P,R1,9,IN8*%
%TO.N,Relay_8*%
X171882000Y-102286000D03*
%TO.P,R1,10,VCC*%
%TO.N,+5V*%
X174422000Y-102286000D03*
%TD*%
%TO.P,,7,Pin_7*%
%TO.N,GND*%
X131430000Y-102566000D03*
%TD*%
%TA.AperFunction,Conductor*%
%TO.N,+5V*%
G36*
X198395018Y-40820000D02*
G01*
X198409853Y-40822310D01*
X198409855Y-40822310D01*
X198418724Y-40823691D01*
X198424508Y-40822935D01*
X198490868Y-40843307D01*
X198536700Y-40897528D01*
X198545165Y-40938873D01*
X198546309Y-40938723D01*
X198546309Y-40938724D01*
X198546329Y-40938873D01*
X198550436Y-40970283D01*
X198551500Y-40986621D01*
X198551500Y-59288928D01*
X198550145Y-59301058D01*
X198550627Y-59301097D01*
X198549907Y-59310044D01*
X198547926Y-59318800D01*
X198548482Y-59327760D01*
X198551258Y-59372508D01*
X198551500Y-59380310D01*
X198551500Y-59396513D01*
X198552136Y-59400953D01*
X198552984Y-59406878D01*
X198554013Y-59416928D01*
X198556362Y-59454785D01*
X198556945Y-59464177D01*
X198559994Y-59472623D01*
X198560593Y-59475514D01*
X198565812Y-59496449D01*
X198566728Y-59502846D01*
X198568000Y-59520706D01*
X198568000Y-96320205D01*
X198547998Y-96388326D01*
X198494342Y-96434819D01*
X198424068Y-96444923D01*
X198359488Y-96415429D01*
X198333884Y-96384911D01*
X198257643Y-96257521D01*
X198257640Y-96257517D01*
X198255439Y-96253839D01*
X198075687Y-96029472D01*
X197867149Y-95831577D01*
X197633683Y-95663814D01*
X197611843Y-95652250D01*
X197588654Y-95639972D01*
X197379608Y-95529288D01*
X197109627Y-95430489D01*
X196828736Y-95369245D01*
X196797685Y-95366801D01*
X196605718Y-95351693D01*
X196605709Y-95351693D01*
X196603261Y-95351500D01*
X196447729Y-95351500D01*
X196445593Y-95351646D01*
X196445582Y-95351646D01*
X196237452Y-95365835D01*
X196237446Y-95365836D01*
X196233175Y-95366127D01*
X196228980Y-95366996D01*
X196228978Y-95366996D01*
X196092417Y-95395276D01*
X195951658Y-95424426D01*
X195680657Y-95520393D01*
X195425188Y-95652250D01*
X195421687Y-95654711D01*
X195421683Y-95654713D01*
X195375822Y-95686945D01*
X195189977Y-95817559D01*
X194979378Y-96013260D01*
X194797287Y-96235732D01*
X194647073Y-96480858D01*
X194645347Y-96484791D01*
X194645346Y-96484792D01*
X194593835Y-96602138D01*
X194531517Y-96744102D01*
X194530342Y-96748229D01*
X194530341Y-96748230D01*
X194526967Y-96760074D01*
X194452756Y-97020594D01*
X194412249Y-97305216D01*
X194412227Y-97309505D01*
X194412226Y-97309512D01*
X194410765Y-97588417D01*
X194410743Y-97592703D01*
X194448268Y-97877734D01*
X194524129Y-98155036D01*
X194525813Y-98158984D01*
X194621202Y-98382618D01*
X194636923Y-98419476D01*
X194784561Y-98666161D01*
X194964313Y-98890528D01*
X195172851Y-99088423D01*
X195406317Y-99256186D01*
X195410112Y-99258195D01*
X195410113Y-99258196D01*
X195431869Y-99269715D01*
X195660392Y-99390712D01*
X195930373Y-99489511D01*
X196211264Y-99550755D01*
X196239841Y-99553004D01*
X196434282Y-99568307D01*
X196434291Y-99568307D01*
X196436739Y-99568500D01*
X196592271Y-99568500D01*
X196594407Y-99568354D01*
X196594418Y-99568354D01*
X196802548Y-99554165D01*
X196802554Y-99554164D01*
X196806825Y-99553873D01*
X196811020Y-99553004D01*
X196811022Y-99553004D01*
X196947583Y-99524724D01*
X197088342Y-99495574D01*
X197359343Y-99399607D01*
X197614812Y-99267750D01*
X197618313Y-99265289D01*
X197618317Y-99265287D01*
X197732418Y-99185095D01*
X197850023Y-99102441D01*
X197928403Y-99029606D01*
X198057479Y-98909661D01*
X198057481Y-98909658D01*
X198060622Y-98906740D01*
X198242713Y-98684268D01*
X198324728Y-98550432D01*
X198377376Y-98502801D01*
X198447417Y-98491194D01*
X198512615Y-98519297D01*
X198552269Y-98578188D01*
X198557815Y-98625604D01*
X198554746Y-98666905D01*
X198553592Y-98676952D01*
X198551500Y-98690386D01*
X198551500Y-98705906D01*
X198551154Y-98715243D01*
X198547461Y-98764941D01*
X198549335Y-98773720D01*
X198549898Y-98781978D01*
X198551500Y-98797161D01*
X198551500Y-105538633D01*
X198550000Y-105558018D01*
X198547690Y-105572851D01*
X198547690Y-105572855D01*
X198546309Y-105581724D01*
X198547473Y-105590629D01*
X198547364Y-105599598D01*
X198546550Y-105599588D01*
X198546257Y-105621098D01*
X198542215Y-105646622D01*
X198530033Y-105684116D01*
X198512145Y-105719224D01*
X198488973Y-105751117D01*
X198461117Y-105778973D01*
X198429226Y-105802144D01*
X198394116Y-105820034D01*
X198356627Y-105832214D01*
X198331974Y-105836119D01*
X198312250Y-105837551D01*
X198304276Y-105836309D01*
X198272714Y-105840436D01*
X198256379Y-105841500D01*
X111826000Y-105841500D01*
X111757879Y-105821498D01*
X111711386Y-105767842D01*
X111700000Y-105715500D01*
X111700000Y-103464134D01*
X127531500Y-103464134D01*
X127538255Y-103526316D01*
X127589385Y-103662705D01*
X127676739Y-103779261D01*
X127793295Y-103866615D01*
X127929684Y-103917745D01*
X127991866Y-103924500D01*
X129788134Y-103924500D01*
X129850316Y-103917745D01*
X129986705Y-103866615D01*
X130084436Y-103793370D01*
X130150941Y-103768522D01*
X130220324Y-103783575D01*
X130235562Y-103793368D01*
X130333295Y-103866615D01*
X130469684Y-103917745D01*
X130531866Y-103924500D01*
X132328134Y-103924500D01*
X132390316Y-103917745D01*
X132526705Y-103866615D01*
X132643261Y-103779261D01*
X132730615Y-103662705D01*
X132781745Y-103526316D01*
X132788500Y-103464134D01*
X132788500Y-103184134D01*
X150203500Y-103184134D01*
X150210255Y-103246316D01*
X150261385Y-103382705D01*
X150348739Y-103499261D01*
X150465295Y-103586615D01*
X150601684Y-103637745D01*
X150663866Y-103644500D01*
X152460134Y-103644500D01*
X152522316Y-103637745D01*
X152658705Y-103586615D01*
X152756436Y-103513370D01*
X152822941Y-103488522D01*
X152892324Y-103503575D01*
X152907562Y-103513368D01*
X153005295Y-103586615D01*
X153141684Y-103637745D01*
X153203866Y-103644500D01*
X155000134Y-103644500D01*
X155062316Y-103637745D01*
X155198705Y-103586615D01*
X155296436Y-103513370D01*
X155362941Y-103488522D01*
X155432324Y-103503575D01*
X155447562Y-103513368D01*
X155545295Y-103586615D01*
X155681684Y-103637745D01*
X155743866Y-103644500D01*
X157540134Y-103644500D01*
X157602316Y-103637745D01*
X157738705Y-103586615D01*
X157836436Y-103513370D01*
X157902941Y-103488522D01*
X157972324Y-103503575D01*
X157987562Y-103513368D01*
X158085295Y-103586615D01*
X158221684Y-103637745D01*
X158283866Y-103644500D01*
X160080134Y-103644500D01*
X160142316Y-103637745D01*
X160278705Y-103586615D01*
X160376436Y-103513370D01*
X160442941Y-103488522D01*
X160512324Y-103503575D01*
X160527562Y-103513368D01*
X160625295Y-103586615D01*
X160761684Y-103637745D01*
X160823866Y-103644500D01*
X162620134Y-103644500D01*
X162682316Y-103637745D01*
X162818705Y-103586615D01*
X162916436Y-103513370D01*
X162982941Y-103488522D01*
X163052324Y-103503575D01*
X163067562Y-103513368D01*
X163165295Y-103586615D01*
X163301684Y-103637745D01*
X163363866Y-103644500D01*
X165160134Y-103644500D01*
X165222316Y-103637745D01*
X165358705Y-103586615D01*
X165456436Y-103513370D01*
X165522941Y-103488522D01*
X165592324Y-103503575D01*
X165607562Y-103513368D01*
X165705295Y-103586615D01*
X165841684Y-103637745D01*
X165903866Y-103644500D01*
X167700134Y-103644500D01*
X167762316Y-103637745D01*
X167898705Y-103586615D01*
X167996436Y-103513370D01*
X168062941Y-103488522D01*
X168132324Y-103503575D01*
X168147562Y-103513368D01*
X168245295Y-103586615D01*
X168381684Y-103637745D01*
X168443866Y-103644500D01*
X170240134Y-103644500D01*
X170302316Y-103637745D01*
X170438705Y-103586615D01*
X170536436Y-103513370D01*
X170602941Y-103488522D01*
X170672324Y-103503575D01*
X170687562Y-103513368D01*
X170785295Y-103586615D01*
X170921684Y-103637745D01*
X170983866Y-103644500D01*
X172780134Y-103644500D01*
X172842316Y-103637745D01*
X172978705Y-103586615D01*
X173069644Y-103518460D01*
X173076852Y-103513058D01*
X173143358Y-103488210D01*
X173212741Y-103503263D01*
X173227982Y-103513058D01*
X173318351Y-103580786D01*
X173333946Y-103589324D01*
X173454394Y-103634478D01*
X173469649Y-103638105D01*
X173520514Y-103643631D01*
X173527328Y-103644000D01*
X174149885Y-103644000D01*
X174165124Y-103639525D01*
X174166329Y-103638135D01*
X174168000Y-103630452D01*
X174168000Y-103625884D01*
X174676000Y-103625884D01*
X174680475Y-103641123D01*
X174681865Y-103642328D01*
X174689548Y-103643999D01*
X175316669Y-103643999D01*
X175323490Y-103643629D01*
X175374352Y-103638105D01*
X175389604Y-103634479D01*
X175510054Y-103589324D01*
X175525649Y-103580786D01*
X175627724Y-103504285D01*
X175640285Y-103491724D01*
X175716786Y-103389649D01*
X175725324Y-103374054D01*
X175770478Y-103253606D01*
X175774105Y-103238351D01*
X175779631Y-103187486D01*
X175780000Y-103180672D01*
X175780000Y-102558115D01*
X175775525Y-102542876D01*
X175774135Y-102541671D01*
X175766452Y-102540000D01*
X174694115Y-102540000D01*
X174678876Y-102544475D01*
X174677671Y-102545865D01*
X174676000Y-102553548D01*
X174676000Y-103625884D01*
X174168000Y-103625884D01*
X174168000Y-102013885D01*
X174676000Y-102013885D01*
X174680475Y-102029124D01*
X174681865Y-102030329D01*
X174689548Y-102032000D01*
X175761884Y-102032000D01*
X175777123Y-102027525D01*
X175778328Y-102026135D01*
X175779999Y-102018452D01*
X175779999Y-101391331D01*
X175779629Y-101384510D01*
X175774105Y-101333648D01*
X175770479Y-101318396D01*
X175725324Y-101197946D01*
X175716786Y-101182351D01*
X175640285Y-101080276D01*
X175627724Y-101067715D01*
X175525649Y-100991214D01*
X175510054Y-100982676D01*
X175389606Y-100937522D01*
X175374351Y-100933895D01*
X175323486Y-100928369D01*
X175316672Y-100928000D01*
X174694115Y-100928000D01*
X174678876Y-100932475D01*
X174677671Y-100933865D01*
X174676000Y-100941548D01*
X174676000Y-102013885D01*
X174168000Y-102013885D01*
X174168000Y-100946116D01*
X174163525Y-100930877D01*
X174162135Y-100929672D01*
X174154452Y-100928001D01*
X173527331Y-100928001D01*
X173520510Y-100928371D01*
X173469648Y-100933895D01*
X173454396Y-100937521D01*
X173333946Y-100982676D01*
X173318351Y-100991214D01*
X173227982Y-101058942D01*
X173161475Y-101083790D01*
X173092093Y-101068737D01*
X173076852Y-101058942D01*
X173045677Y-101035578D01*
X172978705Y-100985385D01*
X172842316Y-100934255D01*
X172780134Y-100927500D01*
X170983866Y-100927500D01*
X170921684Y-100934255D01*
X170785295Y-100985385D01*
X170687565Y-101058630D01*
X170621059Y-101083478D01*
X170551676Y-101068425D01*
X170536435Y-101058630D01*
X170438705Y-100985385D01*
X170302316Y-100934255D01*
X170240134Y-100927500D01*
X168443866Y-100927500D01*
X168381684Y-100934255D01*
X168245295Y-100985385D01*
X168147565Y-101058630D01*
X168081059Y-101083478D01*
X168011676Y-101068425D01*
X167996435Y-101058630D01*
X167898705Y-100985385D01*
X167762316Y-100934255D01*
X167700134Y-100927500D01*
X165903866Y-100927500D01*
X165841684Y-100934255D01*
X165705295Y-100985385D01*
X165607565Y-101058630D01*
X165541059Y-101083478D01*
X165471676Y-101068425D01*
X165456435Y-101058630D01*
X165358705Y-100985385D01*
X165222316Y-100934255D01*
X165160134Y-100927500D01*
X163363866Y-100927500D01*
X163301684Y-100934255D01*
X163165295Y-100985385D01*
X163067565Y-101058630D01*
X163001059Y-101083478D01*
X162931676Y-101068425D01*
X162916435Y-101058630D01*
X162818705Y-100985385D01*
X162682316Y-100934255D01*
X162620134Y-100927500D01*
X160823866Y-100927500D01*
X160761684Y-100934255D01*
X160625295Y-100985385D01*
X160527565Y-101058630D01*
X160461059Y-101083478D01*
X160391676Y-101068425D01*
X160376435Y-101058630D01*
X160278705Y-100985385D01*
X160142316Y-100934255D01*
X160080134Y-100927500D01*
X158283866Y-100927500D01*
X158221684Y-100934255D01*
X158085295Y-100985385D01*
X157987565Y-101058630D01*
X157921059Y-101083478D01*
X157851676Y-101068425D01*
X157836435Y-101058630D01*
X157738705Y-100985385D01*
X157602316Y-100934255D01*
X157540134Y-100927500D01*
X155743866Y-100927500D01*
X155681684Y-100934255D01*
X155545295Y-100985385D01*
X155447565Y-101058630D01*
X155381059Y-101083478D01*
X155311676Y-101068425D01*
X155296435Y-101058630D01*
X155198705Y-100985385D01*
X155062316Y-100934255D01*
X155000134Y-100927500D01*
X153203866Y-100927500D01*
X153141684Y-100934255D01*
X153005295Y-100985385D01*
X152907565Y-101058630D01*
X152841059Y-101083478D01*
X152771676Y-101068425D01*
X152756435Y-101058630D01*
X152658705Y-100985385D01*
X152522316Y-100934255D01*
X152460134Y-100927500D01*
X150663866Y-100927500D01*
X150601684Y-100934255D01*
X150465295Y-100985385D01*
X150348739Y-101072739D01*
X150261385Y-101189295D01*
X150210255Y-101325684D01*
X150203500Y-101387866D01*
X150203500Y-103184134D01*
X132788500Y-103184134D01*
X132788500Y-101667866D01*
X132781745Y-101605684D01*
X132730615Y-101469295D01*
X132643261Y-101352739D01*
X132526705Y-101265385D01*
X132390316Y-101214255D01*
X132328134Y-101207500D01*
X130531866Y-101207500D01*
X130469684Y-101214255D01*
X130333295Y-101265385D01*
X130242212Y-101333648D01*
X130235565Y-101338630D01*
X130169059Y-101363478D01*
X130099676Y-101348425D01*
X130084435Y-101338630D01*
X130077788Y-101333648D01*
X129986705Y-101265385D01*
X129850316Y-101214255D01*
X129788134Y-101207500D01*
X127991866Y-101207500D01*
X127929684Y-101214255D01*
X127793295Y-101265385D01*
X127676739Y-101352739D01*
X127589385Y-101469295D01*
X127538255Y-101605684D01*
X127531500Y-101667866D01*
X127531500Y-103464134D01*
X111700000Y-103464134D01*
X111700000Y-98091069D01*
X111720002Y-98022948D01*
X111773658Y-97976455D01*
X111843932Y-97966351D01*
X111908512Y-97995845D01*
X111947534Y-98057821D01*
X111974129Y-98155036D01*
X111975813Y-98158984D01*
X112071202Y-98382618D01*
X112086923Y-98419476D01*
X112234561Y-98666161D01*
X112414313Y-98890528D01*
X112622851Y-99088423D01*
X112856317Y-99256186D01*
X112860112Y-99258195D01*
X112860113Y-99258196D01*
X112881869Y-99269715D01*
X113110392Y-99390712D01*
X113380373Y-99489511D01*
X113661264Y-99550755D01*
X113689841Y-99553004D01*
X113884282Y-99568307D01*
X113884291Y-99568307D01*
X113886739Y-99568500D01*
X114042271Y-99568500D01*
X114044407Y-99568354D01*
X114044418Y-99568354D01*
X114252548Y-99554165D01*
X114252554Y-99554164D01*
X114256825Y-99553873D01*
X114261020Y-99553004D01*
X114261022Y-99553004D01*
X114397583Y-99524724D01*
X114538342Y-99495574D01*
X114809343Y-99399607D01*
X115064812Y-99267750D01*
X115068313Y-99265289D01*
X115068317Y-99265287D01*
X115182418Y-99185095D01*
X115300023Y-99102441D01*
X115378403Y-99029606D01*
X115507479Y-98909661D01*
X115507481Y-98909658D01*
X115510622Y-98906740D01*
X115692713Y-98684268D01*
X115842927Y-98439142D01*
X115846927Y-98430031D01*
X115878487Y-98358134D01*
X126581500Y-98358134D01*
X126588255Y-98420316D01*
X126639385Y-98556705D01*
X126726739Y-98673261D01*
X126843295Y-98760615D01*
X126979684Y-98811745D01*
X127041866Y-98818500D01*
X128838134Y-98818500D01*
X128900316Y-98811745D01*
X129036705Y-98760615D01*
X129153261Y-98673261D01*
X129240615Y-98556705D01*
X129262799Y-98497529D01*
X129284598Y-98439382D01*
X129327240Y-98382618D01*
X129393802Y-98357918D01*
X129463150Y-98373126D01*
X129497817Y-98401114D01*
X129526250Y-98433938D01*
X129698126Y-98576632D01*
X129891000Y-98689338D01*
X130099692Y-98769030D01*
X130104760Y-98770061D01*
X130104763Y-98770062D01*
X130172598Y-98783863D01*
X130318597Y-98813567D01*
X130323772Y-98813757D01*
X130323774Y-98813757D01*
X130536673Y-98821564D01*
X130536677Y-98821564D01*
X130541837Y-98821753D01*
X130546957Y-98821097D01*
X130546959Y-98821097D01*
X130758288Y-98794025D01*
X130758289Y-98794025D01*
X130763416Y-98793368D01*
X130768366Y-98791883D01*
X130972429Y-98730661D01*
X130972434Y-98730659D01*
X130977384Y-98729174D01*
X131177994Y-98630896D01*
X131359860Y-98501173D01*
X131518096Y-98343489D01*
X131527693Y-98330134D01*
X131648453Y-98162077D01*
X131649776Y-98163028D01*
X131696645Y-98119857D01*
X131766580Y-98107625D01*
X131832026Y-98135144D01*
X131859875Y-98166994D01*
X131919987Y-98265088D01*
X132066250Y-98433938D01*
X132238126Y-98576632D01*
X132431000Y-98689338D01*
X132639692Y-98769030D01*
X132644760Y-98770061D01*
X132644763Y-98770062D01*
X132712598Y-98783863D01*
X132858597Y-98813567D01*
X132863772Y-98813757D01*
X132863774Y-98813757D01*
X133076673Y-98821564D01*
X133076677Y-98821564D01*
X133081837Y-98821753D01*
X133086957Y-98821097D01*
X133086959Y-98821097D01*
X133298288Y-98794025D01*
X133298289Y-98794025D01*
X133303416Y-98793368D01*
X133308366Y-98791883D01*
X133512429Y-98730661D01*
X133512434Y-98730659D01*
X133517384Y-98729174D01*
X133717994Y-98630896D01*
X133899860Y-98501173D01*
X134058096Y-98343489D01*
X134067693Y-98330134D01*
X134188453Y-98162077D01*
X134189776Y-98163028D01*
X134236645Y-98119857D01*
X134306580Y-98107625D01*
X134372026Y-98135144D01*
X134399875Y-98166994D01*
X134459987Y-98265088D01*
X134606250Y-98433938D01*
X134778126Y-98576632D01*
X134971000Y-98689338D01*
X135179692Y-98769030D01*
X135184760Y-98770061D01*
X135184763Y-98770062D01*
X135252598Y-98783863D01*
X135398597Y-98813567D01*
X135403772Y-98813757D01*
X135403774Y-98813757D01*
X135616673Y-98821564D01*
X135616677Y-98821564D01*
X135621837Y-98821753D01*
X135626957Y-98821097D01*
X135626959Y-98821097D01*
X135838288Y-98794025D01*
X135838289Y-98794025D01*
X135843416Y-98793368D01*
X135848366Y-98791883D01*
X136052429Y-98730661D01*
X136052434Y-98730659D01*
X136057384Y-98729174D01*
X136257994Y-98630896D01*
X136439860Y-98501173D01*
X136598096Y-98343489D01*
X136607693Y-98330134D01*
X136728453Y-98162077D01*
X136729640Y-98162930D01*
X136776960Y-98119362D01*
X136846897Y-98107145D01*
X136912338Y-98134678D01*
X136940166Y-98166511D01*
X136997694Y-98260388D01*
X137003777Y-98268699D01*
X137143213Y-98429667D01*
X137150580Y-98436883D01*
X137314434Y-98572916D01*
X137322881Y-98578831D01*
X137506756Y-98686279D01*
X137516042Y-98690729D01*
X137715001Y-98766703D01*
X137724899Y-98769579D01*
X137828250Y-98790606D01*
X137842299Y-98789410D01*
X137846000Y-98779065D01*
X137846000Y-98778517D01*
X138354000Y-98778517D01*
X138358064Y-98792359D01*
X138371478Y-98794393D01*
X138378184Y-98793534D01*
X138388262Y-98791392D01*
X138592255Y-98730191D01*
X138601842Y-98726433D01*
X138793095Y-98632739D01*
X138801945Y-98627464D01*
X138975328Y-98503792D01*
X138983200Y-98497139D01*
X139134052Y-98346812D01*
X139140730Y-98338965D01*
X139268022Y-98161819D01*
X139269279Y-98162722D01*
X139316373Y-98119362D01*
X139386311Y-98107145D01*
X139451751Y-98134678D01*
X139479579Y-98166511D01*
X139539987Y-98265088D01*
X139686250Y-98433938D01*
X139858126Y-98576632D01*
X140051000Y-98689338D01*
X140259692Y-98769030D01*
X140264760Y-98770061D01*
X140264763Y-98770062D01*
X140332598Y-98783863D01*
X140478597Y-98813567D01*
X140483772Y-98813757D01*
X140483774Y-98813757D01*
X140696673Y-98821564D01*
X140696677Y-98821564D01*
X140701837Y-98821753D01*
X140706957Y-98821097D01*
X140706959Y-98821097D01*
X140918288Y-98794025D01*
X140918289Y-98794025D01*
X140923416Y-98793368D01*
X140928366Y-98791883D01*
X141132429Y-98730661D01*
X141132434Y-98730659D01*
X141137384Y-98729174D01*
X141337994Y-98630896D01*
X141519860Y-98501173D01*
X141678096Y-98343489D01*
X141687693Y-98330134D01*
X141808453Y-98162077D01*
X141809776Y-98163028D01*
X141856645Y-98119857D01*
X141926580Y-98107625D01*
X141992026Y-98135144D01*
X142019875Y-98166994D01*
X142079987Y-98265088D01*
X142226250Y-98433938D01*
X142398126Y-98576632D01*
X142591000Y-98689338D01*
X142799692Y-98769030D01*
X142804760Y-98770061D01*
X142804763Y-98770062D01*
X142872598Y-98783863D01*
X143018597Y-98813567D01*
X143023772Y-98813757D01*
X143023774Y-98813757D01*
X143236673Y-98821564D01*
X143236677Y-98821564D01*
X143241837Y-98821753D01*
X143246957Y-98821097D01*
X143246959Y-98821097D01*
X143458288Y-98794025D01*
X143458289Y-98794025D01*
X143463416Y-98793368D01*
X143468366Y-98791883D01*
X143672429Y-98730661D01*
X143672434Y-98730659D01*
X143677384Y-98729174D01*
X143877994Y-98630896D01*
X144059860Y-98501173D01*
X144218096Y-98343489D01*
X144227693Y-98330134D01*
X144348453Y-98162077D01*
X144349776Y-98163028D01*
X144396645Y-98119857D01*
X144466580Y-98107625D01*
X144532026Y-98135144D01*
X144559875Y-98166994D01*
X144619987Y-98265088D01*
X144766250Y-98433938D01*
X144938126Y-98576632D01*
X145131000Y-98689338D01*
X145339692Y-98769030D01*
X145344760Y-98770061D01*
X145344763Y-98770062D01*
X145412598Y-98783863D01*
X145558597Y-98813567D01*
X145563772Y-98813757D01*
X145563774Y-98813757D01*
X145776673Y-98821564D01*
X145776677Y-98821564D01*
X145781837Y-98821753D01*
X145786957Y-98821097D01*
X145786959Y-98821097D01*
X145998288Y-98794025D01*
X145998289Y-98794025D01*
X146003416Y-98793368D01*
X146008366Y-98791883D01*
X146212429Y-98730661D01*
X146212434Y-98730659D01*
X146217384Y-98729174D01*
X146417994Y-98630896D01*
X146599860Y-98501173D01*
X146743400Y-98358134D01*
X149441500Y-98358134D01*
X149448255Y-98420316D01*
X149499385Y-98556705D01*
X149586739Y-98673261D01*
X149703295Y-98760615D01*
X149839684Y-98811745D01*
X149901866Y-98818500D01*
X151698134Y-98818500D01*
X151760316Y-98811745D01*
X151896705Y-98760615D01*
X152013261Y-98673261D01*
X152100615Y-98556705D01*
X152122799Y-98497529D01*
X152144598Y-98439382D01*
X152187240Y-98382618D01*
X152253802Y-98357918D01*
X152323150Y-98373126D01*
X152357817Y-98401114D01*
X152386250Y-98433938D01*
X152558126Y-98576632D01*
X152751000Y-98689338D01*
X152959692Y-98769030D01*
X152964760Y-98770061D01*
X152964763Y-98770062D01*
X153032598Y-98783863D01*
X153178597Y-98813567D01*
X153183772Y-98813757D01*
X153183774Y-98813757D01*
X153396673Y-98821564D01*
X153396677Y-98821564D01*
X153401837Y-98821753D01*
X153406957Y-98821097D01*
X153406959Y-98821097D01*
X153618288Y-98794025D01*
X153618289Y-98794025D01*
X153623416Y-98793368D01*
X153628366Y-98791883D01*
X153832429Y-98730661D01*
X153832434Y-98730659D01*
X153837384Y-98729174D01*
X154037994Y-98630896D01*
X154219860Y-98501173D01*
X154378096Y-98343489D01*
X154387693Y-98330134D01*
X154508453Y-98162077D01*
X154509776Y-98163028D01*
X154556645Y-98119857D01*
X154626580Y-98107625D01*
X154692026Y-98135144D01*
X154719875Y-98166994D01*
X154779987Y-98265088D01*
X154926250Y-98433938D01*
X155098126Y-98576632D01*
X155291000Y-98689338D01*
X155499692Y-98769030D01*
X155504760Y-98770061D01*
X155504763Y-98770062D01*
X155572598Y-98783863D01*
X155718597Y-98813567D01*
X155723772Y-98813757D01*
X155723774Y-98813757D01*
X155936673Y-98821564D01*
X155936677Y-98821564D01*
X155941837Y-98821753D01*
X155946957Y-98821097D01*
X155946959Y-98821097D01*
X156158288Y-98794025D01*
X156158289Y-98794025D01*
X156163416Y-98793368D01*
X156168366Y-98791883D01*
X156372429Y-98730661D01*
X156372434Y-98730659D01*
X156377384Y-98729174D01*
X156577994Y-98630896D01*
X156759860Y-98501173D01*
X156918096Y-98343489D01*
X156927693Y-98330134D01*
X157048453Y-98162077D01*
X157049776Y-98163028D01*
X157096645Y-98119857D01*
X157166580Y-98107625D01*
X157232026Y-98135144D01*
X157259875Y-98166994D01*
X157319987Y-98265088D01*
X157466250Y-98433938D01*
X157638126Y-98576632D01*
X157831000Y-98689338D01*
X158039692Y-98769030D01*
X158044760Y-98770061D01*
X158044763Y-98770062D01*
X158112598Y-98783863D01*
X158258597Y-98813567D01*
X158263772Y-98813757D01*
X158263774Y-98813757D01*
X158476673Y-98821564D01*
X158476677Y-98821564D01*
X158481837Y-98821753D01*
X158486957Y-98821097D01*
X158486959Y-98821097D01*
X158698288Y-98794025D01*
X158698289Y-98794025D01*
X158703416Y-98793368D01*
X158708366Y-98791883D01*
X158912429Y-98730661D01*
X158912434Y-98730659D01*
X158917384Y-98729174D01*
X159117994Y-98630896D01*
X159299860Y-98501173D01*
X159458096Y-98343489D01*
X159467693Y-98330134D01*
X159588453Y-98162077D01*
X159589776Y-98163028D01*
X159636645Y-98119857D01*
X159706580Y-98107625D01*
X159772026Y-98135144D01*
X159799875Y-98166994D01*
X159859987Y-98265088D01*
X160006250Y-98433938D01*
X160178126Y-98576632D01*
X160371000Y-98689338D01*
X160579692Y-98769030D01*
X160584760Y-98770061D01*
X160584763Y-98770062D01*
X160652598Y-98783863D01*
X160798597Y-98813567D01*
X160803772Y-98813757D01*
X160803774Y-98813757D01*
X161016673Y-98821564D01*
X161016677Y-98821564D01*
X161021837Y-98821753D01*
X161026957Y-98821097D01*
X161026959Y-98821097D01*
X161238288Y-98794025D01*
X161238289Y-98794025D01*
X161243416Y-98793368D01*
X161248366Y-98791883D01*
X161452429Y-98730661D01*
X161452434Y-98730659D01*
X161457384Y-98729174D01*
X161657994Y-98630896D01*
X161839860Y-98501173D01*
X161998096Y-98343489D01*
X162007693Y-98330134D01*
X162128453Y-98162077D01*
X162129776Y-98163028D01*
X162176645Y-98119857D01*
X162246580Y-98107625D01*
X162312026Y-98135144D01*
X162339875Y-98166994D01*
X162399987Y-98265088D01*
X162546250Y-98433938D01*
X162718126Y-98576632D01*
X162911000Y-98689338D01*
X163119692Y-98769030D01*
X163124760Y-98770061D01*
X163124763Y-98770062D01*
X163192598Y-98783863D01*
X163338597Y-98813567D01*
X163343772Y-98813757D01*
X163343774Y-98813757D01*
X163556673Y-98821564D01*
X163556677Y-98821564D01*
X163561837Y-98821753D01*
X163566957Y-98821097D01*
X163566959Y-98821097D01*
X163778288Y-98794025D01*
X163778289Y-98794025D01*
X163783416Y-98793368D01*
X163788366Y-98791883D01*
X163992429Y-98730661D01*
X163992434Y-98730659D01*
X163997384Y-98729174D01*
X164197994Y-98630896D01*
X164379860Y-98501173D01*
X164538096Y-98343489D01*
X164547693Y-98330134D01*
X164668453Y-98162077D01*
X164669776Y-98163028D01*
X164716645Y-98119857D01*
X164786580Y-98107625D01*
X164852026Y-98135144D01*
X164879875Y-98166994D01*
X164939987Y-98265088D01*
X165086250Y-98433938D01*
X165258126Y-98576632D01*
X165451000Y-98689338D01*
X165659692Y-98769030D01*
X165664760Y-98770061D01*
X165664763Y-98770062D01*
X165732598Y-98783863D01*
X165878597Y-98813567D01*
X165883772Y-98813757D01*
X165883774Y-98813757D01*
X166096673Y-98821564D01*
X166096677Y-98821564D01*
X166101837Y-98821753D01*
X166106957Y-98821097D01*
X166106959Y-98821097D01*
X166318288Y-98794025D01*
X166318289Y-98794025D01*
X166323416Y-98793368D01*
X166328366Y-98791883D01*
X166532429Y-98730661D01*
X166532434Y-98730659D01*
X166537384Y-98729174D01*
X166737994Y-98630896D01*
X166919860Y-98501173D01*
X167078096Y-98343489D01*
X167087693Y-98330134D01*
X167208453Y-98162077D01*
X167209776Y-98163028D01*
X167256645Y-98119857D01*
X167326580Y-98107625D01*
X167392026Y-98135144D01*
X167419875Y-98166994D01*
X167479987Y-98265088D01*
X167626250Y-98433938D01*
X167798126Y-98576632D01*
X167991000Y-98689338D01*
X168199692Y-98769030D01*
X168204760Y-98770061D01*
X168204763Y-98770062D01*
X168272598Y-98783863D01*
X168418597Y-98813567D01*
X168423772Y-98813757D01*
X168423774Y-98813757D01*
X168636673Y-98821564D01*
X168636677Y-98821564D01*
X168641837Y-98821753D01*
X168646957Y-98821097D01*
X168646959Y-98821097D01*
X168858288Y-98794025D01*
X168858289Y-98794025D01*
X168863416Y-98793368D01*
X168868366Y-98791883D01*
X169072429Y-98730661D01*
X169072434Y-98730659D01*
X169077384Y-98729174D01*
X169277994Y-98630896D01*
X169459860Y-98501173D01*
X169603400Y-98358134D01*
X172301500Y-98358134D01*
X172308255Y-98420316D01*
X172359385Y-98556705D01*
X172446739Y-98673261D01*
X172563295Y-98760615D01*
X172699684Y-98811745D01*
X172761866Y-98818500D01*
X174558134Y-98818500D01*
X174620316Y-98811745D01*
X174756705Y-98760615D01*
X174873261Y-98673261D01*
X174960615Y-98556705D01*
X174982799Y-98497529D01*
X175004598Y-98439382D01*
X175047240Y-98382618D01*
X175113802Y-98357918D01*
X175183150Y-98373126D01*
X175217817Y-98401114D01*
X175246250Y-98433938D01*
X175418126Y-98576632D01*
X175611000Y-98689338D01*
X175819692Y-98769030D01*
X175824760Y-98770061D01*
X175824763Y-98770062D01*
X175892598Y-98783863D01*
X176038597Y-98813567D01*
X176043772Y-98813757D01*
X176043774Y-98813757D01*
X176256673Y-98821564D01*
X176256677Y-98821564D01*
X176261837Y-98821753D01*
X176266957Y-98821097D01*
X176266959Y-98821097D01*
X176478288Y-98794025D01*
X176478289Y-98794025D01*
X176483416Y-98793368D01*
X176488366Y-98791883D01*
X176692429Y-98730661D01*
X176692434Y-98730659D01*
X176697384Y-98729174D01*
X176897994Y-98630896D01*
X177079860Y-98501173D01*
X177238096Y-98343489D01*
X177247693Y-98330134D01*
X177368453Y-98162077D01*
X177369776Y-98163028D01*
X177416645Y-98119857D01*
X177486580Y-98107625D01*
X177552026Y-98135144D01*
X177579875Y-98166994D01*
X177639987Y-98265088D01*
X177786250Y-98433938D01*
X177958126Y-98576632D01*
X178151000Y-98689338D01*
X178359692Y-98769030D01*
X178364760Y-98770061D01*
X178364763Y-98770062D01*
X178432598Y-98783863D01*
X178578597Y-98813567D01*
X178583772Y-98813757D01*
X178583774Y-98813757D01*
X178796673Y-98821564D01*
X178796677Y-98821564D01*
X178801837Y-98821753D01*
X178806957Y-98821097D01*
X178806959Y-98821097D01*
X179018288Y-98794025D01*
X179018289Y-98794025D01*
X179023416Y-98793368D01*
X179028366Y-98791883D01*
X179232429Y-98730661D01*
X179232434Y-98730659D01*
X179237384Y-98729174D01*
X179437994Y-98630896D01*
X179619860Y-98501173D01*
X179778096Y-98343489D01*
X179787693Y-98330134D01*
X179908453Y-98162077D01*
X179909776Y-98163028D01*
X179956645Y-98119857D01*
X180026580Y-98107625D01*
X180092026Y-98135144D01*
X180119875Y-98166994D01*
X180179987Y-98265088D01*
X180326250Y-98433938D01*
X180498126Y-98576632D01*
X180691000Y-98689338D01*
X180899692Y-98769030D01*
X180904760Y-98770061D01*
X180904763Y-98770062D01*
X180972598Y-98783863D01*
X181118597Y-98813567D01*
X181123772Y-98813757D01*
X181123774Y-98813757D01*
X181336673Y-98821564D01*
X181336677Y-98821564D01*
X181341837Y-98821753D01*
X181346957Y-98821097D01*
X181346959Y-98821097D01*
X181558288Y-98794025D01*
X181558289Y-98794025D01*
X181563416Y-98793368D01*
X181568366Y-98791883D01*
X181772429Y-98730661D01*
X181772434Y-98730659D01*
X181777384Y-98729174D01*
X181977994Y-98630896D01*
X182159860Y-98501173D01*
X182318096Y-98343489D01*
X182327693Y-98330134D01*
X182448453Y-98162077D01*
X182449776Y-98163028D01*
X182496645Y-98119857D01*
X182566580Y-98107625D01*
X182632026Y-98135144D01*
X182659875Y-98166994D01*
X182719987Y-98265088D01*
X182866250Y-98433938D01*
X183038126Y-98576632D01*
X183231000Y-98689338D01*
X183439692Y-98769030D01*
X183444760Y-98770061D01*
X183444763Y-98770062D01*
X183512598Y-98783863D01*
X183658597Y-98813567D01*
X183663772Y-98813757D01*
X183663774Y-98813757D01*
X183876673Y-98821564D01*
X183876677Y-98821564D01*
X183881837Y-98821753D01*
X183886957Y-98821097D01*
X183886959Y-98821097D01*
X184098288Y-98794025D01*
X184098289Y-98794025D01*
X184103416Y-98793368D01*
X184108366Y-98791883D01*
X184312429Y-98730661D01*
X184312434Y-98730659D01*
X184317384Y-98729174D01*
X184517994Y-98630896D01*
X184699860Y-98501173D01*
X184858096Y-98343489D01*
X184867693Y-98330134D01*
X184988453Y-98162077D01*
X184989776Y-98163028D01*
X185036645Y-98119857D01*
X185106580Y-98107625D01*
X185172026Y-98135144D01*
X185199875Y-98166994D01*
X185259987Y-98265088D01*
X185406250Y-98433938D01*
X185578126Y-98576632D01*
X185771000Y-98689338D01*
X185979692Y-98769030D01*
X185984760Y-98770061D01*
X185984763Y-98770062D01*
X186052598Y-98783863D01*
X186198597Y-98813567D01*
X186203772Y-98813757D01*
X186203774Y-98813757D01*
X186416673Y-98821564D01*
X186416677Y-98821564D01*
X186421837Y-98821753D01*
X186426957Y-98821097D01*
X186426959Y-98821097D01*
X186638288Y-98794025D01*
X186638289Y-98794025D01*
X186643416Y-98793368D01*
X186648366Y-98791883D01*
X186852429Y-98730661D01*
X186852434Y-98730659D01*
X186857384Y-98729174D01*
X187057994Y-98630896D01*
X187239860Y-98501173D01*
X187398096Y-98343489D01*
X187407693Y-98330134D01*
X187528453Y-98162077D01*
X187529776Y-98163028D01*
X187576645Y-98119857D01*
X187646580Y-98107625D01*
X187712026Y-98135144D01*
X187739875Y-98166994D01*
X187799987Y-98265088D01*
X187946250Y-98433938D01*
X188118126Y-98576632D01*
X188311000Y-98689338D01*
X188519692Y-98769030D01*
X188524760Y-98770061D01*
X188524763Y-98770062D01*
X188592598Y-98783863D01*
X188738597Y-98813567D01*
X188743772Y-98813757D01*
X188743774Y-98813757D01*
X188956673Y-98821564D01*
X188956677Y-98821564D01*
X188961837Y-98821753D01*
X188966957Y-98821097D01*
X188966959Y-98821097D01*
X189178288Y-98794025D01*
X189178289Y-98794025D01*
X189183416Y-98793368D01*
X189188366Y-98791883D01*
X189392429Y-98730661D01*
X189392434Y-98730659D01*
X189397384Y-98729174D01*
X189597994Y-98630896D01*
X189779860Y-98501173D01*
X189938096Y-98343489D01*
X189947693Y-98330134D01*
X190068453Y-98162077D01*
X190069776Y-98163028D01*
X190116645Y-98119857D01*
X190186580Y-98107625D01*
X190252026Y-98135144D01*
X190279875Y-98166994D01*
X190339987Y-98265088D01*
X190486250Y-98433938D01*
X190658126Y-98576632D01*
X190851000Y-98689338D01*
X191059692Y-98769030D01*
X191064760Y-98770061D01*
X191064763Y-98770062D01*
X191132598Y-98783863D01*
X191278597Y-98813567D01*
X191283772Y-98813757D01*
X191283774Y-98813757D01*
X191496673Y-98821564D01*
X191496677Y-98821564D01*
X191501837Y-98821753D01*
X191506957Y-98821097D01*
X191506959Y-98821097D01*
X191718288Y-98794025D01*
X191718289Y-98794025D01*
X191723416Y-98793368D01*
X191728366Y-98791883D01*
X191932429Y-98730661D01*
X191932434Y-98730659D01*
X191937384Y-98729174D01*
X192137994Y-98630896D01*
X192319860Y-98501173D01*
X192478096Y-98343489D01*
X192487693Y-98330134D01*
X192605435Y-98166277D01*
X192608453Y-98162077D01*
X192613979Y-98150897D01*
X192705136Y-97966453D01*
X192705137Y-97966451D01*
X192707430Y-97961811D01*
X192772370Y-97748069D01*
X192801529Y-97526590D01*
X192803156Y-97460000D01*
X192784852Y-97237361D01*
X192730431Y-97020702D01*
X192641354Y-96815840D01*
X192520014Y-96628277D01*
X192369670Y-96463051D01*
X192365619Y-96459852D01*
X192365615Y-96459848D01*
X192198414Y-96327800D01*
X192198410Y-96327798D01*
X192194359Y-96324598D01*
X192158028Y-96304542D01*
X192142136Y-96295769D01*
X191998789Y-96216638D01*
X191993920Y-96214914D01*
X191993916Y-96214912D01*
X191793087Y-96143795D01*
X191793083Y-96143794D01*
X191788212Y-96142069D01*
X191783119Y-96141162D01*
X191783116Y-96141161D01*
X191573373Y-96103800D01*
X191573367Y-96103799D01*
X191568284Y-96102894D01*
X191494452Y-96101992D01*
X191350081Y-96100228D01*
X191350079Y-96100228D01*
X191344911Y-96100165D01*
X191124091Y-96133955D01*
X190911756Y-96203357D01*
X190713607Y-96306507D01*
X190709474Y-96309610D01*
X190709471Y-96309612D01*
X190604634Y-96388326D01*
X190534965Y-96440635D01*
X190531393Y-96444373D01*
X190423729Y-96557037D01*
X190380629Y-96602138D01*
X190273201Y-96759621D01*
X190218293Y-96804621D01*
X190147768Y-96812792D01*
X190084021Y-96781538D01*
X190063324Y-96757054D01*
X189982822Y-96632617D01*
X189982820Y-96632614D01*
X189980014Y-96628277D01*
X189829670Y-96463051D01*
X189825619Y-96459852D01*
X189825615Y-96459848D01*
X189658414Y-96327800D01*
X189658410Y-96327798D01*
X189654359Y-96324598D01*
X189618028Y-96304542D01*
X189602136Y-96295769D01*
X189458789Y-96216638D01*
X189453920Y-96214914D01*
X189453916Y-96214912D01*
X189253087Y-96143795D01*
X189253083Y-96143794D01*
X189248212Y-96142069D01*
X189243119Y-96141162D01*
X189243116Y-96141161D01*
X189033373Y-96103800D01*
X189033367Y-96103799D01*
X189028284Y-96102894D01*
X188954452Y-96101992D01*
X188810081Y-96100228D01*
X188810079Y-96100228D01*
X188804911Y-96100165D01*
X188584091Y-96133955D01*
X188371756Y-96203357D01*
X188173607Y-96306507D01*
X188169474Y-96309610D01*
X188169471Y-96309612D01*
X188064634Y-96388326D01*
X187994965Y-96440635D01*
X187991393Y-96444373D01*
X187883729Y-96557037D01*
X187840629Y-96602138D01*
X187733201Y-96759621D01*
X187678293Y-96804621D01*
X187607768Y-96812792D01*
X187544021Y-96781538D01*
X187523324Y-96757054D01*
X187442822Y-96632617D01*
X187442820Y-96632614D01*
X187440014Y-96628277D01*
X187289670Y-96463051D01*
X187285619Y-96459852D01*
X187285615Y-96459848D01*
X187118414Y-96327800D01*
X187118410Y-96327798D01*
X187114359Y-96324598D01*
X187078028Y-96304542D01*
X187062136Y-96295769D01*
X186918789Y-96216638D01*
X186913920Y-96214914D01*
X186913916Y-96214912D01*
X186713087Y-96143795D01*
X186713083Y-96143794D01*
X186708212Y-96142069D01*
X186703119Y-96141162D01*
X186703116Y-96141161D01*
X186493373Y-96103800D01*
X186493367Y-96103799D01*
X186488284Y-96102894D01*
X186414452Y-96101992D01*
X186270081Y-96100228D01*
X186270079Y-96100228D01*
X186264911Y-96100165D01*
X186044091Y-96133955D01*
X185831756Y-96203357D01*
X185633607Y-96306507D01*
X185629474Y-96309610D01*
X185629471Y-96309612D01*
X185524634Y-96388326D01*
X185454965Y-96440635D01*
X185451393Y-96444373D01*
X185343729Y-96557037D01*
X185300629Y-96602138D01*
X185193201Y-96759621D01*
X185138293Y-96804621D01*
X185067768Y-96812792D01*
X185004021Y-96781538D01*
X184983324Y-96757054D01*
X184902822Y-96632617D01*
X184902820Y-96632614D01*
X184900014Y-96628277D01*
X184749670Y-96463051D01*
X184745619Y-96459852D01*
X184745615Y-96459848D01*
X184578414Y-96327800D01*
X184578410Y-96327798D01*
X184574359Y-96324598D01*
X184538028Y-96304542D01*
X184522136Y-96295769D01*
X184378789Y-96216638D01*
X184373920Y-96214914D01*
X184373916Y-96214912D01*
X184173087Y-96143795D01*
X184173083Y-96143794D01*
X184168212Y-96142069D01*
X184163119Y-96141162D01*
X184163116Y-96141161D01*
X183953373Y-96103800D01*
X183953367Y-96103799D01*
X183948284Y-96102894D01*
X183874452Y-96101992D01*
X183730081Y-96100228D01*
X183730079Y-96100228D01*
X183724911Y-96100165D01*
X183504091Y-96133955D01*
X183291756Y-96203357D01*
X183093607Y-96306507D01*
X183089474Y-96309610D01*
X183089471Y-96309612D01*
X182984634Y-96388326D01*
X182914965Y-96440635D01*
X182911393Y-96444373D01*
X182803729Y-96557037D01*
X182760629Y-96602138D01*
X182653201Y-96759621D01*
X182598293Y-96804621D01*
X182527768Y-96812792D01*
X182464021Y-96781538D01*
X182443324Y-96757054D01*
X182362822Y-96632617D01*
X182362820Y-96632614D01*
X182360014Y-96628277D01*
X182209670Y-96463051D01*
X182205619Y-96459852D01*
X182205615Y-96459848D01*
X182038414Y-96327800D01*
X182038410Y-96327798D01*
X182034359Y-96324598D01*
X181998028Y-96304542D01*
X181982136Y-96295769D01*
X181838789Y-96216638D01*
X181833920Y-96214914D01*
X181833916Y-96214912D01*
X181633087Y-96143795D01*
X181633083Y-96143794D01*
X181628212Y-96142069D01*
X181623119Y-96141162D01*
X181623116Y-96141161D01*
X181413373Y-96103800D01*
X181413367Y-96103799D01*
X181408284Y-96102894D01*
X181334452Y-96101992D01*
X181190081Y-96100228D01*
X181190079Y-96100228D01*
X181184911Y-96100165D01*
X180964091Y-96133955D01*
X180751756Y-96203357D01*
X180553607Y-96306507D01*
X180549474Y-96309610D01*
X180549471Y-96309612D01*
X180444634Y-96388326D01*
X180374965Y-96440635D01*
X180371393Y-96444373D01*
X180263729Y-96557037D01*
X180220629Y-96602138D01*
X180113201Y-96759621D01*
X180058293Y-96804621D01*
X179987768Y-96812792D01*
X179924021Y-96781538D01*
X179903324Y-96757054D01*
X179822822Y-96632617D01*
X179822820Y-96632614D01*
X179820014Y-96628277D01*
X179669670Y-96463051D01*
X179665619Y-96459852D01*
X179665615Y-96459848D01*
X179498414Y-96327800D01*
X179498410Y-96327798D01*
X179494359Y-96324598D01*
X179458028Y-96304542D01*
X179442136Y-96295769D01*
X179298789Y-96216638D01*
X179293920Y-96214914D01*
X179293916Y-96214912D01*
X179093087Y-96143795D01*
X179093083Y-96143794D01*
X179088212Y-96142069D01*
X179083119Y-96141162D01*
X179083116Y-96141161D01*
X178873373Y-96103800D01*
X178873367Y-96103799D01*
X178868284Y-96102894D01*
X178794452Y-96101992D01*
X178650081Y-96100228D01*
X178650079Y-96100228D01*
X178644911Y-96100165D01*
X178424091Y-96133955D01*
X178211756Y-96203357D01*
X178013607Y-96306507D01*
X178009474Y-96309610D01*
X178009471Y-96309612D01*
X177904634Y-96388326D01*
X177834965Y-96440635D01*
X177831393Y-96444373D01*
X177723729Y-96557037D01*
X177680629Y-96602138D01*
X177573201Y-96759621D01*
X177518293Y-96804621D01*
X177447768Y-96812792D01*
X177384021Y-96781538D01*
X177363324Y-96757054D01*
X177282822Y-96632617D01*
X177282820Y-96632614D01*
X177280014Y-96628277D01*
X177129670Y-96463051D01*
X177125619Y-96459852D01*
X177125615Y-96459848D01*
X176958414Y-96327800D01*
X176958410Y-96327798D01*
X176954359Y-96324598D01*
X176918028Y-96304542D01*
X176902136Y-96295769D01*
X176758789Y-96216638D01*
X176753920Y-96214914D01*
X176753916Y-96214912D01*
X176553087Y-96143795D01*
X176553083Y-96143794D01*
X176548212Y-96142069D01*
X176543119Y-96141162D01*
X176543116Y-96141161D01*
X176333373Y-96103800D01*
X176333367Y-96103799D01*
X176328284Y-96102894D01*
X176254452Y-96101992D01*
X176110081Y-96100228D01*
X176110079Y-96100228D01*
X176104911Y-96100165D01*
X175884091Y-96133955D01*
X175671756Y-96203357D01*
X175473607Y-96306507D01*
X175469474Y-96309610D01*
X175469471Y-96309612D01*
X175364634Y-96388326D01*
X175294965Y-96440635D01*
X175215543Y-96523746D01*
X175214283Y-96525064D01*
X175152759Y-96560494D01*
X175081846Y-96557037D01*
X175024060Y-96515791D01*
X175005207Y-96482243D01*
X174963767Y-96371703D01*
X174960615Y-96363295D01*
X174873261Y-96246739D01*
X174756705Y-96159385D01*
X174620316Y-96108255D01*
X174558134Y-96101500D01*
X172761866Y-96101500D01*
X172699684Y-96108255D01*
X172563295Y-96159385D01*
X172446739Y-96246739D01*
X172359385Y-96363295D01*
X172308255Y-96499684D01*
X172301500Y-96561866D01*
X172301500Y-98358134D01*
X169603400Y-98358134D01*
X169618096Y-98343489D01*
X169627693Y-98330134D01*
X169745435Y-98166277D01*
X169748453Y-98162077D01*
X169753979Y-98150897D01*
X169845136Y-97966453D01*
X169845137Y-97966451D01*
X169847430Y-97961811D01*
X169912370Y-97748069D01*
X169941529Y-97526590D01*
X169943156Y-97460000D01*
X169924852Y-97237361D01*
X169870431Y-97020702D01*
X169781354Y-96815840D01*
X169660014Y-96628277D01*
X169509670Y-96463051D01*
X169505619Y-96459852D01*
X169505615Y-96459848D01*
X169338414Y-96327800D01*
X169338410Y-96327798D01*
X169334359Y-96324598D01*
X169298028Y-96304542D01*
X169282136Y-96295769D01*
X169138789Y-96216638D01*
X169133920Y-96214914D01*
X169133916Y-96214912D01*
X168933087Y-96143795D01*
X168933083Y-96143794D01*
X168928212Y-96142069D01*
X168923119Y-96141162D01*
X168923116Y-96141161D01*
X168713373Y-96103800D01*
X168713367Y-96103799D01*
X168708284Y-96102894D01*
X168634452Y-96101992D01*
X168490081Y-96100228D01*
X168490079Y-96100228D01*
X168484911Y-96100165D01*
X168264091Y-96133955D01*
X168051756Y-96203357D01*
X167853607Y-96306507D01*
X167849474Y-96309610D01*
X167849471Y-96309612D01*
X167744634Y-96388326D01*
X167674965Y-96440635D01*
X167671393Y-96444373D01*
X167563729Y-96557037D01*
X167520629Y-96602138D01*
X167413201Y-96759621D01*
X167358293Y-96804621D01*
X167287768Y-96812792D01*
X167224021Y-96781538D01*
X167203324Y-96757054D01*
X167122822Y-96632617D01*
X167122820Y-96632614D01*
X167120014Y-96628277D01*
X166969670Y-96463051D01*
X166965619Y-96459852D01*
X166965615Y-96459848D01*
X166798414Y-96327800D01*
X166798410Y-96327798D01*
X166794359Y-96324598D01*
X166758028Y-96304542D01*
X166742136Y-96295769D01*
X166598789Y-96216638D01*
X166593920Y-96214914D01*
X166593916Y-96214912D01*
X166393087Y-96143795D01*
X166393083Y-96143794D01*
X166388212Y-96142069D01*
X166383119Y-96141162D01*
X166383116Y-96141161D01*
X166173373Y-96103800D01*
X166173367Y-96103799D01*
X166168284Y-96102894D01*
X166094452Y-96101992D01*
X165950081Y-96100228D01*
X165950079Y-96100228D01*
X165944911Y-96100165D01*
X165724091Y-96133955D01*
X165511756Y-96203357D01*
X165313607Y-96306507D01*
X165309474Y-96309610D01*
X165309471Y-96309612D01*
X165204634Y-96388326D01*
X165134965Y-96440635D01*
X165131393Y-96444373D01*
X165023729Y-96557037D01*
X164980629Y-96602138D01*
X164873201Y-96759621D01*
X164818293Y-96804621D01*
X164747768Y-96812792D01*
X164684021Y-96781538D01*
X164663324Y-96757054D01*
X164582822Y-96632617D01*
X164582820Y-96632614D01*
X164580014Y-96628277D01*
X164429670Y-96463051D01*
X164425619Y-96459852D01*
X164425615Y-96459848D01*
X164258414Y-96327800D01*
X164258410Y-96327798D01*
X164254359Y-96324598D01*
X164218028Y-96304542D01*
X164202136Y-96295769D01*
X164058789Y-96216638D01*
X164053920Y-96214914D01*
X164053916Y-96214912D01*
X163853087Y-96143795D01*
X163853083Y-96143794D01*
X163848212Y-96142069D01*
X163843119Y-96141162D01*
X163843116Y-96141161D01*
X163633373Y-96103800D01*
X163633367Y-96103799D01*
X163628284Y-96102894D01*
X163554452Y-96101992D01*
X163410081Y-96100228D01*
X163410079Y-96100228D01*
X163404911Y-96100165D01*
X163184091Y-96133955D01*
X162971756Y-96203357D01*
X162773607Y-96306507D01*
X162769474Y-96309610D01*
X162769471Y-96309612D01*
X162664634Y-96388326D01*
X162594965Y-96440635D01*
X162591393Y-96444373D01*
X162483729Y-96557037D01*
X162440629Y-96602138D01*
X162333201Y-96759621D01*
X162278293Y-96804621D01*
X162207768Y-96812792D01*
X162144021Y-96781538D01*
X162123324Y-96757054D01*
X162042822Y-96632617D01*
X162042820Y-96632614D01*
X162040014Y-96628277D01*
X161889670Y-96463051D01*
X161885619Y-96459852D01*
X161885615Y-96459848D01*
X161718414Y-96327800D01*
X161718410Y-96327798D01*
X161714359Y-96324598D01*
X161678028Y-96304542D01*
X161662136Y-96295769D01*
X161518789Y-96216638D01*
X161513920Y-96214914D01*
X161513916Y-96214912D01*
X161313087Y-96143795D01*
X161313083Y-96143794D01*
X161308212Y-96142069D01*
X161303119Y-96141162D01*
X161303116Y-96141161D01*
X161093373Y-96103800D01*
X161093367Y-96103799D01*
X161088284Y-96102894D01*
X161014452Y-96101992D01*
X160870081Y-96100228D01*
X160870079Y-96100228D01*
X160864911Y-96100165D01*
X160644091Y-96133955D01*
X160431756Y-96203357D01*
X160233607Y-96306507D01*
X160229474Y-96309610D01*
X160229471Y-96309612D01*
X160124634Y-96388326D01*
X160054965Y-96440635D01*
X160051393Y-96444373D01*
X159943729Y-96557037D01*
X159900629Y-96602138D01*
X159793201Y-96759621D01*
X159738293Y-96804621D01*
X159667768Y-96812792D01*
X159604021Y-96781538D01*
X159583324Y-96757054D01*
X159502822Y-96632617D01*
X159502820Y-96632614D01*
X159500014Y-96628277D01*
X159349670Y-96463051D01*
X159345619Y-96459852D01*
X159345615Y-96459848D01*
X159178414Y-96327800D01*
X159178410Y-96327798D01*
X159174359Y-96324598D01*
X159138028Y-96304542D01*
X159122136Y-96295769D01*
X158978789Y-96216638D01*
X158973920Y-96214914D01*
X158973916Y-96214912D01*
X158773087Y-96143795D01*
X158773083Y-96143794D01*
X158768212Y-96142069D01*
X158763119Y-96141162D01*
X158763116Y-96141161D01*
X158553373Y-96103800D01*
X158553367Y-96103799D01*
X158548284Y-96102894D01*
X158474452Y-96101992D01*
X158330081Y-96100228D01*
X158330079Y-96100228D01*
X158324911Y-96100165D01*
X158104091Y-96133955D01*
X157891756Y-96203357D01*
X157693607Y-96306507D01*
X157689474Y-96309610D01*
X157689471Y-96309612D01*
X157584634Y-96388326D01*
X157514965Y-96440635D01*
X157511393Y-96444373D01*
X157403729Y-96557037D01*
X157360629Y-96602138D01*
X157253201Y-96759621D01*
X157198293Y-96804621D01*
X157127768Y-96812792D01*
X157064021Y-96781538D01*
X157043324Y-96757054D01*
X156962822Y-96632617D01*
X156962820Y-96632614D01*
X156960014Y-96628277D01*
X156809670Y-96463051D01*
X156805619Y-96459852D01*
X156805615Y-96459848D01*
X156638414Y-96327800D01*
X156638410Y-96327798D01*
X156634359Y-96324598D01*
X156598028Y-96304542D01*
X156582136Y-96295769D01*
X156438789Y-96216638D01*
X156433920Y-96214914D01*
X156433916Y-96214912D01*
X156233087Y-96143795D01*
X156233083Y-96143794D01*
X156228212Y-96142069D01*
X156223119Y-96141162D01*
X156223116Y-96141161D01*
X156013373Y-96103800D01*
X156013367Y-96103799D01*
X156008284Y-96102894D01*
X155934452Y-96101992D01*
X155790081Y-96100228D01*
X155790079Y-96100228D01*
X155784911Y-96100165D01*
X155564091Y-96133955D01*
X155351756Y-96203357D01*
X155153607Y-96306507D01*
X155149474Y-96309610D01*
X155149471Y-96309612D01*
X155044634Y-96388326D01*
X154974965Y-96440635D01*
X154971393Y-96444373D01*
X154863729Y-96557037D01*
X154820629Y-96602138D01*
X154713201Y-96759621D01*
X154658293Y-96804621D01*
X154587768Y-96812792D01*
X154524021Y-96781538D01*
X154503324Y-96757054D01*
X154422822Y-96632617D01*
X154422820Y-96632614D01*
X154420014Y-96628277D01*
X154269670Y-96463051D01*
X154265619Y-96459852D01*
X154265615Y-96459848D01*
X154098414Y-96327800D01*
X154098410Y-96327798D01*
X154094359Y-96324598D01*
X154058028Y-96304542D01*
X154042136Y-96295769D01*
X153898789Y-96216638D01*
X153893920Y-96214914D01*
X153893916Y-96214912D01*
X153693087Y-96143795D01*
X153693083Y-96143794D01*
X153688212Y-96142069D01*
X153683119Y-96141162D01*
X153683116Y-96141161D01*
X153473373Y-96103800D01*
X153473367Y-96103799D01*
X153468284Y-96102894D01*
X153394452Y-96101992D01*
X153250081Y-96100228D01*
X153250079Y-96100228D01*
X153244911Y-96100165D01*
X153024091Y-96133955D01*
X152811756Y-96203357D01*
X152613607Y-96306507D01*
X152609474Y-96309610D01*
X152609471Y-96309612D01*
X152504634Y-96388326D01*
X152434965Y-96440635D01*
X152355543Y-96523746D01*
X152354283Y-96525064D01*
X152292759Y-96560494D01*
X152221846Y-96557037D01*
X152164060Y-96515791D01*
X152145207Y-96482243D01*
X152103767Y-96371703D01*
X152100615Y-96363295D01*
X152013261Y-96246739D01*
X151896705Y-96159385D01*
X151760316Y-96108255D01*
X151698134Y-96101500D01*
X149901866Y-96101500D01*
X149839684Y-96108255D01*
X149703295Y-96159385D01*
X149586739Y-96246739D01*
X149499385Y-96363295D01*
X149448255Y-96499684D01*
X149441500Y-96561866D01*
X149441500Y-98358134D01*
X146743400Y-98358134D01*
X146758096Y-98343489D01*
X146767693Y-98330134D01*
X146885435Y-98166277D01*
X146888453Y-98162077D01*
X146893979Y-98150897D01*
X146985136Y-97966453D01*
X146985137Y-97966451D01*
X146987430Y-97961811D01*
X147052370Y-97748069D01*
X147081529Y-97526590D01*
X147083156Y-97460000D01*
X147064852Y-97237361D01*
X147010431Y-97020702D01*
X146921354Y-96815840D01*
X146800014Y-96628277D01*
X146649670Y-96463051D01*
X146645619Y-96459852D01*
X146645615Y-96459848D01*
X146478414Y-96327800D01*
X146478410Y-96327798D01*
X146474359Y-96324598D01*
X146438028Y-96304542D01*
X146422136Y-96295769D01*
X146278789Y-96216638D01*
X146273920Y-96214914D01*
X146273916Y-96214912D01*
X146073087Y-96143795D01*
X146073083Y-96143794D01*
X146068212Y-96142069D01*
X146063119Y-96141162D01*
X146063116Y-96141161D01*
X145853373Y-96103800D01*
X145853367Y-96103799D01*
X145848284Y-96102894D01*
X145774452Y-96101992D01*
X145630081Y-96100228D01*
X145630079Y-96100228D01*
X145624911Y-96100165D01*
X145404091Y-96133955D01*
X145191756Y-96203357D01*
X144993607Y-96306507D01*
X144989474Y-96309610D01*
X144989471Y-96309612D01*
X144884634Y-96388326D01*
X144814965Y-96440635D01*
X144811393Y-96444373D01*
X144703729Y-96557037D01*
X144660629Y-96602138D01*
X144553201Y-96759621D01*
X144498293Y-96804621D01*
X144427768Y-96812792D01*
X144364021Y-96781538D01*
X144343324Y-96757054D01*
X144262822Y-96632617D01*
X144262820Y-96632614D01*
X144260014Y-96628277D01*
X144109670Y-96463051D01*
X144105619Y-96459852D01*
X144105615Y-96459848D01*
X143938414Y-96327800D01*
X143938410Y-96327798D01*
X143934359Y-96324598D01*
X143898028Y-96304542D01*
X143882136Y-96295769D01*
X143738789Y-96216638D01*
X143733920Y-96214914D01*
X143733916Y-96214912D01*
X143533087Y-96143795D01*
X143533083Y-96143794D01*
X143528212Y-96142069D01*
X143523119Y-96141162D01*
X143523116Y-96141161D01*
X143313373Y-96103800D01*
X143313367Y-96103799D01*
X143308284Y-96102894D01*
X143234452Y-96101992D01*
X143090081Y-96100228D01*
X143090079Y-96100228D01*
X143084911Y-96100165D01*
X142864091Y-96133955D01*
X142651756Y-96203357D01*
X142453607Y-96306507D01*
X142449474Y-96309610D01*
X142449471Y-96309612D01*
X142344634Y-96388326D01*
X142274965Y-96440635D01*
X142271393Y-96444373D01*
X142163729Y-96557037D01*
X142120629Y-96602138D01*
X142013201Y-96759621D01*
X141958293Y-96804621D01*
X141887768Y-96812792D01*
X141824021Y-96781538D01*
X141803324Y-96757054D01*
X141722822Y-96632617D01*
X141722820Y-96632614D01*
X141720014Y-96628277D01*
X141569670Y-96463051D01*
X141565619Y-96459852D01*
X141565615Y-96459848D01*
X141398414Y-96327800D01*
X141398410Y-96327798D01*
X141394359Y-96324598D01*
X141358028Y-96304542D01*
X141342136Y-96295769D01*
X141198789Y-96216638D01*
X141193920Y-96214914D01*
X141193916Y-96214912D01*
X140993087Y-96143795D01*
X140993083Y-96143794D01*
X140988212Y-96142069D01*
X140983119Y-96141162D01*
X140983116Y-96141161D01*
X140773373Y-96103800D01*
X140773367Y-96103799D01*
X140768284Y-96102894D01*
X140694452Y-96101992D01*
X140550081Y-96100228D01*
X140550079Y-96100228D01*
X140544911Y-96100165D01*
X140324091Y-96133955D01*
X140111756Y-96203357D01*
X139913607Y-96306507D01*
X139909474Y-96309610D01*
X139909471Y-96309612D01*
X139804634Y-96388326D01*
X139734965Y-96440635D01*
X139731393Y-96444373D01*
X139623729Y-96557037D01*
X139580629Y-96602138D01*
X139473204Y-96759618D01*
X139472898Y-96760066D01*
X139417987Y-96805069D01*
X139347462Y-96813240D01*
X139283715Y-96781986D01*
X139263018Y-96757502D01*
X139182426Y-96632926D01*
X139176136Y-96624757D01*
X139032806Y-96467240D01*
X139025273Y-96460215D01*
X138858139Y-96328222D01*
X138849552Y-96322517D01*
X138663117Y-96219599D01*
X138653705Y-96215369D01*
X138452959Y-96144280D01*
X138442988Y-96141646D01*
X138371837Y-96128972D01*
X138358540Y-96130432D01*
X138354000Y-96144989D01*
X138354000Y-98778517D01*
X137846000Y-98778517D01*
X137846000Y-96143102D01*
X137842082Y-96129758D01*
X137827806Y-96127771D01*
X137789324Y-96133660D01*
X137779288Y-96136051D01*
X137576868Y-96202212D01*
X137567359Y-96206209D01*
X137378463Y-96304542D01*
X137369738Y-96310036D01*
X137199433Y-96437905D01*
X137191726Y-96444748D01*
X137044590Y-96598717D01*
X137038109Y-96606722D01*
X136933498Y-96760074D01*
X136878587Y-96805076D01*
X136808062Y-96813247D01*
X136744315Y-96781993D01*
X136723618Y-96757509D01*
X136642822Y-96632617D01*
X136642820Y-96632614D01*
X136640014Y-96628277D01*
X136489670Y-96463051D01*
X136485619Y-96459852D01*
X136485615Y-96459848D01*
X136318414Y-96327800D01*
X136318410Y-96327798D01*
X136314359Y-96324598D01*
X136278028Y-96304542D01*
X136262136Y-96295769D01*
X136118789Y-96216638D01*
X136113920Y-96214914D01*
X136113916Y-96214912D01*
X135913087Y-96143795D01*
X135913083Y-96143794D01*
X135908212Y-96142069D01*
X135903119Y-96141162D01*
X135903116Y-96141161D01*
X135693373Y-96103800D01*
X135693367Y-96103799D01*
X135688284Y-96102894D01*
X135614452Y-96101992D01*
X135470081Y-96100228D01*
X135470079Y-96100228D01*
X135464911Y-96100165D01*
X135244091Y-96133955D01*
X135031756Y-96203357D01*
X134833607Y-96306507D01*
X134829474Y-96309610D01*
X134829471Y-96309612D01*
X134724634Y-96388326D01*
X134654965Y-96440635D01*
X134651393Y-96444373D01*
X134543729Y-96557037D01*
X134500629Y-96602138D01*
X134393201Y-96759621D01*
X134338293Y-96804621D01*
X134267768Y-96812792D01*
X134204021Y-96781538D01*
X134183324Y-96757054D01*
X134102822Y-96632617D01*
X134102820Y-96632614D01*
X134100014Y-96628277D01*
X133949670Y-96463051D01*
X133945619Y-96459852D01*
X133945615Y-96459848D01*
X133778414Y-96327800D01*
X133778410Y-96327798D01*
X133774359Y-96324598D01*
X133738028Y-96304542D01*
X133722136Y-96295769D01*
X133578789Y-96216638D01*
X133573920Y-96214914D01*
X133573916Y-96214912D01*
X133373087Y-96143795D01*
X133373083Y-96143794D01*
X133368212Y-96142069D01*
X133363119Y-96141162D01*
X133363116Y-96141161D01*
X133153373Y-96103800D01*
X133153367Y-96103799D01*
X133148284Y-96102894D01*
X133074452Y-96101992D01*
X132930081Y-96100228D01*
X132930079Y-96100228D01*
X132924911Y-96100165D01*
X132704091Y-96133955D01*
X132491756Y-96203357D01*
X132293607Y-96306507D01*
X132289474Y-96309610D01*
X132289471Y-96309612D01*
X132184634Y-96388326D01*
X132114965Y-96440635D01*
X132111393Y-96444373D01*
X132003729Y-96557037D01*
X131960629Y-96602138D01*
X131853201Y-96759621D01*
X131798293Y-96804621D01*
X131727768Y-96812792D01*
X131664021Y-96781538D01*
X131643324Y-96757054D01*
X131562822Y-96632617D01*
X131562820Y-96632614D01*
X131560014Y-96628277D01*
X131409670Y-96463051D01*
X131405619Y-96459852D01*
X131405615Y-96459848D01*
X131238414Y-96327800D01*
X131238410Y-96327798D01*
X131234359Y-96324598D01*
X131198028Y-96304542D01*
X131182136Y-96295769D01*
X131038789Y-96216638D01*
X131033920Y-96214914D01*
X131033916Y-96214912D01*
X130833087Y-96143795D01*
X130833083Y-96143794D01*
X130828212Y-96142069D01*
X130823119Y-96141162D01*
X130823116Y-96141161D01*
X130613373Y-96103800D01*
X130613367Y-96103799D01*
X130608284Y-96102894D01*
X130534452Y-96101992D01*
X130390081Y-96100228D01*
X130390079Y-96100228D01*
X130384911Y-96100165D01*
X130164091Y-96133955D01*
X129951756Y-96203357D01*
X129753607Y-96306507D01*
X129749474Y-96309610D01*
X129749471Y-96309612D01*
X129644634Y-96388326D01*
X129574965Y-96440635D01*
X129495543Y-96523746D01*
X129494283Y-96525064D01*
X129432759Y-96560494D01*
X129361846Y-96557037D01*
X129304060Y-96515791D01*
X129285207Y-96482243D01*
X129243767Y-96371703D01*
X129240615Y-96363295D01*
X129153261Y-96246739D01*
X129036705Y-96159385D01*
X128900316Y-96108255D01*
X128838134Y-96101500D01*
X127041866Y-96101500D01*
X126979684Y-96108255D01*
X126843295Y-96159385D01*
X126726739Y-96246739D01*
X126639385Y-96363295D01*
X126588255Y-96499684D01*
X126581500Y-96561866D01*
X126581500Y-98358134D01*
X115878487Y-98358134D01*
X115956757Y-98179830D01*
X115958483Y-98175898D01*
X115963742Y-98157438D01*
X116036068Y-97903534D01*
X116037244Y-97899406D01*
X116077751Y-97614784D01*
X116077845Y-97596951D01*
X116079235Y-97331583D01*
X116079235Y-97331576D01*
X116079257Y-97327297D01*
X116041732Y-97042266D01*
X115965871Y-96764964D01*
X115898239Y-96606403D01*
X115854763Y-96504476D01*
X115854761Y-96504472D01*
X115853077Y-96500524D01*
X115749704Y-96327800D01*
X115707643Y-96257521D01*
X115707640Y-96257517D01*
X115705439Y-96253839D01*
X115525687Y-96029472D01*
X115317149Y-95831577D01*
X115083683Y-95663814D01*
X115061843Y-95652250D01*
X115038654Y-95639972D01*
X114829608Y-95529288D01*
X114559627Y-95430489D01*
X114278736Y-95369245D01*
X114247685Y-95366801D01*
X114055718Y-95351693D01*
X114055709Y-95351693D01*
X114053261Y-95351500D01*
X113897729Y-95351500D01*
X113895593Y-95351646D01*
X113895582Y-95351646D01*
X113687452Y-95365835D01*
X113687446Y-95365836D01*
X113683175Y-95366127D01*
X113678980Y-95366996D01*
X113678978Y-95366996D01*
X113542417Y-95395276D01*
X113401658Y-95424426D01*
X113130657Y-95520393D01*
X112875188Y-95652250D01*
X112871687Y-95654711D01*
X112871683Y-95654713D01*
X112825822Y-95686945D01*
X112639977Y-95817559D01*
X112429378Y-96013260D01*
X112247287Y-96235732D01*
X112097073Y-96480858D01*
X112095347Y-96484791D01*
X112095346Y-96484792D01*
X112043835Y-96602138D01*
X111981517Y-96744102D01*
X111980342Y-96748229D01*
X111980341Y-96748230D01*
X111947179Y-96864646D01*
X111909280Y-96924681D01*
X111844940Y-96954695D01*
X111774587Y-96945160D01*
X111720557Y-96899103D01*
X111700000Y-96830127D01*
X111700000Y-92512703D01*
X163930743Y-92512703D01*
X163968268Y-92797734D01*
X164044129Y-93075036D01*
X164045813Y-93078984D01*
X164141202Y-93302618D01*
X164156923Y-93339476D01*
X164304561Y-93586161D01*
X164484313Y-93810528D01*
X164692851Y-94008423D01*
X164926317Y-94176186D01*
X164930112Y-94178195D01*
X164930113Y-94178196D01*
X164951869Y-94189715D01*
X165180392Y-94310712D01*
X165450373Y-94409511D01*
X165731264Y-94470755D01*
X165759841Y-94473004D01*
X165954282Y-94488307D01*
X165954291Y-94488307D01*
X165956739Y-94488500D01*
X166112271Y-94488500D01*
X166114407Y-94488354D01*
X166114418Y-94488354D01*
X166322548Y-94474165D01*
X166322554Y-94474164D01*
X166326825Y-94473873D01*
X166331020Y-94473004D01*
X166331022Y-94473004D01*
X166467584Y-94444723D01*
X166608342Y-94415574D01*
X166879343Y-94319607D01*
X167134812Y-94187750D01*
X167138313Y-94185289D01*
X167138317Y-94185287D01*
X167252417Y-94105096D01*
X167370023Y-94022441D01*
X167580622Y-93826740D01*
X167762713Y-93604268D01*
X167912927Y-93359142D01*
X168028483Y-93095898D01*
X168033742Y-93077438D01*
X168106068Y-92823534D01*
X168107244Y-92819406D01*
X168147751Y-92534784D01*
X168147845Y-92516951D01*
X168149235Y-92251583D01*
X168149235Y-92251576D01*
X168149257Y-92247297D01*
X168111732Y-91962266D01*
X168035871Y-91684964D01*
X167975939Y-91544457D01*
X167924763Y-91424476D01*
X167924761Y-91424472D01*
X167923077Y-91420524D01*
X167819704Y-91247800D01*
X167777643Y-91177521D01*
X167777640Y-91177517D01*
X167775439Y-91173839D01*
X167595687Y-90949472D01*
X167387149Y-90751577D01*
X167153683Y-90583814D01*
X167131843Y-90572250D01*
X167076652Y-90543028D01*
X166899608Y-90449288D01*
X166629627Y-90350489D01*
X166348736Y-90289245D01*
X166317685Y-90286801D01*
X166125718Y-90271693D01*
X166125709Y-90271693D01*
X166123261Y-90271500D01*
X165967729Y-90271500D01*
X165965593Y-90271646D01*
X165965582Y-90271646D01*
X165757452Y-90285835D01*
X165757446Y-90285836D01*
X165753175Y-90286127D01*
X165748980Y-90286996D01*
X165748978Y-90286996D01*
X165612416Y-90315277D01*
X165471658Y-90344426D01*
X165200657Y-90440393D01*
X164945188Y-90572250D01*
X164941687Y-90574711D01*
X164941683Y-90574713D01*
X164847809Y-90640689D01*
X164709977Y-90737559D01*
X164694892Y-90751577D01*
X164556596Y-90880090D01*
X164499378Y-90933260D01*
X164317287Y-91155732D01*
X164167073Y-91400858D01*
X164051517Y-91664102D01*
X163972756Y-91940594D01*
X163932249Y-92225216D01*
X163932227Y-92229505D01*
X163932226Y-92229512D01*
X163930765Y-92508417D01*
X163930743Y-92512703D01*
X111700000Y-92512703D01*
X111700000Y-89806695D01*
X192617251Y-89806695D01*
X192617548Y-89811848D01*
X192617548Y-89811851D01*
X192623011Y-89906590D01*
X192630110Y-90029715D01*
X192631247Y-90034761D01*
X192631248Y-90034767D01*
X192651119Y-90122939D01*
X192679222Y-90247639D01*
X192719346Y-90346453D01*
X192761103Y-90449288D01*
X192763266Y-90454616D01*
X192814019Y-90537438D01*
X192877291Y-90640688D01*
X192879987Y-90645088D01*
X193026250Y-90813938D01*
X193030230Y-90817242D01*
X193034981Y-90821187D01*
X193074616Y-90880090D01*
X193076113Y-90951071D01*
X193038997Y-91011593D01*
X192998725Y-91036112D01*
X192910095Y-91069338D01*
X192883295Y-91079385D01*
X192766739Y-91166739D01*
X192679385Y-91283295D01*
X192628255Y-91419684D01*
X192621500Y-91481866D01*
X192621500Y-93278134D01*
X192628255Y-93340316D01*
X192679385Y-93476705D01*
X192766739Y-93593261D01*
X192883295Y-93680615D01*
X193019684Y-93731745D01*
X193081866Y-93738500D01*
X194878134Y-93738500D01*
X194940316Y-93731745D01*
X195076705Y-93680615D01*
X195193261Y-93593261D01*
X195280615Y-93476705D01*
X195302799Y-93417529D01*
X195324598Y-93359382D01*
X195367240Y-93302618D01*
X195433802Y-93277918D01*
X195503150Y-93293126D01*
X195537817Y-93321114D01*
X195566250Y-93353938D01*
X195738126Y-93496632D01*
X195931000Y-93609338D01*
X196139692Y-93689030D01*
X196144760Y-93690061D01*
X196144763Y-93690062D01*
X196252017Y-93711883D01*
X196358597Y-93733567D01*
X196363772Y-93733757D01*
X196363774Y-93733757D01*
X196576673Y-93741564D01*
X196576677Y-93741564D01*
X196581837Y-93741753D01*
X196586957Y-93741097D01*
X196586959Y-93741097D01*
X196798288Y-93714025D01*
X196798289Y-93714025D01*
X196803416Y-93713368D01*
X196808366Y-93711883D01*
X197012429Y-93650661D01*
X197012434Y-93650659D01*
X197017384Y-93649174D01*
X197217994Y-93550896D01*
X197399860Y-93421173D01*
X197558096Y-93263489D01*
X197688453Y-93082077D01*
X197693979Y-93070897D01*
X197785136Y-92886453D01*
X197785137Y-92886451D01*
X197787430Y-92881811D01*
X197852370Y-92668069D01*
X197881529Y-92446590D01*
X197883156Y-92380000D01*
X197864852Y-92157361D01*
X197810431Y-91940702D01*
X197721354Y-91735840D01*
X197600014Y-91548277D01*
X197449670Y-91383051D01*
X197445619Y-91379852D01*
X197445615Y-91379848D01*
X197278414Y-91247800D01*
X197278410Y-91247798D01*
X197274359Y-91244598D01*
X197233053Y-91221796D01*
X197183084Y-91171364D01*
X197168312Y-91101921D01*
X197193428Y-91035516D01*
X197220780Y-91008909D01*
X197264603Y-90977650D01*
X197399860Y-90881173D01*
X197558096Y-90723489D01*
X197617594Y-90640689D01*
X197685435Y-90546277D01*
X197688453Y-90542077D01*
X197709320Y-90499857D01*
X197785136Y-90346453D01*
X197785137Y-90346451D01*
X197787430Y-90341811D01*
X197852370Y-90128069D01*
X197881529Y-89906590D01*
X197883156Y-89840000D01*
X197864852Y-89617361D01*
X197810431Y-89400702D01*
X197721354Y-89195840D01*
X197600014Y-89008277D01*
X197449670Y-88843051D01*
X197445619Y-88839852D01*
X197445615Y-88839848D01*
X197278414Y-88707800D01*
X197278410Y-88707798D01*
X197274359Y-88704598D01*
X197233053Y-88681796D01*
X197183084Y-88631364D01*
X197168312Y-88561921D01*
X197193428Y-88495516D01*
X197220780Y-88468909D01*
X197264603Y-88437650D01*
X197399860Y-88341173D01*
X197558096Y-88183489D01*
X197617594Y-88100689D01*
X197685435Y-88006277D01*
X197688453Y-88002077D01*
X197709320Y-87959857D01*
X197785136Y-87806453D01*
X197785137Y-87806451D01*
X197787430Y-87801811D01*
X197852370Y-87588069D01*
X197881529Y-87366590D01*
X197883156Y-87300000D01*
X197864852Y-87077361D01*
X197810431Y-86860702D01*
X197721354Y-86655840D01*
X197600014Y-86468277D01*
X197449670Y-86303051D01*
X197445619Y-86299852D01*
X197445615Y-86299848D01*
X197278414Y-86167800D01*
X197278410Y-86167798D01*
X197274359Y-86164598D01*
X197233053Y-86141796D01*
X197183084Y-86091364D01*
X197168312Y-86021921D01*
X197193428Y-85955516D01*
X197220780Y-85928909D01*
X197264603Y-85897650D01*
X197399860Y-85801173D01*
X197558096Y-85643489D01*
X197617594Y-85560689D01*
X197685435Y-85466277D01*
X197688453Y-85462077D01*
X197709320Y-85419857D01*
X197785136Y-85266453D01*
X197785137Y-85266451D01*
X197787430Y-85261811D01*
X197852370Y-85048069D01*
X197881529Y-84826590D01*
X197883156Y-84760000D01*
X197864852Y-84537361D01*
X197810431Y-84320702D01*
X197721354Y-84115840D01*
X197600014Y-83928277D01*
X197449670Y-83763051D01*
X197445619Y-83759852D01*
X197445615Y-83759848D01*
X197278414Y-83627800D01*
X197278410Y-83627798D01*
X197274359Y-83624598D01*
X197233053Y-83601796D01*
X197183084Y-83551364D01*
X197168312Y-83481921D01*
X197193428Y-83415516D01*
X197220780Y-83388909D01*
X197264603Y-83357650D01*
X197399860Y-83261173D01*
X197558096Y-83103489D01*
X197617594Y-83020689D01*
X197685435Y-82926277D01*
X197688453Y-82922077D01*
X197709320Y-82879857D01*
X197785136Y-82726453D01*
X197785137Y-82726451D01*
X197787430Y-82721811D01*
X197852370Y-82508069D01*
X197881529Y-82286590D01*
X197883156Y-82220000D01*
X197864852Y-81997361D01*
X197810431Y-81780702D01*
X197721354Y-81575840D01*
X197600014Y-81388277D01*
X197449670Y-81223051D01*
X197445619Y-81219852D01*
X197445615Y-81219848D01*
X197278414Y-81087800D01*
X197278410Y-81087798D01*
X197274359Y-81084598D01*
X197233053Y-81061796D01*
X197183084Y-81011364D01*
X197168312Y-80941921D01*
X197193428Y-80875516D01*
X197220780Y-80848909D01*
X197264603Y-80817650D01*
X197399860Y-80721173D01*
X197558096Y-80563489D01*
X197617594Y-80480689D01*
X197685435Y-80386277D01*
X197688453Y-80382077D01*
X197709320Y-80339857D01*
X197785136Y-80186453D01*
X197785137Y-80186451D01*
X197787430Y-80181811D01*
X197852370Y-79968069D01*
X197881529Y-79746590D01*
X197883156Y-79680000D01*
X197864852Y-79457361D01*
X197810431Y-79240702D01*
X197721354Y-79035840D01*
X197600014Y-78848277D01*
X197449670Y-78683051D01*
X197445619Y-78679852D01*
X197445615Y-78679848D01*
X197278414Y-78547800D01*
X197278410Y-78547798D01*
X197274359Y-78544598D01*
X197233053Y-78521796D01*
X197183084Y-78471364D01*
X197168312Y-78401921D01*
X197193428Y-78335516D01*
X197220780Y-78308909D01*
X197264603Y-78277650D01*
X197399860Y-78181173D01*
X197558096Y-78023489D01*
X197617594Y-77940689D01*
X197685435Y-77846277D01*
X197688453Y-77842077D01*
X197709320Y-77799857D01*
X197785136Y-77646453D01*
X197785137Y-77646451D01*
X197787430Y-77641811D01*
X197852370Y-77428069D01*
X197881529Y-77206590D01*
X197883156Y-77140000D01*
X197864852Y-76917361D01*
X197810431Y-76700702D01*
X197721354Y-76495840D01*
X197628109Y-76351705D01*
X197602822Y-76312617D01*
X197602820Y-76312614D01*
X197600014Y-76308277D01*
X197449670Y-76143051D01*
X197445619Y-76139852D01*
X197445615Y-76139848D01*
X197278414Y-76007800D01*
X197278410Y-76007798D01*
X197274359Y-76004598D01*
X197233053Y-75981796D01*
X197183084Y-75931364D01*
X197168312Y-75861921D01*
X197193428Y-75795516D01*
X197220780Y-75768909D01*
X197264603Y-75737650D01*
X197399860Y-75641173D01*
X197558096Y-75483489D01*
X197617594Y-75400689D01*
X197685435Y-75306277D01*
X197688453Y-75302077D01*
X197709320Y-75259857D01*
X197785136Y-75106453D01*
X197785137Y-75106451D01*
X197787430Y-75101811D01*
X197852370Y-74888069D01*
X197881529Y-74666590D01*
X197883156Y-74600000D01*
X197864852Y-74377361D01*
X197810431Y-74160702D01*
X197721354Y-73955840D01*
X197628109Y-73811705D01*
X197602822Y-73772617D01*
X197602820Y-73772614D01*
X197600014Y-73768277D01*
X197449670Y-73603051D01*
X197445619Y-73599852D01*
X197445615Y-73599848D01*
X197278414Y-73467800D01*
X197278410Y-73467798D01*
X197274359Y-73464598D01*
X197233053Y-73441796D01*
X197183084Y-73391364D01*
X197168312Y-73321921D01*
X197193428Y-73255516D01*
X197220780Y-73228909D01*
X197264603Y-73197650D01*
X197399860Y-73101173D01*
X197558096Y-72943489D01*
X197617594Y-72860689D01*
X197685435Y-72766277D01*
X197688453Y-72762077D01*
X197709320Y-72719857D01*
X197785136Y-72566453D01*
X197785137Y-72566451D01*
X197787430Y-72561811D01*
X197852370Y-72348069D01*
X197881529Y-72126590D01*
X197883156Y-72060000D01*
X197864852Y-71837361D01*
X197810431Y-71620702D01*
X197721354Y-71415840D01*
X197646583Y-71300261D01*
X197602822Y-71232617D01*
X197602820Y-71232614D01*
X197600014Y-71228277D01*
X197449670Y-71063051D01*
X197445619Y-71059852D01*
X197445615Y-71059848D01*
X197278414Y-70927800D01*
X197278410Y-70927798D01*
X197274359Y-70924598D01*
X197233053Y-70901796D01*
X197183084Y-70851364D01*
X197168312Y-70781921D01*
X197193428Y-70715516D01*
X197220780Y-70688909D01*
X197264603Y-70657650D01*
X197399860Y-70561173D01*
X197558096Y-70403489D01*
X197617594Y-70320689D01*
X197685435Y-70226277D01*
X197688453Y-70222077D01*
X197709320Y-70179857D01*
X197785136Y-70026453D01*
X197785137Y-70026451D01*
X197787430Y-70021811D01*
X197852370Y-69808069D01*
X197881529Y-69586590D01*
X197883156Y-69520000D01*
X197864852Y-69297361D01*
X197810431Y-69080702D01*
X197721354Y-68875840D01*
X197628109Y-68731705D01*
X197602822Y-68692617D01*
X197602820Y-68692614D01*
X197600014Y-68688277D01*
X197449670Y-68523051D01*
X197445619Y-68519852D01*
X197445615Y-68519848D01*
X197278414Y-68387800D01*
X197278410Y-68387798D01*
X197274359Y-68384598D01*
X197233053Y-68361796D01*
X197183084Y-68311364D01*
X197168312Y-68241921D01*
X197193428Y-68175516D01*
X197220780Y-68148909D01*
X197264603Y-68117650D01*
X197399860Y-68021173D01*
X197558096Y-67863489D01*
X197617594Y-67780689D01*
X197685435Y-67686277D01*
X197688453Y-67682077D01*
X197709320Y-67639857D01*
X197785136Y-67486453D01*
X197785137Y-67486451D01*
X197787430Y-67481811D01*
X197852370Y-67268069D01*
X197881529Y-67046590D01*
X197883156Y-66980000D01*
X197864852Y-66757361D01*
X197810431Y-66540702D01*
X197721354Y-66335840D01*
X197628109Y-66191705D01*
X197602822Y-66152617D01*
X197602820Y-66152614D01*
X197600014Y-66148277D01*
X197449670Y-65983051D01*
X197445619Y-65979852D01*
X197445615Y-65979848D01*
X197278414Y-65847800D01*
X197278410Y-65847798D01*
X197274359Y-65844598D01*
X197233053Y-65821796D01*
X197183084Y-65771364D01*
X197168312Y-65701921D01*
X197193428Y-65635516D01*
X197220780Y-65608909D01*
X197264603Y-65577650D01*
X197399860Y-65481173D01*
X197558096Y-65323489D01*
X197617594Y-65240689D01*
X197685435Y-65146277D01*
X197688453Y-65142077D01*
X197693979Y-65130897D01*
X197785136Y-64946453D01*
X197785137Y-64946451D01*
X197787430Y-64941811D01*
X197852370Y-64728069D01*
X197881529Y-64506590D01*
X197883156Y-64440000D01*
X197864852Y-64217361D01*
X197810431Y-64000702D01*
X197721354Y-63795840D01*
X197628109Y-63651705D01*
X197602822Y-63612617D01*
X197602820Y-63612614D01*
X197600014Y-63608277D01*
X197449670Y-63443051D01*
X197445619Y-63439852D01*
X197445615Y-63439848D01*
X197278414Y-63307800D01*
X197278410Y-63307798D01*
X197274359Y-63304598D01*
X197233053Y-63281796D01*
X197183084Y-63231364D01*
X197168312Y-63161921D01*
X197193428Y-63095516D01*
X197220780Y-63068909D01*
X197264603Y-63037650D01*
X197399860Y-62941173D01*
X197558096Y-62783489D01*
X197617594Y-62700689D01*
X197685435Y-62606277D01*
X197688453Y-62602077D01*
X197709320Y-62559857D01*
X197785136Y-62406453D01*
X197785137Y-62406451D01*
X197787430Y-62401811D01*
X197852370Y-62188069D01*
X197881529Y-61966590D01*
X197881611Y-61963240D01*
X197883074Y-61903365D01*
X197883074Y-61903361D01*
X197883156Y-61900000D01*
X197864852Y-61677361D01*
X197810431Y-61460702D01*
X197721354Y-61255840D01*
X197628109Y-61111705D01*
X197602822Y-61072617D01*
X197602820Y-61072614D01*
X197600014Y-61068277D01*
X197449670Y-60903051D01*
X197445619Y-60899852D01*
X197445615Y-60899848D01*
X197278414Y-60767800D01*
X197278410Y-60767798D01*
X197274359Y-60764598D01*
X197233053Y-60741796D01*
X197183084Y-60691364D01*
X197168312Y-60621921D01*
X197193428Y-60555516D01*
X197220780Y-60528909D01*
X197264603Y-60497650D01*
X197399860Y-60401173D01*
X197558096Y-60243489D01*
X197617594Y-60160689D01*
X197685435Y-60066277D01*
X197688453Y-60062077D01*
X197709320Y-60019857D01*
X197785136Y-59866453D01*
X197785137Y-59866451D01*
X197787430Y-59861811D01*
X197839159Y-59691552D01*
X197850865Y-59653023D01*
X197850865Y-59653021D01*
X197852370Y-59648069D01*
X197881529Y-59426590D01*
X197881765Y-59416928D01*
X197883074Y-59363365D01*
X197883074Y-59363361D01*
X197883156Y-59360000D01*
X197864852Y-59137361D01*
X197810431Y-58920702D01*
X197721354Y-58715840D01*
X197628109Y-58571705D01*
X197602822Y-58532617D01*
X197602820Y-58532614D01*
X197600014Y-58528277D01*
X197449670Y-58363051D01*
X197445619Y-58359852D01*
X197445615Y-58359848D01*
X197278414Y-58227800D01*
X197278410Y-58227798D01*
X197274359Y-58224598D01*
X197233053Y-58201796D01*
X197183084Y-58151364D01*
X197168312Y-58081921D01*
X197193428Y-58015516D01*
X197220780Y-57988909D01*
X197264603Y-57957650D01*
X197399860Y-57861173D01*
X197558096Y-57703489D01*
X197617594Y-57620689D01*
X197685435Y-57526277D01*
X197688453Y-57522077D01*
X197709320Y-57479857D01*
X197785136Y-57326453D01*
X197785137Y-57326451D01*
X197787430Y-57321811D01*
X197852370Y-57108069D01*
X197881529Y-56886590D01*
X197883156Y-56820000D01*
X197864852Y-56597361D01*
X197810431Y-56380702D01*
X197721354Y-56175840D01*
X197600014Y-55988277D01*
X197449670Y-55823051D01*
X197445619Y-55819852D01*
X197445615Y-55819848D01*
X197278414Y-55687800D01*
X197278410Y-55687798D01*
X197274359Y-55684598D01*
X197233053Y-55661796D01*
X197183084Y-55611364D01*
X197168312Y-55541921D01*
X197193428Y-55475516D01*
X197220780Y-55448909D01*
X197264603Y-55417650D01*
X197399860Y-55321173D01*
X197558096Y-55163489D01*
X197617594Y-55080689D01*
X197685435Y-54986277D01*
X197688453Y-54982077D01*
X197709320Y-54939857D01*
X197785136Y-54786453D01*
X197785137Y-54786451D01*
X197787430Y-54781811D01*
X197852370Y-54568069D01*
X197881529Y-54346590D01*
X197883156Y-54280000D01*
X197864852Y-54057361D01*
X197810431Y-53840702D01*
X197721354Y-53635840D01*
X197600014Y-53448277D01*
X197449670Y-53283051D01*
X197445619Y-53279852D01*
X197445615Y-53279848D01*
X197278414Y-53147800D01*
X197278410Y-53147798D01*
X197274359Y-53144598D01*
X197233053Y-53121796D01*
X197183084Y-53071364D01*
X197168312Y-53001921D01*
X197193428Y-52935516D01*
X197220780Y-52908909D01*
X197264603Y-52877650D01*
X197399860Y-52781173D01*
X197558096Y-52623489D01*
X197617594Y-52540689D01*
X197685435Y-52446277D01*
X197688453Y-52442077D01*
X197709320Y-52399857D01*
X197785136Y-52246453D01*
X197785137Y-52246451D01*
X197787430Y-52241811D01*
X197852370Y-52028069D01*
X197881529Y-51806590D01*
X197883156Y-51740000D01*
X197864852Y-51517361D01*
X197810431Y-51300702D01*
X197721354Y-51095840D01*
X197600014Y-50908277D01*
X197449670Y-50743051D01*
X197445619Y-50739852D01*
X197445615Y-50739848D01*
X197278414Y-50607800D01*
X197278410Y-50607798D01*
X197274359Y-50604598D01*
X197232569Y-50581529D01*
X197182598Y-50531097D01*
X197167826Y-50461654D01*
X197192942Y-50395248D01*
X197220294Y-50368641D01*
X197395328Y-50243792D01*
X197403200Y-50237139D01*
X197554052Y-50086812D01*
X197560730Y-50078965D01*
X197685003Y-49906020D01*
X197690313Y-49897183D01*
X197784670Y-49706267D01*
X197788469Y-49696672D01*
X197850377Y-49492910D01*
X197852555Y-49482837D01*
X197853986Y-49471962D01*
X197851775Y-49457778D01*
X197838617Y-49454000D01*
X192663225Y-49454000D01*
X192649694Y-49457973D01*
X192648257Y-49467966D01*
X192678565Y-49602446D01*
X192681645Y-49612275D01*
X192761770Y-49809603D01*
X192766413Y-49818794D01*
X192877694Y-50000388D01*
X192883777Y-50008699D01*
X193023213Y-50169667D01*
X193030580Y-50176883D01*
X193194434Y-50312916D01*
X193202881Y-50318831D01*
X193271969Y-50359203D01*
X193320693Y-50410842D01*
X193333764Y-50480625D01*
X193307033Y-50546396D01*
X193266584Y-50579752D01*
X193253607Y-50586507D01*
X193249474Y-50589610D01*
X193249471Y-50589612D01*
X193079100Y-50717530D01*
X193074965Y-50720635D01*
X192920629Y-50882138D01*
X192794743Y-51066680D01*
X192764336Y-51132187D01*
X192719160Y-51229511D01*
X192700688Y-51269305D01*
X192640989Y-51484570D01*
X192617251Y-51706695D01*
X192617548Y-51711848D01*
X192617548Y-51711851D01*
X192623011Y-51806590D01*
X192630110Y-51929715D01*
X192631247Y-51934761D01*
X192631248Y-51934767D01*
X192651119Y-52022939D01*
X192679222Y-52147639D01*
X192763266Y-52354616D01*
X192814019Y-52437438D01*
X192877291Y-52540688D01*
X192879987Y-52545088D01*
X193026250Y-52713938D01*
X193198126Y-52856632D01*
X193268595Y-52897811D01*
X193271445Y-52899476D01*
X193320169Y-52951114D01*
X193333240Y-53020897D01*
X193306509Y-53086669D01*
X193266055Y-53120027D01*
X193253607Y-53126507D01*
X193249474Y-53129610D01*
X193249471Y-53129612D01*
X193225247Y-53147800D01*
X193074965Y-53260635D01*
X192920629Y-53422138D01*
X192794743Y-53606680D01*
X192700688Y-53809305D01*
X192640989Y-54024570D01*
X192617251Y-54246695D01*
X192617548Y-54251848D01*
X192617548Y-54251851D01*
X192623011Y-54346590D01*
X192630110Y-54469715D01*
X192631247Y-54474761D01*
X192631248Y-54474767D01*
X192651119Y-54562939D01*
X192679222Y-54687639D01*
X192763266Y-54894616D01*
X192814019Y-54977438D01*
X192877291Y-55080688D01*
X192879987Y-55085088D01*
X193026250Y-55253938D01*
X193198126Y-55396632D01*
X193268595Y-55437811D01*
X193271445Y-55439476D01*
X193320169Y-55491114D01*
X193333240Y-55560897D01*
X193306509Y-55626669D01*
X193266055Y-55660027D01*
X193253607Y-55666507D01*
X193249474Y-55669610D01*
X193249471Y-55669612D01*
X193225247Y-55687800D01*
X193074965Y-55800635D01*
X192920629Y-55962138D01*
X192794743Y-56146680D01*
X192700688Y-56349305D01*
X192640989Y-56564570D01*
X192617251Y-56786695D01*
X192617548Y-56791848D01*
X192617548Y-56791851D01*
X192623011Y-56886590D01*
X192630110Y-57009715D01*
X192631247Y-57014761D01*
X192631248Y-57014767D01*
X192651119Y-57102939D01*
X192679222Y-57227639D01*
X192763266Y-57434616D01*
X192814019Y-57517438D01*
X192877291Y-57620688D01*
X192879987Y-57625088D01*
X193026250Y-57793938D01*
X193198126Y-57936632D01*
X193268595Y-57977811D01*
X193271445Y-57979476D01*
X193320169Y-58031114D01*
X193333240Y-58100897D01*
X193306509Y-58166669D01*
X193266055Y-58200027D01*
X193253607Y-58206507D01*
X193249474Y-58209610D01*
X193249471Y-58209612D01*
X193225247Y-58227800D01*
X193074965Y-58340635D01*
X192920629Y-58502138D01*
X192794743Y-58686680D01*
X192763467Y-58754059D01*
X192739671Y-58805324D01*
X192700688Y-58889305D01*
X192640989Y-59104570D01*
X192617251Y-59326695D01*
X192617548Y-59331848D01*
X192617548Y-59331851D01*
X192623011Y-59426590D01*
X192630110Y-59549715D01*
X192631247Y-59554761D01*
X192631248Y-59554767D01*
X192645480Y-59617917D01*
X192679222Y-59767639D01*
X192763266Y-59974616D01*
X192814019Y-60057438D01*
X192877291Y-60160688D01*
X192879987Y-60165088D01*
X193026250Y-60333938D01*
X193198126Y-60476632D01*
X193268595Y-60517811D01*
X193271445Y-60519476D01*
X193320169Y-60571114D01*
X193333240Y-60640897D01*
X193306509Y-60706669D01*
X193266055Y-60740027D01*
X193253607Y-60746507D01*
X193249474Y-60749610D01*
X193249471Y-60749612D01*
X193225247Y-60767800D01*
X193074965Y-60880635D01*
X192920629Y-61042138D01*
X192794743Y-61226680D01*
X192779003Y-61260590D01*
X192739671Y-61345324D01*
X192700688Y-61429305D01*
X192640989Y-61644570D01*
X192617251Y-61866695D01*
X192617548Y-61871848D01*
X192617548Y-61871851D01*
X192623011Y-61966590D01*
X192630110Y-62089715D01*
X192631247Y-62094761D01*
X192631248Y-62094767D01*
X192651119Y-62182939D01*
X192679222Y-62307639D01*
X192719346Y-62406453D01*
X192761103Y-62509288D01*
X192763266Y-62514616D01*
X192814019Y-62597438D01*
X192877291Y-62700688D01*
X192879987Y-62705088D01*
X193026250Y-62873938D01*
X193198126Y-63016632D01*
X193268595Y-63057811D01*
X193271445Y-63059476D01*
X193320169Y-63111114D01*
X193333240Y-63180897D01*
X193306509Y-63246669D01*
X193266055Y-63280027D01*
X193253607Y-63286507D01*
X193249474Y-63289610D01*
X193249471Y-63289612D01*
X193225247Y-63307800D01*
X193074965Y-63420635D01*
X192920629Y-63582138D01*
X192794743Y-63766680D01*
X192779003Y-63800590D01*
X192739671Y-63885324D01*
X192700688Y-63969305D01*
X192640989Y-64184570D01*
X192617251Y-64406695D01*
X192617548Y-64411848D01*
X192617548Y-64411851D01*
X192623011Y-64506590D01*
X192630110Y-64629715D01*
X192631247Y-64634761D01*
X192631248Y-64634767D01*
X192651119Y-64722939D01*
X192679222Y-64847639D01*
X192763266Y-65054616D01*
X192810011Y-65130897D01*
X192877291Y-65240688D01*
X192879987Y-65245088D01*
X193026250Y-65413938D01*
X193198126Y-65556632D01*
X193268595Y-65597811D01*
X193271445Y-65599476D01*
X193320169Y-65651114D01*
X193333240Y-65720897D01*
X193306509Y-65786669D01*
X193266055Y-65820027D01*
X193253607Y-65826507D01*
X193249474Y-65829610D01*
X193249471Y-65829612D01*
X193079100Y-65957530D01*
X193074965Y-65960635D01*
X192920629Y-66122138D01*
X192794743Y-66306680D01*
X192764336Y-66372187D01*
X192719160Y-66469511D01*
X192700688Y-66509305D01*
X192640989Y-66724570D01*
X192617251Y-66946695D01*
X192617548Y-66951848D01*
X192617548Y-66951851D01*
X192623011Y-67046590D01*
X192630110Y-67169715D01*
X192631247Y-67174761D01*
X192631248Y-67174767D01*
X192651119Y-67262939D01*
X192679222Y-67387639D01*
X192763266Y-67594616D01*
X192814019Y-67677438D01*
X192877291Y-67780688D01*
X192879987Y-67785088D01*
X193026250Y-67953938D01*
X193198126Y-68096632D01*
X193268595Y-68137811D01*
X193271445Y-68139476D01*
X193320169Y-68191114D01*
X193333240Y-68260897D01*
X193306509Y-68326669D01*
X193266055Y-68360027D01*
X193253607Y-68366507D01*
X193249474Y-68369610D01*
X193249471Y-68369612D01*
X193225247Y-68387800D01*
X193074965Y-68500635D01*
X192920629Y-68662138D01*
X192794743Y-68846680D01*
X192779003Y-68880590D01*
X192739671Y-68965324D01*
X192700688Y-69049305D01*
X192640989Y-69264570D01*
X192617251Y-69486695D01*
X192617548Y-69491848D01*
X192617548Y-69491851D01*
X192623011Y-69586590D01*
X192630110Y-69709715D01*
X192631247Y-69714761D01*
X192631248Y-69714767D01*
X192651119Y-69802939D01*
X192679222Y-69927639D01*
X192763266Y-70134616D01*
X192814019Y-70217438D01*
X192877291Y-70320688D01*
X192879987Y-70325088D01*
X193026250Y-70493938D01*
X193198126Y-70636632D01*
X193268595Y-70677811D01*
X193271445Y-70679476D01*
X193320169Y-70731114D01*
X193333240Y-70800897D01*
X193306509Y-70866669D01*
X193266055Y-70900027D01*
X193253607Y-70906507D01*
X193249474Y-70909610D01*
X193249471Y-70909612D01*
X193144361Y-70988531D01*
X193074965Y-71040635D01*
X192920629Y-71202138D01*
X192794743Y-71386680D01*
X192771877Y-71435941D01*
X192739671Y-71505324D01*
X192700688Y-71589305D01*
X192640989Y-71804570D01*
X192617251Y-72026695D01*
X192617548Y-72031848D01*
X192617548Y-72031851D01*
X192623011Y-72126590D01*
X192630110Y-72249715D01*
X192631247Y-72254761D01*
X192631248Y-72254767D01*
X192651119Y-72342939D01*
X192679222Y-72467639D01*
X192763266Y-72674616D01*
X192814019Y-72757438D01*
X192877291Y-72860688D01*
X192879987Y-72865088D01*
X193026250Y-73033938D01*
X193198126Y-73176632D01*
X193268595Y-73217811D01*
X193271445Y-73219476D01*
X193320169Y-73271114D01*
X193333240Y-73340897D01*
X193306509Y-73406669D01*
X193266055Y-73440027D01*
X193253607Y-73446507D01*
X193249474Y-73449610D01*
X193249471Y-73449612D01*
X193225247Y-73467800D01*
X193074965Y-73580635D01*
X192920629Y-73742138D01*
X192794743Y-73926680D01*
X192779003Y-73960590D01*
X192739671Y-74045324D01*
X192700688Y-74129305D01*
X192640989Y-74344570D01*
X192617251Y-74566695D01*
X192617548Y-74571848D01*
X192617548Y-74571851D01*
X192623011Y-74666590D01*
X192630110Y-74789715D01*
X192631247Y-74794761D01*
X192631248Y-74794767D01*
X192651119Y-74882939D01*
X192679222Y-75007639D01*
X192763266Y-75214616D01*
X192814019Y-75297438D01*
X192877291Y-75400688D01*
X192879987Y-75405088D01*
X193026250Y-75573938D01*
X193198126Y-75716632D01*
X193268595Y-75757811D01*
X193271445Y-75759476D01*
X193320169Y-75811114D01*
X193333240Y-75880897D01*
X193306509Y-75946669D01*
X193266055Y-75980027D01*
X193253607Y-75986507D01*
X193249474Y-75989610D01*
X193249471Y-75989612D01*
X193225247Y-76007800D01*
X193074965Y-76120635D01*
X192920629Y-76282138D01*
X192794743Y-76466680D01*
X192700688Y-76669305D01*
X192640989Y-76884570D01*
X192617251Y-77106695D01*
X192617548Y-77111848D01*
X192617548Y-77111851D01*
X192623011Y-77206590D01*
X192630110Y-77329715D01*
X192631247Y-77334761D01*
X192631248Y-77334767D01*
X192651119Y-77422939D01*
X192679222Y-77547639D01*
X192763266Y-77754616D01*
X192814019Y-77837438D01*
X192877291Y-77940688D01*
X192879987Y-77945088D01*
X193026250Y-78113938D01*
X193198126Y-78256632D01*
X193268595Y-78297811D01*
X193271445Y-78299476D01*
X193320169Y-78351114D01*
X193333240Y-78420897D01*
X193306509Y-78486669D01*
X193266055Y-78520027D01*
X193253607Y-78526507D01*
X193249474Y-78529610D01*
X193249471Y-78529612D01*
X193225247Y-78547800D01*
X193074965Y-78660635D01*
X192920629Y-78822138D01*
X192794743Y-79006680D01*
X192700688Y-79209305D01*
X192640989Y-79424570D01*
X192617251Y-79646695D01*
X192617548Y-79651848D01*
X192617548Y-79651851D01*
X192623011Y-79746590D01*
X192630110Y-79869715D01*
X192631247Y-79874761D01*
X192631248Y-79874767D01*
X192651119Y-79962939D01*
X192679222Y-80087639D01*
X192763266Y-80294616D01*
X192814019Y-80377438D01*
X192877291Y-80480688D01*
X192879987Y-80485088D01*
X193026250Y-80653938D01*
X193198126Y-80796632D01*
X193268595Y-80837811D01*
X193271445Y-80839476D01*
X193320169Y-80891114D01*
X193333240Y-80960897D01*
X193306509Y-81026669D01*
X193266055Y-81060027D01*
X193253607Y-81066507D01*
X193249474Y-81069610D01*
X193249471Y-81069612D01*
X193225247Y-81087800D01*
X193074965Y-81200635D01*
X192920629Y-81362138D01*
X192794743Y-81546680D01*
X192700688Y-81749305D01*
X192640989Y-81964570D01*
X192617251Y-82186695D01*
X192617548Y-82191848D01*
X192617548Y-82191851D01*
X192623011Y-82286590D01*
X192630110Y-82409715D01*
X192631247Y-82414761D01*
X192631248Y-82414767D01*
X192651119Y-82502939D01*
X192679222Y-82627639D01*
X192763266Y-82834616D01*
X192814019Y-82917438D01*
X192877291Y-83020688D01*
X192879987Y-83025088D01*
X193026250Y-83193938D01*
X193198126Y-83336632D01*
X193268595Y-83377811D01*
X193271445Y-83379476D01*
X193320169Y-83431114D01*
X193333240Y-83500897D01*
X193306509Y-83566669D01*
X193266055Y-83600027D01*
X193253607Y-83606507D01*
X193249474Y-83609610D01*
X193249471Y-83609612D01*
X193225247Y-83627800D01*
X193074965Y-83740635D01*
X192920629Y-83902138D01*
X192794743Y-84086680D01*
X192700688Y-84289305D01*
X192640989Y-84504570D01*
X192617251Y-84726695D01*
X192617548Y-84731848D01*
X192617548Y-84731851D01*
X192623011Y-84826590D01*
X192630110Y-84949715D01*
X192631247Y-84954761D01*
X192631248Y-84954767D01*
X192651119Y-85042939D01*
X192679222Y-85167639D01*
X192763266Y-85374616D01*
X192814019Y-85457438D01*
X192877291Y-85560688D01*
X192879987Y-85565088D01*
X193026250Y-85733938D01*
X193198126Y-85876632D01*
X193268595Y-85917811D01*
X193271445Y-85919476D01*
X193320169Y-85971114D01*
X193333240Y-86040897D01*
X193306509Y-86106669D01*
X193266055Y-86140027D01*
X193253607Y-86146507D01*
X193249474Y-86149610D01*
X193249471Y-86149612D01*
X193225247Y-86167800D01*
X193074965Y-86280635D01*
X192920629Y-86442138D01*
X192794743Y-86626680D01*
X192700688Y-86829305D01*
X192640989Y-87044570D01*
X192617251Y-87266695D01*
X192617548Y-87271848D01*
X192617548Y-87271851D01*
X192623011Y-87366590D01*
X192630110Y-87489715D01*
X192631247Y-87494761D01*
X192631248Y-87494767D01*
X192651119Y-87582939D01*
X192679222Y-87707639D01*
X192763266Y-87914616D01*
X192814019Y-87997438D01*
X192877291Y-88100688D01*
X192879987Y-88105088D01*
X193026250Y-88273938D01*
X193198126Y-88416632D01*
X193268595Y-88457811D01*
X193271445Y-88459476D01*
X193320169Y-88511114D01*
X193333240Y-88580897D01*
X193306509Y-88646669D01*
X193266055Y-88680027D01*
X193253607Y-88686507D01*
X193249474Y-88689610D01*
X193249471Y-88689612D01*
X193225247Y-88707800D01*
X193074965Y-88820635D01*
X192920629Y-88982138D01*
X192794743Y-89166680D01*
X192700688Y-89369305D01*
X192640989Y-89584570D01*
X192617251Y-89806695D01*
X111700000Y-89806695D01*
X111700000Y-76153134D01*
X134816500Y-76153134D01*
X134823255Y-76215316D01*
X134874385Y-76351705D01*
X134961739Y-76468261D01*
X135078295Y-76555615D01*
X135214684Y-76606745D01*
X135276866Y-76613500D01*
X137073134Y-76613500D01*
X137135316Y-76606745D01*
X137271705Y-76555615D01*
X137388261Y-76468261D01*
X137475615Y-76351705D01*
X137526745Y-76215316D01*
X137533500Y-76153134D01*
X157456500Y-76153134D01*
X157463255Y-76215316D01*
X157514385Y-76351705D01*
X157601739Y-76468261D01*
X157718295Y-76555615D01*
X157854684Y-76606745D01*
X157916866Y-76613500D01*
X159713134Y-76613500D01*
X159775316Y-76606745D01*
X159911705Y-76555615D01*
X160028261Y-76468261D01*
X160115615Y-76351705D01*
X160166745Y-76215316D01*
X160173500Y-76153134D01*
X160173500Y-74356866D01*
X160166745Y-74294684D01*
X160115615Y-74158295D01*
X160042370Y-74060564D01*
X160017522Y-73994059D01*
X160032575Y-73924676D01*
X160042370Y-73909435D01*
X160115615Y-73811705D01*
X160166745Y-73675316D01*
X160173500Y-73613134D01*
X160173500Y-71816866D01*
X160166745Y-71754684D01*
X160115615Y-71618295D01*
X160042370Y-71520564D01*
X160017522Y-71454059D01*
X160032575Y-71384676D01*
X160042370Y-71369435D01*
X160115615Y-71271705D01*
X160166745Y-71135316D01*
X160173500Y-71073134D01*
X160173500Y-69276866D01*
X160166745Y-69214684D01*
X160115615Y-69078295D01*
X160042370Y-68980564D01*
X160017522Y-68914059D01*
X160032575Y-68844676D01*
X160042370Y-68829435D01*
X160115615Y-68731705D01*
X160166745Y-68595316D01*
X160173500Y-68533134D01*
X160173500Y-66736866D01*
X160166745Y-66674684D01*
X160115615Y-66538295D01*
X160042370Y-66440564D01*
X160017522Y-66374059D01*
X160032575Y-66304676D01*
X160042370Y-66289435D01*
X160115615Y-66191705D01*
X160166745Y-66055316D01*
X160173500Y-65993134D01*
X160173500Y-64572703D01*
X163930743Y-64572703D01*
X163968268Y-64857734D01*
X164044129Y-65135036D01*
X164045813Y-65138984D01*
X164126068Y-65327137D01*
X164156923Y-65399476D01*
X164167555Y-65417240D01*
X164276621Y-65599476D01*
X164304561Y-65646161D01*
X164484313Y-65870528D01*
X164501397Y-65886740D01*
X164670761Y-66047460D01*
X164692851Y-66068423D01*
X164926317Y-66236186D01*
X164930112Y-66238195D01*
X164930113Y-66238196D01*
X164951869Y-66249715D01*
X165180392Y-66370712D01*
X165450373Y-66469511D01*
X165731264Y-66530755D01*
X165759841Y-66533004D01*
X165954282Y-66548307D01*
X165954291Y-66548307D01*
X165956739Y-66548500D01*
X166112271Y-66548500D01*
X166114407Y-66548354D01*
X166114418Y-66548354D01*
X166322548Y-66534165D01*
X166322554Y-66534164D01*
X166326825Y-66533873D01*
X166331020Y-66533004D01*
X166331022Y-66533004D01*
X166468132Y-66504610D01*
X166608342Y-66475574D01*
X166879343Y-66379607D01*
X167134812Y-66247750D01*
X167138313Y-66245289D01*
X167138317Y-66245287D01*
X167318857Y-66118401D01*
X167370023Y-66082441D01*
X167469806Y-65989717D01*
X167577479Y-65889661D01*
X167577481Y-65889658D01*
X167580622Y-65886740D01*
X167762713Y-65664268D01*
X167912927Y-65419142D01*
X167916927Y-65410031D01*
X168026757Y-65159830D01*
X168028483Y-65155898D01*
X168033742Y-65137438D01*
X168106068Y-64883534D01*
X168107244Y-64879406D01*
X168147751Y-64594784D01*
X168147845Y-64576951D01*
X168149235Y-64311583D01*
X168149235Y-64311576D01*
X168149257Y-64307297D01*
X168134719Y-64196866D01*
X168112292Y-64026522D01*
X168111732Y-64022266D01*
X168107475Y-64006703D01*
X168073288Y-63881739D01*
X168035871Y-63744964D01*
X168025295Y-63720170D01*
X167924763Y-63484476D01*
X167924761Y-63484472D01*
X167923077Y-63480524D01*
X167819704Y-63307800D01*
X167777643Y-63237521D01*
X167777640Y-63237517D01*
X167775439Y-63233839D01*
X167595687Y-63009472D01*
X167387149Y-62811577D01*
X167153683Y-62643814D01*
X167131843Y-62632250D01*
X167076652Y-62603028D01*
X166899608Y-62509288D01*
X166629627Y-62410489D01*
X166348736Y-62349245D01*
X166317685Y-62346801D01*
X166125718Y-62331693D01*
X166125709Y-62331693D01*
X166123261Y-62331500D01*
X165967729Y-62331500D01*
X165965593Y-62331646D01*
X165965582Y-62331646D01*
X165757452Y-62345835D01*
X165757446Y-62345836D01*
X165753175Y-62346127D01*
X165748980Y-62346996D01*
X165748978Y-62346996D01*
X165731498Y-62350616D01*
X165471658Y-62404426D01*
X165200657Y-62500393D01*
X164945188Y-62632250D01*
X164941687Y-62634711D01*
X164941683Y-62634713D01*
X164847809Y-62700689D01*
X164709977Y-62797559D01*
X164694892Y-62811577D01*
X164559352Y-62937529D01*
X164499378Y-62993260D01*
X164317287Y-63215732D01*
X164167073Y-63460858D01*
X164051517Y-63724102D01*
X164050342Y-63728229D01*
X164050341Y-63728230D01*
X164047097Y-63739618D01*
X163972756Y-64000594D01*
X163932249Y-64285216D01*
X163932227Y-64289505D01*
X163932226Y-64289512D01*
X163930765Y-64568417D01*
X163930743Y-64572703D01*
X160173500Y-64572703D01*
X160173500Y-64196866D01*
X160166745Y-64134684D01*
X160115615Y-63998295D01*
X160042370Y-63900564D01*
X160017522Y-63834059D01*
X160032575Y-63764676D01*
X160042370Y-63749435D01*
X160048680Y-63741016D01*
X160115615Y-63651705D01*
X160166745Y-63515316D01*
X160173500Y-63453134D01*
X160173500Y-61656866D01*
X160166745Y-61594684D01*
X160115615Y-61458295D01*
X160042370Y-61360564D01*
X160017522Y-61294059D01*
X160032575Y-61224676D01*
X160042370Y-61209435D01*
X160115615Y-61111705D01*
X160166745Y-60975316D01*
X160173500Y-60913134D01*
X160173500Y-59116866D01*
X160166745Y-59054684D01*
X160115615Y-58918295D01*
X160042370Y-58820564D01*
X160017522Y-58754059D01*
X160032575Y-58684676D01*
X160042370Y-58669435D01*
X160047002Y-58663255D01*
X160115615Y-58571705D01*
X160166745Y-58435316D01*
X160173500Y-58373134D01*
X160173500Y-56576866D01*
X160166745Y-56514684D01*
X160115615Y-56378295D01*
X160028261Y-56261739D01*
X159911705Y-56174385D01*
X159775316Y-56123255D01*
X159713134Y-56116500D01*
X157916866Y-56116500D01*
X157854684Y-56123255D01*
X157718295Y-56174385D01*
X157601739Y-56261739D01*
X157514385Y-56378295D01*
X157463255Y-56514684D01*
X157456500Y-56576866D01*
X157456500Y-58373134D01*
X157463255Y-58435316D01*
X157514385Y-58571705D01*
X157582998Y-58663255D01*
X157587630Y-58669435D01*
X157612478Y-58735941D01*
X157597425Y-58805324D01*
X157587632Y-58820562D01*
X157514385Y-58918295D01*
X157463255Y-59054684D01*
X157456500Y-59116866D01*
X157456500Y-60913134D01*
X157463255Y-60975316D01*
X157514385Y-61111705D01*
X157587630Y-61209435D01*
X157612478Y-61275941D01*
X157597425Y-61345324D01*
X157587632Y-61360562D01*
X157514385Y-61458295D01*
X157463255Y-61594684D01*
X157456500Y-61656866D01*
X157456500Y-63453134D01*
X157463255Y-63515316D01*
X157514385Y-63651705D01*
X157581320Y-63741016D01*
X157587630Y-63749435D01*
X157612478Y-63815941D01*
X157597425Y-63885324D01*
X157587632Y-63900562D01*
X157514385Y-63998295D01*
X157463255Y-64134684D01*
X157456500Y-64196866D01*
X157456500Y-65993134D01*
X157463255Y-66055316D01*
X157514385Y-66191705D01*
X157587630Y-66289435D01*
X157612478Y-66355941D01*
X157597425Y-66425324D01*
X157587632Y-66440562D01*
X157514385Y-66538295D01*
X157463255Y-66674684D01*
X157456500Y-66736866D01*
X157456500Y-68533134D01*
X157463255Y-68595316D01*
X157514385Y-68731705D01*
X157587630Y-68829435D01*
X157612478Y-68895941D01*
X157597425Y-68965324D01*
X157587632Y-68980562D01*
X157514385Y-69078295D01*
X157463255Y-69214684D01*
X157456500Y-69276866D01*
X157456500Y-71073134D01*
X157463255Y-71135316D01*
X157514385Y-71271705D01*
X157587630Y-71369435D01*
X157612478Y-71435941D01*
X157597425Y-71505324D01*
X157587632Y-71520562D01*
X157514385Y-71618295D01*
X157463255Y-71754684D01*
X157456500Y-71816866D01*
X157456500Y-73613134D01*
X157463255Y-73675316D01*
X157514385Y-73811705D01*
X157587630Y-73909435D01*
X157612478Y-73975941D01*
X157597425Y-74045324D01*
X157587632Y-74060562D01*
X157514385Y-74158295D01*
X157463255Y-74294684D01*
X157456500Y-74356866D01*
X157456500Y-76153134D01*
X137533500Y-76153134D01*
X137533500Y-74356866D01*
X137526745Y-74294684D01*
X137475615Y-74158295D01*
X137402370Y-74060564D01*
X137377522Y-73994059D01*
X137392575Y-73924676D01*
X137402370Y-73909435D01*
X137475615Y-73811705D01*
X137526745Y-73675316D01*
X137533500Y-73613134D01*
X137533500Y-71816866D01*
X137526745Y-71754684D01*
X137475615Y-71618295D01*
X137388261Y-71501739D01*
X137336047Y-71462606D01*
X137293533Y-71405747D01*
X137288508Y-71334929D01*
X137310787Y-71286216D01*
X137316277Y-71278891D01*
X137387615Y-71183705D01*
X137438745Y-71047316D01*
X137445500Y-70985134D01*
X137445500Y-69364866D01*
X137438745Y-69302684D01*
X137387615Y-69166295D01*
X137310787Y-69063784D01*
X137285939Y-68997278D01*
X137300992Y-68927895D01*
X137336047Y-68887393D01*
X137388261Y-68848261D01*
X137475615Y-68731705D01*
X137526745Y-68595316D01*
X137533500Y-68533134D01*
X137533500Y-66736866D01*
X137526745Y-66674684D01*
X137475615Y-66538295D01*
X137402370Y-66440564D01*
X137377522Y-66374059D01*
X137392575Y-66304676D01*
X137402370Y-66289435D01*
X137475615Y-66191705D01*
X137526745Y-66055316D01*
X137533500Y-65993134D01*
X137533500Y-64196866D01*
X137526745Y-64134684D01*
X137475615Y-63998295D01*
X137402370Y-63900564D01*
X137377522Y-63834059D01*
X137392575Y-63764676D01*
X137402370Y-63749435D01*
X137408680Y-63741016D01*
X137475615Y-63651705D01*
X137526745Y-63515316D01*
X137533500Y-63453134D01*
X137533500Y-61656866D01*
X137526745Y-61594684D01*
X137475615Y-61458295D01*
X137402370Y-61360564D01*
X137377522Y-61294059D01*
X137392575Y-61224676D01*
X137402370Y-61209435D01*
X137475615Y-61111705D01*
X137526745Y-60975316D01*
X137533500Y-60913134D01*
X137533500Y-59116866D01*
X137526745Y-59054684D01*
X137475615Y-58918295D01*
X137425422Y-58851323D01*
X137402058Y-58820148D01*
X137377210Y-58753642D01*
X137392263Y-58684259D01*
X137402058Y-58669018D01*
X137469786Y-58578649D01*
X137478324Y-58563054D01*
X137523478Y-58442606D01*
X137527105Y-58427351D01*
X137532631Y-58376486D01*
X137533000Y-58369672D01*
X137533000Y-57747115D01*
X137528525Y-57731876D01*
X137527135Y-57730671D01*
X137519452Y-57729000D01*
X134835116Y-57729000D01*
X134819877Y-57733475D01*
X134818672Y-57734865D01*
X134817001Y-57742548D01*
X134817001Y-58369669D01*
X134817371Y-58376490D01*
X134822895Y-58427352D01*
X134826521Y-58442604D01*
X134871676Y-58563054D01*
X134880214Y-58578649D01*
X134947942Y-58669018D01*
X134972790Y-58735525D01*
X134957737Y-58804907D01*
X134947942Y-58820148D01*
X134924578Y-58851323D01*
X134874385Y-58918295D01*
X134823255Y-59054684D01*
X134816500Y-59116866D01*
X134816500Y-60913134D01*
X134823255Y-60975316D01*
X134874385Y-61111705D01*
X134947630Y-61209435D01*
X134972478Y-61275941D01*
X134957425Y-61345324D01*
X134947632Y-61360562D01*
X134874385Y-61458295D01*
X134823255Y-61594684D01*
X134816500Y-61656866D01*
X134816500Y-63453134D01*
X134823255Y-63515316D01*
X134874385Y-63651705D01*
X134941320Y-63741016D01*
X134947630Y-63749435D01*
X134972478Y-63815941D01*
X134957425Y-63885324D01*
X134947632Y-63900562D01*
X134874385Y-63998295D01*
X134823255Y-64134684D01*
X134816500Y-64196866D01*
X134816500Y-65993134D01*
X134823255Y-66055316D01*
X134874385Y-66191705D01*
X134947630Y-66289435D01*
X134972478Y-66355941D01*
X134957425Y-66425324D01*
X134947632Y-66440562D01*
X134874385Y-66538295D01*
X134823255Y-66674684D01*
X134816500Y-66736866D01*
X134816500Y-68533134D01*
X134823255Y-68595316D01*
X134874385Y-68731705D01*
X134961739Y-68848261D01*
X135013953Y-68887393D01*
X135056467Y-68944253D01*
X135061492Y-69015071D01*
X135039213Y-69063783D01*
X134962385Y-69166295D01*
X134911255Y-69302684D01*
X134904500Y-69364866D01*
X134904500Y-70985134D01*
X134911255Y-71047316D01*
X134962385Y-71183705D01*
X135033723Y-71278891D01*
X135039213Y-71286216D01*
X135064061Y-71352722D01*
X135049008Y-71422105D01*
X135013954Y-71462606D01*
X134961739Y-71501739D01*
X134874385Y-71618295D01*
X134823255Y-71754684D01*
X134816500Y-71816866D01*
X134816500Y-73613134D01*
X134823255Y-73675316D01*
X134874385Y-73811705D01*
X134947630Y-73909435D01*
X134972478Y-73975941D01*
X134957425Y-74045324D01*
X134947632Y-74060562D01*
X134874385Y-74158295D01*
X134823255Y-74294684D01*
X134816500Y-74356866D01*
X134816500Y-76153134D01*
X111700000Y-76153134D01*
X111700000Y-57202885D01*
X134817000Y-57202885D01*
X134821475Y-57218124D01*
X134822865Y-57219329D01*
X134830548Y-57221000D01*
X135902885Y-57221000D01*
X135918124Y-57216525D01*
X135919329Y-57215135D01*
X135921000Y-57207452D01*
X135921000Y-57202885D01*
X136429000Y-57202885D01*
X136433475Y-57218124D01*
X136434865Y-57219329D01*
X136442548Y-57221000D01*
X137514884Y-57221000D01*
X137530123Y-57216525D01*
X137531328Y-57215135D01*
X137532999Y-57207452D01*
X137532999Y-56580331D01*
X137532629Y-56573510D01*
X137527105Y-56522648D01*
X137523479Y-56507396D01*
X137478324Y-56386946D01*
X137469786Y-56371351D01*
X137393285Y-56269276D01*
X137380724Y-56256715D01*
X137278649Y-56180214D01*
X137263054Y-56171676D01*
X137142606Y-56126522D01*
X137127351Y-56122895D01*
X137076486Y-56117369D01*
X137069672Y-56117000D01*
X136447115Y-56117000D01*
X136431876Y-56121475D01*
X136430671Y-56122865D01*
X136429000Y-56130548D01*
X136429000Y-57202885D01*
X135921000Y-57202885D01*
X135921000Y-56135116D01*
X135916525Y-56119877D01*
X135915135Y-56118672D01*
X135907452Y-56117001D01*
X135280331Y-56117001D01*
X135273510Y-56117371D01*
X135222648Y-56122895D01*
X135207396Y-56126521D01*
X135086946Y-56171676D01*
X135071351Y-56180214D01*
X134969276Y-56256715D01*
X134956715Y-56269276D01*
X134880214Y-56371351D01*
X134871676Y-56386946D01*
X134826522Y-56507394D01*
X134822895Y-56522649D01*
X134817369Y-56573514D01*
X134817000Y-56580328D01*
X134817000Y-57202885D01*
X111700000Y-57202885D01*
X111700000Y-49332703D01*
X113130743Y-49332703D01*
X113168268Y-49617734D01*
X113244129Y-49895036D01*
X113245813Y-49898984D01*
X113341202Y-50122618D01*
X113356923Y-50159476D01*
X113403637Y-50237529D01*
X113498030Y-50395248D01*
X113504561Y-50406161D01*
X113684313Y-50630528D01*
X113892851Y-50828423D01*
X114126317Y-50996186D01*
X114130112Y-50998195D01*
X114130113Y-50998196D01*
X114151869Y-51009715D01*
X114380392Y-51130712D01*
X114650373Y-51229511D01*
X114931264Y-51290755D01*
X114959841Y-51293004D01*
X115154282Y-51308307D01*
X115154291Y-51308307D01*
X115156739Y-51308500D01*
X115312271Y-51308500D01*
X115314407Y-51308354D01*
X115314418Y-51308354D01*
X115522548Y-51294165D01*
X115522554Y-51294164D01*
X115526825Y-51293873D01*
X115531020Y-51293004D01*
X115531022Y-51293004D01*
X115668132Y-51264610D01*
X115808342Y-51235574D01*
X116079343Y-51139607D01*
X116334812Y-51007750D01*
X116338313Y-51005289D01*
X116338317Y-51005287D01*
X116518857Y-50878401D01*
X116570023Y-50842441D01*
X116648403Y-50769606D01*
X116777479Y-50649661D01*
X116777481Y-50649658D01*
X116780622Y-50646740D01*
X116962713Y-50424268D01*
X117112927Y-50179142D01*
X117116927Y-50170031D01*
X117226757Y-49919830D01*
X117228483Y-49915898D01*
X117233742Y-49897438D01*
X117306068Y-49643534D01*
X117307244Y-49639406D01*
X117347751Y-49354784D01*
X117347845Y-49336951D01*
X117348737Y-49166695D01*
X122513251Y-49166695D01*
X122513548Y-49171848D01*
X122513548Y-49171851D01*
X122519011Y-49266590D01*
X122526110Y-49389715D01*
X122527247Y-49394761D01*
X122527248Y-49394767D01*
X122540597Y-49454000D01*
X122575222Y-49607639D01*
X122659266Y-49814616D01*
X122706011Y-49890897D01*
X122773291Y-50000688D01*
X122775987Y-50005088D01*
X122922250Y-50173938D01*
X123094126Y-50316632D01*
X123287000Y-50429338D01*
X123495692Y-50509030D01*
X123500760Y-50510061D01*
X123500763Y-50510062D01*
X123604154Y-50531097D01*
X123714597Y-50553567D01*
X123719772Y-50553757D01*
X123719774Y-50553757D01*
X123932673Y-50561564D01*
X123932677Y-50561564D01*
X123937837Y-50561753D01*
X123942957Y-50561097D01*
X123942959Y-50561097D01*
X124154288Y-50534025D01*
X124154289Y-50534025D01*
X124159416Y-50533368D01*
X124166986Y-50531097D01*
X124368429Y-50470661D01*
X124368434Y-50470659D01*
X124373384Y-50469174D01*
X124573994Y-50370896D01*
X124755860Y-50241173D01*
X124914096Y-50083489D01*
X124973594Y-50000689D01*
X125044453Y-49902077D01*
X125045776Y-49903028D01*
X125092645Y-49859857D01*
X125162580Y-49847625D01*
X125228026Y-49875144D01*
X125255875Y-49906994D01*
X125315987Y-50005088D01*
X125462250Y-50173938D01*
X125634126Y-50316632D01*
X125827000Y-50429338D01*
X126035692Y-50509030D01*
X126040760Y-50510061D01*
X126040763Y-50510062D01*
X126144154Y-50531097D01*
X126254597Y-50553567D01*
X126259772Y-50553757D01*
X126259774Y-50553757D01*
X126472673Y-50561564D01*
X126472677Y-50561564D01*
X126477837Y-50561753D01*
X126482957Y-50561097D01*
X126482959Y-50561097D01*
X126694288Y-50534025D01*
X126694289Y-50534025D01*
X126699416Y-50533368D01*
X126706986Y-50531097D01*
X126908429Y-50470661D01*
X126908434Y-50470659D01*
X126913384Y-50469174D01*
X127113994Y-50370896D01*
X127295860Y-50241173D01*
X127454096Y-50083489D01*
X127513594Y-50000689D01*
X127584453Y-49902077D01*
X127585776Y-49903028D01*
X127632645Y-49859857D01*
X127702580Y-49847625D01*
X127768026Y-49875144D01*
X127795875Y-49906994D01*
X127855987Y-50005088D01*
X128002250Y-50173938D01*
X128174126Y-50316632D01*
X128367000Y-50429338D01*
X128575692Y-50509030D01*
X128580760Y-50510061D01*
X128580763Y-50510062D01*
X128684154Y-50531097D01*
X128794597Y-50553567D01*
X128799772Y-50553757D01*
X128799774Y-50553757D01*
X129012673Y-50561564D01*
X129012677Y-50561564D01*
X129017837Y-50561753D01*
X129022957Y-50561097D01*
X129022959Y-50561097D01*
X129234288Y-50534025D01*
X129234289Y-50534025D01*
X129239416Y-50533368D01*
X129246986Y-50531097D01*
X129448429Y-50470661D01*
X129448434Y-50470659D01*
X129453384Y-50469174D01*
X129653994Y-50370896D01*
X129835860Y-50241173D01*
X129994096Y-50083489D01*
X130053594Y-50000689D01*
X130124453Y-49902077D01*
X130125776Y-49903028D01*
X130172645Y-49859857D01*
X130242580Y-49847625D01*
X130308026Y-49875144D01*
X130335875Y-49906994D01*
X130395987Y-50005088D01*
X130542250Y-50173938D01*
X130714126Y-50316632D01*
X130907000Y-50429338D01*
X131115692Y-50509030D01*
X131120760Y-50510061D01*
X131120763Y-50510062D01*
X131224154Y-50531097D01*
X131334597Y-50553567D01*
X131339772Y-50553757D01*
X131339774Y-50553757D01*
X131552673Y-50561564D01*
X131552677Y-50561564D01*
X131557837Y-50561753D01*
X131562957Y-50561097D01*
X131562959Y-50561097D01*
X131774288Y-50534025D01*
X131774289Y-50534025D01*
X131779416Y-50533368D01*
X131786986Y-50531097D01*
X131988429Y-50470661D01*
X131988434Y-50470659D01*
X131993384Y-50469174D01*
X132193994Y-50370896D01*
X132375860Y-50241173D01*
X132534096Y-50083489D01*
X132593594Y-50000689D01*
X132664453Y-49902077D01*
X132665776Y-49903028D01*
X132712645Y-49859857D01*
X132782580Y-49847625D01*
X132848026Y-49875144D01*
X132875875Y-49906994D01*
X132935987Y-50005088D01*
X133082250Y-50173938D01*
X133254126Y-50316632D01*
X133447000Y-50429338D01*
X133655692Y-50509030D01*
X133660760Y-50510061D01*
X133660763Y-50510062D01*
X133764154Y-50531097D01*
X133874597Y-50553567D01*
X133879772Y-50553757D01*
X133879774Y-50553757D01*
X134092673Y-50561564D01*
X134092677Y-50561564D01*
X134097837Y-50561753D01*
X134102957Y-50561097D01*
X134102959Y-50561097D01*
X134314288Y-50534025D01*
X134314289Y-50534025D01*
X134319416Y-50533368D01*
X134326986Y-50531097D01*
X134528429Y-50470661D01*
X134528434Y-50470659D01*
X134533384Y-50469174D01*
X134733994Y-50370896D01*
X134915860Y-50241173D01*
X135074096Y-50083489D01*
X135133594Y-50000689D01*
X135204453Y-49902077D01*
X135205776Y-49903028D01*
X135252645Y-49859857D01*
X135322580Y-49847625D01*
X135388026Y-49875144D01*
X135415875Y-49906994D01*
X135475987Y-50005088D01*
X135622250Y-50173938D01*
X135794126Y-50316632D01*
X135987000Y-50429338D01*
X136195692Y-50509030D01*
X136200760Y-50510061D01*
X136200763Y-50510062D01*
X136304154Y-50531097D01*
X136414597Y-50553567D01*
X136419772Y-50553757D01*
X136419774Y-50553757D01*
X136632673Y-50561564D01*
X136632677Y-50561564D01*
X136637837Y-50561753D01*
X136642957Y-50561097D01*
X136642959Y-50561097D01*
X136854288Y-50534025D01*
X136854289Y-50534025D01*
X136859416Y-50533368D01*
X136866986Y-50531097D01*
X137068429Y-50470661D01*
X137068434Y-50470659D01*
X137073384Y-50469174D01*
X137273994Y-50370896D01*
X137455860Y-50241173D01*
X137614096Y-50083489D01*
X137673594Y-50000689D01*
X137744453Y-49902077D01*
X137745776Y-49903028D01*
X137792645Y-49859857D01*
X137862580Y-49847625D01*
X137928026Y-49875144D01*
X137955875Y-49906994D01*
X138015987Y-50005088D01*
X138162250Y-50173938D01*
X138334126Y-50316632D01*
X138527000Y-50429338D01*
X138735692Y-50509030D01*
X138740760Y-50510061D01*
X138740763Y-50510062D01*
X138844154Y-50531097D01*
X138954597Y-50553567D01*
X138959772Y-50553757D01*
X138959774Y-50553757D01*
X139172673Y-50561564D01*
X139172677Y-50561564D01*
X139177837Y-50561753D01*
X139182957Y-50561097D01*
X139182959Y-50561097D01*
X139394288Y-50534025D01*
X139394289Y-50534025D01*
X139399416Y-50533368D01*
X139406986Y-50531097D01*
X139608429Y-50470661D01*
X139608434Y-50470659D01*
X139613384Y-50469174D01*
X139813994Y-50370896D01*
X139995860Y-50241173D01*
X140154096Y-50083489D01*
X140213594Y-50000689D01*
X140284453Y-49902077D01*
X140285776Y-49903028D01*
X140332645Y-49859857D01*
X140402580Y-49847625D01*
X140468026Y-49875144D01*
X140495875Y-49906994D01*
X140555987Y-50005088D01*
X140702250Y-50173938D01*
X140874126Y-50316632D01*
X141067000Y-50429338D01*
X141275692Y-50509030D01*
X141280760Y-50510061D01*
X141280763Y-50510062D01*
X141384154Y-50531097D01*
X141494597Y-50553567D01*
X141499772Y-50553757D01*
X141499774Y-50553757D01*
X141712673Y-50561564D01*
X141712677Y-50561564D01*
X141717837Y-50561753D01*
X141722957Y-50561097D01*
X141722959Y-50561097D01*
X141934288Y-50534025D01*
X141934289Y-50534025D01*
X141939416Y-50533368D01*
X141946986Y-50531097D01*
X142148429Y-50470661D01*
X142148434Y-50470659D01*
X142153384Y-50469174D01*
X142353994Y-50370896D01*
X142535860Y-50241173D01*
X142679400Y-50098134D01*
X144361500Y-50098134D01*
X144368255Y-50160316D01*
X144419385Y-50296705D01*
X144506739Y-50413261D01*
X144623295Y-50500615D01*
X144759684Y-50551745D01*
X144821866Y-50558500D01*
X146618134Y-50558500D01*
X146680316Y-50551745D01*
X146816705Y-50500615D01*
X146933261Y-50413261D01*
X147020615Y-50296705D01*
X147042799Y-50237529D01*
X147064598Y-50179382D01*
X147107240Y-50122618D01*
X147173802Y-50097918D01*
X147243150Y-50113126D01*
X147277817Y-50141114D01*
X147306250Y-50173938D01*
X147478126Y-50316632D01*
X147671000Y-50429338D01*
X147879692Y-50509030D01*
X147884760Y-50510061D01*
X147884763Y-50510062D01*
X147988154Y-50531097D01*
X148098597Y-50553567D01*
X148103772Y-50553757D01*
X148103774Y-50553757D01*
X148316673Y-50561564D01*
X148316677Y-50561564D01*
X148321837Y-50561753D01*
X148326957Y-50561097D01*
X148326959Y-50561097D01*
X148538288Y-50534025D01*
X148538289Y-50534025D01*
X148543416Y-50533368D01*
X148550986Y-50531097D01*
X148752429Y-50470661D01*
X148752434Y-50470659D01*
X148757384Y-50469174D01*
X148957994Y-50370896D01*
X149139860Y-50241173D01*
X149298096Y-50083489D01*
X149357594Y-50000689D01*
X149428453Y-49902077D01*
X149429776Y-49903028D01*
X149476645Y-49859857D01*
X149546580Y-49847625D01*
X149612026Y-49875144D01*
X149639875Y-49906994D01*
X149699987Y-50005088D01*
X149846250Y-50173938D01*
X150018126Y-50316632D01*
X150211000Y-50429338D01*
X150419692Y-50509030D01*
X150424760Y-50510061D01*
X150424763Y-50510062D01*
X150528154Y-50531097D01*
X150638597Y-50553567D01*
X150643772Y-50553757D01*
X150643774Y-50553757D01*
X150856673Y-50561564D01*
X150856677Y-50561564D01*
X150861837Y-50561753D01*
X150866957Y-50561097D01*
X150866959Y-50561097D01*
X151078288Y-50534025D01*
X151078289Y-50534025D01*
X151083416Y-50533368D01*
X151090986Y-50531097D01*
X151292429Y-50470661D01*
X151292434Y-50470659D01*
X151297384Y-50469174D01*
X151497994Y-50370896D01*
X151679860Y-50241173D01*
X151838096Y-50083489D01*
X151897594Y-50000689D01*
X151968453Y-49902077D01*
X151969776Y-49903028D01*
X152016645Y-49859857D01*
X152086580Y-49847625D01*
X152152026Y-49875144D01*
X152179875Y-49906994D01*
X152239987Y-50005088D01*
X152386250Y-50173938D01*
X152558126Y-50316632D01*
X152751000Y-50429338D01*
X152959692Y-50509030D01*
X152964760Y-50510061D01*
X152964763Y-50510062D01*
X153068154Y-50531097D01*
X153178597Y-50553567D01*
X153183772Y-50553757D01*
X153183774Y-50553757D01*
X153396673Y-50561564D01*
X153396677Y-50561564D01*
X153401837Y-50561753D01*
X153406957Y-50561097D01*
X153406959Y-50561097D01*
X153618288Y-50534025D01*
X153618289Y-50534025D01*
X153623416Y-50533368D01*
X153630986Y-50531097D01*
X153832429Y-50470661D01*
X153832434Y-50470659D01*
X153837384Y-50469174D01*
X154037994Y-50370896D01*
X154219860Y-50241173D01*
X154378096Y-50083489D01*
X154437594Y-50000689D01*
X154508453Y-49902077D01*
X154509776Y-49903028D01*
X154556645Y-49859857D01*
X154626580Y-49847625D01*
X154692026Y-49875144D01*
X154719875Y-49906994D01*
X154779987Y-50005088D01*
X154926250Y-50173938D01*
X155098126Y-50316632D01*
X155291000Y-50429338D01*
X155499692Y-50509030D01*
X155504760Y-50510061D01*
X155504763Y-50510062D01*
X155608154Y-50531097D01*
X155718597Y-50553567D01*
X155723772Y-50553757D01*
X155723774Y-50553757D01*
X155936673Y-50561564D01*
X155936677Y-50561564D01*
X155941837Y-50561753D01*
X155946957Y-50561097D01*
X155946959Y-50561097D01*
X156158288Y-50534025D01*
X156158289Y-50534025D01*
X156163416Y-50533368D01*
X156170986Y-50531097D01*
X156372429Y-50470661D01*
X156372434Y-50470659D01*
X156377384Y-50469174D01*
X156577994Y-50370896D01*
X156759860Y-50241173D01*
X156918096Y-50083489D01*
X156977594Y-50000689D01*
X157048453Y-49902077D01*
X157049776Y-49903028D01*
X157096645Y-49859857D01*
X157166580Y-49847625D01*
X157232026Y-49875144D01*
X157259875Y-49906994D01*
X157319987Y-50005088D01*
X157466250Y-50173938D01*
X157638126Y-50316632D01*
X157831000Y-50429338D01*
X158039692Y-50509030D01*
X158044760Y-50510061D01*
X158044763Y-50510062D01*
X158148154Y-50531097D01*
X158258597Y-50553567D01*
X158263772Y-50553757D01*
X158263774Y-50553757D01*
X158476673Y-50561564D01*
X158476677Y-50561564D01*
X158481837Y-50561753D01*
X158486957Y-50561097D01*
X158486959Y-50561097D01*
X158698288Y-50534025D01*
X158698289Y-50534025D01*
X158703416Y-50533368D01*
X158710986Y-50531097D01*
X158912429Y-50470661D01*
X158912434Y-50470659D01*
X158917384Y-50469174D01*
X159117994Y-50370896D01*
X159299860Y-50241173D01*
X159458096Y-50083489D01*
X159517594Y-50000689D01*
X159588453Y-49902077D01*
X159589776Y-49903028D01*
X159636645Y-49859857D01*
X159706580Y-49847625D01*
X159772026Y-49875144D01*
X159799875Y-49906994D01*
X159859987Y-50005088D01*
X160006250Y-50173938D01*
X160178126Y-50316632D01*
X160371000Y-50429338D01*
X160579692Y-50509030D01*
X160584760Y-50510061D01*
X160584763Y-50510062D01*
X160688154Y-50531097D01*
X160798597Y-50553567D01*
X160803772Y-50553757D01*
X160803774Y-50553757D01*
X161016673Y-50561564D01*
X161016677Y-50561564D01*
X161021837Y-50561753D01*
X161026957Y-50561097D01*
X161026959Y-50561097D01*
X161238288Y-50534025D01*
X161238289Y-50534025D01*
X161243416Y-50533368D01*
X161250986Y-50531097D01*
X161452429Y-50470661D01*
X161452434Y-50470659D01*
X161457384Y-50469174D01*
X161657994Y-50370896D01*
X161839860Y-50241173D01*
X161998096Y-50083489D01*
X162057594Y-50000689D01*
X162128453Y-49902077D01*
X162129776Y-49903028D01*
X162176645Y-49859857D01*
X162246580Y-49847625D01*
X162312026Y-49875144D01*
X162339875Y-49906994D01*
X162399987Y-50005088D01*
X162546250Y-50173938D01*
X162718126Y-50316632D01*
X162911000Y-50429338D01*
X163119692Y-50509030D01*
X163124760Y-50510061D01*
X163124763Y-50510062D01*
X163228154Y-50531097D01*
X163338597Y-50553567D01*
X163343772Y-50553757D01*
X163343774Y-50553757D01*
X163556673Y-50561564D01*
X163556677Y-50561564D01*
X163561837Y-50561753D01*
X163566957Y-50561097D01*
X163566959Y-50561097D01*
X163778288Y-50534025D01*
X163778289Y-50534025D01*
X163783416Y-50533368D01*
X163790986Y-50531097D01*
X163992429Y-50470661D01*
X163992434Y-50470659D01*
X163997384Y-50469174D01*
X164197994Y-50370896D01*
X164379860Y-50241173D01*
X164523400Y-50098134D01*
X167221500Y-50098134D01*
X167228255Y-50160316D01*
X167279385Y-50296705D01*
X167366739Y-50413261D01*
X167483295Y-50500615D01*
X167619684Y-50551745D01*
X167681866Y-50558500D01*
X169478134Y-50558500D01*
X169540316Y-50551745D01*
X169676705Y-50500615D01*
X169793261Y-50413261D01*
X169880615Y-50296705D01*
X169902799Y-50237529D01*
X169924598Y-50179382D01*
X169967240Y-50122618D01*
X170033802Y-50097918D01*
X170103150Y-50113126D01*
X170137817Y-50141114D01*
X170166250Y-50173938D01*
X170338126Y-50316632D01*
X170531000Y-50429338D01*
X170739692Y-50509030D01*
X170744760Y-50510061D01*
X170744763Y-50510062D01*
X170848154Y-50531097D01*
X170958597Y-50553567D01*
X170963772Y-50553757D01*
X170963774Y-50553757D01*
X171176673Y-50561564D01*
X171176677Y-50561564D01*
X171181837Y-50561753D01*
X171186957Y-50561097D01*
X171186959Y-50561097D01*
X171398288Y-50534025D01*
X171398289Y-50534025D01*
X171403416Y-50533368D01*
X171410986Y-50531097D01*
X171612429Y-50470661D01*
X171612434Y-50470659D01*
X171617384Y-50469174D01*
X171817994Y-50370896D01*
X171999860Y-50241173D01*
X172158096Y-50083489D01*
X172217594Y-50000689D01*
X172288453Y-49902077D01*
X172289776Y-49903028D01*
X172336645Y-49859857D01*
X172406580Y-49847625D01*
X172472026Y-49875144D01*
X172499875Y-49906994D01*
X172559987Y-50005088D01*
X172706250Y-50173938D01*
X172878126Y-50316632D01*
X173071000Y-50429338D01*
X173279692Y-50509030D01*
X173284760Y-50510061D01*
X173284763Y-50510062D01*
X173388154Y-50531097D01*
X173498597Y-50553567D01*
X173503772Y-50553757D01*
X173503774Y-50553757D01*
X173716673Y-50561564D01*
X173716677Y-50561564D01*
X173721837Y-50561753D01*
X173726957Y-50561097D01*
X173726959Y-50561097D01*
X173938288Y-50534025D01*
X173938289Y-50534025D01*
X173943416Y-50533368D01*
X173950986Y-50531097D01*
X174152429Y-50470661D01*
X174152434Y-50470659D01*
X174157384Y-50469174D01*
X174357994Y-50370896D01*
X174539860Y-50241173D01*
X174698096Y-50083489D01*
X174757594Y-50000689D01*
X174828453Y-49902077D01*
X174829776Y-49903028D01*
X174876645Y-49859857D01*
X174946580Y-49847625D01*
X175012026Y-49875144D01*
X175039875Y-49906994D01*
X175099987Y-50005088D01*
X175246250Y-50173938D01*
X175418126Y-50316632D01*
X175611000Y-50429338D01*
X175819692Y-50509030D01*
X175824760Y-50510061D01*
X175824763Y-50510062D01*
X175928154Y-50531097D01*
X176038597Y-50553567D01*
X176043772Y-50553757D01*
X176043774Y-50553757D01*
X176256673Y-50561564D01*
X176256677Y-50561564D01*
X176261837Y-50561753D01*
X176266957Y-50561097D01*
X176266959Y-50561097D01*
X176478288Y-50534025D01*
X176478289Y-50534025D01*
X176483416Y-50533368D01*
X176490986Y-50531097D01*
X176692429Y-50470661D01*
X176692434Y-50470659D01*
X176697384Y-50469174D01*
X176897994Y-50370896D01*
X177079860Y-50241173D01*
X177238096Y-50083489D01*
X177297594Y-50000689D01*
X177368453Y-49902077D01*
X177369776Y-49903028D01*
X177416645Y-49859857D01*
X177486580Y-49847625D01*
X177552026Y-49875144D01*
X177579875Y-49906994D01*
X177639987Y-50005088D01*
X177786250Y-50173938D01*
X177958126Y-50316632D01*
X178151000Y-50429338D01*
X178359692Y-50509030D01*
X178364760Y-50510061D01*
X178364763Y-50510062D01*
X178468154Y-50531097D01*
X178578597Y-50553567D01*
X178583772Y-50553757D01*
X178583774Y-50553757D01*
X178796673Y-50561564D01*
X178796677Y-50561564D01*
X178801837Y-50561753D01*
X178806957Y-50561097D01*
X178806959Y-50561097D01*
X179018288Y-50534025D01*
X179018289Y-50534025D01*
X179023416Y-50533368D01*
X179030986Y-50531097D01*
X179232429Y-50470661D01*
X179232434Y-50470659D01*
X179237384Y-50469174D01*
X179437994Y-50370896D01*
X179619860Y-50241173D01*
X179778096Y-50083489D01*
X179837594Y-50000689D01*
X179908453Y-49902077D01*
X179909776Y-49903028D01*
X179956645Y-49859857D01*
X180026580Y-49847625D01*
X180092026Y-49875144D01*
X180119875Y-49906994D01*
X180179987Y-50005088D01*
X180326250Y-50173938D01*
X180498126Y-50316632D01*
X180691000Y-50429338D01*
X180899692Y-50509030D01*
X180904760Y-50510061D01*
X180904763Y-50510062D01*
X181008154Y-50531097D01*
X181118597Y-50553567D01*
X181123772Y-50553757D01*
X181123774Y-50553757D01*
X181336673Y-50561564D01*
X181336677Y-50561564D01*
X181341837Y-50561753D01*
X181346957Y-50561097D01*
X181346959Y-50561097D01*
X181558288Y-50534025D01*
X181558289Y-50534025D01*
X181563416Y-50533368D01*
X181570986Y-50531097D01*
X181772429Y-50470661D01*
X181772434Y-50470659D01*
X181777384Y-50469174D01*
X181977994Y-50370896D01*
X182159860Y-50241173D01*
X182318096Y-50083489D01*
X182377594Y-50000689D01*
X182448453Y-49902077D01*
X182449776Y-49903028D01*
X182496645Y-49859857D01*
X182566580Y-49847625D01*
X182632026Y-49875144D01*
X182659875Y-49906994D01*
X182719987Y-50005088D01*
X182866250Y-50173938D01*
X183038126Y-50316632D01*
X183231000Y-50429338D01*
X183439692Y-50509030D01*
X183444760Y-50510061D01*
X183444763Y-50510062D01*
X183548154Y-50531097D01*
X183658597Y-50553567D01*
X183663772Y-50553757D01*
X183663774Y-50553757D01*
X183876673Y-50561564D01*
X183876677Y-50561564D01*
X183881837Y-50561753D01*
X183886957Y-50561097D01*
X183886959Y-50561097D01*
X184098288Y-50534025D01*
X184098289Y-50534025D01*
X184103416Y-50533368D01*
X184110986Y-50531097D01*
X184312429Y-50470661D01*
X184312434Y-50470659D01*
X184317384Y-50469174D01*
X184517994Y-50370896D01*
X184699860Y-50241173D01*
X184858096Y-50083489D01*
X184917594Y-50000689D01*
X184988453Y-49902077D01*
X184989776Y-49903028D01*
X185036645Y-49859857D01*
X185106580Y-49847625D01*
X185172026Y-49875144D01*
X185199875Y-49906994D01*
X185259987Y-50005088D01*
X185406250Y-50173938D01*
X185578126Y-50316632D01*
X185771000Y-50429338D01*
X185979692Y-50509030D01*
X185984760Y-50510061D01*
X185984763Y-50510062D01*
X186088154Y-50531097D01*
X186198597Y-50553567D01*
X186203772Y-50553757D01*
X186203774Y-50553757D01*
X186416673Y-50561564D01*
X186416677Y-50561564D01*
X186421837Y-50561753D01*
X186426957Y-50561097D01*
X186426959Y-50561097D01*
X186638288Y-50534025D01*
X186638289Y-50534025D01*
X186643416Y-50533368D01*
X186650986Y-50531097D01*
X186852429Y-50470661D01*
X186852434Y-50470659D01*
X186857384Y-50469174D01*
X187057994Y-50370896D01*
X187239860Y-50241173D01*
X187398096Y-50083489D01*
X187457594Y-50000689D01*
X187525435Y-49906277D01*
X187528453Y-49902077D01*
X187533979Y-49890897D01*
X187625136Y-49706453D01*
X187625137Y-49706451D01*
X187627430Y-49701811D01*
X187692370Y-49488069D01*
X187712825Y-49332703D01*
X188060743Y-49332703D01*
X188098268Y-49617734D01*
X188174129Y-49895036D01*
X188175813Y-49898984D01*
X188271202Y-50122618D01*
X188286923Y-50159476D01*
X188333637Y-50237529D01*
X188428030Y-50395248D01*
X188434561Y-50406161D01*
X188614313Y-50630528D01*
X188822851Y-50828423D01*
X189056317Y-50996186D01*
X189060112Y-50998195D01*
X189060113Y-50998196D01*
X189081869Y-51009715D01*
X189310392Y-51130712D01*
X189580373Y-51229511D01*
X189861264Y-51290755D01*
X189889841Y-51293004D01*
X190084282Y-51308307D01*
X190084291Y-51308307D01*
X190086739Y-51308500D01*
X190242271Y-51308500D01*
X190244407Y-51308354D01*
X190244418Y-51308354D01*
X190452548Y-51294165D01*
X190452554Y-51294164D01*
X190456825Y-51293873D01*
X190461020Y-51293004D01*
X190461022Y-51293004D01*
X190598132Y-51264610D01*
X190738342Y-51235574D01*
X191009343Y-51139607D01*
X191264812Y-51007750D01*
X191268313Y-51005289D01*
X191268317Y-51005287D01*
X191448857Y-50878401D01*
X191500023Y-50842441D01*
X191578403Y-50769606D01*
X191707479Y-50649661D01*
X191707481Y-50649658D01*
X191710622Y-50646740D01*
X191892713Y-50424268D01*
X192042927Y-50179142D01*
X192046927Y-50170031D01*
X192156757Y-49919830D01*
X192158483Y-49915898D01*
X192163742Y-49897438D01*
X192236068Y-49643534D01*
X192237244Y-49639406D01*
X192277751Y-49354784D01*
X192277845Y-49336951D01*
X192279235Y-49071583D01*
X192279235Y-49071576D01*
X192279257Y-49067297D01*
X192261732Y-48934183D01*
X192644389Y-48934183D01*
X192645912Y-48942607D01*
X192658292Y-48946000D01*
X193707885Y-48946000D01*
X193723124Y-48941525D01*
X193724329Y-48940135D01*
X193726000Y-48932452D01*
X193726000Y-48927885D01*
X194234000Y-48927885D01*
X194238475Y-48943124D01*
X194239865Y-48944329D01*
X194247548Y-48946000D01*
X196247885Y-48946000D01*
X196263124Y-48941525D01*
X196264329Y-48940135D01*
X196266000Y-48932452D01*
X196266000Y-48927885D01*
X196774000Y-48927885D01*
X196778475Y-48943124D01*
X196779865Y-48944329D01*
X196787548Y-48946000D01*
X197838344Y-48946000D01*
X197851875Y-48942027D01*
X197853180Y-48932947D01*
X197811214Y-48765875D01*
X197807894Y-48756124D01*
X197722972Y-48560814D01*
X197718105Y-48551739D01*
X197602426Y-48372926D01*
X197596136Y-48364757D01*
X197452806Y-48207240D01*
X197445273Y-48200215D01*
X197278139Y-48068222D01*
X197269552Y-48062517D01*
X197083117Y-47959599D01*
X197073705Y-47955369D01*
X196872959Y-47884280D01*
X196862988Y-47881646D01*
X196791837Y-47868972D01*
X196778540Y-47870432D01*
X196774000Y-47884989D01*
X196774000Y-48927885D01*
X196266000Y-48927885D01*
X196266000Y-47883102D01*
X196262082Y-47869758D01*
X196247806Y-47867771D01*
X196209324Y-47873660D01*
X196199288Y-47876051D01*
X195996868Y-47942212D01*
X195987359Y-47946209D01*
X195798463Y-48044542D01*
X195789738Y-48050036D01*
X195619433Y-48177905D01*
X195611726Y-48184748D01*
X195464590Y-48338717D01*
X195458104Y-48346727D01*
X195353193Y-48500521D01*
X195298282Y-48545524D01*
X195227757Y-48553695D01*
X195164010Y-48522441D01*
X195143313Y-48497957D01*
X195062427Y-48372926D01*
X195056136Y-48364757D01*
X194912806Y-48207240D01*
X194905273Y-48200215D01*
X194738139Y-48068222D01*
X194729552Y-48062517D01*
X194543117Y-47959599D01*
X194533705Y-47955369D01*
X194332959Y-47884280D01*
X194322988Y-47881646D01*
X194251837Y-47868972D01*
X194238540Y-47870432D01*
X194234000Y-47884989D01*
X194234000Y-48927885D01*
X193726000Y-48927885D01*
X193726000Y-47883102D01*
X193722082Y-47869758D01*
X193707806Y-47867771D01*
X193669324Y-47873660D01*
X193659288Y-47876051D01*
X193456868Y-47942212D01*
X193447359Y-47946209D01*
X193258463Y-48044542D01*
X193249738Y-48050036D01*
X193079433Y-48177905D01*
X193071726Y-48184748D01*
X192924590Y-48338717D01*
X192918104Y-48346727D01*
X192798098Y-48522649D01*
X192793000Y-48531623D01*
X192703338Y-48724783D01*
X192699775Y-48734470D01*
X192644389Y-48934183D01*
X192261732Y-48934183D01*
X192241732Y-48782266D01*
X192226007Y-48724783D01*
X192181150Y-48560814D01*
X192165871Y-48504964D01*
X192098239Y-48346403D01*
X192054763Y-48244476D01*
X192054761Y-48244472D01*
X192053077Y-48240524D01*
X191949704Y-48067800D01*
X191907643Y-47997521D01*
X191907640Y-47997517D01*
X191905439Y-47993839D01*
X191725687Y-47769472D01*
X191517149Y-47571577D01*
X191283683Y-47403814D01*
X191261843Y-47392250D01*
X191238654Y-47379972D01*
X191029608Y-47269288D01*
X190759627Y-47170489D01*
X190478736Y-47109245D01*
X190447685Y-47106801D01*
X190255718Y-47091693D01*
X190255709Y-47091693D01*
X190253261Y-47091500D01*
X190097729Y-47091500D01*
X190095593Y-47091646D01*
X190095582Y-47091646D01*
X189887452Y-47105835D01*
X189887446Y-47105836D01*
X189883175Y-47106127D01*
X189878980Y-47106996D01*
X189878978Y-47106996D01*
X189742417Y-47135276D01*
X189601658Y-47164426D01*
X189330657Y-47260393D01*
X189075188Y-47392250D01*
X189071687Y-47394711D01*
X189071683Y-47394713D01*
X189061594Y-47401804D01*
X188839977Y-47557559D01*
X188629378Y-47753260D01*
X188447287Y-47975732D01*
X188297073Y-48220858D01*
X188295347Y-48224791D01*
X188295346Y-48224792D01*
X188243835Y-48342138D01*
X188181517Y-48484102D01*
X188180342Y-48488229D01*
X188180341Y-48488230D01*
X188169388Y-48526680D01*
X188102756Y-48760594D01*
X188062249Y-49045216D01*
X188062227Y-49049505D01*
X188062226Y-49049512D01*
X188060765Y-49328417D01*
X188060743Y-49332703D01*
X187712825Y-49332703D01*
X187721529Y-49266590D01*
X187723156Y-49200000D01*
X187704852Y-48977361D01*
X187650431Y-48760702D01*
X187561354Y-48555840D01*
X187440014Y-48368277D01*
X187289670Y-48203051D01*
X187285619Y-48199852D01*
X187285615Y-48199848D01*
X187118414Y-48067800D01*
X187118410Y-48067798D01*
X187114359Y-48064598D01*
X187078028Y-48044542D01*
X187062136Y-48035769D01*
X186918789Y-47956638D01*
X186913920Y-47954914D01*
X186913916Y-47954912D01*
X186713087Y-47883795D01*
X186713083Y-47883794D01*
X186708212Y-47882069D01*
X186703119Y-47881162D01*
X186703116Y-47881161D01*
X186493373Y-47843800D01*
X186493367Y-47843799D01*
X186488284Y-47842894D01*
X186414452Y-47841992D01*
X186270081Y-47840228D01*
X186270079Y-47840228D01*
X186264911Y-47840165D01*
X186044091Y-47873955D01*
X185831756Y-47943357D01*
X185633607Y-48046507D01*
X185629474Y-48049610D01*
X185629471Y-48049612D01*
X185459100Y-48177530D01*
X185454965Y-48180635D01*
X185451393Y-48184373D01*
X185343729Y-48297037D01*
X185300629Y-48342138D01*
X185193201Y-48499621D01*
X185138293Y-48544621D01*
X185067768Y-48552792D01*
X185004021Y-48521538D01*
X184983324Y-48497054D01*
X184902822Y-48372617D01*
X184902820Y-48372614D01*
X184900014Y-48368277D01*
X184749670Y-48203051D01*
X184745619Y-48199852D01*
X184745615Y-48199848D01*
X184578414Y-48067800D01*
X184578410Y-48067798D01*
X184574359Y-48064598D01*
X184538028Y-48044542D01*
X184522136Y-48035769D01*
X184378789Y-47956638D01*
X184373920Y-47954914D01*
X184373916Y-47954912D01*
X184173087Y-47883795D01*
X184173083Y-47883794D01*
X184168212Y-47882069D01*
X184163119Y-47881162D01*
X184163116Y-47881161D01*
X183953373Y-47843800D01*
X183953367Y-47843799D01*
X183948284Y-47842894D01*
X183874452Y-47841992D01*
X183730081Y-47840228D01*
X183730079Y-47840228D01*
X183724911Y-47840165D01*
X183504091Y-47873955D01*
X183291756Y-47943357D01*
X183093607Y-48046507D01*
X183089474Y-48049610D01*
X183089471Y-48049612D01*
X182919100Y-48177530D01*
X182914965Y-48180635D01*
X182911393Y-48184373D01*
X182803729Y-48297037D01*
X182760629Y-48342138D01*
X182653201Y-48499621D01*
X182598293Y-48544621D01*
X182527768Y-48552792D01*
X182464021Y-48521538D01*
X182443324Y-48497054D01*
X182362822Y-48372617D01*
X182362820Y-48372614D01*
X182360014Y-48368277D01*
X182209670Y-48203051D01*
X182205619Y-48199852D01*
X182205615Y-48199848D01*
X182038414Y-48067800D01*
X182038410Y-48067798D01*
X182034359Y-48064598D01*
X181998028Y-48044542D01*
X181982136Y-48035769D01*
X181838789Y-47956638D01*
X181833920Y-47954914D01*
X181833916Y-47954912D01*
X181633087Y-47883795D01*
X181633083Y-47883794D01*
X181628212Y-47882069D01*
X181623119Y-47881162D01*
X181623116Y-47881161D01*
X181413373Y-47843800D01*
X181413367Y-47843799D01*
X181408284Y-47842894D01*
X181334452Y-47841992D01*
X181190081Y-47840228D01*
X181190079Y-47840228D01*
X181184911Y-47840165D01*
X180964091Y-47873955D01*
X180751756Y-47943357D01*
X180553607Y-48046507D01*
X180549474Y-48049610D01*
X180549471Y-48049612D01*
X180379100Y-48177530D01*
X180374965Y-48180635D01*
X180371393Y-48184373D01*
X180263729Y-48297037D01*
X180220629Y-48342138D01*
X180113201Y-48499621D01*
X180058293Y-48544621D01*
X179987768Y-48552792D01*
X179924021Y-48521538D01*
X179903324Y-48497054D01*
X179822822Y-48372617D01*
X179822820Y-48372614D01*
X179820014Y-48368277D01*
X179669670Y-48203051D01*
X179665619Y-48199852D01*
X179665615Y-48199848D01*
X179498414Y-48067800D01*
X179498410Y-48067798D01*
X179494359Y-48064598D01*
X179458028Y-48044542D01*
X179442136Y-48035769D01*
X179298789Y-47956638D01*
X179293920Y-47954914D01*
X179293916Y-47954912D01*
X179093087Y-47883795D01*
X179093083Y-47883794D01*
X179088212Y-47882069D01*
X179083119Y-47881162D01*
X179083116Y-47881161D01*
X178873373Y-47843800D01*
X178873367Y-47843799D01*
X178868284Y-47842894D01*
X178794452Y-47841992D01*
X178650081Y-47840228D01*
X178650079Y-47840228D01*
X178644911Y-47840165D01*
X178424091Y-47873955D01*
X178211756Y-47943357D01*
X178013607Y-48046507D01*
X178009474Y-48049610D01*
X178009471Y-48049612D01*
X177839100Y-48177530D01*
X177834965Y-48180635D01*
X177831393Y-48184373D01*
X177723729Y-48297037D01*
X177680629Y-48342138D01*
X177573201Y-48499621D01*
X177518293Y-48544621D01*
X177447768Y-48552792D01*
X177384021Y-48521538D01*
X177363324Y-48497054D01*
X177282822Y-48372617D01*
X177282820Y-48372614D01*
X177280014Y-48368277D01*
X177129670Y-48203051D01*
X177125619Y-48199852D01*
X177125615Y-48199848D01*
X176958414Y-48067800D01*
X176958410Y-48067798D01*
X176954359Y-48064598D01*
X176918028Y-48044542D01*
X176902136Y-48035769D01*
X176758789Y-47956638D01*
X176753920Y-47954914D01*
X176753916Y-47954912D01*
X176553087Y-47883795D01*
X176553083Y-47883794D01*
X176548212Y-47882069D01*
X176543119Y-47881162D01*
X176543116Y-47881161D01*
X176333373Y-47843800D01*
X176333367Y-47843799D01*
X176328284Y-47842894D01*
X176254452Y-47841992D01*
X176110081Y-47840228D01*
X176110079Y-47840228D01*
X176104911Y-47840165D01*
X175884091Y-47873955D01*
X175671756Y-47943357D01*
X175473607Y-48046507D01*
X175469474Y-48049610D01*
X175469471Y-48049612D01*
X175299100Y-48177530D01*
X175294965Y-48180635D01*
X175291393Y-48184373D01*
X175183729Y-48297037D01*
X175140629Y-48342138D01*
X175033201Y-48499621D01*
X174978293Y-48544621D01*
X174907768Y-48552792D01*
X174844021Y-48521538D01*
X174823324Y-48497054D01*
X174742822Y-48372617D01*
X174742820Y-48372614D01*
X174740014Y-48368277D01*
X174589670Y-48203051D01*
X174585619Y-48199852D01*
X174585615Y-48199848D01*
X174418414Y-48067800D01*
X174418410Y-48067798D01*
X174414359Y-48064598D01*
X174378028Y-48044542D01*
X174362136Y-48035769D01*
X174218789Y-47956638D01*
X174213920Y-47954914D01*
X174213916Y-47954912D01*
X174013087Y-47883795D01*
X174013083Y-47883794D01*
X174008212Y-47882069D01*
X174003119Y-47881162D01*
X174003116Y-47881161D01*
X173793373Y-47843800D01*
X173793367Y-47843799D01*
X173788284Y-47842894D01*
X173714452Y-47841992D01*
X173570081Y-47840228D01*
X173570079Y-47840228D01*
X173564911Y-47840165D01*
X173344091Y-47873955D01*
X173131756Y-47943357D01*
X172933607Y-48046507D01*
X172929474Y-48049610D01*
X172929471Y-48049612D01*
X172759100Y-48177530D01*
X172754965Y-48180635D01*
X172751393Y-48184373D01*
X172643729Y-48297037D01*
X172600629Y-48342138D01*
X172493201Y-48499621D01*
X172438293Y-48544621D01*
X172367768Y-48552792D01*
X172304021Y-48521538D01*
X172283324Y-48497054D01*
X172202822Y-48372617D01*
X172202820Y-48372614D01*
X172200014Y-48368277D01*
X172049670Y-48203051D01*
X172045619Y-48199852D01*
X172045615Y-48199848D01*
X171878414Y-48067800D01*
X171878410Y-48067798D01*
X171874359Y-48064598D01*
X171838028Y-48044542D01*
X171822136Y-48035769D01*
X171678789Y-47956638D01*
X171673920Y-47954914D01*
X171673916Y-47954912D01*
X171473087Y-47883795D01*
X171473083Y-47883794D01*
X171468212Y-47882069D01*
X171463119Y-47881162D01*
X171463116Y-47881161D01*
X171253373Y-47843800D01*
X171253367Y-47843799D01*
X171248284Y-47842894D01*
X171174452Y-47841992D01*
X171030081Y-47840228D01*
X171030079Y-47840228D01*
X171024911Y-47840165D01*
X170804091Y-47873955D01*
X170591756Y-47943357D01*
X170393607Y-48046507D01*
X170389474Y-48049610D01*
X170389471Y-48049612D01*
X170219100Y-48177530D01*
X170214965Y-48180635D01*
X170158537Y-48239684D01*
X170134283Y-48265064D01*
X170072759Y-48300494D01*
X170001846Y-48297037D01*
X169944060Y-48255791D01*
X169925207Y-48222243D01*
X169883767Y-48111703D01*
X169880615Y-48103295D01*
X169793261Y-47986739D01*
X169676705Y-47899385D01*
X169540316Y-47848255D01*
X169478134Y-47841500D01*
X167681866Y-47841500D01*
X167619684Y-47848255D01*
X167483295Y-47899385D01*
X167366739Y-47986739D01*
X167279385Y-48103295D01*
X167228255Y-48239684D01*
X167221500Y-48301866D01*
X167221500Y-50098134D01*
X164523400Y-50098134D01*
X164538096Y-50083489D01*
X164597594Y-50000689D01*
X164665435Y-49906277D01*
X164668453Y-49902077D01*
X164673979Y-49890897D01*
X164765136Y-49706453D01*
X164765137Y-49706451D01*
X164767430Y-49701811D01*
X164832370Y-49488069D01*
X164861529Y-49266590D01*
X164863156Y-49200000D01*
X164844852Y-48977361D01*
X164790431Y-48760702D01*
X164701354Y-48555840D01*
X164580014Y-48368277D01*
X164429670Y-48203051D01*
X164425619Y-48199852D01*
X164425615Y-48199848D01*
X164258414Y-48067800D01*
X164258410Y-48067798D01*
X164254359Y-48064598D01*
X164218028Y-48044542D01*
X164202136Y-48035769D01*
X164058789Y-47956638D01*
X164053920Y-47954914D01*
X164053916Y-47954912D01*
X163853087Y-47883795D01*
X163853083Y-47883794D01*
X163848212Y-47882069D01*
X163843119Y-47881162D01*
X163843116Y-47881161D01*
X163633373Y-47843800D01*
X163633367Y-47843799D01*
X163628284Y-47842894D01*
X163554452Y-47841992D01*
X163410081Y-47840228D01*
X163410079Y-47840228D01*
X163404911Y-47840165D01*
X163184091Y-47873955D01*
X162971756Y-47943357D01*
X162773607Y-48046507D01*
X162769474Y-48049610D01*
X162769471Y-48049612D01*
X162599100Y-48177530D01*
X162594965Y-48180635D01*
X162591393Y-48184373D01*
X162483729Y-48297037D01*
X162440629Y-48342138D01*
X162333201Y-48499621D01*
X162278293Y-48544621D01*
X162207768Y-48552792D01*
X162144021Y-48521538D01*
X162123324Y-48497054D01*
X162042822Y-48372617D01*
X162042820Y-48372614D01*
X162040014Y-48368277D01*
X161889670Y-48203051D01*
X161885619Y-48199852D01*
X161885615Y-48199848D01*
X161718414Y-48067800D01*
X161718410Y-48067798D01*
X161714359Y-48064598D01*
X161678028Y-48044542D01*
X161662136Y-48035769D01*
X161518789Y-47956638D01*
X161513920Y-47954914D01*
X161513916Y-47954912D01*
X161313087Y-47883795D01*
X161313083Y-47883794D01*
X161308212Y-47882069D01*
X161303119Y-47881162D01*
X161303116Y-47881161D01*
X161093373Y-47843800D01*
X161093367Y-47843799D01*
X161088284Y-47842894D01*
X161014452Y-47841992D01*
X160870081Y-47840228D01*
X160870079Y-47840228D01*
X160864911Y-47840165D01*
X160644091Y-47873955D01*
X160431756Y-47943357D01*
X160233607Y-48046507D01*
X160229474Y-48049610D01*
X160229471Y-48049612D01*
X160059100Y-48177530D01*
X160054965Y-48180635D01*
X160051393Y-48184373D01*
X159943729Y-48297037D01*
X159900629Y-48342138D01*
X159793201Y-48499621D01*
X159738293Y-48544621D01*
X159667768Y-48552792D01*
X159604021Y-48521538D01*
X159583324Y-48497054D01*
X159502822Y-48372617D01*
X159502820Y-48372614D01*
X159500014Y-48368277D01*
X159349670Y-48203051D01*
X159345619Y-48199852D01*
X159345615Y-48199848D01*
X159178414Y-48067800D01*
X159178410Y-48067798D01*
X159174359Y-48064598D01*
X159138028Y-48044542D01*
X159122136Y-48035769D01*
X158978789Y-47956638D01*
X158973920Y-47954914D01*
X158973916Y-47954912D01*
X158773087Y-47883795D01*
X158773083Y-47883794D01*
X158768212Y-47882069D01*
X158763119Y-47881162D01*
X158763116Y-47881161D01*
X158553373Y-47843800D01*
X158553367Y-47843799D01*
X158548284Y-47842894D01*
X158474452Y-47841992D01*
X158330081Y-47840228D01*
X158330079Y-47840228D01*
X158324911Y-47840165D01*
X158104091Y-47873955D01*
X157891756Y-47943357D01*
X157693607Y-48046507D01*
X157689474Y-48049610D01*
X157689471Y-48049612D01*
X157519100Y-48177530D01*
X157514965Y-48180635D01*
X157511393Y-48184373D01*
X157403729Y-48297037D01*
X157360629Y-48342138D01*
X157253201Y-48499621D01*
X157198293Y-48544621D01*
X157127768Y-48552792D01*
X157064021Y-48521538D01*
X157043324Y-48497054D01*
X156962822Y-48372617D01*
X156962820Y-48372614D01*
X156960014Y-48368277D01*
X156809670Y-48203051D01*
X156805619Y-48199852D01*
X156805615Y-48199848D01*
X156638414Y-48067800D01*
X156638410Y-48067798D01*
X156634359Y-48064598D01*
X156598028Y-48044542D01*
X156582136Y-48035769D01*
X156438789Y-47956638D01*
X156433920Y-47954914D01*
X156433916Y-47954912D01*
X156233087Y-47883795D01*
X156233083Y-47883794D01*
X156228212Y-47882069D01*
X156223119Y-47881162D01*
X156223116Y-47881161D01*
X156013373Y-47843800D01*
X156013367Y-47843799D01*
X156008284Y-47842894D01*
X155934452Y-47841992D01*
X155790081Y-47840228D01*
X155790079Y-47840228D01*
X155784911Y-47840165D01*
X155564091Y-47873955D01*
X155351756Y-47943357D01*
X155153607Y-48046507D01*
X155149474Y-48049610D01*
X155149471Y-48049612D01*
X154979100Y-48177530D01*
X154974965Y-48180635D01*
X154971393Y-48184373D01*
X154863729Y-48297037D01*
X154820629Y-48342138D01*
X154713201Y-48499621D01*
X154658293Y-48544621D01*
X154587768Y-48552792D01*
X154524021Y-48521538D01*
X154503324Y-48497054D01*
X154422822Y-48372617D01*
X154422820Y-48372614D01*
X154420014Y-48368277D01*
X154269670Y-48203051D01*
X154265619Y-48199852D01*
X154265615Y-48199848D01*
X154098414Y-48067800D01*
X154098410Y-48067798D01*
X154094359Y-48064598D01*
X154058028Y-48044542D01*
X154042136Y-48035769D01*
X153898789Y-47956638D01*
X153893920Y-47954914D01*
X153893916Y-47954912D01*
X153693087Y-47883795D01*
X153693083Y-47883794D01*
X153688212Y-47882069D01*
X153683119Y-47881162D01*
X153683116Y-47881161D01*
X153473373Y-47843800D01*
X153473367Y-47843799D01*
X153468284Y-47842894D01*
X153394452Y-47841992D01*
X153250081Y-47840228D01*
X153250079Y-47840228D01*
X153244911Y-47840165D01*
X153024091Y-47873955D01*
X152811756Y-47943357D01*
X152613607Y-48046507D01*
X152609474Y-48049610D01*
X152609471Y-48049612D01*
X152439100Y-48177530D01*
X152434965Y-48180635D01*
X152431393Y-48184373D01*
X152323729Y-48297037D01*
X152280629Y-48342138D01*
X152173201Y-48499621D01*
X152118293Y-48544621D01*
X152047768Y-48552792D01*
X151984021Y-48521538D01*
X151963324Y-48497054D01*
X151882822Y-48372617D01*
X151882820Y-48372614D01*
X151880014Y-48368277D01*
X151729670Y-48203051D01*
X151725619Y-48199852D01*
X151725615Y-48199848D01*
X151558414Y-48067800D01*
X151558410Y-48067798D01*
X151554359Y-48064598D01*
X151518028Y-48044542D01*
X151502136Y-48035769D01*
X151358789Y-47956638D01*
X151353920Y-47954914D01*
X151353916Y-47954912D01*
X151153087Y-47883795D01*
X151153083Y-47883794D01*
X151148212Y-47882069D01*
X151143119Y-47881162D01*
X151143116Y-47881161D01*
X150933373Y-47843800D01*
X150933367Y-47843799D01*
X150928284Y-47842894D01*
X150854452Y-47841992D01*
X150710081Y-47840228D01*
X150710079Y-47840228D01*
X150704911Y-47840165D01*
X150484091Y-47873955D01*
X150271756Y-47943357D01*
X150073607Y-48046507D01*
X150069474Y-48049610D01*
X150069471Y-48049612D01*
X149899100Y-48177530D01*
X149894965Y-48180635D01*
X149891393Y-48184373D01*
X149783729Y-48297037D01*
X149740629Y-48342138D01*
X149633201Y-48499621D01*
X149578293Y-48544621D01*
X149507768Y-48552792D01*
X149444021Y-48521538D01*
X149423324Y-48497054D01*
X149342822Y-48372617D01*
X149342820Y-48372614D01*
X149340014Y-48368277D01*
X149189670Y-48203051D01*
X149185619Y-48199852D01*
X149185615Y-48199848D01*
X149018414Y-48067800D01*
X149018410Y-48067798D01*
X149014359Y-48064598D01*
X148978028Y-48044542D01*
X148962136Y-48035769D01*
X148818789Y-47956638D01*
X148813920Y-47954914D01*
X148813916Y-47954912D01*
X148613087Y-47883795D01*
X148613083Y-47883794D01*
X148608212Y-47882069D01*
X148603119Y-47881162D01*
X148603116Y-47881161D01*
X148393373Y-47843800D01*
X148393367Y-47843799D01*
X148388284Y-47842894D01*
X148314452Y-47841992D01*
X148170081Y-47840228D01*
X148170079Y-47840228D01*
X148164911Y-47840165D01*
X147944091Y-47873955D01*
X147731756Y-47943357D01*
X147533607Y-48046507D01*
X147529474Y-48049610D01*
X147529471Y-48049612D01*
X147359100Y-48177530D01*
X147354965Y-48180635D01*
X147298537Y-48239684D01*
X147274283Y-48265064D01*
X147212759Y-48300494D01*
X147141846Y-48297037D01*
X147084060Y-48255791D01*
X147065207Y-48222243D01*
X147023767Y-48111703D01*
X147020615Y-48103295D01*
X146933261Y-47986739D01*
X146816705Y-47899385D01*
X146680316Y-47848255D01*
X146618134Y-47841500D01*
X144821866Y-47841500D01*
X144759684Y-47848255D01*
X144623295Y-47899385D01*
X144506739Y-47986739D01*
X144419385Y-48103295D01*
X144368255Y-48239684D01*
X144361500Y-48301866D01*
X144361500Y-50098134D01*
X142679400Y-50098134D01*
X142694096Y-50083489D01*
X142753594Y-50000689D01*
X142821435Y-49906277D01*
X142824453Y-49902077D01*
X142829979Y-49890897D01*
X142921136Y-49706453D01*
X142921137Y-49706451D01*
X142923430Y-49701811D01*
X142988370Y-49488069D01*
X143017529Y-49266590D01*
X143019156Y-49200000D01*
X143000852Y-48977361D01*
X142946431Y-48760702D01*
X142857354Y-48555840D01*
X142736014Y-48368277D01*
X142585670Y-48203051D01*
X142581619Y-48199852D01*
X142581615Y-48199848D01*
X142414414Y-48067800D01*
X142414410Y-48067798D01*
X142410359Y-48064598D01*
X142374028Y-48044542D01*
X142358136Y-48035769D01*
X142214789Y-47956638D01*
X142209920Y-47954914D01*
X142209916Y-47954912D01*
X142009087Y-47883795D01*
X142009083Y-47883794D01*
X142004212Y-47882069D01*
X141999119Y-47881162D01*
X141999116Y-47881161D01*
X141789373Y-47843800D01*
X141789367Y-47843799D01*
X141784284Y-47842894D01*
X141710452Y-47841992D01*
X141566081Y-47840228D01*
X141566079Y-47840228D01*
X141560911Y-47840165D01*
X141340091Y-47873955D01*
X141127756Y-47943357D01*
X140929607Y-48046507D01*
X140925474Y-48049610D01*
X140925471Y-48049612D01*
X140755100Y-48177530D01*
X140750965Y-48180635D01*
X140747393Y-48184373D01*
X140639729Y-48297037D01*
X140596629Y-48342138D01*
X140489201Y-48499621D01*
X140434293Y-48544621D01*
X140363768Y-48552792D01*
X140300021Y-48521538D01*
X140279324Y-48497054D01*
X140198822Y-48372617D01*
X140198820Y-48372614D01*
X140196014Y-48368277D01*
X140045670Y-48203051D01*
X140041619Y-48199852D01*
X140041615Y-48199848D01*
X139874414Y-48067800D01*
X139874410Y-48067798D01*
X139870359Y-48064598D01*
X139834028Y-48044542D01*
X139818136Y-48035769D01*
X139674789Y-47956638D01*
X139669920Y-47954914D01*
X139669916Y-47954912D01*
X139469087Y-47883795D01*
X139469083Y-47883794D01*
X139464212Y-47882069D01*
X139459119Y-47881162D01*
X139459116Y-47881161D01*
X139249373Y-47843800D01*
X139249367Y-47843799D01*
X139244284Y-47842894D01*
X139170452Y-47841992D01*
X139026081Y-47840228D01*
X139026079Y-47840228D01*
X139020911Y-47840165D01*
X138800091Y-47873955D01*
X138587756Y-47943357D01*
X138389607Y-48046507D01*
X138385474Y-48049610D01*
X138385471Y-48049612D01*
X138215100Y-48177530D01*
X138210965Y-48180635D01*
X138207393Y-48184373D01*
X138099729Y-48297037D01*
X138056629Y-48342138D01*
X137949201Y-48499621D01*
X137894293Y-48544621D01*
X137823768Y-48552792D01*
X137760021Y-48521538D01*
X137739324Y-48497054D01*
X137658822Y-48372617D01*
X137658820Y-48372614D01*
X137656014Y-48368277D01*
X137505670Y-48203051D01*
X137501619Y-48199852D01*
X137501615Y-48199848D01*
X137334414Y-48067800D01*
X137334410Y-48067798D01*
X137330359Y-48064598D01*
X137294028Y-48044542D01*
X137278136Y-48035769D01*
X137134789Y-47956638D01*
X137129920Y-47954914D01*
X137129916Y-47954912D01*
X136929087Y-47883795D01*
X136929083Y-47883794D01*
X136924212Y-47882069D01*
X136919119Y-47881162D01*
X136919116Y-47881161D01*
X136709373Y-47843800D01*
X136709367Y-47843799D01*
X136704284Y-47842894D01*
X136630452Y-47841992D01*
X136486081Y-47840228D01*
X136486079Y-47840228D01*
X136480911Y-47840165D01*
X136260091Y-47873955D01*
X136047756Y-47943357D01*
X135849607Y-48046507D01*
X135845474Y-48049610D01*
X135845471Y-48049612D01*
X135675100Y-48177530D01*
X135670965Y-48180635D01*
X135667393Y-48184373D01*
X135559729Y-48297037D01*
X135516629Y-48342138D01*
X135409201Y-48499621D01*
X135354293Y-48544621D01*
X135283768Y-48552792D01*
X135220021Y-48521538D01*
X135199324Y-48497054D01*
X135118822Y-48372617D01*
X135118820Y-48372614D01*
X135116014Y-48368277D01*
X134965670Y-48203051D01*
X134961619Y-48199852D01*
X134961615Y-48199848D01*
X134794414Y-48067800D01*
X134794410Y-48067798D01*
X134790359Y-48064598D01*
X134754028Y-48044542D01*
X134738136Y-48035769D01*
X134594789Y-47956638D01*
X134589920Y-47954914D01*
X134589916Y-47954912D01*
X134389087Y-47883795D01*
X134389083Y-47883794D01*
X134384212Y-47882069D01*
X134379119Y-47881162D01*
X134379116Y-47881161D01*
X134169373Y-47843800D01*
X134169367Y-47843799D01*
X134164284Y-47842894D01*
X134090452Y-47841992D01*
X133946081Y-47840228D01*
X133946079Y-47840228D01*
X133940911Y-47840165D01*
X133720091Y-47873955D01*
X133507756Y-47943357D01*
X133309607Y-48046507D01*
X133305474Y-48049610D01*
X133305471Y-48049612D01*
X133135100Y-48177530D01*
X133130965Y-48180635D01*
X133127393Y-48184373D01*
X133019729Y-48297037D01*
X132976629Y-48342138D01*
X132869201Y-48499621D01*
X132814293Y-48544621D01*
X132743768Y-48552792D01*
X132680021Y-48521538D01*
X132659324Y-48497054D01*
X132578822Y-48372617D01*
X132578820Y-48372614D01*
X132576014Y-48368277D01*
X132425670Y-48203051D01*
X132421619Y-48199852D01*
X132421615Y-48199848D01*
X132254414Y-48067800D01*
X132254410Y-48067798D01*
X132250359Y-48064598D01*
X132214028Y-48044542D01*
X132198136Y-48035769D01*
X132054789Y-47956638D01*
X132049920Y-47954914D01*
X132049916Y-47954912D01*
X131849087Y-47883795D01*
X131849083Y-47883794D01*
X131844212Y-47882069D01*
X131839119Y-47881162D01*
X131839116Y-47881161D01*
X131629373Y-47843800D01*
X131629367Y-47843799D01*
X131624284Y-47842894D01*
X131550452Y-47841992D01*
X131406081Y-47840228D01*
X131406079Y-47840228D01*
X131400911Y-47840165D01*
X131180091Y-47873955D01*
X130967756Y-47943357D01*
X130769607Y-48046507D01*
X130765474Y-48049610D01*
X130765471Y-48049612D01*
X130595100Y-48177530D01*
X130590965Y-48180635D01*
X130587393Y-48184373D01*
X130479729Y-48297037D01*
X130436629Y-48342138D01*
X130329201Y-48499621D01*
X130274293Y-48544621D01*
X130203768Y-48552792D01*
X130140021Y-48521538D01*
X130119324Y-48497054D01*
X130038822Y-48372617D01*
X130038820Y-48372614D01*
X130036014Y-48368277D01*
X129885670Y-48203051D01*
X129881619Y-48199852D01*
X129881615Y-48199848D01*
X129714414Y-48067800D01*
X129714410Y-48067798D01*
X129710359Y-48064598D01*
X129674028Y-48044542D01*
X129658136Y-48035769D01*
X129514789Y-47956638D01*
X129509920Y-47954914D01*
X129509916Y-47954912D01*
X129309087Y-47883795D01*
X129309083Y-47883794D01*
X129304212Y-47882069D01*
X129299119Y-47881162D01*
X129299116Y-47881161D01*
X129089373Y-47843800D01*
X129089367Y-47843799D01*
X129084284Y-47842894D01*
X129010452Y-47841992D01*
X128866081Y-47840228D01*
X128866079Y-47840228D01*
X128860911Y-47840165D01*
X128640091Y-47873955D01*
X128427756Y-47943357D01*
X128229607Y-48046507D01*
X128225474Y-48049610D01*
X128225471Y-48049612D01*
X128055100Y-48177530D01*
X128050965Y-48180635D01*
X128047393Y-48184373D01*
X127939729Y-48297037D01*
X127896629Y-48342138D01*
X127789201Y-48499621D01*
X127734293Y-48544621D01*
X127663768Y-48552792D01*
X127600021Y-48521538D01*
X127579324Y-48497054D01*
X127498822Y-48372617D01*
X127498820Y-48372614D01*
X127496014Y-48368277D01*
X127345670Y-48203051D01*
X127341619Y-48199852D01*
X127341615Y-48199848D01*
X127174414Y-48067800D01*
X127174410Y-48067798D01*
X127170359Y-48064598D01*
X127134028Y-48044542D01*
X127118136Y-48035769D01*
X126974789Y-47956638D01*
X126969920Y-47954914D01*
X126969916Y-47954912D01*
X126769087Y-47883795D01*
X126769083Y-47883794D01*
X126764212Y-47882069D01*
X126759119Y-47881162D01*
X126759116Y-47881161D01*
X126549373Y-47843800D01*
X126549367Y-47843799D01*
X126544284Y-47842894D01*
X126470452Y-47841992D01*
X126326081Y-47840228D01*
X126326079Y-47840228D01*
X126320911Y-47840165D01*
X126100091Y-47873955D01*
X125887756Y-47943357D01*
X125689607Y-48046507D01*
X125685474Y-48049610D01*
X125685471Y-48049612D01*
X125515100Y-48177530D01*
X125510965Y-48180635D01*
X125507393Y-48184373D01*
X125399729Y-48297037D01*
X125356629Y-48342138D01*
X125249201Y-48499621D01*
X125194293Y-48544621D01*
X125123768Y-48552792D01*
X125060021Y-48521538D01*
X125039324Y-48497054D01*
X124958822Y-48372617D01*
X124958820Y-48372614D01*
X124956014Y-48368277D01*
X124805670Y-48203051D01*
X124801619Y-48199852D01*
X124801615Y-48199848D01*
X124634414Y-48067800D01*
X124634410Y-48067798D01*
X124630359Y-48064598D01*
X124594028Y-48044542D01*
X124578136Y-48035769D01*
X124434789Y-47956638D01*
X124429920Y-47954914D01*
X124429916Y-47954912D01*
X124229087Y-47883795D01*
X124229083Y-47883794D01*
X124224212Y-47882069D01*
X124219119Y-47881162D01*
X124219116Y-47881161D01*
X124009373Y-47843800D01*
X124009367Y-47843799D01*
X124004284Y-47842894D01*
X123930452Y-47841992D01*
X123786081Y-47840228D01*
X123786079Y-47840228D01*
X123780911Y-47840165D01*
X123560091Y-47873955D01*
X123347756Y-47943357D01*
X123149607Y-48046507D01*
X123145474Y-48049610D01*
X123145471Y-48049612D01*
X122975100Y-48177530D01*
X122970965Y-48180635D01*
X122967393Y-48184373D01*
X122859729Y-48297037D01*
X122816629Y-48342138D01*
X122813720Y-48346403D01*
X122813714Y-48346411D01*
X122801404Y-48364457D01*
X122690743Y-48526680D01*
X122596688Y-48729305D01*
X122536989Y-48944570D01*
X122513251Y-49166695D01*
X117348737Y-49166695D01*
X117349235Y-49071583D01*
X117349235Y-49071576D01*
X117349257Y-49067297D01*
X117311732Y-48782266D01*
X117296007Y-48724783D01*
X117251150Y-48560814D01*
X117235871Y-48504964D01*
X117168239Y-48346403D01*
X117124763Y-48244476D01*
X117124761Y-48244472D01*
X117123077Y-48240524D01*
X117019704Y-48067800D01*
X116977643Y-47997521D01*
X116977640Y-47997517D01*
X116975439Y-47993839D01*
X116795687Y-47769472D01*
X116587149Y-47571577D01*
X116353683Y-47403814D01*
X116331843Y-47392250D01*
X116308654Y-47379972D01*
X116099608Y-47269288D01*
X115829627Y-47170489D01*
X115548736Y-47109245D01*
X115517685Y-47106801D01*
X115325718Y-47091693D01*
X115325709Y-47091693D01*
X115323261Y-47091500D01*
X115167729Y-47091500D01*
X115165593Y-47091646D01*
X115165582Y-47091646D01*
X114957452Y-47105835D01*
X114957446Y-47105836D01*
X114953175Y-47106127D01*
X114948980Y-47106996D01*
X114948978Y-47106996D01*
X114812417Y-47135276D01*
X114671658Y-47164426D01*
X114400657Y-47260393D01*
X114145188Y-47392250D01*
X114141687Y-47394711D01*
X114141683Y-47394713D01*
X114131594Y-47401804D01*
X113909977Y-47557559D01*
X113699378Y-47753260D01*
X113517287Y-47975732D01*
X113367073Y-48220858D01*
X113365347Y-48224791D01*
X113365346Y-48224792D01*
X113313835Y-48342138D01*
X113251517Y-48484102D01*
X113250342Y-48488229D01*
X113250341Y-48488230D01*
X113239388Y-48526680D01*
X113172756Y-48760594D01*
X113132249Y-49045216D01*
X113132227Y-49049505D01*
X113132226Y-49049512D01*
X113130765Y-49328417D01*
X113130743Y-49332703D01*
X111700000Y-49332703D01*
X111700000Y-44542134D01*
X130284500Y-44542134D01*
X130291255Y-44604316D01*
X130342385Y-44740705D01*
X130429739Y-44857261D01*
X130546295Y-44944615D01*
X130682684Y-44995745D01*
X130744866Y-45002500D01*
X132365134Y-45002500D01*
X132427316Y-44995745D01*
X132563705Y-44944615D01*
X132680261Y-44857261D01*
X132724174Y-44798668D01*
X132781033Y-44756153D01*
X132851852Y-44751127D01*
X132914145Y-44785187D01*
X132925825Y-44798667D01*
X132969739Y-44857261D01*
X133086295Y-44944615D01*
X133222684Y-44995745D01*
X133284866Y-45002500D01*
X134905134Y-45002500D01*
X134967316Y-44995745D01*
X135103705Y-44944615D01*
X135220261Y-44857261D01*
X135264487Y-44798251D01*
X135321344Y-44755736D01*
X135392163Y-44750710D01*
X135454456Y-44784770D01*
X135466138Y-44798251D01*
X135504715Y-44849724D01*
X135517276Y-44862285D01*
X135619351Y-44938786D01*
X135634946Y-44947324D01*
X135755394Y-44992478D01*
X135770649Y-44996105D01*
X135821514Y-45001631D01*
X135828328Y-45002000D01*
X136362885Y-45002000D01*
X136378124Y-44997525D01*
X136379329Y-44996135D01*
X136381000Y-44988452D01*
X136381000Y-44983884D01*
X136889000Y-44983884D01*
X136893475Y-44999123D01*
X136894865Y-45000328D01*
X136902548Y-45001999D01*
X137441669Y-45001999D01*
X137448490Y-45001629D01*
X137499352Y-44996105D01*
X137514604Y-44992479D01*
X137635054Y-44947324D01*
X137650649Y-44938786D01*
X137752724Y-44862285D01*
X137765285Y-44849724D01*
X137841786Y-44747649D01*
X137850324Y-44732054D01*
X137895478Y-44611606D01*
X137899105Y-44596351D01*
X137904631Y-44545486D01*
X137905000Y-44538672D01*
X137905000Y-44538669D01*
X149537001Y-44538669D01*
X149537371Y-44545490D01*
X149542895Y-44596352D01*
X149546521Y-44611604D01*
X149591676Y-44732054D01*
X149600214Y-44747649D01*
X149676715Y-44849724D01*
X149689276Y-44862285D01*
X149791351Y-44938786D01*
X149806946Y-44947324D01*
X149927394Y-44992478D01*
X149942649Y-44996105D01*
X149993514Y-45001631D01*
X150000328Y-45002000D01*
X150622885Y-45002000D01*
X150638124Y-44997525D01*
X150639329Y-44996135D01*
X150641000Y-44988452D01*
X150641000Y-44983884D01*
X151149000Y-44983884D01*
X151153475Y-44999123D01*
X151154865Y-45000328D01*
X151162548Y-45001999D01*
X151789669Y-45001999D01*
X151796490Y-45001629D01*
X151847352Y-44996105D01*
X151862604Y-44992479D01*
X151983054Y-44947324D01*
X151998649Y-44938786D01*
X152089018Y-44871058D01*
X152155525Y-44846210D01*
X152224907Y-44861263D01*
X152240148Y-44871058D01*
X152271323Y-44894422D01*
X152338295Y-44944615D01*
X152474684Y-44995745D01*
X152536866Y-45002500D01*
X154333134Y-45002500D01*
X154395316Y-44995745D01*
X154531705Y-44944615D01*
X154629436Y-44871370D01*
X154695941Y-44846522D01*
X154765324Y-44861575D01*
X154780562Y-44871368D01*
X154878295Y-44944615D01*
X155014684Y-44995745D01*
X155076866Y-45002500D01*
X156873134Y-45002500D01*
X156935316Y-44995745D01*
X157071705Y-44944615D01*
X157169436Y-44871370D01*
X157235941Y-44846522D01*
X157305324Y-44861575D01*
X157320562Y-44871368D01*
X157418295Y-44944615D01*
X157554684Y-44995745D01*
X157616866Y-45002500D01*
X159413134Y-45002500D01*
X159475316Y-44995745D01*
X159611705Y-44944615D01*
X159728261Y-44857261D01*
X159815615Y-44740705D01*
X159866745Y-44604316D01*
X159873500Y-44542134D01*
X167926500Y-44542134D01*
X167933255Y-44604316D01*
X167984385Y-44740705D01*
X168071739Y-44857261D01*
X168188295Y-44944615D01*
X168324684Y-44995745D01*
X168386866Y-45002500D01*
X170183134Y-45002500D01*
X170245316Y-44995745D01*
X170381705Y-44944615D01*
X170448677Y-44894422D01*
X170479852Y-44871058D01*
X170546358Y-44846210D01*
X170615741Y-44861263D01*
X170630982Y-44871058D01*
X170721351Y-44938786D01*
X170736946Y-44947324D01*
X170857394Y-44992478D01*
X170872649Y-44996105D01*
X170923514Y-45001631D01*
X170930328Y-45002000D01*
X171552885Y-45002000D01*
X171568124Y-44997525D01*
X171569329Y-44996135D01*
X171571000Y-44988452D01*
X171571000Y-44983884D01*
X172079000Y-44983884D01*
X172083475Y-44999123D01*
X172084865Y-45000328D01*
X172092548Y-45001999D01*
X172719669Y-45001999D01*
X172726490Y-45001629D01*
X172777352Y-44996105D01*
X172792604Y-44992479D01*
X172913054Y-44947324D01*
X172928649Y-44938786D01*
X173019018Y-44871058D01*
X173085525Y-44846210D01*
X173154907Y-44861263D01*
X173170148Y-44871058D01*
X173201323Y-44894422D01*
X173268295Y-44944615D01*
X173404684Y-44995745D01*
X173466866Y-45002500D01*
X175263134Y-45002500D01*
X175325316Y-44995745D01*
X175461705Y-44944615D01*
X175559436Y-44871370D01*
X175625941Y-44846522D01*
X175695324Y-44861575D01*
X175710562Y-44871368D01*
X175808295Y-44944615D01*
X175944684Y-44995745D01*
X176006866Y-45002500D01*
X177803134Y-45002500D01*
X177865316Y-44995745D01*
X178001705Y-44944615D01*
X178118261Y-44857261D01*
X178205615Y-44740705D01*
X178256745Y-44604316D01*
X178263500Y-44542134D01*
X178263500Y-42745866D01*
X178256745Y-42683684D01*
X178205615Y-42547295D01*
X178118261Y-42430739D01*
X178001705Y-42343385D01*
X177865316Y-42292255D01*
X177803134Y-42285500D01*
X176006866Y-42285500D01*
X175944684Y-42292255D01*
X175808295Y-42343385D01*
X175710565Y-42416630D01*
X175644059Y-42441478D01*
X175574676Y-42426425D01*
X175559435Y-42416630D01*
X175461705Y-42343385D01*
X175325316Y-42292255D01*
X175263134Y-42285500D01*
X173466866Y-42285500D01*
X173404684Y-42292255D01*
X173268295Y-42343385D01*
X173201323Y-42393578D01*
X173170148Y-42416942D01*
X173103642Y-42441790D01*
X173034259Y-42426737D01*
X173019018Y-42416942D01*
X172928649Y-42349214D01*
X172913054Y-42340676D01*
X172792606Y-42295522D01*
X172777351Y-42291895D01*
X172726486Y-42286369D01*
X172719672Y-42286000D01*
X172097115Y-42286000D01*
X172081876Y-42290475D01*
X172080671Y-42291865D01*
X172079000Y-42299548D01*
X172079000Y-44983884D01*
X171571000Y-44983884D01*
X171571000Y-42304116D01*
X171566525Y-42288877D01*
X171565135Y-42287672D01*
X171557452Y-42286001D01*
X170930331Y-42286001D01*
X170923510Y-42286371D01*
X170872648Y-42291895D01*
X170857396Y-42295521D01*
X170736946Y-42340676D01*
X170721351Y-42349214D01*
X170630982Y-42416942D01*
X170564475Y-42441790D01*
X170495093Y-42426737D01*
X170479852Y-42416942D01*
X170448677Y-42393578D01*
X170381705Y-42343385D01*
X170245316Y-42292255D01*
X170183134Y-42285500D01*
X168386866Y-42285500D01*
X168324684Y-42292255D01*
X168188295Y-42343385D01*
X168071739Y-42430739D01*
X167984385Y-42547295D01*
X167933255Y-42683684D01*
X167926500Y-42745866D01*
X167926500Y-44542134D01*
X159873500Y-44542134D01*
X159873500Y-42745866D01*
X159866745Y-42683684D01*
X159815615Y-42547295D01*
X159728261Y-42430739D01*
X159611705Y-42343385D01*
X159475316Y-42292255D01*
X159413134Y-42285500D01*
X157616866Y-42285500D01*
X157554684Y-42292255D01*
X157418295Y-42343385D01*
X157320565Y-42416630D01*
X157254059Y-42441478D01*
X157184676Y-42426425D01*
X157169435Y-42416630D01*
X157071705Y-42343385D01*
X156935316Y-42292255D01*
X156873134Y-42285500D01*
X155076866Y-42285500D01*
X155014684Y-42292255D01*
X154878295Y-42343385D01*
X154780565Y-42416630D01*
X154714059Y-42441478D01*
X154644676Y-42426425D01*
X154629435Y-42416630D01*
X154531705Y-42343385D01*
X154395316Y-42292255D01*
X154333134Y-42285500D01*
X152536866Y-42285500D01*
X152474684Y-42292255D01*
X152338295Y-42343385D01*
X152271323Y-42393578D01*
X152240148Y-42416942D01*
X152173642Y-42441790D01*
X152104259Y-42426737D01*
X152089018Y-42416942D01*
X151998649Y-42349214D01*
X151983054Y-42340676D01*
X151862606Y-42295522D01*
X151847351Y-42291895D01*
X151796486Y-42286369D01*
X151789672Y-42286000D01*
X151167115Y-42286000D01*
X151151876Y-42290475D01*
X151150671Y-42291865D01*
X151149000Y-42299548D01*
X151149000Y-44983884D01*
X150641000Y-44983884D01*
X150641000Y-43916115D01*
X150636525Y-43900876D01*
X150635135Y-43899671D01*
X150627452Y-43898000D01*
X149555116Y-43898000D01*
X149539877Y-43902475D01*
X149538672Y-43903865D01*
X149537001Y-43911548D01*
X149537001Y-44538669D01*
X137905000Y-44538669D01*
X137905000Y-43916115D01*
X137900525Y-43900876D01*
X137899135Y-43899671D01*
X137891452Y-43898000D01*
X136907115Y-43898000D01*
X136891876Y-43902475D01*
X136890671Y-43903865D01*
X136889000Y-43911548D01*
X136889000Y-44983884D01*
X136381000Y-44983884D01*
X136381000Y-43371885D01*
X136889000Y-43371885D01*
X136893475Y-43387124D01*
X136894865Y-43388329D01*
X136902548Y-43390000D01*
X137886884Y-43390000D01*
X137902123Y-43385525D01*
X137903328Y-43384135D01*
X137904999Y-43376452D01*
X137904999Y-43371885D01*
X149537000Y-43371885D01*
X149541475Y-43387124D01*
X149542865Y-43388329D01*
X149550548Y-43390000D01*
X150622885Y-43390000D01*
X150638124Y-43385525D01*
X150639329Y-43384135D01*
X150641000Y-43376452D01*
X150641000Y-42304116D01*
X150636525Y-42288877D01*
X150635135Y-42287672D01*
X150627452Y-42286001D01*
X150000331Y-42286001D01*
X149993510Y-42286371D01*
X149942648Y-42291895D01*
X149927396Y-42295521D01*
X149806946Y-42340676D01*
X149791351Y-42349214D01*
X149689276Y-42425715D01*
X149676715Y-42438276D01*
X149600214Y-42540351D01*
X149591676Y-42555946D01*
X149546522Y-42676394D01*
X149542895Y-42691649D01*
X149537369Y-42742514D01*
X149537000Y-42749328D01*
X149537000Y-43371885D01*
X137904999Y-43371885D01*
X137904999Y-42749331D01*
X137904629Y-42742510D01*
X137899105Y-42691648D01*
X137895479Y-42676396D01*
X137850324Y-42555946D01*
X137841786Y-42540351D01*
X137765285Y-42438276D01*
X137752724Y-42425715D01*
X137650649Y-42349214D01*
X137635054Y-42340676D01*
X137514606Y-42295522D01*
X137499351Y-42291895D01*
X137448486Y-42286369D01*
X137441672Y-42286000D01*
X136907115Y-42286000D01*
X136891876Y-42290475D01*
X136890671Y-42291865D01*
X136889000Y-42299548D01*
X136889000Y-43371885D01*
X136381000Y-43371885D01*
X136381000Y-42304116D01*
X136376525Y-42288877D01*
X136375135Y-42287672D01*
X136367452Y-42286001D01*
X135828331Y-42286001D01*
X135821510Y-42286371D01*
X135770648Y-42291895D01*
X135755396Y-42295521D01*
X135634946Y-42340676D01*
X135619351Y-42349214D01*
X135517276Y-42425715D01*
X135504715Y-42438276D01*
X135466138Y-42489749D01*
X135409279Y-42532264D01*
X135338460Y-42537290D01*
X135276167Y-42503230D01*
X135264491Y-42489755D01*
X135220261Y-42430739D01*
X135103705Y-42343385D01*
X134967316Y-42292255D01*
X134905134Y-42285500D01*
X133284866Y-42285500D01*
X133222684Y-42292255D01*
X133086295Y-42343385D01*
X132969739Y-42430739D01*
X132964359Y-42437918D01*
X132964358Y-42437919D01*
X132925826Y-42489332D01*
X132868967Y-42531847D01*
X132798148Y-42536873D01*
X132735855Y-42502813D01*
X132724174Y-42489332D01*
X132685642Y-42437919D01*
X132685641Y-42437918D01*
X132680261Y-42430739D01*
X132563705Y-42343385D01*
X132427316Y-42292255D01*
X132365134Y-42285500D01*
X130744866Y-42285500D01*
X130682684Y-42292255D01*
X130546295Y-42343385D01*
X130429739Y-42430739D01*
X130342385Y-42547295D01*
X130291255Y-42683684D01*
X130284500Y-42745866D01*
X130284500Y-44542134D01*
X111700000Y-44542134D01*
X111700000Y-40944500D01*
X111720002Y-40876379D01*
X111773658Y-40829886D01*
X111826000Y-40818500D01*
X198375633Y-40818500D01*
X198395018Y-40820000D01*
G37*
%TD.AperFunction*%
%TD*%
M02*
