%TF.GenerationSoftware,KiCad,Pcbnew,(6.0.7)*%
%TF.CreationDate,2022-09-07T14:49:01+09:00*%
%TF.ProjectId,jonseol2,6a6f6e73-656f-46c3-922e-6b696361645f,rev?*%
%TF.SameCoordinates,Original*%
%TF.FileFunction,Soldermask,Top*%
%TF.FilePolarity,Negative*%
%FSLAX46Y46*%
G04 Gerber Fmt 4.6, Leading zero omitted, Abs format (unit mm)*
G04 Created by KiCad (PCBNEW (6.0.7)) date 2022-09-07 14:49:01*
%MOMM*%
%LPD*%
G01*
G04 APERTURE LIST*
%ADD10R,1.700000X1.700000*%
%ADD11R,1.524000X1.700000*%
%ADD12O,1.700000X1.700000*%
%ADD13C,3.200000*%
%ADD14R,1.524000X1.524000*%
G04 APERTURE END LIST*
D10*
%TO.C,R1*%
X151562000Y-102286000D03*
X154102000Y-102286000D03*
X156642000Y-102286000D03*
X159182000Y-102286000D03*
X161722000Y-102286000D03*
X164262000Y-102286000D03*
X166802000Y-102286000D03*
X169342000Y-102286000D03*
X171882000Y-102286000D03*
X174422000Y-102286000D03*
%TD*%
%TO.C,Display1*%
X169285000Y-43644000D03*
X171825000Y-43644000D03*
X174365000Y-43644000D03*
X176905000Y-43644000D03*
%TD*%
%TO.C,U1*%
X150895000Y-43644000D03*
X153435000Y-43644000D03*
X155975000Y-43644000D03*
X158515000Y-43644000D03*
%TD*%
D11*
%TO.C,B1*%
X131555000Y-43644000D03*
X134095000Y-43644000D03*
X136635000Y-43644000D03*
%TD*%
D10*
%TO.C,J4*%
X193980000Y-92380000D03*
D12*
X196520000Y-92380000D03*
X193980000Y-89840000D03*
X196520000Y-89840000D03*
X193980000Y-87300000D03*
X196520000Y-87300000D03*
X193980000Y-84760000D03*
X196520000Y-84760000D03*
X193980000Y-82220000D03*
X196520000Y-82220000D03*
X193980000Y-79680000D03*
X196520000Y-79680000D03*
X193980000Y-77140000D03*
X196520000Y-77140000D03*
X193980000Y-74600000D03*
X196520000Y-74600000D03*
X193980000Y-72060000D03*
X196520000Y-72060000D03*
X193980000Y-69520000D03*
X196520000Y-69520000D03*
X193980000Y-66980000D03*
X196520000Y-66980000D03*
X193980000Y-64440000D03*
X196520000Y-64440000D03*
X193980000Y-61900000D03*
X196520000Y-61900000D03*
X193980000Y-59360000D03*
X196520000Y-59360000D03*
X193980000Y-56820000D03*
X196520000Y-56820000D03*
X193980000Y-54280000D03*
X196520000Y-54280000D03*
X193980000Y-51740000D03*
X196520000Y-51740000D03*
X193980000Y-49200000D03*
X196520000Y-49200000D03*
%TD*%
D10*
%TO.C,J1*%
X127940000Y-97460000D03*
D12*
X130480000Y-97460000D03*
X133020000Y-97460000D03*
X135560000Y-97460000D03*
X138100000Y-97460000D03*
X140640000Y-97460000D03*
X143180000Y-97460000D03*
X145720000Y-97460000D03*
%TD*%
D10*
%TO.C,J2*%
X150800000Y-97460000D03*
D12*
X153340000Y-97460000D03*
X155880000Y-97460000D03*
X158420000Y-97460000D03*
X160960000Y-97460000D03*
X163500000Y-97460000D03*
X166040000Y-97460000D03*
X168580000Y-97460000D03*
%TD*%
D10*
%TO.C,J3*%
X173660000Y-97460000D03*
D12*
X176200000Y-97460000D03*
X178740000Y-97460000D03*
X181280000Y-97460000D03*
X183820000Y-97460000D03*
X186360000Y-97460000D03*
X188900000Y-97460000D03*
X191440000Y-97460000D03*
%TD*%
%TO.C,J5*%
X123876000Y-49200000D03*
X126416000Y-49200000D03*
X128956000Y-49200000D03*
X131496000Y-49200000D03*
X134036000Y-49200000D03*
X136576000Y-49200000D03*
X139116000Y-49200000D03*
X141656000Y-49200000D03*
%TD*%
D10*
%TO.C,J6*%
X145720000Y-49200000D03*
D12*
X148260000Y-49200000D03*
X150800000Y-49200000D03*
X153340000Y-49200000D03*
X155880000Y-49200000D03*
X158420000Y-49200000D03*
X160960000Y-49200000D03*
X163500000Y-49200000D03*
%TD*%
D10*
%TO.C,J7*%
X168580000Y-49200000D03*
D12*
X171120000Y-49200000D03*
X173660000Y-49200000D03*
X176200000Y-49200000D03*
X178740000Y-49200000D03*
X181280000Y-49200000D03*
X183820000Y-49200000D03*
X186360000Y-49200000D03*
%TD*%
D13*
%TO.C,MH6*%
X196520000Y-97460000D03*
%TD*%
%TO.C,MH1*%
X115240000Y-49200000D03*
%TD*%
D10*
%TO.C,*%
X128890000Y-102566000D03*
%TD*%
%TO.C,E1*%
X158815000Y-57475000D03*
X158815000Y-60015000D03*
X158815000Y-62555000D03*
X158815000Y-65095000D03*
X158815000Y-67635000D03*
X158815000Y-70175000D03*
X158815000Y-72715000D03*
X158815000Y-75255000D03*
X136175000Y-75255000D03*
X136175000Y-72715000D03*
D14*
X136175000Y-70175000D03*
D10*
X136175000Y-67635000D03*
X136175000Y-65095000D03*
X136175000Y-62555000D03*
X136175000Y-60015000D03*
X136175000Y-57475000D03*
%TD*%
D13*
%TO.C,MH2*%
X113970000Y-97460000D03*
%TD*%
%TO.C,MH3*%
X166040000Y-64440000D03*
%TD*%
D10*
%TO.C,*%
X131430000Y-102566000D03*
%TD*%
D13*
%TO.C,MH4*%
X166040000Y-92380000D03*
%TD*%
%TO.C,MH5*%
X190170000Y-49200000D03*
%TD*%
M02*
