M48
; DRILL file {KiCad (6.0.7)} date Wed Sep  7 14:49:09 2022
; FORMAT={-:-/ absolute / metric / decimal}
; #@! TF.CreationDate,2022-09-07T14:49:09+09:00
; #@! TF.GenerationSoftware,Kicad,Pcbnew,(6.0.7)
; #@! TF.FileFunction,Plated,1,2,PTH
FMAT,2
METRIC
; #@! TA.AperFunction,Plated,PTH,ComponentDrill
T1C1.000
; #@! TA.AperFunction,Plated,PTH,ComponentDrill
T2C1.020
%
G90
G05
T1
X123.876Y-49.2
X126.416Y-49.2
X127.94Y-97.46
X128.89Y-102.566
X128.956Y-49.2
X130.48Y-97.46
X131.43Y-102.566
X131.496Y-49.2
X131.555Y-43.644
X133.02Y-97.46
X134.036Y-49.2
X134.095Y-43.644
X135.56Y-97.46
X136.175Y-57.475
X136.175Y-60.015
X136.175Y-62.555
X136.175Y-65.095
X136.175Y-67.635
X136.175Y-72.715
X136.175Y-75.255
X136.576Y-49.2
X136.635Y-43.644
X138.1Y-97.46
X139.116Y-49.2
X140.64Y-97.46
X141.656Y-49.2
X143.18Y-97.46
X145.72Y-49.2
X145.72Y-97.46
X148.26Y-49.2
X150.8Y-49.2
X150.8Y-97.46
X150.895Y-43.644
X151.562Y-102.286
X153.34Y-49.2
X153.34Y-97.46
X153.435Y-43.644
X154.102Y-102.286
X155.88Y-49.2
X155.88Y-97.46
X155.975Y-43.644
X156.642Y-102.286
X158.42Y-49.2
X158.42Y-97.46
X158.515Y-43.644
X158.815Y-57.475
X158.815Y-60.015
X158.815Y-62.555
X158.815Y-65.095
X158.815Y-67.635
X158.815Y-70.175
X158.815Y-72.715
X158.815Y-75.255
X159.182Y-102.286
X160.96Y-49.2
X160.96Y-97.46
X161.722Y-102.286
X163.5Y-49.2
X163.5Y-97.46
X164.262Y-102.286
X166.04Y-97.46
X166.802Y-102.286
X168.58Y-49.2
X168.58Y-97.46
X169.285Y-43.644
X169.342Y-102.286
X171.12Y-49.2
X171.825Y-43.644
X171.882Y-102.286
X173.66Y-49.2
X173.66Y-97.46
X174.365Y-43.644
X174.422Y-102.286
X176.2Y-49.2
X176.2Y-97.46
X176.905Y-43.644
X178.74Y-49.2
X178.74Y-97.46
X181.28Y-49.2
X181.28Y-97.46
X183.82Y-49.2
X183.82Y-97.46
X186.36Y-49.2
X186.36Y-97.46
X188.9Y-97.46
X191.44Y-97.46
X193.98Y-49.2
X193.98Y-51.74
X193.98Y-54.28
X193.98Y-56.82
X193.98Y-59.36
X193.98Y-61.9
X193.98Y-64.44
X193.98Y-66.98
X193.98Y-69.52
X193.98Y-72.06
X193.98Y-74.6
X193.98Y-77.14
X193.98Y-79.68
X193.98Y-82.22
X193.98Y-84.76
X193.98Y-87.3
X193.98Y-89.84
X193.98Y-92.38
X196.52Y-49.2
X196.52Y-51.74
X196.52Y-54.28
X196.52Y-56.82
X196.52Y-59.36
X196.52Y-61.9
X196.52Y-64.44
X196.52Y-66.98
X196.52Y-69.52
X196.52Y-72.06
X196.52Y-74.6
X196.52Y-77.14
X196.52Y-79.68
X196.52Y-82.22
X196.52Y-84.76
X196.52Y-87.3
X196.52Y-89.84
X196.52Y-92.38
T2
X136.175Y-70.175
T0
M30
