%TF.GenerationSoftware,KiCad,Pcbnew,(6.0.7)*%
%TF.CreationDate,2022-09-07T14:49:01+09:00*%
%TF.ProjectId,jonseol2,6a6f6e73-656f-46c3-922e-6b696361645f,rev?*%
%TF.SameCoordinates,Original*%
%TF.FileFunction,Legend,Top*%
%TF.FilePolarity,Positive*%
%FSLAX46Y46*%
G04 Gerber Fmt 4.6, Leading zero omitted, Abs format (unit mm)*
G04 Created by KiCad (PCBNEW (6.0.7)) date 2022-09-07 14:49:01*
%MOMM*%
%LPD*%
G01*
G04 APERTURE LIST*
%ADD10C,0.150000*%
%ADD11C,0.300000*%
%ADD12C,0.120000*%
G04 APERTURE END LIST*
D10*
X127605000Y-101300000D02*
X132695000Y-101300000D01*
X132695000Y-101300000D02*
X132695000Y-103800000D01*
X132695000Y-103800000D02*
X127605000Y-103800000D01*
X127605000Y-103800000D02*
X127605000Y-101300000D01*
X127786190Y-99952380D02*
X128119523Y-100952380D01*
X128452857Y-99952380D01*
X128786190Y-100952380D02*
X128786190Y-100285714D01*
X128786190Y-99952380D02*
X128738571Y-100000000D01*
X128786190Y-100047619D01*
X128833809Y-100000000D01*
X128786190Y-99952380D01*
X128786190Y-100047619D01*
X129262380Y-100285714D02*
X129262380Y-100952380D01*
X129262380Y-100380952D02*
X129310000Y-100333333D01*
X129405238Y-100285714D01*
X129548095Y-100285714D01*
X129643333Y-100333333D01*
X129690952Y-100428571D01*
X129690952Y-100952380D01*
D11*
X182607142Y-44251142D02*
X182821428Y-44322571D01*
X183178571Y-44322571D01*
X183321428Y-44251142D01*
X183392857Y-44179714D01*
X183464285Y-44036857D01*
X183464285Y-43894000D01*
X183392857Y-43751142D01*
X183321428Y-43679714D01*
X183178571Y-43608285D01*
X182892857Y-43536857D01*
X182750000Y-43465428D01*
X182678571Y-43394000D01*
X182607142Y-43251142D01*
X182607142Y-43108285D01*
X182678571Y-42965428D01*
X182750000Y-42894000D01*
X182892857Y-42822571D01*
X183250000Y-42822571D01*
X183464285Y-42894000D01*
X184107142Y-44322571D02*
X184107142Y-42822571D01*
X184750000Y-44322571D02*
X184750000Y-43536857D01*
X184678571Y-43394000D01*
X184535714Y-43322571D01*
X184321428Y-43322571D01*
X184178571Y-43394000D01*
X184107142Y-43465428D01*
X185678571Y-44322571D02*
X185535714Y-44251142D01*
X185464285Y-44179714D01*
X185392857Y-44036857D01*
X185392857Y-43608285D01*
X185464285Y-43465428D01*
X185535714Y-43394000D01*
X185678571Y-43322571D01*
X185892857Y-43322571D01*
X186035714Y-43394000D01*
X186107142Y-43465428D01*
X186178571Y-43608285D01*
X186178571Y-44036857D01*
X186107142Y-44179714D01*
X186035714Y-44251142D01*
X185892857Y-44322571D01*
X185678571Y-44322571D01*
X186607142Y-43322571D02*
X187178571Y-43322571D01*
X186821428Y-42822571D02*
X186821428Y-44108285D01*
X186892857Y-44251142D01*
X187035714Y-44322571D01*
X187178571Y-44322571D01*
X187678571Y-43751142D02*
X188821428Y-43751142D01*
X189464285Y-44251142D02*
X189678571Y-44322571D01*
X190035714Y-44322571D01*
X190178571Y-44251142D01*
X190250000Y-44179714D01*
X190321428Y-44036857D01*
X190321428Y-43894000D01*
X190250000Y-43751142D01*
X190178571Y-43679714D01*
X190035714Y-43608285D01*
X189750000Y-43536857D01*
X189607142Y-43465428D01*
X189535714Y-43394000D01*
X189464285Y-43251142D01*
X189464285Y-43108285D01*
X189535714Y-42965428D01*
X189607142Y-42894000D01*
X189750000Y-42822571D01*
X190107142Y-42822571D01*
X190321428Y-42894000D01*
X190964285Y-44322571D02*
X190964285Y-42822571D01*
X191607142Y-44322571D02*
X191607142Y-43536857D01*
X191535714Y-43394000D01*
X191392857Y-43322571D01*
X191178571Y-43322571D01*
X191035714Y-43394000D01*
X190964285Y-43465428D01*
X192964285Y-44322571D02*
X192964285Y-43536857D01*
X192892857Y-43394000D01*
X192750000Y-43322571D01*
X192464285Y-43322571D01*
X192321428Y-43394000D01*
X192964285Y-44251142D02*
X192821428Y-44322571D01*
X192464285Y-44322571D01*
X192321428Y-44251142D01*
X192250000Y-44108285D01*
X192250000Y-43965428D01*
X192321428Y-43822571D01*
X192464285Y-43751142D01*
X192821428Y-43751142D01*
X192964285Y-43679714D01*
X193678571Y-44322571D02*
X193678571Y-43322571D01*
X193678571Y-43608285D02*
X193750000Y-43465428D01*
X193821428Y-43394000D01*
X193964285Y-43322571D01*
X194107142Y-43322571D01*
X194607142Y-44322571D02*
X194607142Y-43322571D01*
X194607142Y-42822571D02*
X194535714Y-42894000D01*
X194607142Y-42965428D01*
X194678571Y-42894000D01*
X194607142Y-42822571D01*
X194607142Y-42965428D01*
X195321428Y-43322571D02*
X195321428Y-44322571D01*
X195321428Y-43465428D02*
X195392857Y-43394000D01*
X195535714Y-43322571D01*
X195750000Y-43322571D01*
X195892857Y-43394000D01*
X195964285Y-43536857D01*
X195964285Y-44322571D01*
X197321428Y-43322571D02*
X197321428Y-44536857D01*
X197250000Y-44679714D01*
X197178571Y-44751142D01*
X197035714Y-44822571D01*
X196821428Y-44822571D01*
X196678571Y-44751142D01*
X197321428Y-44251142D02*
X197178571Y-44322571D01*
X196892857Y-44322571D01*
X196750000Y-44251142D01*
X196678571Y-44179714D01*
X196607142Y-44036857D01*
X196607142Y-43608285D01*
X196678571Y-43465428D01*
X196750000Y-43394000D01*
X196892857Y-43322571D01*
X197178571Y-43322571D01*
X197321428Y-43394000D01*
D10*
X130838095Y-100000000D02*
X130742857Y-99952380D01*
X130600000Y-99952380D01*
X130457142Y-100000000D01*
X130361904Y-100095238D01*
X130314285Y-100190476D01*
X130266666Y-100380952D01*
X130266666Y-100523809D01*
X130314285Y-100714285D01*
X130361904Y-100809523D01*
X130457142Y-100904761D01*
X130600000Y-100952380D01*
X130695238Y-100952380D01*
X130838095Y-100904761D01*
X130885714Y-100857142D01*
X130885714Y-100523809D01*
X130695238Y-100523809D01*
X131314285Y-100952380D02*
X131314285Y-99952380D01*
X131885714Y-100952380D01*
X131885714Y-99952380D01*
X132361904Y-100952380D02*
X132361904Y-99952380D01*
X132600000Y-99952380D01*
X132742857Y-100000000D01*
X132838095Y-100095238D01*
X132885714Y-100190476D01*
X132933333Y-100380952D01*
X132933333Y-100523809D01*
X132885714Y-100714285D01*
X132838095Y-100809523D01*
X132742857Y-100904761D01*
X132600000Y-100952380D01*
X132361904Y-100952380D01*
%TO.C,R1*%
X146685714Y-102738380D02*
X146352380Y-102262190D01*
X146114285Y-102738380D02*
X146114285Y-101738380D01*
X146495238Y-101738380D01*
X146590476Y-101786000D01*
X146638095Y-101833619D01*
X146685714Y-101928857D01*
X146685714Y-102071714D01*
X146638095Y-102166952D01*
X146590476Y-102214571D01*
X146495238Y-102262190D01*
X146114285Y-102262190D01*
X147495238Y-102690761D02*
X147400000Y-102738380D01*
X147209523Y-102738380D01*
X147114285Y-102690761D01*
X147066666Y-102595523D01*
X147066666Y-102214571D01*
X147114285Y-102119333D01*
X147209523Y-102071714D01*
X147400000Y-102071714D01*
X147495238Y-102119333D01*
X147542857Y-102214571D01*
X147542857Y-102309809D01*
X147066666Y-102405047D01*
X148114285Y-102738380D02*
X148019047Y-102690761D01*
X147971428Y-102595523D01*
X147971428Y-101738380D01*
X148923809Y-102738380D02*
X148923809Y-102214571D01*
X148876190Y-102119333D01*
X148780952Y-102071714D01*
X148590476Y-102071714D01*
X148495238Y-102119333D01*
X148923809Y-102690761D02*
X148828571Y-102738380D01*
X148590476Y-102738380D01*
X148495238Y-102690761D01*
X148447619Y-102595523D01*
X148447619Y-102500285D01*
X148495238Y-102405047D01*
X148590476Y-102357428D01*
X148828571Y-102357428D01*
X148923809Y-102309809D01*
X149304761Y-102071714D02*
X149542857Y-102738380D01*
X149780952Y-102071714D02*
X149542857Y-102738380D01*
X149447619Y-102976476D01*
X149400000Y-103024095D01*
X149304761Y-103071714D01*
X150705095Y-99754000D02*
X150609857Y-99706380D01*
X150467000Y-99706380D01*
X150324142Y-99754000D01*
X150228904Y-99849238D01*
X150181285Y-99944476D01*
X150133666Y-100134952D01*
X150133666Y-100277809D01*
X150181285Y-100468285D01*
X150228904Y-100563523D01*
X150324142Y-100658761D01*
X150467000Y-100706380D01*
X150562238Y-100706380D01*
X150705095Y-100658761D01*
X150752714Y-100611142D01*
X150752714Y-100277809D01*
X150562238Y-100277809D01*
X151181285Y-100706380D02*
X151181285Y-99706380D01*
X151752714Y-100706380D01*
X151752714Y-99706380D01*
X152228904Y-100706380D02*
X152228904Y-99706380D01*
X152467000Y-99706380D01*
X152609857Y-99754000D01*
X152705095Y-99849238D01*
X152752714Y-99944476D01*
X152800333Y-100134952D01*
X152800333Y-100277809D01*
X152752714Y-100468285D01*
X152705095Y-100563523D01*
X152609857Y-100658761D01*
X152467000Y-100706380D01*
X152228904Y-100706380D01*
%TO.C,Display1*%
X165609523Y-44152380D02*
X165133333Y-44152380D01*
X165133333Y-43152380D01*
X166514285Y-44057142D02*
X166466666Y-44104761D01*
X166323809Y-44152380D01*
X166228571Y-44152380D01*
X166085714Y-44104761D01*
X165990476Y-44009523D01*
X165942857Y-43914285D01*
X165895238Y-43723809D01*
X165895238Y-43580952D01*
X165942857Y-43390476D01*
X165990476Y-43295238D01*
X166085714Y-43200000D01*
X166228571Y-43152380D01*
X166323809Y-43152380D01*
X166466666Y-43200000D01*
X166514285Y-43247619D01*
X166942857Y-44152380D02*
X166942857Y-43152380D01*
X167180952Y-43152380D01*
X167323809Y-43200000D01*
X167419047Y-43295238D01*
X167466666Y-43390476D01*
X167514285Y-43580952D01*
X167514285Y-43723809D01*
X167466666Y-43914285D01*
X167419047Y-44009523D01*
X167323809Y-44104761D01*
X167180952Y-44152380D01*
X166942857Y-44152380D01*
X168538095Y-41100000D02*
X168442857Y-41052380D01*
X168300000Y-41052380D01*
X168157142Y-41100000D01*
X168061904Y-41195238D01*
X168014285Y-41290476D01*
X167966666Y-41480952D01*
X167966666Y-41623809D01*
X168014285Y-41814285D01*
X168061904Y-41909523D01*
X168157142Y-42004761D01*
X168300000Y-42052380D01*
X168395238Y-42052380D01*
X168538095Y-42004761D01*
X168585714Y-41957142D01*
X168585714Y-41623809D01*
X168395238Y-41623809D01*
X169014285Y-42052380D02*
X169014285Y-41052380D01*
X169585714Y-42052380D01*
X169585714Y-41052380D01*
X170061904Y-42052380D02*
X170061904Y-41052380D01*
X170300000Y-41052380D01*
X170442857Y-41100000D01*
X170538095Y-41195238D01*
X170585714Y-41290476D01*
X170633333Y-41480952D01*
X170633333Y-41623809D01*
X170585714Y-41814285D01*
X170538095Y-41909523D01*
X170442857Y-42004761D01*
X170300000Y-42052380D01*
X170061904Y-42052380D01*
%TO.C,U1*%
X141928571Y-43096380D02*
X141928571Y-43905904D01*
X141976190Y-44001142D01*
X142023809Y-44048761D01*
X142119047Y-44096380D01*
X142309523Y-44096380D01*
X142404761Y-44048761D01*
X142452380Y-44001142D01*
X142500000Y-43905904D01*
X142500000Y-43096380D01*
X143119047Y-44096380D02*
X143023809Y-44048761D01*
X142976190Y-43953523D01*
X142976190Y-43096380D01*
X143357142Y-43429714D02*
X143738095Y-43429714D01*
X143500000Y-43096380D02*
X143500000Y-43953523D01*
X143547619Y-44048761D01*
X143642857Y-44096380D01*
X143738095Y-44096380D01*
X144071428Y-44096380D02*
X144071428Y-43429714D01*
X144071428Y-43620190D02*
X144119047Y-43524952D01*
X144166666Y-43477333D01*
X144261904Y-43429714D01*
X144357142Y-43429714D01*
X145119047Y-44096380D02*
X145119047Y-43572571D01*
X145071428Y-43477333D01*
X144976190Y-43429714D01*
X144785714Y-43429714D01*
X144690476Y-43477333D01*
X145119047Y-44048761D02*
X145023809Y-44096380D01*
X144785714Y-44096380D01*
X144690476Y-44048761D01*
X144642857Y-43953523D01*
X144642857Y-43858285D01*
X144690476Y-43763047D01*
X144785714Y-43715428D01*
X145023809Y-43715428D01*
X145119047Y-43667809D01*
X145547619Y-44048761D02*
X145642857Y-44096380D01*
X145833333Y-44096380D01*
X145928571Y-44048761D01*
X145976190Y-43953523D01*
X145976190Y-43905904D01*
X145928571Y-43810666D01*
X145833333Y-43763047D01*
X145690476Y-43763047D01*
X145595238Y-43715428D01*
X145547619Y-43620190D01*
X145547619Y-43572571D01*
X145595238Y-43477333D01*
X145690476Y-43429714D01*
X145833333Y-43429714D01*
X145928571Y-43477333D01*
X146547619Y-44096380D02*
X146452380Y-44048761D01*
X146404761Y-44001142D01*
X146357142Y-43905904D01*
X146357142Y-43620190D01*
X146404761Y-43524952D01*
X146452380Y-43477333D01*
X146547619Y-43429714D01*
X146690476Y-43429714D01*
X146785714Y-43477333D01*
X146833333Y-43524952D01*
X146880952Y-43620190D01*
X146880952Y-43905904D01*
X146833333Y-44001142D01*
X146785714Y-44048761D01*
X146690476Y-44096380D01*
X146547619Y-44096380D01*
X147309523Y-43429714D02*
X147309523Y-44096380D01*
X147309523Y-43524952D02*
X147357142Y-43477333D01*
X147452380Y-43429714D01*
X147595238Y-43429714D01*
X147690476Y-43477333D01*
X147738095Y-43572571D01*
X147738095Y-44096380D01*
X148214285Y-44096380D02*
X148214285Y-43429714D01*
X148214285Y-43096380D02*
X148166666Y-43144000D01*
X148214285Y-43191619D01*
X148261904Y-43144000D01*
X148214285Y-43096380D01*
X148214285Y-43191619D01*
X149119047Y-44048761D02*
X149023809Y-44096380D01*
X148833333Y-44096380D01*
X148738095Y-44048761D01*
X148690476Y-44001142D01*
X148642857Y-43905904D01*
X148642857Y-43620190D01*
X148690476Y-43524952D01*
X148738095Y-43477333D01*
X148833333Y-43429714D01*
X149023809Y-43429714D01*
X149119047Y-43477333D01*
X149466666Y-41052380D02*
X149800000Y-42052380D01*
X150133333Y-41052380D01*
X151038095Y-41957142D02*
X150990476Y-42004761D01*
X150847619Y-42052380D01*
X150752380Y-42052380D01*
X150609523Y-42004761D01*
X150514285Y-41909523D01*
X150466666Y-41814285D01*
X150419047Y-41623809D01*
X150419047Y-41480952D01*
X150466666Y-41290476D01*
X150514285Y-41195238D01*
X150609523Y-41100000D01*
X150752380Y-41052380D01*
X150847619Y-41052380D01*
X150990476Y-41100000D01*
X151038095Y-41147619D01*
X152038095Y-41957142D02*
X151990476Y-42004761D01*
X151847619Y-42052380D01*
X151752380Y-42052380D01*
X151609523Y-42004761D01*
X151514285Y-41909523D01*
X151466666Y-41814285D01*
X151419047Y-41623809D01*
X151419047Y-41480952D01*
X151466666Y-41290476D01*
X151514285Y-41195238D01*
X151609523Y-41100000D01*
X151752380Y-41052380D01*
X151847619Y-41052380D01*
X151990476Y-41100000D01*
X152038095Y-41147619D01*
%TO.C,B1*%
X125571428Y-43572571D02*
X125714285Y-43620190D01*
X125761904Y-43667809D01*
X125809523Y-43763047D01*
X125809523Y-43905904D01*
X125761904Y-44001142D01*
X125714285Y-44048761D01*
X125619047Y-44096380D01*
X125238095Y-44096380D01*
X125238095Y-43096380D01*
X125571428Y-43096380D01*
X125666666Y-43144000D01*
X125714285Y-43191619D01*
X125761904Y-43286857D01*
X125761904Y-43382095D01*
X125714285Y-43477333D01*
X125666666Y-43524952D01*
X125571428Y-43572571D01*
X125238095Y-43572571D01*
X126666666Y-43429714D02*
X126666666Y-44096380D01*
X126238095Y-43429714D02*
X126238095Y-43953523D01*
X126285714Y-44048761D01*
X126380952Y-44096380D01*
X126523809Y-44096380D01*
X126619047Y-44048761D01*
X126666666Y-44001142D01*
X127047619Y-43429714D02*
X127571428Y-43429714D01*
X127047619Y-44096380D01*
X127571428Y-44096380D01*
X127857142Y-43429714D02*
X128380952Y-43429714D01*
X127857142Y-44096380D01*
X128380952Y-44096380D01*
X129142857Y-44048761D02*
X129047619Y-44096380D01*
X128857142Y-44096380D01*
X128761904Y-44048761D01*
X128714285Y-43953523D01*
X128714285Y-43572571D01*
X128761904Y-43477333D01*
X128857142Y-43429714D01*
X129047619Y-43429714D01*
X129142857Y-43477333D01*
X129190476Y-43572571D01*
X129190476Y-43667809D01*
X128714285Y-43763047D01*
X129619047Y-44096380D02*
X129619047Y-43429714D01*
X129619047Y-43620190D02*
X129666666Y-43524952D01*
X129714285Y-43477333D01*
X129809523Y-43429714D01*
X129904761Y-43429714D01*
X130793095Y-41100000D02*
X130697857Y-41052380D01*
X130555000Y-41052380D01*
X130412142Y-41100000D01*
X130316904Y-41195238D01*
X130269285Y-41290476D01*
X130221666Y-41480952D01*
X130221666Y-41623809D01*
X130269285Y-41814285D01*
X130316904Y-41909523D01*
X130412142Y-42004761D01*
X130555000Y-42052380D01*
X130650238Y-42052380D01*
X130793095Y-42004761D01*
X130840714Y-41957142D01*
X130840714Y-41623809D01*
X130650238Y-41623809D01*
X131269285Y-42052380D02*
X131269285Y-41052380D01*
X131840714Y-42052380D01*
X131840714Y-41052380D01*
X132316904Y-42052380D02*
X132316904Y-41052380D01*
X132555000Y-41052380D01*
X132697857Y-41100000D01*
X132793095Y-41195238D01*
X132840714Y-41290476D01*
X132888333Y-41480952D01*
X132888333Y-41623809D01*
X132840714Y-41814285D01*
X132793095Y-41909523D01*
X132697857Y-42004761D01*
X132555000Y-42052380D01*
X132316904Y-42052380D01*
%TO.C,*%
%TO.C,E1*%
X145352142Y-72823571D02*
X145685476Y-72823571D01*
X145828333Y-73347380D02*
X145352142Y-73347380D01*
X145352142Y-72347380D01*
X145828333Y-72347380D01*
X146209285Y-73299761D02*
X146352142Y-73347380D01*
X146590238Y-73347380D01*
X146685476Y-73299761D01*
X146733095Y-73252142D01*
X146780714Y-73156904D01*
X146780714Y-73061666D01*
X146733095Y-72966428D01*
X146685476Y-72918809D01*
X146590238Y-72871190D01*
X146399761Y-72823571D01*
X146304523Y-72775952D01*
X146256904Y-72728333D01*
X146209285Y-72633095D01*
X146209285Y-72537857D01*
X146256904Y-72442619D01*
X146304523Y-72395000D01*
X146399761Y-72347380D01*
X146637857Y-72347380D01*
X146780714Y-72395000D01*
X147209285Y-73347380D02*
X147209285Y-72347380D01*
X147590238Y-72347380D01*
X147685476Y-72395000D01*
X147733095Y-72442619D01*
X147780714Y-72537857D01*
X147780714Y-72680714D01*
X147733095Y-72775952D01*
X147685476Y-72823571D01*
X147590238Y-72871190D01*
X147209285Y-72871190D01*
X148114047Y-72347380D02*
X148733095Y-72347380D01*
X148399761Y-72728333D01*
X148542619Y-72728333D01*
X148637857Y-72775952D01*
X148685476Y-72823571D01*
X148733095Y-72918809D01*
X148733095Y-73156904D01*
X148685476Y-73252142D01*
X148637857Y-73299761D01*
X148542619Y-73347380D01*
X148256904Y-73347380D01*
X148161666Y-73299761D01*
X148114047Y-73252142D01*
X149114047Y-72442619D02*
X149161666Y-72395000D01*
X149256904Y-72347380D01*
X149495000Y-72347380D01*
X149590238Y-72395000D01*
X149637857Y-72442619D01*
X149685476Y-72537857D01*
X149685476Y-72633095D01*
X149637857Y-72775952D01*
X149066428Y-73347380D01*
X149685476Y-73347380D01*
X138065523Y-56765380D02*
X137589333Y-56765380D01*
X137541714Y-57241571D01*
X137589333Y-57193952D01*
X137684571Y-57146333D01*
X137922666Y-57146333D01*
X138017904Y-57193952D01*
X138065523Y-57241571D01*
X138113142Y-57336809D01*
X138113142Y-57574904D01*
X138065523Y-57670142D01*
X138017904Y-57717761D01*
X137922666Y-57765380D01*
X137684571Y-57765380D01*
X137589333Y-57717761D01*
X137541714Y-57670142D01*
X138398857Y-56765380D02*
X138732190Y-57765380D01*
X139065523Y-56765380D01*
%TO.C,*%
D12*
%TO.C,R1*%
X175692000Y-101016000D02*
X175692000Y-103556000D01*
X150292000Y-103556000D02*
X150292000Y-101016000D01*
X150292000Y-101016000D02*
X175692000Y-101016000D01*
X150292000Y-103556000D02*
X175692000Y-103556000D01*
%TO.C,Display1*%
X178175000Y-44914000D02*
X178175000Y-42374000D01*
X168015000Y-44914000D02*
X178175000Y-44914000D01*
X178175000Y-42374000D02*
X168015000Y-42374000D01*
X168015000Y-44914000D02*
X168015000Y-42374000D01*
%TO.C,U1*%
X159785000Y-42374000D02*
X149625000Y-42374000D01*
X149625000Y-44914000D02*
X149625000Y-42374000D01*
X159785000Y-44914000D02*
X159785000Y-42374000D01*
X149625000Y-44914000D02*
X159785000Y-44914000D01*
%TO.C,B1*%
X130285000Y-44914000D02*
X130285000Y-42374000D01*
X130285000Y-44914000D02*
X137905000Y-44914000D01*
X137905000Y-42374000D02*
X130285000Y-42374000D01*
X137905000Y-44914000D02*
X137905000Y-42374000D01*
%TO.C,J4*%
X195250000Y-93710000D02*
X195250000Y-91110000D01*
X192650000Y-91110000D02*
X192650000Y-47870000D01*
X193980000Y-93710000D02*
X192650000Y-93710000D01*
X195250000Y-91110000D02*
X192650000Y-91110000D01*
X192650000Y-93710000D02*
X192650000Y-92380000D01*
X197850000Y-47870000D02*
X192650000Y-47870000D01*
X197850000Y-93710000D02*
X195250000Y-93710000D01*
X197850000Y-93710000D02*
X197850000Y-47870000D01*
%TO.C,J1*%
X129210000Y-98790000D02*
X147050000Y-98790000D01*
X129210000Y-98790000D02*
X129210000Y-96130000D01*
X147050000Y-98790000D02*
X147050000Y-96130000D01*
X129210000Y-96130000D02*
X147050000Y-96130000D01*
X126610000Y-97460000D02*
X126610000Y-96130000D01*
X126610000Y-96130000D02*
X127940000Y-96130000D01*
%TO.C,J2*%
X152070000Y-98790000D02*
X169910000Y-98790000D01*
X152070000Y-96130000D02*
X169910000Y-96130000D01*
X149470000Y-97460000D02*
X149470000Y-96130000D01*
X149470000Y-96130000D02*
X150800000Y-96130000D01*
X152070000Y-98790000D02*
X152070000Y-96130000D01*
X169910000Y-98790000D02*
X169910000Y-96130000D01*
%TO.C,J3*%
X174930000Y-98790000D02*
X192770000Y-98790000D01*
X172330000Y-97460000D02*
X172330000Y-96130000D01*
X192770000Y-98790000D02*
X192770000Y-96130000D01*
X172330000Y-96130000D02*
X173660000Y-96130000D01*
X174930000Y-98790000D02*
X174930000Y-96130000D01*
X174930000Y-96130000D02*
X192770000Y-96130000D01*
%TO.C,J5*%
X122606000Y-50530000D02*
X122606000Y-47870000D01*
X122606000Y-47870000D02*
X142986000Y-47870000D01*
X142986000Y-50530000D02*
X142986000Y-47870000D01*
X122606000Y-50530000D02*
X142986000Y-50530000D01*
%TO.C,J6*%
X144390000Y-49200000D02*
X144390000Y-47870000D01*
X146990000Y-50530000D02*
X164830000Y-50530000D01*
X164830000Y-50530000D02*
X164830000Y-47870000D01*
X146990000Y-50530000D02*
X146990000Y-47870000D01*
X146990000Y-47870000D02*
X164830000Y-47870000D01*
X144390000Y-47870000D02*
X145720000Y-47870000D01*
%TO.C,J7*%
X167250000Y-49200000D02*
X167250000Y-47870000D01*
X169850000Y-50530000D02*
X169850000Y-47870000D01*
X167250000Y-47870000D02*
X168580000Y-47870000D01*
X169850000Y-47870000D02*
X187690000Y-47870000D01*
X169850000Y-50530000D02*
X187690000Y-50530000D01*
X187690000Y-50530000D02*
X187690000Y-47870000D01*
%TO.C,E1*%
X160995000Y-52895000D02*
X133995000Y-52895000D01*
X133995000Y-52895000D02*
X133995000Y-92895000D01*
X133995000Y-92895000D02*
X160995000Y-92895000D01*
X160995000Y-92895000D02*
X160995000Y-52895000D01*
%TO.C,G\u002A\u002A\u002A*%
G36*
X181329473Y-76682585D02*
G01*
X181275035Y-76604456D01*
X181207232Y-76538249D01*
X181263733Y-76456129D01*
X181406462Y-76390200D01*
X181552330Y-76370666D01*
X181750298Y-76332167D01*
X181801333Y-76243666D01*
X181869106Y-76131418D01*
X181928333Y-76116666D01*
X182040581Y-76184439D01*
X182055333Y-76243666D01*
X182131061Y-76344492D01*
X182309333Y-76370666D01*
X182510985Y-76408530D01*
X182563333Y-76497666D01*
X182527701Y-76610474D01*
X182497595Y-76624666D01*
X182463618Y-76699203D01*
X182458457Y-76885505D01*
X182464050Y-76962227D01*
X182469992Y-77191527D01*
X182407594Y-77327885D01*
X182242369Y-77444275D01*
X182233989Y-77449061D01*
X182060043Y-77564043D01*
X181973365Y-77652622D01*
X181971201Y-77661833D01*
X182047468Y-77696609D01*
X182244763Y-77719674D01*
X182436333Y-77725333D01*
X182902000Y-77725333D01*
X182902000Y-76963333D01*
X182906949Y-76591583D01*
X182925012Y-76360025D01*
X182961011Y-76239722D01*
X183019770Y-76201735D01*
X183029000Y-76201333D01*
X183112707Y-76251195D01*
X183150836Y-76420736D01*
X183156000Y-76582333D01*
X183163084Y-76816537D01*
X183205621Y-76927454D01*
X183315536Y-76961097D01*
X183420366Y-76963333D01*
X183592894Y-76974825D01*
X183624423Y-77024007D01*
X183579333Y-77090333D01*
X183412166Y-77199012D01*
X183314966Y-77217333D01*
X183228581Y-77237466D01*
X183180407Y-77322436D01*
X183159798Y-77509099D01*
X183156000Y-77767666D01*
X183147521Y-78076356D01*
X183117225Y-78247928D01*
X183057822Y-78313970D01*
X183029000Y-78318000D01*
X182925571Y-78247413D01*
X182902000Y-78148666D01*
X182891282Y-78074559D01*
X182839615Y-78025916D01*
X182717726Y-77997413D01*
X182496343Y-77983729D01*
X182146193Y-77979541D01*
X181970666Y-77979333D01*
X181596432Y-77972923D01*
X181293990Y-77955542D01*
X181097509Y-77929964D01*
X181039333Y-77903725D01*
X181116976Y-77805669D01*
X181324549Y-77742261D01*
X181554258Y-77725333D01*
X181744878Y-77694010D01*
X181794437Y-77620582D01*
X181691635Y-77535858D01*
X181631910Y-77513638D01*
X181427940Y-77368171D01*
X181320783Y-77121366D01*
X181322765Y-76961412D01*
X181572179Y-76961412D01*
X181574181Y-77165110D01*
X181575610Y-77168899D01*
X181678788Y-77272451D01*
X181895785Y-77287239D01*
X181906584Y-77286241D01*
X182097532Y-77248149D01*
X182171738Y-77149720D01*
X182182333Y-77005666D01*
X182161053Y-76825518D01*
X182062764Y-76759171D01*
X181937560Y-76751666D01*
X181704580Y-76810601D01*
X181572179Y-76961412D01*
X181322765Y-76961412D01*
X181323844Y-76874276D01*
X181329473Y-76682585D01*
G37*
G36*
X183228947Y-68870423D02*
G01*
X183289019Y-68976788D01*
X183344659Y-69182730D01*
X183354945Y-69240528D01*
X183455665Y-69535361D01*
X183620066Y-69765163D01*
X183765275Y-69937789D01*
X183833971Y-70091410D01*
X183810071Y-70181599D01*
X183773864Y-70190000D01*
X183682361Y-70136015D01*
X183520581Y-69999750D01*
X183439884Y-69923933D01*
X183165373Y-69657867D01*
X182941493Y-69923933D01*
X182770322Y-70088945D01*
X182610108Y-70183949D01*
X182501813Y-70190028D01*
X182478666Y-70137677D01*
X182529756Y-70048042D01*
X182658768Y-69882447D01*
X182731443Y-69797457D01*
X182901219Y-69565464D01*
X183017300Y-69336790D01*
X183034848Y-69278280D01*
X183098654Y-69013505D01*
X183149910Y-68884200D01*
X183203656Y-68858763D01*
X183228947Y-68870423D01*
G37*
G36*
X175888780Y-77260728D02*
G01*
X176049462Y-77053035D01*
X176267931Y-76928479D01*
X176522122Y-76921585D01*
X176654635Y-76972472D01*
X176928228Y-77194790D01*
X177050861Y-77473316D01*
X177016313Y-77779971D01*
X176884521Y-78010248D01*
X176646383Y-78192811D01*
X176363323Y-78234219D01*
X176086201Y-78132956D01*
X175974091Y-78037376D01*
X175829030Y-77787424D01*
X175812588Y-77576547D01*
X176044000Y-77576547D01*
X176096953Y-77767130D01*
X176222085Y-77949608D01*
X176368806Y-78056656D01*
X176410288Y-78064000D01*
X176534324Y-78012122D01*
X176651166Y-77923877D01*
X176772205Y-77725125D01*
X176782790Y-77493849D01*
X176698572Y-77284803D01*
X176535202Y-77152740D01*
X176425000Y-77132666D01*
X176246550Y-77205337D01*
X176100570Y-77378976D01*
X176044000Y-77576547D01*
X175812588Y-77576547D01*
X175807948Y-77517033D01*
X175888780Y-77260728D01*
G37*
G36*
X177907162Y-65985204D02*
G01*
X177991688Y-65806389D01*
X178235033Y-65533598D01*
X178520365Y-65404495D01*
X178816505Y-65410057D01*
X179092275Y-65541262D01*
X179316494Y-65789088D01*
X179457984Y-66144512D01*
X179474810Y-66235560D01*
X179499053Y-66735567D01*
X179418353Y-67154315D01*
X179242913Y-67472638D01*
X178982935Y-67671365D01*
X178678287Y-67732092D01*
X178429192Y-67706937D01*
X178235162Y-67649202D01*
X178224164Y-67643217D01*
X178029351Y-67441225D01*
X177894180Y-67126514D01*
X177824715Y-66746998D01*
X177826606Y-66421881D01*
X178082489Y-66421881D01*
X178092415Y-66665354D01*
X178120414Y-66995587D01*
X178168798Y-67205021D01*
X178252553Y-67342103D01*
X178321556Y-67406187D01*
X178563258Y-67545566D01*
X178794154Y-67537353D01*
X178919327Y-67482453D01*
X179073486Y-67319402D01*
X179192984Y-67043397D01*
X179256372Y-66710300D01*
X179261333Y-66591666D01*
X179213848Y-66201343D01*
X179086318Y-65897789D01*
X178901125Y-65697293D01*
X178680654Y-65616146D01*
X178447290Y-65670639D01*
X178243384Y-65850833D01*
X178143754Y-66003864D01*
X178093541Y-66175768D01*
X178082489Y-66421881D01*
X177826606Y-66421881D01*
X177827021Y-66350589D01*
X177907162Y-65985204D01*
G37*
G36*
X178915191Y-78133534D02*
G01*
X178980190Y-78284377D01*
X179007275Y-78524189D01*
X179007333Y-78536591D01*
X179014114Y-78633168D01*
X179056073Y-78693298D01*
X179165635Y-78725612D01*
X179375227Y-78738742D01*
X179717272Y-78741322D01*
X179776388Y-78741333D01*
X180158207Y-78747484D01*
X180392285Y-78767978D01*
X180499836Y-78805873D01*
X180510359Y-78847166D01*
X180417528Y-78892497D01*
X180200573Y-78932042D01*
X179904670Y-78963285D01*
X179574995Y-78983707D01*
X179256726Y-78990794D01*
X178995038Y-78982026D01*
X178835111Y-78954889D01*
X178812639Y-78941750D01*
X178771181Y-78818815D01*
X178754918Y-78605031D01*
X178762479Y-78369391D01*
X178792492Y-78180889D01*
X178829128Y-78111816D01*
X178915191Y-78133534D01*
G37*
G36*
X177779666Y-76179994D02*
G01*
X177812783Y-76270054D01*
X177841974Y-76510374D01*
X177865791Y-76881897D01*
X177882784Y-77365569D01*
X177887547Y-77598160D01*
X177894396Y-78120579D01*
X177893745Y-78496654D01*
X177883859Y-78749276D01*
X177863003Y-78901335D01*
X177829445Y-78975724D01*
X177781713Y-78995333D01*
X177717383Y-78966045D01*
X177678010Y-78858232D01*
X177658227Y-78641964D01*
X177652669Y-78287314D01*
X177652666Y-78275666D01*
X177652666Y-77556000D01*
X177398666Y-77556000D01*
X177220324Y-77531475D01*
X177144686Y-77472386D01*
X177144666Y-77471333D01*
X177218153Y-77411549D01*
X177394848Y-77386666D01*
X177645248Y-77386666D01*
X177670124Y-76772833D01*
X177693525Y-76462995D01*
X177731317Y-76254133D01*
X177777333Y-76179613D01*
X177779666Y-76179994D01*
G37*
G36*
X176528428Y-76271919D02*
G01*
X176552000Y-76370666D01*
X176584241Y-76486306D01*
X176710929Y-76533788D01*
X176855388Y-76540000D01*
X177069669Y-76563988D01*
X177126099Y-76637197D01*
X177123740Y-76645833D01*
X177014889Y-76710749D01*
X176738316Y-76755253D01*
X176388777Y-76776390D01*
X176033872Y-76783037D01*
X175822774Y-76770140D01*
X175730751Y-76734545D01*
X175724779Y-76691723D01*
X175825940Y-76608083D01*
X176020947Y-76556683D01*
X176029353Y-76555802D01*
X176227476Y-76506270D01*
X176296487Y-76394785D01*
X176298000Y-76365302D01*
X176352340Y-76231020D01*
X176425000Y-76201333D01*
X176528428Y-76271919D01*
G37*
G36*
X176388762Y-68879725D02*
G01*
X176428784Y-69075248D01*
X176450206Y-69322166D01*
X176468703Y-69611269D01*
X176500599Y-69769926D01*
X176562987Y-69836988D01*
X176672961Y-69851302D01*
X176683040Y-69851333D01*
X176840211Y-69880828D01*
X176890666Y-69936000D01*
X176818210Y-69999645D01*
X176679000Y-70020666D01*
X176580942Y-70026252D01*
X176519099Y-70064154D01*
X176485123Y-70166092D01*
X176470668Y-70363783D01*
X176467386Y-70688946D01*
X176467333Y-70825000D01*
X176462935Y-71207396D01*
X176446666Y-71449363D01*
X176413913Y-71579648D01*
X176360065Y-71626999D01*
X176338286Y-71629333D01*
X176290363Y-71609519D01*
X176256868Y-71534817D01*
X176236069Y-71382335D01*
X176226230Y-71129183D01*
X176225619Y-70752470D01*
X176232452Y-70232160D01*
X176246138Y-69706971D01*
X176267259Y-69285906D01*
X176294364Y-68988023D01*
X176326004Y-68832376D01*
X176340333Y-68813994D01*
X176388762Y-68879725D01*
G37*
G36*
X181851737Y-72745275D02*
G01*
X182068243Y-72789222D01*
X182158852Y-72859272D01*
X182109773Y-72930227D01*
X181974020Y-72968721D01*
X181842269Y-73063654D01*
X181796896Y-73274100D01*
X181836038Y-73571052D01*
X181957831Y-73925499D01*
X182047505Y-74112119D01*
X182189508Y-74405882D01*
X182239033Y-74582430D01*
X182199264Y-74664267D01*
X182127511Y-74677333D01*
X182053654Y-74608206D01*
X181938515Y-74430858D01*
X181856556Y-74279819D01*
X181654533Y-73882304D01*
X181478694Y-74279819D01*
X181349394Y-74517082D01*
X181223735Y-74656983D01*
X181171094Y-74677333D01*
X181055158Y-74653572D01*
X181039333Y-74632185D01*
X181074619Y-74537757D01*
X181165592Y-74341833D01*
X181252691Y-74165995D01*
X181388524Y-73844254D01*
X181490767Y-73506255D01*
X181518199Y-73364476D01*
X181543976Y-73131429D01*
X181523018Y-73020452D01*
X181435012Y-72986356D01*
X181347174Y-72984000D01*
X181182627Y-72956907D01*
X181124000Y-72900946D01*
X181201222Y-72812989D01*
X181406002Y-72755741D01*
X181698011Y-72737830D01*
X181851737Y-72745275D01*
G37*
G36*
X177080324Y-79903065D02*
G01*
X177123859Y-79994987D01*
X177256281Y-80189514D01*
X177467387Y-80402558D01*
X177565859Y-80481820D01*
X177760999Y-80637691D01*
X177883571Y-80757683D01*
X177904665Y-80794500D01*
X177849647Y-80863957D01*
X177701625Y-80838691D01*
X177497621Y-80732454D01*
X177277439Y-80561547D01*
X176953788Y-80265094D01*
X176625650Y-80561547D01*
X176389797Y-80746253D01*
X176194921Y-80847423D01*
X176071523Y-80852841D01*
X176044002Y-80794500D01*
X176104499Y-80707864D01*
X176257063Y-80563544D01*
X176339811Y-80494975D01*
X176559181Y-80285650D01*
X176735419Y-80059879D01*
X176765317Y-80008141D01*
X176886903Y-79812822D01*
X176983363Y-79778109D01*
X177080324Y-79903065D01*
G37*
G36*
X180071342Y-77561049D02*
G01*
X180454558Y-77575186D01*
X180725429Y-77596893D01*
X180859737Y-77624653D01*
X180870000Y-77635555D01*
X180795114Y-77692927D01*
X180609461Y-77735383D01*
X180552500Y-77741389D01*
X180342883Y-77772257D01*
X180247793Y-77854174D01*
X180212466Y-78041904D01*
X180208722Y-78085166D01*
X180174263Y-78289390D01*
X180121788Y-78397508D01*
X180108000Y-78402666D01*
X180053918Y-78327788D01*
X180013203Y-78142150D01*
X180007277Y-78085166D01*
X179974244Y-77874451D01*
X179898622Y-77784757D01*
X179769333Y-77767666D01*
X179612457Y-77800490D01*
X179543341Y-77932024D01*
X179529985Y-78021666D01*
X179483150Y-78239166D01*
X179412793Y-78364088D01*
X179341073Y-78367211D01*
X179310593Y-78310991D01*
X179268480Y-78134374D01*
X179244318Y-77979333D01*
X179212576Y-77854188D01*
X179126165Y-77786506D01*
X178940385Y-77753714D01*
X178774500Y-77742075D01*
X178526084Y-77713979D01*
X178364751Y-77669262D01*
X178330000Y-77636242D01*
X178410799Y-77606063D01*
X178637846Y-77581750D01*
X178988111Y-77564757D01*
X179438565Y-77556538D01*
X179600000Y-77556000D01*
X180071342Y-77561049D01*
G37*
G36*
X179245942Y-81829850D02*
G01*
X179304167Y-81758594D01*
X179557471Y-81596053D01*
X179845983Y-81544913D01*
X180131919Y-81590586D01*
X180377493Y-81718483D01*
X180544922Y-81914018D01*
X180596419Y-82162601D01*
X180582000Y-82251939D01*
X180449257Y-82463308D01*
X180203004Y-82612959D01*
X179894356Y-82678822D01*
X179642333Y-82657638D01*
X179388431Y-82531001D01*
X179225667Y-82318749D01*
X179173485Y-82075281D01*
X179428210Y-82075281D01*
X179460435Y-82246123D01*
X179596215Y-82379473D01*
X179802821Y-82451345D01*
X180047526Y-82437753D01*
X180198232Y-82379021D01*
X180330963Y-82240020D01*
X180362000Y-82128000D01*
X180288554Y-81960231D01*
X180106790Y-81841538D01*
X179874567Y-81788451D01*
X179649740Y-81817500D01*
X179532266Y-81890933D01*
X179428210Y-82075281D01*
X179173485Y-82075281D01*
X179172138Y-82068995D01*
X179245942Y-81829850D01*
G37*
G36*
X178670389Y-68843827D02*
G01*
X178941483Y-68867459D01*
X179079740Y-68903452D01*
X179092000Y-68920000D01*
X179016702Y-68972195D01*
X178827803Y-69001992D01*
X178740211Y-69004666D01*
X178522186Y-69008968D01*
X178446944Y-69037404D01*
X178487937Y-69113273D01*
X178544140Y-69176733D01*
X178722426Y-69337645D01*
X178954607Y-69505793D01*
X178986793Y-69526135D01*
X179168854Y-69667803D01*
X179202496Y-69771574D01*
X179192592Y-69784607D01*
X179067108Y-69804564D01*
X178870305Y-69740178D01*
X178659549Y-69617165D01*
X178503966Y-69475915D01*
X178400796Y-69376786D01*
X178291102Y-69359538D01*
X178132805Y-69432538D01*
X177893230Y-69597333D01*
X177646600Y-69766563D01*
X177495343Y-69838730D01*
X177404807Y-69825255D01*
X177360243Y-69772992D01*
X177395981Y-69685774D01*
X177540317Y-69548167D01*
X177666264Y-69455492D01*
X177932782Y-69256840D01*
X178045656Y-69120217D01*
X178005981Y-69038878D01*
X177814852Y-69006077D01*
X177739392Y-69004666D01*
X177521268Y-68987133D01*
X177436189Y-68939603D01*
X177441000Y-68920000D01*
X177543564Y-68883082D01*
X177775712Y-68854375D01*
X178097746Y-68837826D01*
X178292663Y-68835333D01*
X178670389Y-68843827D01*
G37*
G36*
X173835753Y-68812462D02*
G01*
X173883898Y-68928920D01*
X173911901Y-69137741D01*
X173922658Y-69437140D01*
X173918357Y-69785503D01*
X173901185Y-70141216D01*
X173873330Y-70462665D01*
X173836980Y-70708237D01*
X173794322Y-70836316D01*
X173783165Y-70845026D01*
X173721124Y-70801196D01*
X173679299Y-70612831D01*
X173656165Y-70301555D01*
X173631000Y-69724333D01*
X173355833Y-69697802D01*
X173168421Y-69659810D01*
X173081426Y-69602909D01*
X173080666Y-69597333D01*
X173154807Y-69539826D01*
X173335354Y-69499043D01*
X173355833Y-69496864D01*
X173544087Y-69459085D01*
X173628322Y-69357785D01*
X173658203Y-69174000D01*
X173701579Y-68929108D01*
X173766155Y-68802740D01*
X173835753Y-68812462D01*
G37*
G36*
X175145233Y-69015197D02*
G01*
X175411290Y-69045098D01*
X175609982Y-69096673D01*
X175684603Y-69152833D01*
X175639968Y-69232991D01*
X175448966Y-69258666D01*
X175274848Y-69268100D01*
X175209973Y-69329100D01*
X175221588Y-69490715D01*
X175236932Y-69576166D01*
X175305917Y-69825003D01*
X175424925Y-70145105D01*
X175537139Y-70400159D01*
X175654958Y-70661199D01*
X175729895Y-70855413D01*
X175745769Y-70939785D01*
X175633319Y-70951792D01*
X175486993Y-70830014D01*
X175331566Y-70599518D01*
X175254214Y-70442400D01*
X175065810Y-70015497D01*
X174836158Y-70483748D01*
X174694501Y-70732990D01*
X174560840Y-70902132D01*
X174478586Y-70952000D01*
X174365022Y-70936410D01*
X174350666Y-70923189D01*
X174385330Y-70838586D01*
X174476054Y-70645122D01*
X174598598Y-70394023D01*
X174740539Y-70076083D01*
X174854012Y-69765503D01*
X174904354Y-69576166D01*
X174933759Y-69369745D01*
X174898362Y-69280393D01*
X174766429Y-69259106D01*
X174698755Y-69258666D01*
X174499557Y-69227856D01*
X174441727Y-69156278D01*
X174535044Y-69075210D01*
X174631444Y-69043338D01*
X174866917Y-69012701D01*
X175145233Y-69015197D01*
G37*
G36*
X180505856Y-72503667D02*
G01*
X180555901Y-72652620D01*
X180593802Y-72921682D01*
X180613350Y-73298667D01*
X180614703Y-73428500D01*
X180609243Y-73800976D01*
X180588534Y-74030838D01*
X180548453Y-74144442D01*
X180498874Y-74169333D01*
X180385150Y-74098397D01*
X180337467Y-74000000D01*
X180227385Y-73859842D01*
X180073593Y-73830666D01*
X179895328Y-73798805D01*
X179866431Y-73729776D01*
X179985456Y-73663415D01*
X180080303Y-73645790D01*
X180273534Y-73587844D01*
X180335727Y-73499960D01*
X180257801Y-73420245D01*
X180140715Y-73392274D01*
X179944126Y-73334559D01*
X179880175Y-73247402D01*
X179957442Y-73167806D01*
X180081813Y-73138274D01*
X180268347Y-73076590D01*
X180341994Y-72921240D01*
X180344984Y-72899333D01*
X180394187Y-72614837D01*
X180449881Y-72487011D01*
X180505856Y-72503667D01*
G37*
G36*
X180344400Y-74351504D02*
G01*
X180475678Y-74376904D01*
X180540678Y-74430800D01*
X180573711Y-74520565D01*
X180577502Y-74535472D01*
X180609387Y-74789171D01*
X180594258Y-75047144D01*
X180540329Y-75249556D01*
X180467833Y-75334035D01*
X180397329Y-75296657D01*
X180365172Y-75114633D01*
X180362000Y-74984146D01*
X180362000Y-74599514D01*
X179663500Y-74574924D01*
X179270767Y-74549268D01*
X179043638Y-74510343D01*
X178979569Y-74464893D01*
X179076017Y-74419665D01*
X179330439Y-74381405D01*
X179740292Y-74356859D01*
X179745764Y-74356687D01*
X180112533Y-74347224D01*
X180344400Y-74351504D01*
G37*
G36*
X172737088Y-68963624D02*
G01*
X172955444Y-68985656D01*
X173074637Y-69028850D01*
X173083298Y-69047000D01*
X173012425Y-69118399D01*
X172862352Y-69159352D01*
X172708860Y-69199087D01*
X172669194Y-69301890D01*
X172689049Y-69438414D01*
X172774908Y-69672886D01*
X172921719Y-69927062D01*
X172952329Y-69969053D01*
X173086527Y-70167000D01*
X173160378Y-70318699D01*
X173165333Y-70346158D01*
X173124022Y-70439872D01*
X173010232Y-70396539D01*
X172839177Y-70223965D01*
X172778593Y-70147666D01*
X172630370Y-69968031D01*
X172522319Y-69863386D01*
X172499117Y-69852381D01*
X172424174Y-69917434D01*
X172301037Y-70079006D01*
X172254388Y-70148714D01*
X172100650Y-70334040D01*
X171951371Y-70435096D01*
X171843134Y-70435340D01*
X171810666Y-70349343D01*
X171862660Y-70232912D01*
X171993770Y-70049920D01*
X172064666Y-69965397D01*
X172218822Y-69765625D01*
X172308986Y-69601977D01*
X172318666Y-69558978D01*
X172348237Y-69375941D01*
X172370058Y-69307924D01*
X172369866Y-69213709D01*
X172248617Y-69176986D01*
X172151336Y-69174000D01*
X171955902Y-69146219D01*
X171916500Y-69068166D01*
X172009276Y-69015025D01*
X172211781Y-68979256D01*
X172471793Y-68961807D01*
X172737088Y-68963624D01*
G37*
G36*
X184495147Y-68856544D02*
G01*
X184541033Y-69050709D01*
X184572535Y-69351658D01*
X184577964Y-69462302D01*
X184578577Y-69876521D01*
X184545092Y-70141768D01*
X184478982Y-70251813D01*
X184399188Y-70219633D01*
X184361701Y-70104300D01*
X184342143Y-69892166D01*
X184341333Y-69837222D01*
X184331193Y-69626346D01*
X184270449Y-69534907D01*
X184113614Y-69513086D01*
X184045000Y-69512666D01*
X183849132Y-69491401D01*
X183751226Y-69439111D01*
X183748666Y-69428000D01*
X183822997Y-69371629D01*
X184005355Y-69343921D01*
X184039635Y-69343333D01*
X184238536Y-69326907D01*
X184325997Y-69244636D01*
X184357135Y-69068166D01*
X184394603Y-68849932D01*
X184443472Y-68784505D01*
X184495147Y-68856544D01*
G37*
G36*
X181769104Y-68900922D02*
G01*
X181801236Y-69108900D01*
X181801333Y-69126042D01*
X181820775Y-69328516D01*
X181903760Y-69418550D01*
X182015632Y-69443542D01*
X182176187Y-69492355D01*
X182229931Y-69555000D01*
X182157185Y-69627527D01*
X182015632Y-69666457D01*
X181875710Y-69705548D01*
X181814602Y-69810070D01*
X181801333Y-70026290D01*
X181779643Y-70259652D01*
X181708041Y-70354195D01*
X181674333Y-70359333D01*
X181612375Y-70329638D01*
X181573782Y-70221260D01*
X181553731Y-70005263D01*
X181547400Y-69652707D01*
X181547333Y-69597333D01*
X181552282Y-69225583D01*
X181570345Y-68994025D01*
X181606344Y-68873722D01*
X181665104Y-68835735D01*
X181674333Y-68835333D01*
X181769104Y-68900922D01*
G37*
G36*
X183071333Y-80477000D02*
G01*
X183055977Y-80796875D01*
X183017899Y-80977290D01*
X182969080Y-81011429D01*
X182921504Y-80892476D01*
X182887154Y-80613615D01*
X182885257Y-80582833D01*
X182859666Y-80138333D01*
X182161166Y-80113742D01*
X181769926Y-80088772D01*
X181542993Y-80051970D01*
X181476393Y-80010360D01*
X181566152Y-79970964D01*
X181808299Y-79940808D01*
X182198858Y-79926914D01*
X182267000Y-79926666D01*
X183071333Y-79926666D01*
X183071333Y-80477000D01*
G37*
G36*
X176996993Y-65445174D02*
G01*
X177186665Y-65561575D01*
X177195232Y-65572606D01*
X177309698Y-65799177D01*
X177320477Y-66045423D01*
X177220261Y-66333483D01*
X177001744Y-66685495D01*
X176700166Y-67072537D01*
X176529776Y-67286819D01*
X176414536Y-67448235D01*
X176382666Y-67510553D01*
X176459599Y-67539447D01*
X176659561Y-67559297D01*
X176890666Y-67565333D01*
X177161256Y-67578186D01*
X177344707Y-67611763D01*
X177398666Y-67650000D01*
X177322228Y-67690132D01*
X177124905Y-67717467D01*
X176854681Y-67731713D01*
X176559542Y-67732581D01*
X176287472Y-67719782D01*
X176086458Y-67693025D01*
X176006861Y-67658405D01*
X176037844Y-67565558D01*
X176158928Y-67375747D01*
X176349105Y-67119792D01*
X176509864Y-66920448D01*
X176817456Y-66522880D01*
X176999977Y-66214040D01*
X177064046Y-65976206D01*
X177016281Y-65791657D01*
X176958400Y-65719600D01*
X176756212Y-65626567D01*
X176499764Y-65655676D01*
X176322396Y-65745907D01*
X176159162Y-65819687D01*
X176092240Y-65777519D01*
X176141385Y-65654494D01*
X176222092Y-65567739D01*
X176447924Y-65447922D01*
X176728485Y-65407179D01*
X176996993Y-65445174D01*
G37*
G36*
X182662459Y-65458644D02*
G01*
X182879818Y-65597901D01*
X182968146Y-65722752D01*
X183033436Y-65932698D01*
X183013291Y-66149451D01*
X182896162Y-66403448D01*
X182670502Y-66725127D01*
X182513750Y-66920391D01*
X182305676Y-67177537D01*
X182146927Y-67383035D01*
X182062625Y-67503981D01*
X182055333Y-67520742D01*
X182132273Y-67544263D01*
X182332251Y-67560421D01*
X182563333Y-67565333D01*
X182833923Y-67578186D01*
X183017373Y-67611763D01*
X183071333Y-67650000D01*
X182992117Y-67691929D01*
X182775847Y-67721393D01*
X182454592Y-67734384D01*
X182394000Y-67734666D01*
X182029420Y-67726188D01*
X181812478Y-67698512D01*
X181722221Y-67648281D01*
X181716666Y-67626075D01*
X181767729Y-67514364D01*
X181903628Y-67312168D01*
X182098427Y-67057078D01*
X182169388Y-66969908D01*
X182393714Y-66690358D01*
X182584557Y-66437712D01*
X182707998Y-66257268D01*
X182724412Y-66228635D01*
X182789217Y-65978127D01*
X182719904Y-65781871D01*
X182548739Y-65662665D01*
X182307989Y-65643303D01*
X182036504Y-65742654D01*
X181869327Y-65835718D01*
X181807600Y-65838771D01*
X181812400Y-65750291D01*
X181815490Y-65734017D01*
X181926521Y-65541265D01*
X182137139Y-65430803D01*
X182398675Y-65403104D01*
X182662459Y-65458644D01*
G37*
G36*
X180016772Y-69414712D02*
G01*
X180086833Y-69353077D01*
X180319666Y-69179364D01*
X179997169Y-69176682D01*
X179793764Y-69155986D01*
X179721709Y-69104666D01*
X179727000Y-69089333D01*
X179841456Y-69028333D01*
X180028330Y-69004666D01*
X180226298Y-68966167D01*
X180277333Y-68877666D01*
X180345106Y-68765418D01*
X180404333Y-68750666D01*
X180516581Y-68818439D01*
X180531333Y-68877666D01*
X180586439Y-68965383D01*
X180769756Y-69002044D01*
X180874996Y-69004666D01*
X181089586Y-69022518D01*
X181171376Y-69070769D01*
X181166333Y-69089333D01*
X181054524Y-69145605D01*
X180846382Y-69175353D01*
X180801503Y-69176574D01*
X180610283Y-69184182D01*
X180568577Y-69211246D01*
X180656686Y-69270865D01*
X180658333Y-69271767D01*
X180914667Y-69482239D01*
X181030961Y-69736819D01*
X180999366Y-70001463D01*
X180870000Y-70190000D01*
X180638478Y-70322993D01*
X180357716Y-70355329D01*
X180099645Y-70285817D01*
X179994122Y-70204499D01*
X179863955Y-69948171D01*
X179866436Y-69875713D01*
X180102671Y-69875713D01*
X180194587Y-70022587D01*
X180341182Y-70154242D01*
X180453262Y-70177467D01*
X180612052Y-70107438D01*
X180621566Y-70102354D01*
X180755434Y-69949897D01*
X180776078Y-69745663D01*
X180684191Y-69563161D01*
X180616000Y-69512666D01*
X180396895Y-69464760D01*
X180215772Y-69536565D01*
X180106431Y-69687182D01*
X180102671Y-69875713D01*
X179866436Y-69875713D01*
X179873640Y-69665306D01*
X180016772Y-69414712D01*
G37*
G36*
X176997821Y-80805160D02*
G01*
X177041996Y-80985747D01*
X177044197Y-81006166D01*
X177070728Y-81281333D01*
X177663027Y-81281333D01*
X177986837Y-81292287D01*
X178169949Y-81323599D01*
X178203000Y-81366000D01*
X178100073Y-81398781D01*
X177850512Y-81424734D01*
X177476930Y-81442411D01*
X177001940Y-81450365D01*
X176880673Y-81450666D01*
X176342478Y-81445287D01*
X175956226Y-81429411D01*
X175727548Y-81403430D01*
X175662076Y-81367735D01*
X175663000Y-81366000D01*
X175768880Y-81322107D01*
X175993165Y-81291506D01*
X176255299Y-81281333D01*
X176795271Y-81281333D01*
X176821802Y-81006166D01*
X176862692Y-80818733D01*
X176926644Y-80731755D01*
X176933000Y-80731000D01*
X176997821Y-80805160D01*
G37*
G36*
X182853851Y-81371358D02*
G01*
X183241379Y-81387176D01*
X183471312Y-81413066D01*
X183538048Y-81448638D01*
X183537000Y-81450666D01*
X183425989Y-81504785D01*
X183215418Y-81533786D01*
X183151003Y-81535333D01*
X182817333Y-81535333D01*
X182817333Y-82092722D01*
X182807729Y-82408069D01*
X182776102Y-82575876D01*
X182718226Y-82616997D01*
X182711500Y-82615168D01*
X182643960Y-82510353D01*
X182596603Y-82263772D01*
X182580459Y-82057780D01*
X182555253Y-81535333D01*
X181970666Y-81535333D01*
X181970666Y-82085666D01*
X181962188Y-82394356D01*
X181931892Y-82565928D01*
X181872489Y-82631970D01*
X181843666Y-82636000D01*
X181772430Y-82599259D01*
X181732837Y-82467977D01*
X181717596Y-82210565D01*
X181716666Y-82085666D01*
X181716666Y-81535333D01*
X181378000Y-81535333D01*
X181165926Y-81516555D01*
X181047969Y-81469645D01*
X181039333Y-81450666D01*
X181121521Y-81416209D01*
X181358486Y-81389991D01*
X181735828Y-81372968D01*
X182239147Y-81366097D01*
X182314330Y-81366000D01*
X182853851Y-81371358D01*
G37*
G36*
X186660708Y-68917803D02*
G01*
X186686381Y-69156713D01*
X186703580Y-69539309D01*
X186711532Y-70052840D01*
X186712000Y-70232333D01*
X186707287Y-70746934D01*
X186693920Y-71161465D01*
X186673052Y-71456008D01*
X186645837Y-71610646D01*
X186631042Y-71629333D01*
X186588606Y-71551687D01*
X186551527Y-71346813D01*
X186527065Y-71056804D01*
X186525209Y-71015500D01*
X186509441Y-70698825D01*
X186483794Y-70513471D01*
X186432726Y-70421520D01*
X186340700Y-70385055D01*
X186262480Y-70374391D01*
X186092335Y-70318022D01*
X186068804Y-70230635D01*
X186183831Y-70150139D01*
X186316362Y-70120876D01*
X186497223Y-70046548D01*
X186546926Y-69919712D01*
X186463421Y-69797307D01*
X186329864Y-69745727D01*
X186193147Y-69741221D01*
X186091636Y-69815025D01*
X185986671Y-70002228D01*
X185944325Y-70095690D01*
X185778869Y-70403982D01*
X185582141Y-70674788D01*
X185386617Y-70870006D01*
X185224772Y-70951530D01*
X185214492Y-70952000D01*
X185122718Y-70931108D01*
X185128860Y-70852857D01*
X185241749Y-70693879D01*
X185367924Y-70546001D01*
X185644500Y-70161173D01*
X185817326Y-69770479D01*
X185865333Y-69477920D01*
X185843748Y-69340760D01*
X185747657Y-69273217D01*
X185530060Y-69242744D01*
X185525172Y-69242368D01*
X185281295Y-69203431D01*
X185193995Y-69147770D01*
X185253916Y-69092416D01*
X185451701Y-69054400D01*
X185632500Y-69047000D01*
X185892398Y-69053233D01*
X186028271Y-69086830D01*
X186085348Y-69170138D01*
X186103790Y-69279833D01*
X186158380Y-69454837D01*
X186296005Y-69511420D01*
X186336623Y-69512666D01*
X186469525Y-69493246D01*
X186528584Y-69403399D01*
X186542624Y-69195748D01*
X186542666Y-69174000D01*
X186561444Y-68961926D01*
X186608354Y-68843969D01*
X186627333Y-68835333D01*
X186660708Y-68917803D01*
G37*
G36*
X179425755Y-79970291D02*
G01*
X179644110Y-79992323D01*
X179763303Y-80035516D01*
X179771965Y-80053666D01*
X179701371Y-80126108D01*
X179560298Y-80165123D01*
X179387776Y-80240383D01*
X179356044Y-80398581D01*
X179464467Y-80629526D01*
X179600000Y-80802731D01*
X179789105Y-81054540D01*
X179857356Y-81220650D01*
X179817473Y-81284177D01*
X179682176Y-81228235D01*
X179464185Y-81035939D01*
X179441987Y-81012483D01*
X179190725Y-80743633D01*
X178964502Y-81012483D01*
X178785780Y-81185281D01*
X178625211Y-81276346D01*
X178520174Y-81269822D01*
X178499333Y-81209788D01*
X178556449Y-81106857D01*
X178680352Y-80976955D01*
X178815700Y-80813291D01*
X178954747Y-80584074D01*
X179059143Y-80359294D01*
X179092000Y-80225719D01*
X179018142Y-80194396D01*
X178839558Y-80180691D01*
X178830944Y-80180666D01*
X178641659Y-80152072D01*
X178605166Y-80074833D01*
X178697942Y-80021692D01*
X178900448Y-79985923D01*
X179160460Y-79968473D01*
X179425755Y-79970291D01*
G37*
G36*
X180520359Y-79818135D02*
G01*
X180575121Y-79944654D01*
X180604558Y-80163443D01*
X180612183Y-80459396D01*
X180601133Y-80786609D01*
X180574545Y-81099179D01*
X180535558Y-81351201D01*
X180487309Y-81496769D01*
X180467833Y-81514427D01*
X180400185Y-81479487D01*
X180367170Y-81305665D01*
X180362000Y-81124419D01*
X180356123Y-80872460D01*
X180320086Y-80743399D01*
X180226272Y-80690822D01*
X180093353Y-80672864D01*
X179871414Y-80619957D01*
X179787146Y-80540489D01*
X179845393Y-80467665D01*
X180050998Y-80434693D01*
X180058611Y-80434666D01*
X180260366Y-80422288D01*
X180344349Y-80352276D01*
X180361916Y-80175313D01*
X180362000Y-80143330D01*
X180387175Y-79921583D01*
X180447541Y-79806119D01*
X180520359Y-79818135D01*
G37*
G36*
X176264931Y-81853592D02*
G01*
X176297770Y-82058677D01*
X176298000Y-82085666D01*
X176298000Y-82382000D01*
X177060000Y-82382000D01*
X177431749Y-82386949D01*
X177663307Y-82405012D01*
X177783611Y-82441011D01*
X177821598Y-82499770D01*
X177822000Y-82509000D01*
X177792863Y-82570094D01*
X177686382Y-82608519D01*
X177473952Y-82628890D01*
X177126967Y-82635820D01*
X177034600Y-82636000D01*
X176602179Y-82624343D01*
X176300813Y-82590764D01*
X176148752Y-82537349D01*
X176145600Y-82534400D01*
X176070728Y-82384913D01*
X176041829Y-82174850D01*
X176056791Y-81966125D01*
X176113504Y-81820650D01*
X176171000Y-81789333D01*
X176264931Y-81853592D01*
G37*
G36*
X183918997Y-70376383D02*
G01*
X184553000Y-70401666D01*
X184553000Y-71079000D01*
X183854500Y-71103590D01*
X183495547Y-71122936D01*
X183278266Y-71153962D01*
X183175097Y-71202515D01*
X183156000Y-71251757D01*
X183188124Y-71312125D01*
X183303218Y-71349832D01*
X183529358Y-71369391D01*
X183894624Y-71375312D01*
X183925055Y-71375333D01*
X184306879Y-71381485D01*
X184540960Y-71401980D01*
X184648514Y-71439877D01*
X184659040Y-71481166D01*
X184559247Y-71542764D01*
X184336994Y-71586934D01*
X184038336Y-71612864D01*
X183709329Y-71619746D01*
X183396028Y-71606768D01*
X183144489Y-71573122D01*
X183000767Y-71517998D01*
X182993411Y-71510460D01*
X182925177Y-71336969D01*
X182917048Y-71147619D01*
X182936395Y-71030847D01*
X182985097Y-70958928D01*
X183098498Y-70919078D01*
X183311941Y-70898511D01*
X183642833Y-70885075D01*
X184001786Y-70865730D01*
X184219066Y-70834703D01*
X184322236Y-70786150D01*
X184341333Y-70736909D01*
X184307944Y-70674785D01*
X184188676Y-70636768D01*
X183954876Y-70617940D01*
X183621666Y-70613333D01*
X183279929Y-70604208D01*
X183031346Y-70579386D01*
X182909089Y-70542694D01*
X182902000Y-70530279D01*
X182979832Y-70439395D01*
X183215331Y-70385854D01*
X183611497Y-70369202D01*
X183918997Y-70376383D01*
G37*
G36*
X172449306Y-70753923D02*
G01*
X172485695Y-70939302D01*
X172488000Y-71036666D01*
X172488000Y-71375333D01*
X173207666Y-71375333D01*
X173567461Y-71380755D01*
X173787669Y-71400492D01*
X173897790Y-71439749D01*
X173927333Y-71502333D01*
X173897242Y-71564890D01*
X173787527Y-71603592D01*
X173569026Y-71623409D01*
X173212578Y-71629312D01*
X173182266Y-71629333D01*
X172769589Y-71617136D01*
X172479782Y-71582371D01*
X172335638Y-71527771D01*
X172335600Y-71527733D01*
X172263430Y-71380280D01*
X172232248Y-71164118D01*
X172240231Y-70938735D01*
X172285560Y-70763620D01*
X172361000Y-70698000D01*
X172449306Y-70753923D01*
G37*
G36*
X181775159Y-78309061D02*
G01*
X181801333Y-78487333D01*
X181801333Y-78741333D01*
X182528055Y-78741333D01*
X182897377Y-78747972D01*
X183119123Y-78770064D01*
X183214613Y-78810871D01*
X183219706Y-78847166D01*
X183126640Y-78893717D01*
X182910707Y-78934045D01*
X182618338Y-78965426D01*
X182295962Y-78985134D01*
X181990011Y-78990443D01*
X181746914Y-78978630D01*
X181613103Y-78946967D01*
X181606729Y-78941840D01*
X181568227Y-78825416D01*
X181548157Y-78612605D01*
X181547333Y-78557888D01*
X181570186Y-78327753D01*
X181645124Y-78237080D01*
X181674333Y-78233333D01*
X181775159Y-78309061D01*
G37*
G36*
X187312790Y-68855264D02*
G01*
X187346431Y-68930468D01*
X187367140Y-69084058D01*
X187376703Y-69339149D01*
X187376907Y-69718855D01*
X187370263Y-70204200D01*
X187356820Y-70760175D01*
X187337200Y-71162770D01*
X187309943Y-71427875D01*
X187273587Y-71571378D01*
X187241166Y-71608255D01*
X187200413Y-71583916D01*
X187170877Y-71467610D01*
X187151151Y-71241116D01*
X187139824Y-70886215D01*
X187135489Y-70384686D01*
X187135333Y-70239388D01*
X187137256Y-69714479D01*
X187144417Y-69336185D01*
X187158901Y-69081817D01*
X187182795Y-68928684D01*
X187218184Y-68854100D01*
X187264430Y-68835333D01*
X187312790Y-68855264D01*
G37*
G36*
X177810788Y-72627619D02*
G01*
X177841912Y-72868556D01*
X177867799Y-73278464D01*
X177885732Y-73857342D01*
X177887547Y-73957494D01*
X177894451Y-74479088D01*
X177893961Y-74854476D01*
X177884300Y-75106691D01*
X177863687Y-75258765D01*
X177830345Y-75333733D01*
X177782495Y-75354628D01*
X177779666Y-75354666D01*
X177731038Y-75335888D01*
X177697007Y-75264198D01*
X177675795Y-75116562D01*
X177665624Y-74869948D01*
X177664714Y-74501322D01*
X177671288Y-73987650D01*
X177671786Y-73957494D01*
X177688308Y-73353577D01*
X177713189Y-72918632D01*
X177743708Y-72652657D01*
X177777147Y-72555653D01*
X177810788Y-72627619D01*
G37*
G36*
X176014899Y-73019562D02*
G01*
X176227929Y-72834156D01*
X176494378Y-72768118D01*
X176730894Y-72818627D01*
X176953841Y-72950530D01*
X177082917Y-73144077D01*
X177138296Y-73439747D01*
X177144666Y-73648842D01*
X177130819Y-73994548D01*
X177076348Y-74218386D01*
X176961859Y-74366488D01*
X176799944Y-74468798D01*
X176593001Y-74564724D01*
X176446345Y-74578864D01*
X176273228Y-74513427D01*
X176213333Y-74483729D01*
X176020549Y-74301343D01*
X175887799Y-74019310D01*
X175825687Y-73639408D01*
X175828634Y-73618716D01*
X176060369Y-73618716D01*
X176086222Y-73914828D01*
X176206016Y-74180921D01*
X176405057Y-74311827D01*
X176659309Y-74292096D01*
X176667980Y-74288846D01*
X176812962Y-74152342D01*
X176906377Y-73909380D01*
X176933923Y-73618680D01*
X176892001Y-73369045D01*
X176757274Y-73116515D01*
X176587003Y-73004667D01*
X176406683Y-73016231D01*
X176241807Y-73133940D01*
X176117871Y-73340524D01*
X176060369Y-73618716D01*
X175828634Y-73618716D01*
X175874436Y-73297069D01*
X176014899Y-73019562D01*
G37*
G36*
X180201145Y-70770309D02*
G01*
X180231441Y-70598738D01*
X180290843Y-70532696D01*
X180319666Y-70528666D01*
X180423094Y-70599252D01*
X180446666Y-70698000D01*
X180463818Y-70789640D01*
X180540220Y-70840732D01*
X180713287Y-70862788D01*
X180997000Y-70867333D01*
X181294831Y-70862055D01*
X181460879Y-70838547D01*
X181532561Y-70785296D01*
X181547333Y-70698000D01*
X181600272Y-70560095D01*
X181674333Y-70528666D01*
X181745569Y-70565407D01*
X181785162Y-70696688D01*
X181800403Y-70954101D01*
X181801333Y-71079000D01*
X181801333Y-71629333D01*
X180192666Y-71629333D01*
X180192666Y-71248333D01*
X180446666Y-71248333D01*
X180483407Y-71319569D01*
X180614688Y-71359162D01*
X180872101Y-71374403D01*
X180997000Y-71375333D01*
X181305690Y-71366854D01*
X181477261Y-71336558D01*
X181543303Y-71277156D01*
X181547333Y-71248333D01*
X181510592Y-71177097D01*
X181379311Y-71137503D01*
X181121898Y-71122263D01*
X180997000Y-71121333D01*
X180688309Y-71129811D01*
X180516738Y-71160107D01*
X180450696Y-71219510D01*
X180446666Y-71248333D01*
X180192666Y-71248333D01*
X180192666Y-71079000D01*
X180201145Y-70770309D01*
G37*
G36*
X178652449Y-73246622D02*
G01*
X178746820Y-73146820D01*
X178994307Y-72899333D01*
X178699490Y-72899333D01*
X178510339Y-72878886D01*
X178452356Y-72825012D01*
X178457000Y-72814666D01*
X178571456Y-72753667D01*
X178758330Y-72730000D01*
X178956298Y-72691500D01*
X179007333Y-72603000D01*
X179075106Y-72490751D01*
X179134333Y-72476000D01*
X179246581Y-72543772D01*
X179261333Y-72603000D01*
X179325592Y-72696931D01*
X179530677Y-72729770D01*
X179557666Y-72730000D01*
X179753534Y-72751265D01*
X179851440Y-72803555D01*
X179854000Y-72814666D01*
X179779180Y-72869714D01*
X179593669Y-72900059D01*
X179536500Y-72901907D01*
X179343065Y-72909482D01*
X179298995Y-72936251D01*
X179384440Y-72994966D01*
X179388333Y-72997100D01*
X179652095Y-73214562D01*
X179765768Y-73488338D01*
X179769333Y-73550515D01*
X179698054Y-73803680D01*
X179514833Y-73982539D01*
X179265595Y-74074040D01*
X178996265Y-74065131D01*
X178752765Y-73942761D01*
X178674811Y-73861581D01*
X178533395Y-73636175D01*
X178528341Y-73533086D01*
X178753333Y-73533086D01*
X178820627Y-73700767D01*
X178973883Y-73852535D01*
X179134333Y-73915333D01*
X179283081Y-73859817D01*
X179382285Y-73782285D01*
X179502636Y-73572969D01*
X179464653Y-73375448D01*
X179277273Y-73227872D01*
X179249886Y-73217044D01*
X179076617Y-73225266D01*
X178891909Y-73324191D01*
X178768984Y-73467216D01*
X178753333Y-73533086D01*
X178528341Y-73533086D01*
X178524195Y-73448516D01*
X178652449Y-73246622D01*
G37*
G36*
X177555780Y-70862588D02*
G01*
X177772710Y-70697075D01*
X178133504Y-70619607D01*
X178306505Y-70613333D01*
X178687401Y-70662097D01*
X178951064Y-70801307D01*
X179081063Y-71020337D01*
X179092000Y-71121333D01*
X179021617Y-71329564D01*
X178852088Y-71517999D01*
X178645844Y-71623344D01*
X178590924Y-71629333D01*
X178392451Y-71647098D01*
X178315758Y-71664323D01*
X178156484Y-71666996D01*
X177964753Y-71627865D01*
X177669753Y-71498325D01*
X177517939Y-71317279D01*
X177498241Y-71202577D01*
X177751254Y-71202577D01*
X177871308Y-71348570D01*
X178151078Y-71451577D01*
X178501787Y-71416612D01*
X178620821Y-71377428D01*
X178800047Y-71251119D01*
X178828283Y-71091538D01*
X178708427Y-70936068D01*
X178581181Y-70866165D01*
X178319680Y-70807289D01*
X178075447Y-70832212D01*
X177878971Y-70920215D01*
X177760743Y-71050577D01*
X177751254Y-71202577D01*
X177498241Y-71202577D01*
X177483333Y-71115767D01*
X177555780Y-70862588D01*
G37*
G36*
X178389809Y-69755600D02*
G01*
X178414666Y-69893666D01*
X178424150Y-70006895D01*
X178477947Y-70070264D01*
X178614079Y-70098212D01*
X178870565Y-70105176D01*
X178972055Y-70105333D01*
X179287309Y-70114921D01*
X179455045Y-70146506D01*
X179496145Y-70204321D01*
X179494276Y-70211166D01*
X179422404Y-70258418D01*
X179232086Y-70294027D01*
X178907817Y-70319639D01*
X178434092Y-70336897D01*
X178275890Y-70340391D01*
X177844431Y-70345015D01*
X177475092Y-70341596D01*
X177200127Y-70330992D01*
X177051792Y-70314061D01*
X177036304Y-70307415D01*
X177004650Y-70208764D01*
X177136082Y-70142257D01*
X177427209Y-70109078D01*
X177615330Y-70105333D01*
X177909504Y-70101540D01*
X178072792Y-70080220D01*
X178143618Y-70026457D01*
X178160408Y-69925337D01*
X178160666Y-69893666D01*
X178204827Y-69723428D01*
X178287666Y-69682000D01*
X178389809Y-69755600D01*
G37*
G36*
X180649375Y-65393839D02*
G01*
X180812066Y-65461341D01*
X181013558Y-65603469D01*
X181104540Y-65790624D01*
X181122703Y-66014493D01*
X181088736Y-66204234D01*
X180973220Y-66433898D01*
X180758338Y-66736044D01*
X180659404Y-66861159D01*
X180450646Y-67127166D01*
X180290227Y-67344257D01*
X180202780Y-67478540D01*
X180193738Y-67501833D01*
X180270105Y-67535176D01*
X180469846Y-67558172D01*
X180705663Y-67565333D01*
X180997530Y-67577813D01*
X181150951Y-67613099D01*
X181166333Y-67650000D01*
X181063222Y-67692956D01*
X180848314Y-67720751D01*
X180569438Y-67733553D01*
X180274426Y-67731528D01*
X180011110Y-67714843D01*
X179827319Y-67683665D01*
X179769333Y-67645126D01*
X179820825Y-67544909D01*
X179958947Y-67350399D01*
X180159164Y-67095037D01*
X180280653Y-66948139D01*
X180512550Y-66657652D01*
X180701991Y-66392468D01*
X180820514Y-66193682D01*
X180843454Y-66135574D01*
X180841946Y-65881560D01*
X180718617Y-65706599D01*
X180510887Y-65632169D01*
X180256178Y-65679743D01*
X180149853Y-65737528D01*
X179975574Y-65815897D01*
X179902894Y-65783056D01*
X179943949Y-65671566D01*
X180076277Y-65540113D01*
X180363305Y-65386345D01*
X180649375Y-65393839D01*
G37*
G36*
X178910767Y-76465224D02*
G01*
X179052425Y-76318739D01*
X179352421Y-76206274D01*
X179710156Y-76187901D01*
X180042585Y-76263619D01*
X180147574Y-76318739D01*
X180311522Y-76485410D01*
X180361823Y-76727868D01*
X180362000Y-76748817D01*
X180296274Y-77030044D01*
X180097144Y-77211500D01*
X179761680Y-77295310D01*
X179600000Y-77302000D01*
X179319144Y-77273236D01*
X179081370Y-77201243D01*
X179026172Y-77170199D01*
X178868664Y-76969091D01*
X178848081Y-76829784D01*
X179058869Y-76829784D01*
X179168362Y-76948920D01*
X179332115Y-77036687D01*
X179497303Y-77098287D01*
X179566199Y-77125982D01*
X179642383Y-77106016D01*
X179816291Y-77048434D01*
X179834577Y-77042083D01*
X180029866Y-76943427D01*
X180140599Y-76831046D01*
X180141624Y-76828496D01*
X180123049Y-76670343D01*
X179986770Y-76515024D01*
X179780260Y-76402667D01*
X179600000Y-76370666D01*
X179371061Y-76421398D01*
X179175744Y-76546819D01*
X179061381Y-76706771D01*
X179058869Y-76829784D01*
X178848081Y-76829784D01*
X178830843Y-76713116D01*
X178910767Y-76465224D01*
G37*
G36*
X183274041Y-72643137D02*
G01*
X183299714Y-72882046D01*
X183316914Y-73264642D01*
X183324866Y-73778173D01*
X183325333Y-73957666D01*
X183320580Y-74477487D01*
X183307061Y-74893434D01*
X183285879Y-75186550D01*
X183258142Y-75337878D01*
X183243843Y-75354666D01*
X183205960Y-75276214D01*
X183171765Y-75065701D01*
X183146294Y-74760398D01*
X183138010Y-74571500D01*
X183123972Y-74203364D01*
X183103801Y-73971375D01*
X183068701Y-73842367D01*
X183009880Y-73783174D01*
X182923166Y-73761278D01*
X182835173Y-73756052D01*
X182779547Y-73790991D01*
X182748871Y-73896582D01*
X182735730Y-74103309D01*
X182732709Y-74441657D01*
X182732666Y-74544444D01*
X182725599Y-74954708D01*
X182701488Y-75212755D01*
X182655974Y-75335223D01*
X182584695Y-75338753D01*
X182535111Y-75298222D01*
X182515874Y-75198338D01*
X182499454Y-74959234D01*
X182487065Y-74611016D01*
X182479925Y-74183790D01*
X182478666Y-73901222D01*
X182480801Y-73388787D01*
X182488655Y-73022672D01*
X182504406Y-72779899D01*
X182530230Y-72637491D01*
X182568304Y-72572470D01*
X182605666Y-72560666D01*
X182682255Y-72602473D01*
X182721686Y-72749169D01*
X182732666Y-73026333D01*
X182738161Y-73293030D01*
X182767201Y-73431897D01*
X182838622Y-73484371D01*
X182944333Y-73492000D01*
X183065559Y-73479912D01*
X183128680Y-73416023D01*
X183152532Y-73258896D01*
X183156000Y-73026333D01*
X183169918Y-72771318D01*
X183205822Y-72602176D01*
X183240666Y-72560666D01*
X183274041Y-72643137D01*
G37*
%TD*%
M02*
