M48
; DRILL file {KiCad (6.0.7)} date Tue Sep  6 17:29:14 2022
; FORMAT={-:-/ absolute / inch / decimal}
; #@! TF.CreationDate,2022-09-06T17:29:14+09:00
; #@! TF.GenerationSoftware,Kicad,Pcbnew,(6.0.7)
; #@! TF.FileFunction,Plated,1,2,PTH
FMAT,2
INCH
; #@! TA.AperFunction,Plated,PTH,ComponentDrill
T1C0.0394
; #@! TA.AperFunction,Plated,PTH,ComponentDrill
T2C0.0402
%
G90
G05
T1
X4.877Y-1.937
X4.977Y-1.937
X5.037Y-3.837
X5.0744Y-4.038
X5.077Y-1.937
X5.137Y-3.837
X5.1744Y-4.038
X5.177Y-1.937
X5.1793Y-1.7183
X5.237Y-3.837
X5.277Y-1.937
X5.2793Y-1.7183
X5.337Y-3.837
X5.3612Y-2.2628
X5.3612Y-2.3628
X5.3612Y-2.4628
X5.3612Y-2.5628
X5.3612Y-2.6628
X5.3612Y-2.8628
X5.3612Y-2.9628
X5.377Y-1.937
X5.3793Y-1.7183
X5.437Y-3.837
X5.477Y-1.937
X5.537Y-3.837
X5.577Y-1.937
X5.637Y-3.837
X5.737Y-1.937
X5.737Y-3.837
X5.837Y-1.937
X5.937Y-1.937
X5.937Y-3.837
X5.9407Y-1.7183
X5.967Y-4.027
X6.037Y-1.937
X6.037Y-3.837
X6.0407Y-1.7183
X6.067Y-4.027
X6.137Y-1.937
X6.137Y-3.837
X6.1407Y-1.7183
X6.167Y-4.027
X6.237Y-1.937
X6.237Y-3.837
X6.2407Y-1.7183
X6.2526Y-2.2628
X6.2526Y-2.3628
X6.2526Y-2.4628
X6.2526Y-2.5628
X6.2526Y-2.6628
X6.2526Y-2.7628
X6.2526Y-2.8628
X6.2526Y-2.9628
X6.267Y-4.027
X6.337Y-1.937
X6.337Y-3.837
X6.367Y-4.027
X6.437Y-1.937
X6.437Y-3.837
X6.467Y-4.027
X6.537Y-3.837
X6.567Y-4.027
X6.637Y-1.937
X6.637Y-3.837
X6.6648Y-1.7183
X6.667Y-4.027
X6.737Y-1.937
X6.7648Y-1.7183
X6.767Y-4.027
X6.837Y-1.937
X6.837Y-3.837
X6.8648Y-1.7183
X6.867Y-4.027
X6.937Y-1.937
X6.937Y-3.837
X6.9648Y-1.7183
X7.037Y-1.937
X7.037Y-3.837
X7.137Y-1.937
X7.137Y-3.837
X7.237Y-1.937
X7.237Y-3.837
X7.337Y-1.937
X7.337Y-3.837
X7.437Y-3.837
X7.537Y-3.837
X7.637Y-1.937
X7.637Y-2.037
X7.637Y-2.137
X7.637Y-2.237
X7.637Y-2.337
X7.637Y-2.437
X7.637Y-2.537
X7.637Y-2.637
X7.637Y-2.737
X7.637Y-2.837
X7.637Y-2.937
X7.637Y-3.037
X7.637Y-3.137
X7.637Y-3.237
X7.637Y-3.337
X7.637Y-3.437
X7.637Y-3.537
X7.637Y-3.637
X7.737Y-1.937
X7.737Y-2.037
X7.737Y-2.137
X7.737Y-2.237
X7.737Y-2.337
X7.737Y-2.437
X7.737Y-2.537
X7.737Y-2.637
X7.737Y-2.737
X7.737Y-2.837
X7.737Y-2.937
X7.737Y-3.037
X7.737Y-3.137
X7.737Y-3.237
X7.737Y-3.337
X7.737Y-3.437
X7.737Y-3.537
X7.737Y-3.637
T2
X5.3612Y-2.7628
T0
M30
