%TF.GenerationSoftware,KiCad,Pcbnew,(6.0.7)*%
%TF.CreationDate,2022-08-22T17:31:34+09:00*%
%TF.ProjectId,LED_Roulette_Shield,4c45445f-526f-4756-9c65-7474655f5368,rev?*%
%TF.SameCoordinates,Original*%
%TF.FileFunction,Profile,NP*%
%FSLAX46Y46*%
G04 Gerber Fmt 4.6, Leading zero omitted, Abs format (unit mm)*
G04 Created by KiCad (PCBNEW (6.0.7)) date 2022-08-22 17:31:34*
%MOMM*%
%LPD*%
G01*
G04 APERTURE LIST*
%TA.AperFunction,Profile*%
%ADD10C,0.100000*%
%TD*%
G04 APERTURE END LIST*
D10*
X182000000Y-63000000D02*
X183000000Y-63000000D01*
X115000000Y-109000000D02*
X115000000Y-108000000D01*
X113000000Y-66000000D02*
X113000000Y-77000000D01*
X115000000Y-95000000D02*
X115000000Y-77000000D01*
X115000000Y-118000000D02*
X115000000Y-109000000D01*
X186000000Y-102000000D02*
X184000000Y-104000000D01*
X113000000Y-77000000D02*
X115000000Y-77000000D01*
X183000000Y-66000000D02*
X185000000Y-68000000D01*
X115000000Y-63000000D02*
X182000000Y-63000000D01*
X186000000Y-69000000D02*
X186000000Y-102000000D01*
X114000000Y-66000000D02*
X113000000Y-66000000D01*
X115000000Y-66000000D02*
X115000000Y-63000000D01*
X185000000Y-68000000D02*
X186000000Y-69000000D01*
X181000000Y-118000000D02*
X115000000Y-118000000D01*
X183000000Y-63000000D02*
X183000000Y-66000000D01*
X109000000Y-95000000D02*
X115000000Y-95000000D01*
X114000000Y-66000000D02*
X115000000Y-66000000D01*
X184000000Y-115000000D02*
X181000000Y-118000000D01*
X184000000Y-104000000D02*
X184000000Y-115000000D01*
X115000000Y-108000000D02*
X109000000Y-108000000D01*
X109000000Y-108000000D02*
X109000000Y-95000000D01*
M02*
