%TF.GenerationSoftware,KiCad,Pcbnew,(6.0.7)*%
%TF.CreationDate,2022-08-22T17:31:40+09:00*%
%TF.ProjectId,LED_Roulette_Shield,4c45445f-526f-4756-9c65-7474655f5368,rev?*%
%TF.SameCoordinates,Original*%
%TF.FileFunction,Drillmap*%
%TF.FilePolarity,Positive*%
%FSLAX45Y45*%
G04 Gerber Fmt 4.5, Leading zero omitted, Abs format (unit mm)*
G04 Created by KiCad (PCBNEW (6.0.7)) date 2022-08-22 17:31:40*
%MOMM*%
%LPD*%
G01*
G04 APERTURE LIST*
%ADD10C,0.100000*%
%ADD11C,0.200000*%
%ADD12C,0.040000*%
%ADD13C,0.080000*%
%ADD14C,0.090000*%
%ADD15C,0.150000*%
G04 APERTURE END LIST*
D10*
X18200000Y-6300000D02*
X18300000Y-6300000D01*
X11500000Y-10900000D02*
X11500000Y-10800000D01*
X11300000Y-6600000D02*
X11300000Y-7700000D01*
X11500000Y-9500000D02*
X11500000Y-7700000D01*
X11500000Y-11800000D02*
X11500000Y-10900000D01*
X18600000Y-10200000D02*
X18400000Y-10400000D01*
X11300000Y-7700000D02*
X11500000Y-7700000D01*
X18300000Y-6600000D02*
X18500000Y-6800000D01*
X11500000Y-6300000D02*
X18200000Y-6300000D01*
X18600000Y-6900000D02*
X18600000Y-10200000D01*
X11400000Y-6600000D02*
X11300000Y-6600000D01*
X11500000Y-6600000D02*
X11500000Y-6300000D01*
X18500000Y-6800000D02*
X18600000Y-6900000D01*
X18100000Y-11800000D02*
X11500000Y-11800000D01*
X18300000Y-6300000D02*
X18300000Y-6600000D01*
X10900000Y-9500000D02*
X11500000Y-9500000D01*
X11400000Y-6600000D02*
X11500000Y-6600000D01*
X18400000Y-11500000D02*
X18100000Y-11800000D01*
X18400000Y-10400000D02*
X18400000Y-11500000D01*
X11500000Y-10800000D02*
X10900000Y-10800000D01*
X10900000Y-10800000D02*
X10900000Y-9500000D01*
D11*
D12*
X13880000Y-10980000D02*
X13920000Y-11020000D01*
X13920000Y-10980000D02*
X13880000Y-11020000D01*
D13*
X11859000Y-6700000D02*
G75*
G03*
X11859000Y-6700000I-40000J0D01*
G01*
X11859000Y-7200000D02*
G75*
G03*
X11859000Y-7200000I-40000J0D01*
G01*
X11859000Y-7700000D02*
G75*
G03*
X11859000Y-7700000I-40000J0D01*
G01*
X11978000Y-10300000D02*
G75*
G03*
X11978000Y-10300000I-40000J0D01*
G01*
X11978000Y-10800000D02*
G75*
G03*
X11978000Y-10800000I-40000J0D01*
G01*
X11978000Y-11300000D02*
G75*
G03*
X11978000Y-11300000I-40000J0D01*
G01*
X12621000Y-6700000D02*
G75*
G03*
X12621000Y-6700000I-40000J0D01*
G01*
X12621000Y-7200000D02*
G75*
G03*
X12621000Y-7200000I-40000J0D01*
G01*
X12621000Y-7700000D02*
G75*
G03*
X12621000Y-7700000I-40000J0D01*
G01*
X12740000Y-10300000D02*
G75*
G03*
X12740000Y-10300000I-40000J0D01*
G01*
X12740000Y-10800000D02*
G75*
G03*
X12740000Y-10800000I-40000J0D01*
G01*
X12740000Y-11300000D02*
G75*
G03*
X12740000Y-11300000I-40000J0D01*
G01*
X16059000Y-10400000D02*
G75*
G03*
X16059000Y-10400000I-40000J0D01*
G01*
X16059000Y-10700000D02*
G75*
G03*
X16059000Y-10700000I-40000J0D01*
G01*
X16059000Y-11000000D02*
G75*
G03*
X16059000Y-11000000I-40000J0D01*
G01*
X16359000Y-7000000D02*
G75*
G03*
X16359000Y-7000000I-40000J0D01*
G01*
X16359000Y-7400000D02*
G75*
G03*
X16359000Y-7400000I-40000J0D01*
G01*
X16359000Y-7800000D02*
G75*
G03*
X16359000Y-7800000I-40000J0D01*
G01*
X16821000Y-10400000D02*
G75*
G03*
X16821000Y-10400000I-40000J0D01*
G01*
X16821000Y-10700000D02*
G75*
G03*
X16821000Y-10700000I-40000J0D01*
G01*
X16821000Y-11000000D02*
G75*
G03*
X16821000Y-11000000I-40000J0D01*
G01*
X17121000Y-7000000D02*
G75*
G03*
X17121000Y-7000000I-40000J0D01*
G01*
X17121000Y-7400000D02*
G75*
G03*
X17121000Y-7400000I-40000J0D01*
G01*
X17121000Y-7800000D02*
G75*
G03*
X17121000Y-7800000I-40000J0D01*
G01*
X17840000Y-7319000D02*
G75*
G03*
X17840000Y-7319000I-40000J0D01*
G01*
X17840000Y-8081000D02*
G75*
G03*
X17840000Y-8081000I-40000J0D01*
G01*
X18140000Y-7319000D02*
G75*
G03*
X18140000Y-7319000I-40000J0D01*
G01*
X18140000Y-8081000D02*
G75*
G03*
X18140000Y-8081000I-40000J0D01*
G01*
D14*
X12946000Y-9055000D02*
X12946000Y-9145000D01*
X12901000Y-9100000D02*
X12991000Y-9100000D01*
X13180029Y-8228000D02*
X13180029Y-8318000D01*
X13135029Y-8273000D02*
X13225029Y-8273000D01*
X13180029Y-9882000D02*
X13180029Y-9972000D01*
X13135029Y-9927000D02*
X13225029Y-9927000D01*
X13200000Y-9055000D02*
X13200000Y-9145000D01*
X13155000Y-9100000D02*
X13245000Y-9100000D01*
X13400000Y-8355000D02*
X13400000Y-8445000D01*
X13355000Y-8400000D02*
X13445000Y-8400000D01*
X13400000Y-9755000D02*
X13400000Y-9845000D01*
X13355000Y-9800000D02*
X13445000Y-9800000D01*
X13773000Y-7635029D02*
X13773000Y-7725029D01*
X13728000Y-7680029D02*
X13818000Y-7680029D01*
X13773000Y-10474971D02*
X13773000Y-10564971D01*
X13728000Y-10519971D02*
X13818000Y-10519971D01*
X13900000Y-7855000D02*
X13900000Y-7945000D01*
X13855000Y-7900000D02*
X13945000Y-7900000D01*
X13900000Y-10255000D02*
X13900000Y-10345000D01*
X13855000Y-10300000D02*
X13945000Y-10300000D01*
X14600000Y-7401000D02*
X14600000Y-7491000D01*
X14555000Y-7446000D02*
X14645000Y-7446000D01*
X14600000Y-7655000D02*
X14600000Y-7745000D01*
X14555000Y-7700000D02*
X14645000Y-7700000D01*
X14600000Y-10455000D02*
X14600000Y-10545000D01*
X14555000Y-10500000D02*
X14645000Y-10500000D01*
X14600000Y-10709000D02*
X14600000Y-10799000D01*
X14555000Y-10754000D02*
X14645000Y-10754000D01*
X15300000Y-7855000D02*
X15300000Y-7945000D01*
X15255000Y-7900000D02*
X15345000Y-7900000D01*
X15300000Y-10255000D02*
X15300000Y-10345000D01*
X15255000Y-10300000D02*
X15345000Y-10300000D01*
X15427000Y-7635029D02*
X15427000Y-7725029D01*
X15382000Y-7680029D02*
X15472000Y-7680029D01*
X15427000Y-10474971D02*
X15427000Y-10564971D01*
X15382000Y-10519971D02*
X15472000Y-10519971D01*
X15800000Y-8355000D02*
X15800000Y-8445000D01*
X15755000Y-8400000D02*
X15845000Y-8400000D01*
X15800000Y-9755000D02*
X15800000Y-9845000D01*
X15755000Y-9800000D02*
X15845000Y-9800000D01*
X16000000Y-9055000D02*
X16000000Y-9145000D01*
X15955000Y-9100000D02*
X16045000Y-9100000D01*
X16019970Y-8228000D02*
X16019970Y-8318000D01*
X15974970Y-8273000D02*
X16064970Y-8273000D01*
X16019970Y-9882000D02*
X16019970Y-9972000D01*
X15974970Y-9927000D02*
X16064970Y-9927000D01*
X16254000Y-9055000D02*
X16254000Y-9145000D01*
X16209000Y-9100000D02*
X16299000Y-9100000D01*
D10*
X13521356Y-11461356D02*
X13521356Y-11390644D01*
X13450644Y-11390644D01*
X13450644Y-11461356D01*
X13521356Y-11461356D01*
X13775356Y-11461356D02*
X13775356Y-11390644D01*
X13704644Y-11390644D01*
X13704644Y-11461356D01*
X13775356Y-11461356D01*
X14029356Y-11461356D02*
X14029356Y-11390644D01*
X13958644Y-11390644D01*
X13958644Y-11461356D01*
X14029356Y-11461356D01*
X14283356Y-11461356D02*
X14283356Y-11390644D01*
X14212644Y-11390644D01*
X14212644Y-11461356D01*
X14283356Y-11461356D01*
X14435356Y-6635356D02*
X14435356Y-6564644D01*
X14364644Y-6564644D01*
X14364644Y-6635356D01*
X14435356Y-6635356D01*
X14537356Y-11461356D02*
X14537356Y-11390644D01*
X14466644Y-11390644D01*
X14466644Y-11461356D01*
X14537356Y-11461356D01*
X14689356Y-6635356D02*
X14689356Y-6564644D01*
X14618644Y-6564644D01*
X14618644Y-6635356D01*
X14689356Y-6635356D01*
X14791356Y-11461356D02*
X14791356Y-11390644D01*
X14720644Y-11390644D01*
X14720644Y-11461356D01*
X14791356Y-11461356D01*
X14943356Y-6635356D02*
X14943356Y-6564644D01*
X14872644Y-6564644D01*
X14872644Y-6635356D01*
X14943356Y-6635356D01*
X15045356Y-11461356D02*
X15045356Y-11390644D01*
X14974644Y-11390644D01*
X14974644Y-11461356D01*
X15045356Y-11461356D01*
X15197356Y-6635356D02*
X15197356Y-6564644D01*
X15126644Y-6564644D01*
X15126644Y-6635356D01*
X15197356Y-6635356D01*
X15299356Y-11461356D02*
X15299356Y-11390644D01*
X15228644Y-11390644D01*
X15228644Y-11461356D01*
X15299356Y-11461356D01*
X15451356Y-6635356D02*
X15451356Y-6564644D01*
X15380644Y-6564644D01*
X15380644Y-6635356D01*
X15451356Y-6635356D01*
X15553356Y-11461356D02*
X15553356Y-11390644D01*
X15482644Y-11390644D01*
X15482644Y-11461356D01*
X15553356Y-11461356D01*
X15705356Y-6635356D02*
X15705356Y-6564644D01*
X15634644Y-6564644D01*
X15634644Y-6635356D01*
X15705356Y-6635356D01*
X15807356Y-11461356D02*
X15807356Y-11390644D01*
X15736644Y-11390644D01*
X15736644Y-11461356D01*
X15807356Y-11461356D01*
X15959356Y-6635356D02*
X15959356Y-6564644D01*
X15888644Y-6564644D01*
X15888644Y-6635356D01*
X15959356Y-6635356D01*
X16213356Y-6635356D02*
X16213356Y-6564644D01*
X16142644Y-6564644D01*
X16142644Y-6635356D01*
X16213356Y-6635356D01*
X16213356Y-11461356D02*
X16213356Y-11390644D01*
X16142644Y-11390644D01*
X16142644Y-11461356D01*
X16213356Y-11461356D01*
X16467356Y-11461356D02*
X16467356Y-11390644D01*
X16396644Y-11390644D01*
X16396644Y-11461356D01*
X16467356Y-11461356D01*
X16721356Y-6635356D02*
X16721356Y-6564644D01*
X16650644Y-6564644D01*
X16650644Y-6635356D01*
X16721356Y-6635356D01*
X16721356Y-11461356D02*
X16721356Y-11390644D01*
X16650644Y-11390644D01*
X16650644Y-11461356D01*
X16721356Y-11461356D01*
X16975356Y-6635356D02*
X16975356Y-6564644D01*
X16904644Y-6564644D01*
X16904644Y-6635356D01*
X16975356Y-6635356D01*
X16975356Y-11461356D02*
X16975356Y-11390644D01*
X16904644Y-11390644D01*
X16904644Y-11461356D01*
X16975356Y-11461356D01*
X17229356Y-6635356D02*
X17229356Y-6564644D01*
X17158644Y-6564644D01*
X17158644Y-6635356D01*
X17229356Y-6635356D01*
X17229356Y-11461356D02*
X17229356Y-11390644D01*
X17158644Y-11390644D01*
X17158644Y-11461356D01*
X17229356Y-11461356D01*
X17483356Y-6635356D02*
X17483356Y-6564644D01*
X17412644Y-6564644D01*
X17412644Y-6635356D01*
X17483356Y-6635356D01*
X17483356Y-11461356D02*
X17483356Y-11390644D01*
X17412644Y-11390644D01*
X17412644Y-11461356D01*
X17483356Y-11461356D01*
X17737356Y-6635356D02*
X17737356Y-6564644D01*
X17666644Y-6564644D01*
X17666644Y-6635356D01*
X17737356Y-6635356D01*
X17737356Y-11461356D02*
X17737356Y-11390644D01*
X17666644Y-11390644D01*
X17666644Y-11461356D01*
X17737356Y-11461356D01*
X17991356Y-6635356D02*
X17991356Y-6564644D01*
X17920644Y-6564644D01*
X17920644Y-6635356D01*
X17991356Y-6635356D01*
X17991356Y-11461356D02*
X17991356Y-11390644D01*
X17920644Y-11390644D01*
X17920644Y-11461356D01*
X17991356Y-11461356D01*
D15*
X16800000Y-8525000D02*
X16875000Y-8450000D01*
X16800000Y-8375000D01*
X16725000Y-8450000D01*
X16800000Y-8525000D01*
X16800000Y-9775000D02*
X16875000Y-9700000D01*
X16800000Y-9625000D01*
X16725000Y-9700000D01*
X16800000Y-9775000D01*
X17300000Y-8525000D02*
X17375000Y-8450000D01*
X17300000Y-8375000D01*
X17225000Y-8450000D01*
X17300000Y-8525000D01*
X17300000Y-9775000D02*
X17375000Y-9700000D01*
X17300000Y-9625000D01*
X17225000Y-9700000D01*
X17300000Y-9775000D01*
X17700000Y-8525000D02*
X17775000Y-8450000D01*
X17700000Y-8375000D01*
X17625000Y-8450000D01*
X17700000Y-8525000D01*
X17700000Y-9775000D02*
X17775000Y-9700000D01*
X17700000Y-9625000D01*
X17625000Y-9700000D01*
X17700000Y-9775000D01*
X18200000Y-8525000D02*
X18275000Y-8450000D01*
X18200000Y-8375000D01*
X18125000Y-8450000D01*
X18200000Y-8525000D01*
X18200000Y-9775000D02*
X18275000Y-9700000D01*
X18200000Y-9625000D01*
X18125000Y-9700000D01*
X18200000Y-9775000D01*
D11*
X11152619Y-12115476D02*
X11152619Y-11915476D01*
X11200238Y-11915476D01*
X11228809Y-11925000D01*
X11247857Y-11944048D01*
X11257381Y-11963095D01*
X11266905Y-12001190D01*
X11266905Y-12029762D01*
X11257381Y-12067857D01*
X11247857Y-12086905D01*
X11228809Y-12105952D01*
X11200238Y-12115476D01*
X11152619Y-12115476D01*
X11352619Y-12115476D02*
X11352619Y-11982143D01*
X11352619Y-12020238D02*
X11362143Y-12001190D01*
X11371667Y-11991667D01*
X11390714Y-11982143D01*
X11409762Y-11982143D01*
X11476428Y-12115476D02*
X11476428Y-11982143D01*
X11476428Y-11915476D02*
X11466905Y-11925000D01*
X11476428Y-11934524D01*
X11485952Y-11925000D01*
X11476428Y-11915476D01*
X11476428Y-11934524D01*
X11600238Y-12115476D02*
X11581190Y-12105952D01*
X11571667Y-12086905D01*
X11571667Y-11915476D01*
X11705000Y-12115476D02*
X11685952Y-12105952D01*
X11676428Y-12086905D01*
X11676428Y-11915476D01*
X11933571Y-12115476D02*
X11933571Y-11915476D01*
X12000238Y-12058333D01*
X12066905Y-11915476D01*
X12066905Y-12115476D01*
X12247857Y-12115476D02*
X12247857Y-12010714D01*
X12238333Y-11991667D01*
X12219286Y-11982143D01*
X12181190Y-11982143D01*
X12162143Y-11991667D01*
X12247857Y-12105952D02*
X12228809Y-12115476D01*
X12181190Y-12115476D01*
X12162143Y-12105952D01*
X12152619Y-12086905D01*
X12152619Y-12067857D01*
X12162143Y-12048809D01*
X12181190Y-12039286D01*
X12228809Y-12039286D01*
X12247857Y-12029762D01*
X12343095Y-11982143D02*
X12343095Y-12182143D01*
X12343095Y-11991667D02*
X12362143Y-11982143D01*
X12400238Y-11982143D01*
X12419286Y-11991667D01*
X12428809Y-12001190D01*
X12438333Y-12020238D01*
X12438333Y-12077381D01*
X12428809Y-12096428D01*
X12419286Y-12105952D01*
X12400238Y-12115476D01*
X12362143Y-12115476D01*
X12343095Y-12105952D01*
X12524048Y-12096428D02*
X12533571Y-12105952D01*
X12524048Y-12115476D01*
X12514524Y-12105952D01*
X12524048Y-12096428D01*
X12524048Y-12115476D01*
X12524048Y-11991667D02*
X12533571Y-12001190D01*
X12524048Y-12010714D01*
X12514524Y-12001190D01*
X12524048Y-11991667D01*
X12524048Y-12010714D01*
D12*
X10855000Y-12425000D02*
X10895000Y-12465000D01*
X10895000Y-12425000D02*
X10855000Y-12465000D01*
D11*
X11190714Y-12335476D02*
X11209762Y-12335476D01*
X11228809Y-12345000D01*
X11238333Y-12354524D01*
X11247857Y-12373571D01*
X11257381Y-12411667D01*
X11257381Y-12459286D01*
X11247857Y-12497381D01*
X11238333Y-12516428D01*
X11228809Y-12525952D01*
X11209762Y-12535476D01*
X11190714Y-12535476D01*
X11171667Y-12525952D01*
X11162143Y-12516428D01*
X11152619Y-12497381D01*
X11143095Y-12459286D01*
X11143095Y-12411667D01*
X11152619Y-12373571D01*
X11162143Y-12354524D01*
X11171667Y-12345000D01*
X11190714Y-12335476D01*
X11343095Y-12516428D02*
X11352619Y-12525952D01*
X11343095Y-12535476D01*
X11333571Y-12525952D01*
X11343095Y-12516428D01*
X11343095Y-12535476D01*
X11524048Y-12402143D02*
X11524048Y-12535476D01*
X11476428Y-12325952D02*
X11428809Y-12468809D01*
X11552619Y-12468809D01*
X11666905Y-12335476D02*
X11685952Y-12335476D01*
X11705000Y-12345000D01*
X11714524Y-12354524D01*
X11724048Y-12373571D01*
X11733571Y-12411667D01*
X11733571Y-12459286D01*
X11724048Y-12497381D01*
X11714524Y-12516428D01*
X11705000Y-12525952D01*
X11685952Y-12535476D01*
X11666905Y-12535476D01*
X11647857Y-12525952D01*
X11638333Y-12516428D01*
X11628809Y-12497381D01*
X11619286Y-12459286D01*
X11619286Y-12411667D01*
X11628809Y-12373571D01*
X11638333Y-12354524D01*
X11647857Y-12345000D01*
X11666905Y-12335476D01*
X11857381Y-12335476D02*
X11876428Y-12335476D01*
X11895476Y-12345000D01*
X11905000Y-12354524D01*
X11914524Y-12373571D01*
X11924048Y-12411667D01*
X11924048Y-12459286D01*
X11914524Y-12497381D01*
X11905000Y-12516428D01*
X11895476Y-12525952D01*
X11876428Y-12535476D01*
X11857381Y-12535476D01*
X11838333Y-12525952D01*
X11828809Y-12516428D01*
X11819286Y-12497381D01*
X11809762Y-12459286D01*
X11809762Y-12411667D01*
X11819286Y-12373571D01*
X11828809Y-12354524D01*
X11838333Y-12345000D01*
X11857381Y-12335476D01*
X12009762Y-12535476D02*
X12009762Y-12402143D01*
X12009762Y-12421190D02*
X12019286Y-12411667D01*
X12038333Y-12402143D01*
X12066905Y-12402143D01*
X12085952Y-12411667D01*
X12095476Y-12430714D01*
X12095476Y-12535476D01*
X12095476Y-12430714D02*
X12105000Y-12411667D01*
X12124048Y-12402143D01*
X12152619Y-12402143D01*
X12171667Y-12411667D01*
X12181190Y-12430714D01*
X12181190Y-12535476D01*
X12276428Y-12535476D02*
X12276428Y-12402143D01*
X12276428Y-12421190D02*
X12285952Y-12411667D01*
X12305000Y-12402143D01*
X12333571Y-12402143D01*
X12352619Y-12411667D01*
X12362143Y-12430714D01*
X12362143Y-12535476D01*
X12362143Y-12430714D02*
X12371667Y-12411667D01*
X12390714Y-12402143D01*
X12419286Y-12402143D01*
X12438333Y-12411667D01*
X12447857Y-12430714D01*
X12447857Y-12535476D01*
X12838333Y-12325952D02*
X12666905Y-12583095D01*
X13095476Y-12335476D02*
X13114524Y-12335476D01*
X13133571Y-12345000D01*
X13143095Y-12354524D01*
X13152619Y-12373571D01*
X13162143Y-12411667D01*
X13162143Y-12459286D01*
X13152619Y-12497381D01*
X13143095Y-12516428D01*
X13133571Y-12525952D01*
X13114524Y-12535476D01*
X13095476Y-12535476D01*
X13076428Y-12525952D01*
X13066905Y-12516428D01*
X13057381Y-12497381D01*
X13047857Y-12459286D01*
X13047857Y-12411667D01*
X13057381Y-12373571D01*
X13066905Y-12354524D01*
X13076428Y-12345000D01*
X13095476Y-12335476D01*
X13247857Y-12516428D02*
X13257381Y-12525952D01*
X13247857Y-12535476D01*
X13238333Y-12525952D01*
X13247857Y-12516428D01*
X13247857Y-12535476D01*
X13381190Y-12335476D02*
X13400238Y-12335476D01*
X13419286Y-12345000D01*
X13428809Y-12354524D01*
X13438333Y-12373571D01*
X13447857Y-12411667D01*
X13447857Y-12459286D01*
X13438333Y-12497381D01*
X13428809Y-12516428D01*
X13419286Y-12525952D01*
X13400238Y-12535476D01*
X13381190Y-12535476D01*
X13362143Y-12525952D01*
X13352619Y-12516428D01*
X13343095Y-12497381D01*
X13333571Y-12459286D01*
X13333571Y-12411667D01*
X13343095Y-12373571D01*
X13352619Y-12354524D01*
X13362143Y-12345000D01*
X13381190Y-12335476D01*
X13638333Y-12535476D02*
X13524048Y-12535476D01*
X13581190Y-12535476D02*
X13581190Y-12335476D01*
X13562143Y-12364048D01*
X13543095Y-12383095D01*
X13524048Y-12392619D01*
X13819286Y-12335476D02*
X13724048Y-12335476D01*
X13714524Y-12430714D01*
X13724048Y-12421190D01*
X13743095Y-12411667D01*
X13790714Y-12411667D01*
X13809762Y-12421190D01*
X13819286Y-12430714D01*
X13828809Y-12449762D01*
X13828809Y-12497381D01*
X13819286Y-12516428D01*
X13809762Y-12525952D01*
X13790714Y-12535476D01*
X13743095Y-12535476D01*
X13724048Y-12525952D01*
X13714524Y-12516428D01*
X13895476Y-12335476D02*
X14028809Y-12335476D01*
X13943095Y-12535476D01*
X14095476Y-12335476D02*
X14095476Y-12373571D01*
X14171667Y-12335476D02*
X14171667Y-12373571D01*
X14466905Y-12611667D02*
X14457381Y-12602143D01*
X14438333Y-12573571D01*
X14428809Y-12554524D01*
X14419286Y-12525952D01*
X14409762Y-12478333D01*
X14409762Y-12440238D01*
X14419286Y-12392619D01*
X14428809Y-12364048D01*
X14438333Y-12345000D01*
X14457381Y-12316428D01*
X14466905Y-12306905D01*
X14647857Y-12535476D02*
X14533571Y-12535476D01*
X14590714Y-12535476D02*
X14590714Y-12335476D01*
X14571667Y-12364048D01*
X14552619Y-12383095D01*
X14533571Y-12392619D01*
X14885952Y-12535476D02*
X14885952Y-12335476D01*
X14971667Y-12535476D02*
X14971667Y-12430714D01*
X14962143Y-12411667D01*
X14943095Y-12402143D01*
X14914524Y-12402143D01*
X14895476Y-12411667D01*
X14885952Y-12421190D01*
X15095476Y-12535476D02*
X15076428Y-12525952D01*
X15066905Y-12516428D01*
X15057381Y-12497381D01*
X15057381Y-12440238D01*
X15066905Y-12421190D01*
X15076428Y-12411667D01*
X15095476Y-12402143D01*
X15124048Y-12402143D01*
X15143095Y-12411667D01*
X15152619Y-12421190D01*
X15162143Y-12440238D01*
X15162143Y-12497381D01*
X15152619Y-12516428D01*
X15143095Y-12525952D01*
X15124048Y-12535476D01*
X15095476Y-12535476D01*
X15276428Y-12535476D02*
X15257381Y-12525952D01*
X15247857Y-12506905D01*
X15247857Y-12335476D01*
X15428809Y-12525952D02*
X15409762Y-12535476D01*
X15371667Y-12535476D01*
X15352619Y-12525952D01*
X15343095Y-12506905D01*
X15343095Y-12430714D01*
X15352619Y-12411667D01*
X15371667Y-12402143D01*
X15409762Y-12402143D01*
X15428809Y-12411667D01*
X15438333Y-12430714D01*
X15438333Y-12449762D01*
X15343095Y-12468809D01*
X15505000Y-12611667D02*
X15514524Y-12602143D01*
X15533571Y-12573571D01*
X15543095Y-12554524D01*
X15552619Y-12525952D01*
X15562143Y-12478333D01*
X15562143Y-12440238D01*
X15552619Y-12392619D01*
X15543095Y-12364048D01*
X15533571Y-12345000D01*
X15514524Y-12316428D01*
X15505000Y-12306905D01*
D13*
X10895000Y-12709000D02*
G75*
G03*
X10895000Y-12709000I-40000J0D01*
G01*
D11*
X11190714Y-12599476D02*
X11209762Y-12599476D01*
X11228809Y-12609000D01*
X11238333Y-12618524D01*
X11247857Y-12637571D01*
X11257381Y-12675667D01*
X11257381Y-12723286D01*
X11247857Y-12761381D01*
X11238333Y-12780428D01*
X11228809Y-12789952D01*
X11209762Y-12799476D01*
X11190714Y-12799476D01*
X11171667Y-12789952D01*
X11162143Y-12780428D01*
X11152619Y-12761381D01*
X11143095Y-12723286D01*
X11143095Y-12675667D01*
X11152619Y-12637571D01*
X11162143Y-12618524D01*
X11171667Y-12609000D01*
X11190714Y-12599476D01*
X11343095Y-12780428D02*
X11352619Y-12789952D01*
X11343095Y-12799476D01*
X11333571Y-12789952D01*
X11343095Y-12780428D01*
X11343095Y-12799476D01*
X11466905Y-12685190D02*
X11447857Y-12675667D01*
X11438333Y-12666143D01*
X11428809Y-12647095D01*
X11428809Y-12637571D01*
X11438333Y-12618524D01*
X11447857Y-12609000D01*
X11466905Y-12599476D01*
X11505000Y-12599476D01*
X11524048Y-12609000D01*
X11533571Y-12618524D01*
X11543095Y-12637571D01*
X11543095Y-12647095D01*
X11533571Y-12666143D01*
X11524048Y-12675667D01*
X11505000Y-12685190D01*
X11466905Y-12685190D01*
X11447857Y-12694714D01*
X11438333Y-12704238D01*
X11428809Y-12723286D01*
X11428809Y-12761381D01*
X11438333Y-12780428D01*
X11447857Y-12789952D01*
X11466905Y-12799476D01*
X11505000Y-12799476D01*
X11524048Y-12789952D01*
X11533571Y-12780428D01*
X11543095Y-12761381D01*
X11543095Y-12723286D01*
X11533571Y-12704238D01*
X11524048Y-12694714D01*
X11505000Y-12685190D01*
X11666905Y-12599476D02*
X11685952Y-12599476D01*
X11705000Y-12609000D01*
X11714524Y-12618524D01*
X11724048Y-12637571D01*
X11733571Y-12675667D01*
X11733571Y-12723286D01*
X11724048Y-12761381D01*
X11714524Y-12780428D01*
X11705000Y-12789952D01*
X11685952Y-12799476D01*
X11666905Y-12799476D01*
X11647857Y-12789952D01*
X11638333Y-12780428D01*
X11628809Y-12761381D01*
X11619286Y-12723286D01*
X11619286Y-12675667D01*
X11628809Y-12637571D01*
X11638333Y-12618524D01*
X11647857Y-12609000D01*
X11666905Y-12599476D01*
X11857381Y-12599476D02*
X11876428Y-12599476D01*
X11895476Y-12609000D01*
X11905000Y-12618524D01*
X11914524Y-12637571D01*
X11924048Y-12675667D01*
X11924048Y-12723286D01*
X11914524Y-12761381D01*
X11905000Y-12780428D01*
X11895476Y-12789952D01*
X11876428Y-12799476D01*
X11857381Y-12799476D01*
X11838333Y-12789952D01*
X11828809Y-12780428D01*
X11819286Y-12761381D01*
X11809762Y-12723286D01*
X11809762Y-12675667D01*
X11819286Y-12637571D01*
X11828809Y-12618524D01*
X11838333Y-12609000D01*
X11857381Y-12599476D01*
X12009762Y-12799476D02*
X12009762Y-12666143D01*
X12009762Y-12685190D02*
X12019286Y-12675667D01*
X12038333Y-12666143D01*
X12066905Y-12666143D01*
X12085952Y-12675667D01*
X12095476Y-12694714D01*
X12095476Y-12799476D01*
X12095476Y-12694714D02*
X12105000Y-12675667D01*
X12124048Y-12666143D01*
X12152619Y-12666143D01*
X12171667Y-12675667D01*
X12181190Y-12694714D01*
X12181190Y-12799476D01*
X12276428Y-12799476D02*
X12276428Y-12666143D01*
X12276428Y-12685190D02*
X12285952Y-12675667D01*
X12305000Y-12666143D01*
X12333571Y-12666143D01*
X12352619Y-12675667D01*
X12362143Y-12694714D01*
X12362143Y-12799476D01*
X12362143Y-12694714D02*
X12371667Y-12675667D01*
X12390714Y-12666143D01*
X12419286Y-12666143D01*
X12438333Y-12675667D01*
X12447857Y-12694714D01*
X12447857Y-12799476D01*
X12838333Y-12589952D02*
X12666905Y-12847095D01*
X13095476Y-12599476D02*
X13114524Y-12599476D01*
X13133571Y-12609000D01*
X13143095Y-12618524D01*
X13152619Y-12637571D01*
X13162143Y-12675667D01*
X13162143Y-12723286D01*
X13152619Y-12761381D01*
X13143095Y-12780428D01*
X13133571Y-12789952D01*
X13114524Y-12799476D01*
X13095476Y-12799476D01*
X13076428Y-12789952D01*
X13066905Y-12780428D01*
X13057381Y-12761381D01*
X13047857Y-12723286D01*
X13047857Y-12675667D01*
X13057381Y-12637571D01*
X13066905Y-12618524D01*
X13076428Y-12609000D01*
X13095476Y-12599476D01*
X13247857Y-12780428D02*
X13257381Y-12789952D01*
X13247857Y-12799476D01*
X13238333Y-12789952D01*
X13247857Y-12780428D01*
X13247857Y-12799476D01*
X13381190Y-12599476D02*
X13400238Y-12599476D01*
X13419286Y-12609000D01*
X13428809Y-12618524D01*
X13438333Y-12637571D01*
X13447857Y-12675667D01*
X13447857Y-12723286D01*
X13438333Y-12761381D01*
X13428809Y-12780428D01*
X13419286Y-12789952D01*
X13400238Y-12799476D01*
X13381190Y-12799476D01*
X13362143Y-12789952D01*
X13352619Y-12780428D01*
X13343095Y-12761381D01*
X13333571Y-12723286D01*
X13333571Y-12675667D01*
X13343095Y-12637571D01*
X13352619Y-12618524D01*
X13362143Y-12609000D01*
X13381190Y-12599476D01*
X13514524Y-12599476D02*
X13638333Y-12599476D01*
X13571667Y-12675667D01*
X13600238Y-12675667D01*
X13619286Y-12685190D01*
X13628809Y-12694714D01*
X13638333Y-12713762D01*
X13638333Y-12761381D01*
X13628809Y-12780428D01*
X13619286Y-12789952D01*
X13600238Y-12799476D01*
X13543095Y-12799476D01*
X13524048Y-12789952D01*
X13514524Y-12780428D01*
X13828809Y-12799476D02*
X13714524Y-12799476D01*
X13771667Y-12799476D02*
X13771667Y-12599476D01*
X13752619Y-12628048D01*
X13733571Y-12647095D01*
X13714524Y-12656619D01*
X14009762Y-12599476D02*
X13914524Y-12599476D01*
X13905000Y-12694714D01*
X13914524Y-12685190D01*
X13933571Y-12675667D01*
X13981190Y-12675667D01*
X14000238Y-12685190D01*
X14009762Y-12694714D01*
X14019286Y-12713762D01*
X14019286Y-12761381D01*
X14009762Y-12780428D01*
X14000238Y-12789952D01*
X13981190Y-12799476D01*
X13933571Y-12799476D01*
X13914524Y-12789952D01*
X13905000Y-12780428D01*
X14095476Y-12599476D02*
X14095476Y-12637571D01*
X14171667Y-12599476D02*
X14171667Y-12637571D01*
X14466905Y-12875667D02*
X14457381Y-12866143D01*
X14438333Y-12837571D01*
X14428809Y-12818524D01*
X14419286Y-12789952D01*
X14409762Y-12742333D01*
X14409762Y-12704238D01*
X14419286Y-12656619D01*
X14428809Y-12628048D01*
X14438333Y-12609000D01*
X14457381Y-12580428D01*
X14466905Y-12570905D01*
X14533571Y-12618524D02*
X14543095Y-12609000D01*
X14562143Y-12599476D01*
X14609762Y-12599476D01*
X14628809Y-12609000D01*
X14638333Y-12618524D01*
X14647857Y-12637571D01*
X14647857Y-12656619D01*
X14638333Y-12685190D01*
X14524048Y-12799476D01*
X14647857Y-12799476D01*
X14762143Y-12685190D02*
X14743095Y-12675667D01*
X14733571Y-12666143D01*
X14724048Y-12647095D01*
X14724048Y-12637571D01*
X14733571Y-12618524D01*
X14743095Y-12609000D01*
X14762143Y-12599476D01*
X14800238Y-12599476D01*
X14819286Y-12609000D01*
X14828809Y-12618524D01*
X14838333Y-12637571D01*
X14838333Y-12647095D01*
X14828809Y-12666143D01*
X14819286Y-12675667D01*
X14800238Y-12685190D01*
X14762143Y-12685190D01*
X14743095Y-12694714D01*
X14733571Y-12704238D01*
X14724048Y-12723286D01*
X14724048Y-12761381D01*
X14733571Y-12780428D01*
X14743095Y-12789952D01*
X14762143Y-12799476D01*
X14800238Y-12799476D01*
X14819286Y-12789952D01*
X14828809Y-12780428D01*
X14838333Y-12761381D01*
X14838333Y-12723286D01*
X14828809Y-12704238D01*
X14819286Y-12694714D01*
X14800238Y-12685190D01*
X15076428Y-12799476D02*
X15076428Y-12599476D01*
X15162143Y-12799476D02*
X15162143Y-12694714D01*
X15152619Y-12675667D01*
X15133571Y-12666143D01*
X15105000Y-12666143D01*
X15085952Y-12675667D01*
X15076428Y-12685190D01*
X15285952Y-12799476D02*
X15266905Y-12789952D01*
X15257381Y-12780428D01*
X15247857Y-12761381D01*
X15247857Y-12704238D01*
X15257381Y-12685190D01*
X15266905Y-12675667D01*
X15285952Y-12666143D01*
X15314524Y-12666143D01*
X15333571Y-12675667D01*
X15343095Y-12685190D01*
X15352619Y-12704238D01*
X15352619Y-12761381D01*
X15343095Y-12780428D01*
X15333571Y-12789952D01*
X15314524Y-12799476D01*
X15285952Y-12799476D01*
X15466905Y-12799476D02*
X15447857Y-12789952D01*
X15438333Y-12770905D01*
X15438333Y-12599476D01*
X15619286Y-12789952D02*
X15600238Y-12799476D01*
X15562143Y-12799476D01*
X15543095Y-12789952D01*
X15533571Y-12770905D01*
X15533571Y-12694714D01*
X15543095Y-12675667D01*
X15562143Y-12666143D01*
X15600238Y-12666143D01*
X15619286Y-12675667D01*
X15628809Y-12694714D01*
X15628809Y-12713762D01*
X15533571Y-12732809D01*
X15705000Y-12789952D02*
X15724048Y-12799476D01*
X15762143Y-12799476D01*
X15781190Y-12789952D01*
X15790714Y-12770905D01*
X15790714Y-12761381D01*
X15781190Y-12742333D01*
X15762143Y-12732809D01*
X15733571Y-12732809D01*
X15714524Y-12723286D01*
X15705000Y-12704238D01*
X15705000Y-12694714D01*
X15714524Y-12675667D01*
X15733571Y-12666143D01*
X15762143Y-12666143D01*
X15781190Y-12675667D01*
X15857381Y-12875667D02*
X15866905Y-12866143D01*
X15885952Y-12837571D01*
X15895476Y-12818524D01*
X15905000Y-12789952D01*
X15914524Y-12742333D01*
X15914524Y-12704238D01*
X15905000Y-12656619D01*
X15895476Y-12628048D01*
X15885952Y-12609000D01*
X15866905Y-12580428D01*
X15857381Y-12570905D01*
D14*
X10850000Y-12928000D02*
X10850000Y-13018000D01*
X10805000Y-12973000D02*
X10895000Y-12973000D01*
D11*
X11190714Y-12863476D02*
X11209762Y-12863476D01*
X11228809Y-12873000D01*
X11238333Y-12882524D01*
X11247857Y-12901571D01*
X11257381Y-12939667D01*
X11257381Y-12987286D01*
X11247857Y-13025381D01*
X11238333Y-13044428D01*
X11228809Y-13053952D01*
X11209762Y-13063476D01*
X11190714Y-13063476D01*
X11171667Y-13053952D01*
X11162143Y-13044428D01*
X11152619Y-13025381D01*
X11143095Y-12987286D01*
X11143095Y-12939667D01*
X11152619Y-12901571D01*
X11162143Y-12882524D01*
X11171667Y-12873000D01*
X11190714Y-12863476D01*
X11343095Y-13044428D02*
X11352619Y-13053952D01*
X11343095Y-13063476D01*
X11333571Y-13053952D01*
X11343095Y-13044428D01*
X11343095Y-13063476D01*
X11447857Y-13063476D02*
X11485952Y-13063476D01*
X11505000Y-13053952D01*
X11514524Y-13044428D01*
X11533571Y-13015857D01*
X11543095Y-12977762D01*
X11543095Y-12901571D01*
X11533571Y-12882524D01*
X11524048Y-12873000D01*
X11505000Y-12863476D01*
X11466905Y-12863476D01*
X11447857Y-12873000D01*
X11438333Y-12882524D01*
X11428809Y-12901571D01*
X11428809Y-12949190D01*
X11438333Y-12968238D01*
X11447857Y-12977762D01*
X11466905Y-12987286D01*
X11505000Y-12987286D01*
X11524048Y-12977762D01*
X11533571Y-12968238D01*
X11543095Y-12949190D01*
X11666905Y-12863476D02*
X11685952Y-12863476D01*
X11705000Y-12873000D01*
X11714524Y-12882524D01*
X11724048Y-12901571D01*
X11733571Y-12939667D01*
X11733571Y-12987286D01*
X11724048Y-13025381D01*
X11714524Y-13044428D01*
X11705000Y-13053952D01*
X11685952Y-13063476D01*
X11666905Y-13063476D01*
X11647857Y-13053952D01*
X11638333Y-13044428D01*
X11628809Y-13025381D01*
X11619286Y-12987286D01*
X11619286Y-12939667D01*
X11628809Y-12901571D01*
X11638333Y-12882524D01*
X11647857Y-12873000D01*
X11666905Y-12863476D01*
X11857381Y-12863476D02*
X11876428Y-12863476D01*
X11895476Y-12873000D01*
X11905000Y-12882524D01*
X11914524Y-12901571D01*
X11924048Y-12939667D01*
X11924048Y-12987286D01*
X11914524Y-13025381D01*
X11905000Y-13044428D01*
X11895476Y-13053952D01*
X11876428Y-13063476D01*
X11857381Y-13063476D01*
X11838333Y-13053952D01*
X11828809Y-13044428D01*
X11819286Y-13025381D01*
X11809762Y-12987286D01*
X11809762Y-12939667D01*
X11819286Y-12901571D01*
X11828809Y-12882524D01*
X11838333Y-12873000D01*
X11857381Y-12863476D01*
X12009762Y-13063476D02*
X12009762Y-12930143D01*
X12009762Y-12949190D02*
X12019286Y-12939667D01*
X12038333Y-12930143D01*
X12066905Y-12930143D01*
X12085952Y-12939667D01*
X12095476Y-12958714D01*
X12095476Y-13063476D01*
X12095476Y-12958714D02*
X12105000Y-12939667D01*
X12124048Y-12930143D01*
X12152619Y-12930143D01*
X12171667Y-12939667D01*
X12181190Y-12958714D01*
X12181190Y-13063476D01*
X12276428Y-13063476D02*
X12276428Y-12930143D01*
X12276428Y-12949190D02*
X12285952Y-12939667D01*
X12305000Y-12930143D01*
X12333571Y-12930143D01*
X12352619Y-12939667D01*
X12362143Y-12958714D01*
X12362143Y-13063476D01*
X12362143Y-12958714D02*
X12371667Y-12939667D01*
X12390714Y-12930143D01*
X12419286Y-12930143D01*
X12438333Y-12939667D01*
X12447857Y-12958714D01*
X12447857Y-13063476D01*
X12838333Y-12853952D02*
X12666905Y-13111095D01*
X13095476Y-12863476D02*
X13114524Y-12863476D01*
X13133571Y-12873000D01*
X13143095Y-12882524D01*
X13152619Y-12901571D01*
X13162143Y-12939667D01*
X13162143Y-12987286D01*
X13152619Y-13025381D01*
X13143095Y-13044428D01*
X13133571Y-13053952D01*
X13114524Y-13063476D01*
X13095476Y-13063476D01*
X13076428Y-13053952D01*
X13066905Y-13044428D01*
X13057381Y-13025381D01*
X13047857Y-12987286D01*
X13047857Y-12939667D01*
X13057381Y-12901571D01*
X13066905Y-12882524D01*
X13076428Y-12873000D01*
X13095476Y-12863476D01*
X13247857Y-13044428D02*
X13257381Y-13053952D01*
X13247857Y-13063476D01*
X13238333Y-13053952D01*
X13247857Y-13044428D01*
X13247857Y-13063476D01*
X13381190Y-12863476D02*
X13400238Y-12863476D01*
X13419286Y-12873000D01*
X13428809Y-12882524D01*
X13438333Y-12901571D01*
X13447857Y-12939667D01*
X13447857Y-12987286D01*
X13438333Y-13025381D01*
X13428809Y-13044428D01*
X13419286Y-13053952D01*
X13400238Y-13063476D01*
X13381190Y-13063476D01*
X13362143Y-13053952D01*
X13352619Y-13044428D01*
X13343095Y-13025381D01*
X13333571Y-12987286D01*
X13333571Y-12939667D01*
X13343095Y-12901571D01*
X13352619Y-12882524D01*
X13362143Y-12873000D01*
X13381190Y-12863476D01*
X13514524Y-12863476D02*
X13638333Y-12863476D01*
X13571667Y-12939667D01*
X13600238Y-12939667D01*
X13619286Y-12949190D01*
X13628809Y-12958714D01*
X13638333Y-12977762D01*
X13638333Y-13025381D01*
X13628809Y-13044428D01*
X13619286Y-13053952D01*
X13600238Y-13063476D01*
X13543095Y-13063476D01*
X13524048Y-13053952D01*
X13514524Y-13044428D01*
X13819286Y-12863476D02*
X13724048Y-12863476D01*
X13714524Y-12958714D01*
X13724048Y-12949190D01*
X13743095Y-12939667D01*
X13790714Y-12939667D01*
X13809762Y-12949190D01*
X13819286Y-12958714D01*
X13828809Y-12977762D01*
X13828809Y-13025381D01*
X13819286Y-13044428D01*
X13809762Y-13053952D01*
X13790714Y-13063476D01*
X13743095Y-13063476D01*
X13724048Y-13053952D01*
X13714524Y-13044428D01*
X14000238Y-12930143D02*
X14000238Y-13063476D01*
X13952619Y-12853952D02*
X13905000Y-12996809D01*
X14028809Y-12996809D01*
X14095476Y-12863476D02*
X14095476Y-12901571D01*
X14171667Y-12863476D02*
X14171667Y-12901571D01*
X14466905Y-13139667D02*
X14457381Y-13130143D01*
X14438333Y-13101571D01*
X14428809Y-13082524D01*
X14419286Y-13053952D01*
X14409762Y-13006333D01*
X14409762Y-12968238D01*
X14419286Y-12920619D01*
X14428809Y-12892048D01*
X14438333Y-12873000D01*
X14457381Y-12844428D01*
X14466905Y-12834905D01*
X14533571Y-12882524D02*
X14543095Y-12873000D01*
X14562143Y-12863476D01*
X14609762Y-12863476D01*
X14628809Y-12873000D01*
X14638333Y-12882524D01*
X14647857Y-12901571D01*
X14647857Y-12920619D01*
X14638333Y-12949190D01*
X14524048Y-13063476D01*
X14647857Y-13063476D01*
X14819286Y-12930143D02*
X14819286Y-13063476D01*
X14771667Y-12853952D02*
X14724048Y-12996809D01*
X14847857Y-12996809D01*
X15076428Y-13063476D02*
X15076428Y-12863476D01*
X15162143Y-13063476D02*
X15162143Y-12958714D01*
X15152619Y-12939667D01*
X15133571Y-12930143D01*
X15105000Y-12930143D01*
X15085952Y-12939667D01*
X15076428Y-12949190D01*
X15285952Y-13063476D02*
X15266905Y-13053952D01*
X15257381Y-13044428D01*
X15247857Y-13025381D01*
X15247857Y-12968238D01*
X15257381Y-12949190D01*
X15266905Y-12939667D01*
X15285952Y-12930143D01*
X15314524Y-12930143D01*
X15333571Y-12939667D01*
X15343095Y-12949190D01*
X15352619Y-12968238D01*
X15352619Y-13025381D01*
X15343095Y-13044428D01*
X15333571Y-13053952D01*
X15314524Y-13063476D01*
X15285952Y-13063476D01*
X15466905Y-13063476D02*
X15447857Y-13053952D01*
X15438333Y-13034905D01*
X15438333Y-12863476D01*
X15619286Y-13053952D02*
X15600238Y-13063476D01*
X15562143Y-13063476D01*
X15543095Y-13053952D01*
X15533571Y-13034905D01*
X15533571Y-12958714D01*
X15543095Y-12939667D01*
X15562143Y-12930143D01*
X15600238Y-12930143D01*
X15619286Y-12939667D01*
X15628809Y-12958714D01*
X15628809Y-12977762D01*
X15533571Y-12996809D01*
X15705000Y-13053952D02*
X15724048Y-13063476D01*
X15762143Y-13063476D01*
X15781190Y-13053952D01*
X15790714Y-13034905D01*
X15790714Y-13025381D01*
X15781190Y-13006333D01*
X15762143Y-12996809D01*
X15733571Y-12996809D01*
X15714524Y-12987286D01*
X15705000Y-12968238D01*
X15705000Y-12958714D01*
X15714524Y-12939667D01*
X15733571Y-12930143D01*
X15762143Y-12930143D01*
X15781190Y-12939667D01*
X15857381Y-13139667D02*
X15866905Y-13130143D01*
X15885952Y-13101571D01*
X15895476Y-13082524D01*
X15905000Y-13053952D01*
X15914524Y-13006333D01*
X15914524Y-12968238D01*
X15905000Y-12920619D01*
X15895476Y-12892048D01*
X15885952Y-12873000D01*
X15866905Y-12844428D01*
X15857381Y-12834905D01*
D10*
X10880356Y-13272356D02*
X10880356Y-13201644D01*
X10809644Y-13201644D01*
X10809644Y-13272356D01*
X10880356Y-13272356D01*
D11*
X11257381Y-13327476D02*
X11143095Y-13327476D01*
X11200238Y-13327476D02*
X11200238Y-13127476D01*
X11181190Y-13156048D01*
X11162143Y-13175095D01*
X11143095Y-13184619D01*
X11343095Y-13308428D02*
X11352619Y-13317952D01*
X11343095Y-13327476D01*
X11333571Y-13317952D01*
X11343095Y-13308428D01*
X11343095Y-13327476D01*
X11476428Y-13127476D02*
X11495476Y-13127476D01*
X11514524Y-13137000D01*
X11524048Y-13146524D01*
X11533571Y-13165571D01*
X11543095Y-13203667D01*
X11543095Y-13251286D01*
X11533571Y-13289381D01*
X11524048Y-13308428D01*
X11514524Y-13317952D01*
X11495476Y-13327476D01*
X11476428Y-13327476D01*
X11457381Y-13317952D01*
X11447857Y-13308428D01*
X11438333Y-13289381D01*
X11428809Y-13251286D01*
X11428809Y-13203667D01*
X11438333Y-13165571D01*
X11447857Y-13146524D01*
X11457381Y-13137000D01*
X11476428Y-13127476D01*
X11666905Y-13127476D02*
X11685952Y-13127476D01*
X11705000Y-13137000D01*
X11714524Y-13146524D01*
X11724048Y-13165571D01*
X11733571Y-13203667D01*
X11733571Y-13251286D01*
X11724048Y-13289381D01*
X11714524Y-13308428D01*
X11705000Y-13317952D01*
X11685952Y-13327476D01*
X11666905Y-13327476D01*
X11647857Y-13317952D01*
X11638333Y-13308428D01*
X11628809Y-13289381D01*
X11619286Y-13251286D01*
X11619286Y-13203667D01*
X11628809Y-13165571D01*
X11638333Y-13146524D01*
X11647857Y-13137000D01*
X11666905Y-13127476D01*
X11857381Y-13127476D02*
X11876428Y-13127476D01*
X11895476Y-13137000D01*
X11905000Y-13146524D01*
X11914524Y-13165571D01*
X11924048Y-13203667D01*
X11924048Y-13251286D01*
X11914524Y-13289381D01*
X11905000Y-13308428D01*
X11895476Y-13317952D01*
X11876428Y-13327476D01*
X11857381Y-13327476D01*
X11838333Y-13317952D01*
X11828809Y-13308428D01*
X11819286Y-13289381D01*
X11809762Y-13251286D01*
X11809762Y-13203667D01*
X11819286Y-13165571D01*
X11828809Y-13146524D01*
X11838333Y-13137000D01*
X11857381Y-13127476D01*
X12009762Y-13327476D02*
X12009762Y-13194143D01*
X12009762Y-13213190D02*
X12019286Y-13203667D01*
X12038333Y-13194143D01*
X12066905Y-13194143D01*
X12085952Y-13203667D01*
X12095476Y-13222714D01*
X12095476Y-13327476D01*
X12095476Y-13222714D02*
X12105000Y-13203667D01*
X12124048Y-13194143D01*
X12152619Y-13194143D01*
X12171667Y-13203667D01*
X12181190Y-13222714D01*
X12181190Y-13327476D01*
X12276428Y-13327476D02*
X12276428Y-13194143D01*
X12276428Y-13213190D02*
X12285952Y-13203667D01*
X12305000Y-13194143D01*
X12333571Y-13194143D01*
X12352619Y-13203667D01*
X12362143Y-13222714D01*
X12362143Y-13327476D01*
X12362143Y-13222714D02*
X12371667Y-13203667D01*
X12390714Y-13194143D01*
X12419286Y-13194143D01*
X12438333Y-13203667D01*
X12447857Y-13222714D01*
X12447857Y-13327476D01*
X12838333Y-13117952D02*
X12666905Y-13375095D01*
X13095476Y-13127476D02*
X13114524Y-13127476D01*
X13133571Y-13137000D01*
X13143095Y-13146524D01*
X13152619Y-13165571D01*
X13162143Y-13203667D01*
X13162143Y-13251286D01*
X13152619Y-13289381D01*
X13143095Y-13308428D01*
X13133571Y-13317952D01*
X13114524Y-13327476D01*
X13095476Y-13327476D01*
X13076428Y-13317952D01*
X13066905Y-13308428D01*
X13057381Y-13289381D01*
X13047857Y-13251286D01*
X13047857Y-13203667D01*
X13057381Y-13165571D01*
X13066905Y-13146524D01*
X13076428Y-13137000D01*
X13095476Y-13127476D01*
X13247857Y-13308428D02*
X13257381Y-13317952D01*
X13247857Y-13327476D01*
X13238333Y-13317952D01*
X13247857Y-13308428D01*
X13247857Y-13327476D01*
X13381190Y-13127476D02*
X13400238Y-13127476D01*
X13419286Y-13137000D01*
X13428809Y-13146524D01*
X13438333Y-13165571D01*
X13447857Y-13203667D01*
X13447857Y-13251286D01*
X13438333Y-13289381D01*
X13428809Y-13308428D01*
X13419286Y-13317952D01*
X13400238Y-13327476D01*
X13381190Y-13327476D01*
X13362143Y-13317952D01*
X13352619Y-13308428D01*
X13343095Y-13289381D01*
X13333571Y-13251286D01*
X13333571Y-13203667D01*
X13343095Y-13165571D01*
X13352619Y-13146524D01*
X13362143Y-13137000D01*
X13381190Y-13127476D01*
X13514524Y-13127476D02*
X13638333Y-13127476D01*
X13571667Y-13203667D01*
X13600238Y-13203667D01*
X13619286Y-13213190D01*
X13628809Y-13222714D01*
X13638333Y-13241762D01*
X13638333Y-13289381D01*
X13628809Y-13308428D01*
X13619286Y-13317952D01*
X13600238Y-13327476D01*
X13543095Y-13327476D01*
X13524048Y-13317952D01*
X13514524Y-13308428D01*
X13733571Y-13327476D02*
X13771667Y-13327476D01*
X13790714Y-13317952D01*
X13800238Y-13308428D01*
X13819286Y-13279857D01*
X13828809Y-13241762D01*
X13828809Y-13165571D01*
X13819286Y-13146524D01*
X13809762Y-13137000D01*
X13790714Y-13127476D01*
X13752619Y-13127476D01*
X13733571Y-13137000D01*
X13724048Y-13146524D01*
X13714524Y-13165571D01*
X13714524Y-13213190D01*
X13724048Y-13232238D01*
X13733571Y-13241762D01*
X13752619Y-13251286D01*
X13790714Y-13251286D01*
X13809762Y-13241762D01*
X13819286Y-13232238D01*
X13828809Y-13213190D01*
X14000238Y-13194143D02*
X14000238Y-13327476D01*
X13952619Y-13117952D02*
X13905000Y-13260809D01*
X14028809Y-13260809D01*
X14095476Y-13127476D02*
X14095476Y-13165571D01*
X14171667Y-13127476D02*
X14171667Y-13165571D01*
X14466905Y-13403667D02*
X14457381Y-13394143D01*
X14438333Y-13365571D01*
X14428809Y-13346524D01*
X14419286Y-13317952D01*
X14409762Y-13270333D01*
X14409762Y-13232238D01*
X14419286Y-13184619D01*
X14428809Y-13156048D01*
X14438333Y-13137000D01*
X14457381Y-13108428D01*
X14466905Y-13098905D01*
X14524048Y-13127476D02*
X14647857Y-13127476D01*
X14581190Y-13203667D01*
X14609762Y-13203667D01*
X14628809Y-13213190D01*
X14638333Y-13222714D01*
X14647857Y-13241762D01*
X14647857Y-13289381D01*
X14638333Y-13308428D01*
X14628809Y-13317952D01*
X14609762Y-13327476D01*
X14552619Y-13327476D01*
X14533571Y-13317952D01*
X14524048Y-13308428D01*
X14724048Y-13146524D02*
X14733571Y-13137000D01*
X14752619Y-13127476D01*
X14800238Y-13127476D01*
X14819286Y-13137000D01*
X14828809Y-13146524D01*
X14838333Y-13165571D01*
X14838333Y-13184619D01*
X14828809Y-13213190D01*
X14714524Y-13327476D01*
X14838333Y-13327476D01*
X15076428Y-13327476D02*
X15076428Y-13127476D01*
X15162143Y-13327476D02*
X15162143Y-13222714D01*
X15152619Y-13203667D01*
X15133571Y-13194143D01*
X15105000Y-13194143D01*
X15085952Y-13203667D01*
X15076428Y-13213190D01*
X15285952Y-13327476D02*
X15266905Y-13317952D01*
X15257381Y-13308428D01*
X15247857Y-13289381D01*
X15247857Y-13232238D01*
X15257381Y-13213190D01*
X15266905Y-13203667D01*
X15285952Y-13194143D01*
X15314524Y-13194143D01*
X15333571Y-13203667D01*
X15343095Y-13213190D01*
X15352619Y-13232238D01*
X15352619Y-13289381D01*
X15343095Y-13308428D01*
X15333571Y-13317952D01*
X15314524Y-13327476D01*
X15285952Y-13327476D01*
X15466905Y-13327476D02*
X15447857Y-13317952D01*
X15438333Y-13298905D01*
X15438333Y-13127476D01*
X15619286Y-13317952D02*
X15600238Y-13327476D01*
X15562143Y-13327476D01*
X15543095Y-13317952D01*
X15533571Y-13298905D01*
X15533571Y-13222714D01*
X15543095Y-13203667D01*
X15562143Y-13194143D01*
X15600238Y-13194143D01*
X15619286Y-13203667D01*
X15628809Y-13222714D01*
X15628809Y-13241762D01*
X15533571Y-13260809D01*
X15705000Y-13317952D02*
X15724048Y-13327476D01*
X15762143Y-13327476D01*
X15781190Y-13317952D01*
X15790714Y-13298905D01*
X15790714Y-13289381D01*
X15781190Y-13270333D01*
X15762143Y-13260809D01*
X15733571Y-13260809D01*
X15714524Y-13251286D01*
X15705000Y-13232238D01*
X15705000Y-13222714D01*
X15714524Y-13203667D01*
X15733571Y-13194143D01*
X15762143Y-13194143D01*
X15781190Y-13203667D01*
X15857381Y-13403667D02*
X15866905Y-13394143D01*
X15885952Y-13365571D01*
X15895476Y-13346524D01*
X15905000Y-13317952D01*
X15914524Y-13270333D01*
X15914524Y-13232238D01*
X15905000Y-13184619D01*
X15895476Y-13156048D01*
X15885952Y-13137000D01*
X15866905Y-13108428D01*
X15857381Y-13098905D01*
D15*
X10820000Y-13576000D02*
X10895000Y-13501000D01*
X10820000Y-13426000D01*
X10745000Y-13501000D01*
X10820000Y-13576000D01*
D11*
X11257381Y-13591476D02*
X11143095Y-13591476D01*
X11200238Y-13591476D02*
X11200238Y-13391476D01*
X11181190Y-13420048D01*
X11162143Y-13439095D01*
X11143095Y-13448619D01*
X11343095Y-13572428D02*
X11352619Y-13581952D01*
X11343095Y-13591476D01*
X11333571Y-13581952D01*
X11343095Y-13572428D01*
X11343095Y-13591476D01*
X11533571Y-13391476D02*
X11438333Y-13391476D01*
X11428809Y-13486714D01*
X11438333Y-13477190D01*
X11457381Y-13467667D01*
X11505000Y-13467667D01*
X11524048Y-13477190D01*
X11533571Y-13486714D01*
X11543095Y-13505762D01*
X11543095Y-13553381D01*
X11533571Y-13572428D01*
X11524048Y-13581952D01*
X11505000Y-13591476D01*
X11457381Y-13591476D01*
X11438333Y-13581952D01*
X11428809Y-13572428D01*
X11666905Y-13391476D02*
X11685952Y-13391476D01*
X11705000Y-13401000D01*
X11714524Y-13410524D01*
X11724048Y-13429571D01*
X11733571Y-13467667D01*
X11733571Y-13515286D01*
X11724048Y-13553381D01*
X11714524Y-13572428D01*
X11705000Y-13581952D01*
X11685952Y-13591476D01*
X11666905Y-13591476D01*
X11647857Y-13581952D01*
X11638333Y-13572428D01*
X11628809Y-13553381D01*
X11619286Y-13515286D01*
X11619286Y-13467667D01*
X11628809Y-13429571D01*
X11638333Y-13410524D01*
X11647857Y-13401000D01*
X11666905Y-13391476D01*
X11857381Y-13391476D02*
X11876428Y-13391476D01*
X11895476Y-13401000D01*
X11905000Y-13410524D01*
X11914524Y-13429571D01*
X11924048Y-13467667D01*
X11924048Y-13515286D01*
X11914524Y-13553381D01*
X11905000Y-13572428D01*
X11895476Y-13581952D01*
X11876428Y-13591476D01*
X11857381Y-13591476D01*
X11838333Y-13581952D01*
X11828809Y-13572428D01*
X11819286Y-13553381D01*
X11809762Y-13515286D01*
X11809762Y-13467667D01*
X11819286Y-13429571D01*
X11828809Y-13410524D01*
X11838333Y-13401000D01*
X11857381Y-13391476D01*
X12009762Y-13591476D02*
X12009762Y-13458143D01*
X12009762Y-13477190D02*
X12019286Y-13467667D01*
X12038333Y-13458143D01*
X12066905Y-13458143D01*
X12085952Y-13467667D01*
X12095476Y-13486714D01*
X12095476Y-13591476D01*
X12095476Y-13486714D02*
X12105000Y-13467667D01*
X12124048Y-13458143D01*
X12152619Y-13458143D01*
X12171667Y-13467667D01*
X12181190Y-13486714D01*
X12181190Y-13591476D01*
X12276428Y-13591476D02*
X12276428Y-13458143D01*
X12276428Y-13477190D02*
X12285952Y-13467667D01*
X12305000Y-13458143D01*
X12333571Y-13458143D01*
X12352619Y-13467667D01*
X12362143Y-13486714D01*
X12362143Y-13591476D01*
X12362143Y-13486714D02*
X12371667Y-13467667D01*
X12390714Y-13458143D01*
X12419286Y-13458143D01*
X12438333Y-13467667D01*
X12447857Y-13486714D01*
X12447857Y-13591476D01*
X12838333Y-13381952D02*
X12666905Y-13639095D01*
X13095476Y-13391476D02*
X13114524Y-13391476D01*
X13133571Y-13401000D01*
X13143095Y-13410524D01*
X13152619Y-13429571D01*
X13162143Y-13467667D01*
X13162143Y-13515286D01*
X13152619Y-13553381D01*
X13143095Y-13572428D01*
X13133571Y-13581952D01*
X13114524Y-13591476D01*
X13095476Y-13591476D01*
X13076428Y-13581952D01*
X13066905Y-13572428D01*
X13057381Y-13553381D01*
X13047857Y-13515286D01*
X13047857Y-13467667D01*
X13057381Y-13429571D01*
X13066905Y-13410524D01*
X13076428Y-13401000D01*
X13095476Y-13391476D01*
X13247857Y-13572428D02*
X13257381Y-13581952D01*
X13247857Y-13591476D01*
X13238333Y-13581952D01*
X13247857Y-13572428D01*
X13247857Y-13591476D01*
X13381190Y-13391476D02*
X13400238Y-13391476D01*
X13419286Y-13401000D01*
X13428809Y-13410524D01*
X13438333Y-13429571D01*
X13447857Y-13467667D01*
X13447857Y-13515286D01*
X13438333Y-13553381D01*
X13428809Y-13572428D01*
X13419286Y-13581952D01*
X13400238Y-13591476D01*
X13381190Y-13591476D01*
X13362143Y-13581952D01*
X13352619Y-13572428D01*
X13343095Y-13553381D01*
X13333571Y-13515286D01*
X13333571Y-13467667D01*
X13343095Y-13429571D01*
X13352619Y-13410524D01*
X13362143Y-13401000D01*
X13381190Y-13391476D01*
X13628809Y-13391476D02*
X13533571Y-13391476D01*
X13524048Y-13486714D01*
X13533571Y-13477190D01*
X13552619Y-13467667D01*
X13600238Y-13467667D01*
X13619286Y-13477190D01*
X13628809Y-13486714D01*
X13638333Y-13505762D01*
X13638333Y-13553381D01*
X13628809Y-13572428D01*
X13619286Y-13581952D01*
X13600238Y-13591476D01*
X13552619Y-13591476D01*
X13533571Y-13581952D01*
X13524048Y-13572428D01*
X13733571Y-13591476D02*
X13771667Y-13591476D01*
X13790714Y-13581952D01*
X13800238Y-13572428D01*
X13819286Y-13543857D01*
X13828809Y-13505762D01*
X13828809Y-13429571D01*
X13819286Y-13410524D01*
X13809762Y-13401000D01*
X13790714Y-13391476D01*
X13752619Y-13391476D01*
X13733571Y-13401000D01*
X13724048Y-13410524D01*
X13714524Y-13429571D01*
X13714524Y-13477190D01*
X13724048Y-13496238D01*
X13733571Y-13505762D01*
X13752619Y-13515286D01*
X13790714Y-13515286D01*
X13809762Y-13505762D01*
X13819286Y-13496238D01*
X13828809Y-13477190D01*
X14019286Y-13591476D02*
X13905000Y-13591476D01*
X13962143Y-13591476D02*
X13962143Y-13391476D01*
X13943095Y-13420048D01*
X13924048Y-13439095D01*
X13905000Y-13448619D01*
X14095476Y-13391476D02*
X14095476Y-13429571D01*
X14171667Y-13391476D02*
X14171667Y-13429571D01*
X14466905Y-13667667D02*
X14457381Y-13658143D01*
X14438333Y-13629571D01*
X14428809Y-13610524D01*
X14419286Y-13581952D01*
X14409762Y-13534333D01*
X14409762Y-13496238D01*
X14419286Y-13448619D01*
X14428809Y-13420048D01*
X14438333Y-13401000D01*
X14457381Y-13372428D01*
X14466905Y-13362905D01*
X14571667Y-13477190D02*
X14552619Y-13467667D01*
X14543095Y-13458143D01*
X14533571Y-13439095D01*
X14533571Y-13429571D01*
X14543095Y-13410524D01*
X14552619Y-13401000D01*
X14571667Y-13391476D01*
X14609762Y-13391476D01*
X14628809Y-13401000D01*
X14638333Y-13410524D01*
X14647857Y-13429571D01*
X14647857Y-13439095D01*
X14638333Y-13458143D01*
X14628809Y-13467667D01*
X14609762Y-13477190D01*
X14571667Y-13477190D01*
X14552619Y-13486714D01*
X14543095Y-13496238D01*
X14533571Y-13515286D01*
X14533571Y-13553381D01*
X14543095Y-13572428D01*
X14552619Y-13581952D01*
X14571667Y-13591476D01*
X14609762Y-13591476D01*
X14628809Y-13581952D01*
X14638333Y-13572428D01*
X14647857Y-13553381D01*
X14647857Y-13515286D01*
X14638333Y-13496238D01*
X14628809Y-13486714D01*
X14609762Y-13477190D01*
X14885952Y-13591476D02*
X14885952Y-13391476D01*
X14971667Y-13591476D02*
X14971667Y-13486714D01*
X14962143Y-13467667D01*
X14943095Y-13458143D01*
X14914524Y-13458143D01*
X14895476Y-13467667D01*
X14885952Y-13477190D01*
X15095476Y-13591476D02*
X15076428Y-13581952D01*
X15066905Y-13572428D01*
X15057381Y-13553381D01*
X15057381Y-13496238D01*
X15066905Y-13477190D01*
X15076428Y-13467667D01*
X15095476Y-13458143D01*
X15124048Y-13458143D01*
X15143095Y-13467667D01*
X15152619Y-13477190D01*
X15162143Y-13496238D01*
X15162143Y-13553381D01*
X15152619Y-13572428D01*
X15143095Y-13581952D01*
X15124048Y-13591476D01*
X15095476Y-13591476D01*
X15276428Y-13591476D02*
X15257381Y-13581952D01*
X15247857Y-13562905D01*
X15247857Y-13391476D01*
X15428809Y-13581952D02*
X15409762Y-13591476D01*
X15371667Y-13591476D01*
X15352619Y-13581952D01*
X15343095Y-13562905D01*
X15343095Y-13486714D01*
X15352619Y-13467667D01*
X15371667Y-13458143D01*
X15409762Y-13458143D01*
X15428809Y-13467667D01*
X15438333Y-13486714D01*
X15438333Y-13505762D01*
X15343095Y-13524809D01*
X15514524Y-13581952D02*
X15533571Y-13591476D01*
X15571667Y-13591476D01*
X15590714Y-13581952D01*
X15600238Y-13562905D01*
X15600238Y-13553381D01*
X15590714Y-13534333D01*
X15571667Y-13524809D01*
X15543095Y-13524809D01*
X15524048Y-13515286D01*
X15514524Y-13496238D01*
X15514524Y-13486714D01*
X15524048Y-13467667D01*
X15543095Y-13458143D01*
X15571667Y-13458143D01*
X15590714Y-13467667D01*
X15666905Y-13667667D02*
X15676428Y-13658143D01*
X15695476Y-13629571D01*
X15705000Y-13610524D01*
X15714524Y-13581952D01*
X15724048Y-13534333D01*
X15724048Y-13496238D01*
X15714524Y-13448619D01*
X15705000Y-13420048D01*
X15695476Y-13401000D01*
X15676428Y-13372428D01*
X15666905Y-13362905D01*
M02*
