M48
; DRILL file {KiCad (6.0.7)} date Mon Aug 22 17:31:38 2022
; FORMAT={-:-/ absolute / inch / decimal}
; #@! TF.CreationDate,2022-08-22T17:31:38+09:00
; #@! TF.GenerationSoftware,Kicad,Pcbnew,(6.0.7)
; #@! TF.FileFunction,Plated,1,2,PTH
FMAT,2
INCH
; #@! TA.AperFunction,Plated,PTH,ViaDrill
T1C0.0157
; #@! TA.AperFunction,Plated,PTH,ComponentDrill
T2C0.0315
; #@! TA.AperFunction,Plated,PTH,ComponentDrill
T3C0.0354
; #@! TA.AperFunction,Plated,PTH,ComponentDrill
T4C0.0394
; #@! TA.AperFunction,Plated,PTH,ComponentDrill
T5C0.0591
%
G90
G05
T1
X5.4724Y-4.3307
T2
X4.6531Y-2.6378
X4.6531Y-2.8346
X4.6531Y-3.0315
X4.7Y-4.0551
X4.7Y-4.252
X4.7Y-4.4488
X4.9531Y-2.6378
X4.9531Y-2.8346
X4.9531Y-3.0315
X5.0Y-4.0551
X5.0Y-4.252
X5.0Y-4.4488
X6.3067Y-4.0945
X6.3067Y-4.2126
X6.3067Y-4.3307
X6.4248Y-2.7559
X6.4248Y-2.9134
X6.4248Y-3.0709
X6.6067Y-4.0945
X6.6067Y-4.2126
X6.6067Y-4.3307
X6.7248Y-2.7559
X6.7248Y-2.9134
X6.7248Y-3.0709
X7.0079Y-2.8815
X7.0079Y-3.1815
X7.126Y-2.8815
X7.126Y-3.1815
T3
X5.0969Y-3.5827
X5.189Y-3.2571
X5.189Y-3.9083
X5.1969Y-3.5827
X5.2756Y-3.3071
X5.2756Y-3.8583
X5.4224Y-3.0236
X5.4224Y-4.1417
X5.4724Y-3.1102
X5.4724Y-4.0551
X5.748Y-2.9315
X5.748Y-3.0315
X5.748Y-4.1339
X5.748Y-4.2339
X6.0236Y-3.1102
X6.0236Y-4.0551
X6.0736Y-3.0236
X6.0736Y-4.1417
X6.2205Y-3.3071
X6.2205Y-3.8583
X6.2992Y-3.5827
X6.3071Y-3.2571
X6.3071Y-3.9083
X6.3992Y-3.5827
T4
X5.3094Y-4.4984
X5.4094Y-4.4984
X5.5094Y-4.4984
X5.6094Y-4.4984
X5.6693Y-2.5984
X5.7094Y-4.4984
X5.7693Y-2.5984
X5.8094Y-4.4984
X5.8693Y-2.5984
X5.9094Y-4.4984
X5.9693Y-2.5984
X6.0094Y-4.4984
X6.0693Y-2.5984
X6.1094Y-4.4984
X6.1693Y-2.5984
X6.2094Y-4.4984
X6.2693Y-2.5984
X6.3693Y-2.5984
X6.3693Y-4.4984
X6.4693Y-4.4984
X6.5693Y-2.5984
X6.5693Y-4.4984
X6.6693Y-2.5984
X6.6693Y-4.4984
X6.7693Y-2.5984
X6.7693Y-4.4984
X6.8693Y-2.5984
X6.8693Y-4.4984
X6.9693Y-2.5984
X6.9693Y-4.4984
X7.0693Y-2.5984
X7.0693Y-4.4984
T5
X6.6142Y-3.3268
X6.6142Y-3.8189
X6.811Y-3.3268
X6.811Y-3.8189
X6.9685Y-3.3268
X6.9685Y-3.8189
X7.1654Y-3.3268
X7.1654Y-3.8189
T0
M30
